<?xml version="1.0" encoding="UTF-8"?><svg id="Layer_6" xmlns="http://www.w3.org/2000/svg" viewBox="0 0 481.68 734.8"><path d="M48.86,594.72c-5.44,6.55-15.16,7.45-21.71,2.01-6.55-5.44-7.45-15.16-2.01-21.71s19.57-12.75,26.11-7.31c6.55,5.44,3.04,20.46-2.4,27.01Z" style="fill:#f7c434; stroke:#231f20; stroke-miterlimit:10;"/><path d="M49.82,574.18s3.22,10.43-9.51,20.83" style="fill:none; stroke:#231f20; stroke-miterlimit:10;"/><path d="M215.89,623.26c2.57,8.12-1.92,16.78-10.04,19.35-8.12,2.57-16.78-1.92-19.35-10.04s-.16-23.35,7.95-25.93c8.12-2.57,18.86,8.5,21.43,16.61Z" style="fill:#f7c434; stroke:#231f20; stroke-miterlimit:10;"/><path d="M199.09,608.1s1.16-.69,1.17-.67c.02,.03,1.48,2.7,1.5,2.74,.01,.03,1.81-1.1,1.84-1.06,.01,.02,.8,3.65,.83,3.69,.01,.02,2.3-1.37,2.32-1.34,.01,.02-.01,4.2,.01,4.24,.02,.04,2.67-1.61,2.7-1.56,.03,.05-.85,4.51-.81,4.57,.03,.05,3.05-1.8,3.06-1.77,.02,.04-1.61,5.07-1.58,5.13,.03,.05,3.49-2.11,3.53-2.04,.02,.04-2.77,6.25-2.73,6.31,.02,.04,4.31-2.59,4.36-2.51,.04,.06-4.71,6.2-4.66,6.28,.03,.05,5.26-3.09,5.28-3.05,.05,.08-7.4,8.14-7.36,8.2,.07,.11,7.1-4.21,7.15-4.13,.09,.15-14.08,11.63-13.98,11.82,.09,.15,12.15-7.2,12.23-7.06" style="fill:none; stroke:#231f20; stroke-linecap:round; stroke-linejoin:round; stroke-width:.72px;"/><path d="M59.08,559.13c-.13,0-.27-.03-.4-.08-.51-.22-.74-.81-.52-1.32l46.34-105.99c.22-.51,.81-.74,1.32-.52,.51,.22,.74,.81,.52,1.32l-46.34,105.99c-.16,.38-.53,.6-.92,.6Z" style="fill:#fff; stroke:#1d1d1b; stroke-miterlimit:10;"/><g><path d="M63.16,576.01l5.35,13.18c-2.64-.75-5.8-.98-9.51-.21-9.25,1.93-12.33,8.12-13.35,11.92-.39,1.44,.89,2.79,2.36,2.48l30.9-6.46,.79-17.36-16.54-3.54Z" style="fill:#ffc500; stroke:#221f20; stroke-miterlimit:10; stroke-width:1.13px;"/><path d="M63.87,545.12c-.24,.73-3.93,2.68-4.63,3.41-4.62,4.83-6.24,12.36-6.03,18.85-.06,9.76,11.86,6.91,9.4-1.96-2.46-8.87,1.26-20.28,1.26-20.29Z" style="fill:#ffc500; stroke:#221f20; stroke-miterlimit:10; stroke-width:1.13px;"/><path d="M81.95,541.34c.51,.58,4.68,.88,5.6,1.27,6.16,2.58,10.67,8.83,13.08,14.86,3.96,8.92-8.1,11.09-9.4,1.96-1.3-9.12-9.27-18.08-9.28-18.09Z" style="fill:#ffc500; stroke:#221f20; stroke-miterlimit:10; stroke-width:1.13px;"/><path d="M123.43,584.64c-2.46-3.07-7.75-7.51-17-5.57-3.96,.83-6.88,2.45-9.04,4.35l-1.65-17.92-12.06,13.23,7.68,15.59,30.9-6.46c1.46-.31,2.1-2.05,1.17-3.22Z" style="fill:#ffc500; stroke:#221f20; stroke-miterlimit:10; stroke-width:1.13px;"/><path d="M88.57,580.07c-2.03,1.6-4.41,2.75-7.04,3.31-1.88,.39-3.76,.45-5.59,.22" style="fill:#ffc500; stroke:#221f20; stroke-linecap:round; stroke-miterlimit:10; stroke-width:1.13px;"/><path d="M67.24,580.01c-4.18-3.1-7.37-7.94-8.59-13.77-2.42-11.6,3.89-22.73,14.1-24.86,10.21-2.13,20.45,5.54,22.88,17.14,.89,4.27,.6,8.47-.63,12.19" style="fill:#ffc500; stroke:#221f20; stroke-linecap:round; stroke-miterlimit:10; stroke-width:1.13px;"/><ellipse cx="79.9" cy="575.6" rx="12.11" ry="7.01" transform="translate(-116.09 28.53) rotate(-11.81)" style="fill:#ffc500;"/><path d="M81.23,537.97c2.49,.48,4.18,1.51,4.49,2.98,.61,2.92-4.5,6.46-11.41,7.9s-13.01,.25-13.62-2.67c-.22-1.07,.32-2.23,1.45-3.34" style="fill:#221f20;"/><path d="M66.76,588.79s1.61-.15,3.87,1.66" style="fill:none; stroke:#221f20; stroke-linecap:round; stroke-miterlimit:10; stroke-width:1.13px;"/><path d="M98.09,582.83s-1.45,1.16-1.92,2.67" style="fill:none; stroke:#221f20; stroke-linecap:round; stroke-miterlimit:10; stroke-width:1.13px;"/><line x1="73.75" y1="546.17" x2="78.79" y2="570.26" style="fill:none; stroke:#221f20; stroke-linecap:round; stroke-miterlimit:10; stroke-width:1.13px;"/></g><path d="M130.38,560.14c-45.65-14.9-89.76-5.18-98.54,21.71L1.59,668.62l132.61,51.59,56.57-73.33c.87-1,1.67-2.04,2.41-3.12l1.76-2.29-.28-.09c1-1.77,1.85-3.63,2.49-5.58,8.78-26.89-21.11-60.76-66.76-75.66Z" style="fill:#fc6870; stroke:#231f20; stroke-miterlimit:10;"/><path d="M188.58,598.15s.59-.39,.61-.35c.04,.07-4.54,8.62-4.54,8.63,.08,.15,6.67-3.97,6.72-3.88s-15.59,15.07-15.52,15.18c.05,.09,16.97-9.98,17.05-9.84,.06,.1-22.98,18.67-22.86,18.88s23.9-14.27,24.1-13.92c.08,.15-31.93,24.04-31.83,24.2,.18,.31,34.4-20.22,34.56-19.95,0,0-42.19,30.09-42.08,30.27,.19,.33,41.84-24.77,42.11-24.31,0,0-46.91,32.29-46.81,32.46,.33,.57,44.47-26.03,44.62-25.76,.04,.07-50.5,34-50.24,34.45,.09,.15,49.3-28.76,49.43-28.54,.25,.43-58.19,39.47-57.99,39.82,.25,.43,53.89-31.73,54.15-31.27,.29,.5-61.44,41.25-61.36,41.39,.27,.47,54-31.47,54.12-31.25,.27,.47-62.64,41.84-62.56,41.98,.31,.54,52.34-30.79,52.59-30.36,.22,.39-50.41,34.98-50.23,35.29,.07,.11,40.69-23.96,40.9-23.61,0,0-33.52,25.65-33.52,25.66,.08,.13,26.08-15.39,26.22-15.14,.1,.17-21.65,18.8-21.62,18.86,.05,.09,12.22-7.22,12.29-7.1,.03,.06-7.74,10.3-7.68,10.4,0,.02,1.46-.92,1.49-.86" style="fill:none; stroke:#231f20; stroke-linecap:round; stroke-linejoin:round; stroke-width:1.08px;"/><path d="M474.18,255.41c-4.2,15.03-10.27,29.1-17.93,42.06-6.39,10.83-13.9,20.9-22.35,30.1-5.91,6.45-12.28,12.47-19.07,18.06-.01,0-.03,.02-.04,.03-.84,.68-1.68,1.35-2.51,2.02-21.77,17.57-42.53,36.16-62.2,55.72-4.69,4.67-9.33,9.39-13.9,14.17-27.76,29.01-53.19,59.99-76.09,92.71l-153.98-43.06c-3.03-46.41-10.24-92.6-21.51-138.06-6.67-26.92-14.77-53.59-24.26-79.89-.37-1.01-.74-2.01-1.1-3.03,0-.01-.01-.03-.02-.05-2.88-8.23-5.19-16.62-6.9-25.13-2.48-12.32-3.69-24.88-3.53-37.54,.18-15.05,2.28-30.22,6.49-45.26,5.94-21.25,15.61-40.56,28.23-57.57,21.25-28.67,50.89-50.75,85.16-64.42C213.06-1.41,265.24-5.01,317.12,9.49c52.21,14.6,95.19,45.05,123.96,83.57,22.1,29.58,35.83,63.95,38.93,99.55,1.81,20.74,.01,41.91-5.83,62.8Z" style="fill:#f55254; stroke:#231f20; stroke-miterlimit:10;"/><path d="M155.44,75.87c23.15,3.31,40.47,12.41,42.85,13.71,12.88-25.04,29.1-46.1,46.97-60.99-3.31-2.25-29.55-18.74-76.37-11.59-34.62,13.81-63.98,36.02-84.89,64.23-4.49,6.05-8.56,12.35-12.21,18.86,28.87-25.69,61.29-27.42,83.65-24.22Z" style="fill:#f7c434; stroke:#231f20; stroke-miterlimit:10; stroke-width:.62px;"/><path d="M416.24,145.8c19.74,6.89,46.58,22.63,63.43,58.39-.09-3.82-.29-7.64-.62-11.47-3.05-35.02-16.47-69.34-38.8-99.26-20.23-17.81-38.66-25.08-50.55-28.05-12.43-3.1-20.45-2.27-21.05-2.2,7.5,21.93,10.41,48.23,8.47,76.16,3.98-.14,20.14-.21,39.13,6.43Z" style="fill:#f7c434; stroke:#231f20; stroke-miterlimit:10; stroke-width:.62px;"/><g><ellipse cx="186.64" cy="476.09" rx="31.09" ry="79.94" transform="translate(-322.12 527.63) rotate(-74.38)" style="fill:#231f20;"/><g><path d="M176.97,510.67c-46.54-13.01-77.47-37.69-71.96-57.41,5.51-19.72,44.76-24.77,91.3-11.76,46.54,13.01,77.47,37.69,71.96,57.41-5.51,19.72-44.76,24.77-91.3,11.76Zm16.75-59.89c-42.64-11.92-76.08-6.9-79.43,5.07s22.64,33.61,65.27,45.53c42.64,11.92,76.08,6.9,79.42-5.07s-22.64-33.61-65.27-45.53Z" style="fill:#f55254;"/><path d="M176.84,511.15c-46.81-13.09-77.9-38.04-72.31-58.03,5.59-19.99,45.11-25.19,91.92-12.1,46.81,13.09,77.9,38.04,72.31,58.03-5.59,19.99-45.11,25.19-91.92,12.1Zm19.34-69.17c-46.26-12.94-85.25-8.03-90.68,11.41-5.44,19.44,25.35,43.86,71.61,56.79,46.26,12.94,85.25,8.03,90.68-11.41,5.44-19.44-25.35-43.86-71.61-56.79Zm-16.75,59.89c-19.79-5.53-37.56-13.64-50.04-22.83-11.65-8.57-17.33-17.07-15.58-23.32s11.01-10.57,25.42-11.86c15.44-1.38,34.84,.91,54.63,6.44,19.79,5.53,37.56,13.64,50.04,22.83,11.65,8.57,17.33,17.07,15.58,23.32s-11.01,10.57-25.42,11.86c-15.44,1.38-34.84-.91-54.62-6.44Zm14.15-50.61c-42.35-11.84-75.53-7.01-78.81,4.73s22.57,33.07,64.93,44.92c42.35,11.84,75.53,7.01,78.81-4.73,3.28-11.74-22.57-33.07-64.93-44.92Z" style="fill:#231f20;"/></g></g><path d="M317.12,9.49S287.65,.37,245.81,28.22c0,0-26.36-19.7-77.15-11.92" style="fill:none; stroke:#231f20; stroke-miterlimit:10;"/><path d="M317.72,9.66s29.93,7.48,51.25,52.99c0,0,32.76-4.25,72.1,30.4" style="fill:none; stroke:#231f20; stroke-miterlimit:10;"/><path d="M336.18,417.57c10.54-11.23-22.66-49.11-61.3-46.36-23-37-81.8-45.49-109.65-30.07-49.27-21.52-76.09,7.35-76.09,7.35-8.2-42.44-29.89-102.25-29.89-102.25,0,0,46.82-25.2,109.69-3.66,32.26-18.7,131.9-3.67,151.05,47.7,42.12,3.49,78.38,31.15,83.54,64.57,0,0-41.04,33.84-67.34,62.71Z" style="fill:#f7c434; stroke:#231f20; stroke-miterlimit:10;"/><path d="M157.26,433.57s7.71-47.81,10.88-170.27c3.16-122.45,30.1-173.35,30.1-173.35,0,0-71.76-40.92-128.42,12.3" style="fill:none; stroke:#231f20; stroke-miterlimit:10;"/><path d="M233.46,454.88s18.21-44.88,79.02-151.21c60.81-106.34,64.19-163.82,64.19-163.82,0,0,71.66-5.24,103.99,66.59" style="fill:none; stroke:#231f20; stroke-miterlimit:10;"/><path d="M377.16,140.86c-17.3-19.46-47.44-37.27-84-47.49-35.82-10.02-70.15-10.61-94.93-3.41,13.18-25.75,29.7-46.96,47.58-61.74,19.22-.68,40.96,1.91,63.28,8.15,22.94,6.42,43.36,15.82,59.66,26.73,7.56,22.02,10.6,48.83,8.4,77.76Z" style="fill:#f7c434; stroke:#231f20; stroke-miterlimit:10;"/><path d="M360.56,26.52c.09,.16,1.19-.82,1.25-.72,.02,.04,2.25,4.31,2.28,4.35,.05,.1,2.75-1.85,2.86-1.65,.02,.04,.84,5.68,.88,5.74,.09,.16,4.53-2.89,4.65-2.68,.02,.04-1.48,6.34-1.45,6.4,.16,.27,6.14-3.73,6.22-3.59,.06,.11-2.91,7.67-2.88,7.71,.07,.12,7.79-4.83,7.93-4.58,.04,.07-5.05,8.37-5.02,8.44,.17,.3,9.4-5.68,9.51-5.49,.05,.09-6.84,9.23-6.77,9.36,.18,.32,10.98-6.56,11.08-6.39,.05,.09-8.22,10.71-8.15,10.84,.13,.22,12.77-7.58,12.86-7.42s-10.47,11.32-10.41,11.43c.23,.4,14.36-8.51,14.46-8.35,.07,.12-11.91,12.91-11.85,13.01,.25,.43,16.21-9.65,16.33-9.43,.08,.14-14.22,13.59-14.13,13.75,.19,.32,17.95-10.65,18.08-10.44,.16,.27-16.08,14.79-15.96,15.01,.25,.44,19.7-11.9,19.93-11.51,.17,.29-17.9,16.48-17.82,16.6,.29,.51,21.81-13.1,22.03-12.72,.16,.27-20.42,17.34-20.26,17.62,.2,.35,23.85-14.32,24.09-13.91,.21,.36-22.9,17.93-22.69,18.3,.18,.32,25.83-15.2,25.95-14.98,.1,.18-24.6,20.16-24.52,20.3,.24,.42,28.14-16.55,28.27-16.32,.15,.27-27.26,21.22-27.14,21.41,.3,.51,30.16-18.28,30.54-17.63,.26,.45-29.75,22.67-29.64,22.86,.32,.55,32.76-19.32,32.94-19.02,.27,.47-32.5,24.38-32.23,24.85s35.43-21.04,35.68-20.6c.16,.28-35.57,25.55-35.28,26.04,.32,.55,38.16-22.4,38.32-22.13,.2,.35-38.24,27.25-38.05,27.56,.44,.77,40.54-24.37,40.96-23.65,.19,.33-40.9,29.41-40.77,29.63,.2,.35,43.57-25.73,43.82-25.3,.4,.69-44.16,30.88-43.77,31.56,.25,.42,46.48-27.56,46.79-27.02,.25,.44-47.02,32.33-46.86,32.61,.21,.36,49.19-28.96,49.43-28.54,.34,.58-49.88,34.01-49.61,34.47,.57,.98,51.95-30.58,52.21-30.14,.29,.5-52.91,34.86-52.5,35.57s54.54-31.95,54.74-31.6c.22,.38-55.4,36.89-55.16,37.3,.57,.98,57.13-33.6,57.4-33.14,.52,.9-58.21,38.88-57.99,39.28,.45,.78,59.66-35.84,60.26-34.79,.19,.33-61.28,41.09-61.06,41.46,.45,.77,63.03-37.18,63.38-36.59,.24,.42-64.72,42-64.29,42.76,.64,1.11,65.65-39.35,66.28-38.27,.31,.54-67.93,43.87-67.41,44.77,.32,.56,68.7-41.2,69.37-40.05,.57,.98-70.92,46.2-70.69,46.61,.71,1.23,72.25-42.32,72.51-41.86,.48,.84-74.34,47.79-74.01,48.35,.29,.51,75.31-44.29,75.66-43.68,.44,.76-77.82,49.98-77.48,50.58,.73,1.27,78.48-46.69,79.08-45.65,.43,.74-81.86,51.77-81.23,52.87,.82,1.41,82.04-48.97,82.73-47.76,.26,.45-85.45,54.25-85.1,54.85,.86,1.49,85.6-51.28,86.41-49.89,.32,.56-89.91,55.9-89.15,57.22,.84,1.45,89.87-52.98,90.35-52.16,.36,.62-94.16,59.2-93.66,60.07,.84,1.46,94.29-55.51,94.75-54.71,.68,1.18-99.29,61.2-98.46,62.64,.57,.99,99.05-57.95,99.38-57.38,.63,1.09-104.11,64.19-103.53,65.19s103.27-61.89,104.25-60.19c.42,.73-110.3,67.33-109.42,68.84,.89,1.54,109.12-65.12,110.04-63.53,.4,.7-116.62,70.95-115.85,72.27,.72,1.24,115.63-68.29,116.3-67.14,.68,1.18-123.63,75.98-123.25,76.65,1.1,1.91,122.81-72.62,123.55-71.33,.43,.75-132.07,80.54-131.56,81.41,.6,1.04,130.66-77.86,131.71-76.04,.53,.92-142.37,86-141.48,87.54,1.22,2.11,140.81-82.77,141.45-81.67,1.31,2.26-152.72,92.01-151.9,93.43,.91,1.57,151.2-88.41,151.68-87.57,1.14,1.98-162,97.48-161.39,98.54,1.25,2.16,159.85-94.93,160.99-92.95,1.36,2.36-170.7,102.1-169.8,103.66,.6,1.04,168.6-98.66,169.17-97.67,.91,1.57-178.37,105.66-177.05,107.94s174.62-104.41,176.18-101.72c1.13,1.96-184.06,108.28-182.65,110.72,.8,1.39,181.03-105.89,181.62-104.86,.82,1.43-189.62,112.92-188.44,114.95,1.71,2.96,186.3-109.03,186.94-107.93,.58,1.01-194.09,114.61-192.71,117,1.71,2.95,190.13-111.71,190.97-110.26,1.29,2.23-196.63,116.83-195.8,118.26,.6,1.04,192.45-114.5,193.92-111.96,.94,1.62-199.7,119.86-199.07,120.96,1.78,3.09,195.36-115.39,196.49-113.44,.71,1.23-201.63,120.64-201,121.74,1.52,2.64,196.77-116.65,198.08-114.36,.75,1.29-203.95,121.28-202.74,123.39s197.53-117.09,198.85-114.8c.91,1.58-204.69,120.25-202.97,123.23,1.65,2.86,197.21-116.74,198.46-114.58,.8,1.39-202.86,120.53-201.96,122.09s195.62-116.14,197.01-113.74-201.73,120.04-200.65,121.92c.69,1.19,192.79-113.75,193.85-111.92,1.38,2.4-198.8,116.65-197.1,119.59,1.08,1.87,187-111.87,188.69-108.94,1.23,2.13-193.19,113.91-191.73,116.44,1.04,1.81,179.3-105.15,180.01-103.93,1.23,2.14-183.9,109.55-182.88,111.32,1.18,2.05,161.42-96.08,162.67-93.91,.62,1.07-166.16,99.37-165.26,100.92,.95,1.65,143.8-85.93,145.06-83.75,.74,1.28-148.14,89.92-147.59,90.87,1.14,1.98,129.32-76.97,130.32-75.24,.54,.93-133.8,80.48-132.73,82.33,.51,.89,117.14-68.88,117.68-67.94,.91,1.58-120.17,73.77-119.79,74.43,.5,.87,106.95-62.83,107.42-62.02,.39,.67-110.61,68.09-109.76,69.55,.57,.99,96.09-56.9,96.7-55.83,.81,1.4-99.44,61.19-98.69,62.49,.54,.94,87.76-51.39,88.07-50.85,.26,.45-84.53,52.62-83.89,53.73s73.98-43.84,74.47-42.99c.33,.57-68.54,44.07-68.14,44.76,.58,1,58.67-35.05,59.18-34.17,.46,.8-53.26,35.24-52.87,35.93,.3,.51,44.32-26,44.5-25.69,.26,.45-37.72,27.13-37.41,27.67,.17,.29,28.37-16.97,28.62-16.52,.1,.18-21.86,18.22-21.73,18.45,.23,.4,13.53-8.31,13.74-7.94" style="fill:none; stroke:#231f20; stroke-linecap:round; stroke-linejoin:round; stroke-width:1.44px;"/><ellipse cx="69.81" cy="690.88" rx="39.2" ry="71.77" transform="translate(-608.63 542.87) rotate(-71.92)" style="fill:#a3343a; stroke:#231f20; stroke-miterlimit:10;"/><polygon points="70.73 555.21 48.77 603.36 68.89 554.42 70.73 555.21 70.73 555.21" style="fill:#231f20;"/><polygon points="81.01 555.2 69.81 579.09 79.17 554.42 81.01 555.2 81.01 555.2" style="fill:#231f20;"/><path d="M155.89,690.53c2.85-10.25-3.33-20.58-9.84-28.13-2.07-2.3-5.24-5.33-7.59-7.4l4.09,3.4c7.84,7.09,15.25,16.23,15.8,27.24,.07,1.86-.01,3.65-.59,5.62l-1.87-.71h0Z" style="fill:#231f20;"/><path d="M178.7,660.88c4.21-6.86-3-16.47-7.55-21.55l-2.49-2.64,2.67,2.47c5.26,5.28,11.27,12.06,10.1,20.09-.26,1.08-.49,1.92-1.2,2.92l-1.53-1.29h0Z" style="fill:#231f20;"/><path d="M169.67,672.86c.12-11.06-6.58-21.11-14.21-28.63l-3.54-3.2,3.71,3.02c6.6,5.83,12.28,13.06,14.84,21.61,.71,2.41,1.2,4.75,1.2,7.36l-1.99-.15h0Z" style="fill:#231f20;"/><path d="M189.8,646.63c3.31-15.68-5.52-31.43-17.72-40.9-4.11-3.32-8.62-6.15-13.32-8.6,4.77,2.3,9.38,4.99,13.62,8.21,10.72,7.9,19.07,19.99,19.82,33.59,.16,2.73,.1,5.4-.47,8.2l-1.94-.5h0Z" style="fill:#231f20;"/><ellipse cx="67.59" cy="521.68" rx="33.25" ry="27.63" transform="translate(-105.32 24.87) rotate(-11.81)" style="fill:#37324c; stroke:#231f20; stroke-miterlimit:10; stroke-width:.96px;"/><path d="M78.55,542.66c-17.97,3.76-35.08-5.31-38.2-20.25-1.51-7.24,.54-14.54,5.11-20.56-8,6.69-12.22,16.34-10.22,25.9,3.12,14.94,20.23,24,38.2,20.25,9.26-1.94,16.93-6.9,21.78-13.29-4.5,3.77-10.2,6.6-16.67,7.95Z" style="fill:#28253a;"/><path d="M35.9,508.64s-.64-18.7,6.51-23.8c7.14-5.09,38.22-19.77,42.19-18.91,2.79,.61,16.32,10.18,24.11,15.81,1.43,1.03,.5,3.29-1.24,3.02l-13.01-1.97-8.72,6.92,4.33,7.78-54.16,11.13Z" style="fill:#ffc500; stroke:#221f20; stroke-miterlimit:10; stroke-width:1.01px;"/><path d="M41.25,497.05c2.39-1.14,4.82-2.17,7.28-3.08,2.78-1.03,5.6-1.91,8.45-2.64,.92-.24,1.01-1.52,.12-1.87-1.7-.66-4.67-1.27-9.73-1.02" style="fill:none; stroke:#d64e00; stroke-linecap:round; stroke-miterlimit:10; stroke-width:.96px;"/><path d="M38.18,498.59c-2.52,1.33-3.51,4.39-2.33,6.93-.18,.09-.37,.18-.55,.27-4.68,2.32-6.45,8.1-3.96,12.69,.5,.92,1,1.85,1.5,2.77h0l.68,1.26h0c.51-.31,1.03-.62,1.55-.92,.28-.16,.57-.33,.85-.49,.32-.19,.65-.37,.98-.55,.29-.16,.57-.32,.86-.47,.33-.18,.65-.35,.98-.53,.29-.15,.58-.3,.87-.46,.33-.17,.66-.34,.99-.5,.29-.15,.59-.29,.88-.44,.33-.16,.66-.32,1-.48,.29-.14,.59-.28,.89-.42,.33-.16,.67-.31,1-.46,.3-.13,.6-.27,.89-.4,.34-.15,.68-.29,1.02-.44,.3-.13,.6-.25,.9-.38,.34-.14,.69-.28,1.03-.42,.3-.12,.6-.24,.9-.36,.35-.14,.69-.27,1.04-.4,.3-.11,.6-.23,.9-.34,.35-.13,.7-.25,1.05-.38,.3-.11,.6-.21,.9-.32,.36-.12,.72-.24,1.07-.36,.3-.1,.59-.2,.89-.29,.37-.12,.73-.23,1.1-.34,.29-.09,.58-.18,.88-.27,.38-.11,.76-.22,1.13-.33,.28-.08,.57-.16,.85-.24,.4-.11,.8-.21,1.2-.32,.27-.07,.53-.14,.8-.21,.44-.11,.89-.22,1.34-.32,.22-.05,.45-.11,.67-.16,.67-.15,1.34-.3,2.01-.44h0c.67-.14,1.35-.27,2.02-.4,.23-.04,.45-.08,.68-.12,.45-.08,.9-.16,1.35-.24,.27-.04,.54-.08,.81-.13,.41-.06,.82-.13,1.23-.19,.29-.04,.58-.08,.88-.12,.39-.05,.78-.11,1.17-.15,.3-.04,.61-.07,.91-.1,.38-.04,.76-.09,1.14-.13,.31-.03,.62-.06,.93-.09,.38-.03,.75-.07,1.13-.1,.32-.03,.63-.05,.95-.07,.37-.03,.75-.05,1.12-.08,.32-.02,.64-.03,.96-.05,.37-.02,.74-.04,1.11-.05,.32-.01,.64-.02,.96-.03,.37-.01,.74-.02,1.11-.03,.32,0,.65,0,.97-.01,.37,0,.74,0,1.11,0,.33,0,.65,0,.98,0,.37,0,.74,.01,1.11,.02,.33,0,.65,.02,.98,.03,.37,.01,.74,.03,1.11,.04,.33,.01,.65,.03,.98,.05,.37,.02,.74,.04,1.11,.07,.33,.02,.65,.04,.98,.07,.37,.03,.74,.06,1.11,.09,.33,.03,.65,.06,.98,.09,.37,.04,.74,.07,1.12,.11,.32,.03,.65,.07,.97,.11,.24,.03,.48,.06,.72,.09l1.18-1.29h0l.03-1.68c.28-1.15,.34-2.29,.2-3.37-.3-2.5-1.6-4.72-3.51-6.21-1.43-1.12-3.21-1.82-5.16-1.92-.21-.01-.41-.02-.62-.03,.07-2.81-2.07-5.21-4.91-5.42,0,0-5.63-1.76-19.95,1.24" style="fill:#ffc500; stroke:#221f20; stroke-miterlimit:10; stroke-width:.96px;"/><path d="M43.24,502.24s-3.39,1.05-6.66,2.9" style="fill:none; stroke:#d64e00; stroke-linecap:round; stroke-miterlimit:10; stroke-width:.96px;"/><path d="M81.58,494.22s3.53-.4,7.26-.01" style="fill:none; stroke:#d64e00; stroke-linecap:round; stroke-miterlimit:10; stroke-width:.96px;"/><path d="M98.3,503.44c-.45-.17-11.26-4.2-34.62,.68-.2,.04-.39,.09-.59,.13h0l-.94,.19h0c-14.96,3.32-23.44,7.88-27.47,10.61l-.24,.14v.02c-1.78,1.23-2.63,2.05-2.73,2.15l-.34,.34,.68,.68,.34-.34s.72-.71,2.28-1.8c.14-.1,.34-.06,.43,.1l1.98,3.51,.83-.47-2.04-3.61c-.08-.14-.04-.31,.09-.39,.94-.6,2.07-1.28,3.43-2,.16-.08,.32-.17,.49-.26,.15-.08,.33-.02,.4,.13l1.93,3.98,.86-.42-1.94-4c-.07-.15-.01-.32,.13-.39,1.15-.56,2.46-1.15,3.94-1.76,.15-.06,.32,0,.38,.15l1.99,4.24,.87-.41-1.95-4.16c-.07-.15,0-.34,.16-.4,1.26-.49,2.63-1,4.11-1.49,.15-.05,.32,.03,.37,.17l1.6,4.25,.9-.34-1.58-4.18c-.06-.16,.02-.33,.18-.38,1.29-.41,2.67-.82,4.12-1.22,.15-.04,.32,.05,.36,.2l1.25,4.17,.92-.28-1.24-4.13c-.05-.16,.04-.33,.2-.37,1.34-.35,2.74-.69,4.2-1.01,.16-.04,.32,.07,.36,.23l.89,4.28,.94-.2-.9-4.29,.23-.35c1.6-.34,3.14-.63,4.62-.89,.17-.03,.32,.09,.34,.26l.52,4.28,.95-.11-.52-4.35c-.02-.16,.09-.3,.25-.33,1.48-.24,2.9-.44,4.26-.6,.17-.02,.32,.11,.33,.28l.23,4.56,.96-.05-.24-4.66c0-.16,.11-.29,.27-.31,1.55-.16,3.01-.28,4.38-.36,.17-.01,.31,.13,.31,.3l-.14,4.49,.96,.03,.14-4.62c0-.15,.13-.28,.29-.29,1.57-.06,3.01-.08,4.32-.06,.17,0,.29,.14,.29,.31l-.22,4.51,.96,.05,.22-4.54c0-.16,.15-.29,.31-.28,.84,.03,1.62,.07,2.33,.13,.79,.06,1.53,.13,2.2,.22,.16,.02,.27,.17,.25,.33l-.54,4.37,.95,.12,.53-4.35c.02-.16,.18-.28,.34-.25,3.02,.47,4.53,1.03,4.55,1.04l.45,.17,.35-.89-.45-.17Z" style="fill:#d64e00;"/><line x1="94.29" y1="482" x2="94.24" y2="479.32" style="fill:none; stroke:#d64e00; stroke-linecap:round; stroke-miterlimit:10; stroke-width:.96px;"/><g><rect x="45.97" y="521.05" width="10.51" height="20.14" rx="5.25" ry="5.25" transform="translate(-107.59 21.72) rotate(-11.81)" style="fill:#fff; stroke:#221f20; stroke-miterlimit:10; stroke-width:1.02px;"/><rect x="72.19" y="515.57" width="10.51" height="20.14" rx="5.25" ry="5.25" transform="translate(-105.92 26.97) rotate(-11.81)" style="fill:#fff; stroke:#221f20; stroke-miterlimit:10; stroke-width:1.02px;"/></g><path d="M174.73,609.57c8.51-11.18-1.72-26.74-1.72-26.74" style="fill:none; stroke:#231f20; stroke-miterlimit:10;"/><path d="M257.32,223.49c-3.68-.94-7.07-2.85-9.79-5.5l-26.2-25.6c-5.53-5.4-7.77-13.4-5.85-20.89l9.08-35.49c1.91-7.48,7.72-13.43,15.16-15.51l35.27-9.89c3.66-1.03,7.54-1.07,11.23-.13,3.68,.94,7.07,2.84,9.79,5.5l26.2,25.6c5.52,5.4,7.77,13.4,5.85,20.89l-9.08,35.49c-1.91,7.48-7.72,13.43-15.16,15.51l-35.27,9.89c-3.66,1.03-7.54,1.07-11.23,.13Z" style="fill:#f7c434; stroke:#231f20; stroke-miterlimit:10;"/><path d="M219.7,166.98c-2.54,.81-5.38,.18-7.32-1.66,2.54-.82,5.37-.17,7.32,1.66h0Z" style="fill:#231f20;"/><path d="M324.46,189.38c-2.54,.81-5.38,.18-7.32-1.66,2.54-.82,5.37-.17,7.32,1.66h0Z" style="fill:#231f20;"/><path d="M288.85,213.52c3.43,.28,6.66,1.99,8.8,4.69-3.43-.27-6.65-2-8.8-4.69h0Z" style="fill:#231f20;"/><path d="M255.03,111.45c3.16,1.36,5.68,4,6.85,7.24-3.17-1.35-5.67-4.01-6.85-7.24h0Z" style="fill:#231f20;"/><path d="M250.63,113.4c3.16,1.36,5.68,4,6.85,7.24-3.17-1.35-5.67-4.01-6.85-7.24h0Z" style="fill:#231f20;"/><path d="M226.68,139.39c-1.86,1.07-4.21,.71-5.65-.89,1.86-1.08,4.21-.7,5.65,.89h0Z" style="fill:#231f20;"/><path d="M225.53,144.33c-1.86,1.07-4.21,.71-5.65-.89,1.86-1.08,4.21-.7,5.65,.89h0Z" style="fill:#231f20;"/><path d="M325.1,183.69c-1.86,1.07-4.21,.71-5.65-.89,1.86-1.08,4.21-.7,5.65,.89h0Z" style="fill:#231f20;"/><g><path d="M266.87,195.68l-8.92-3.03c-1.06-.36-2.22,.21-2.58,1.28l-1.51,4.46c-1.2,3.54,.69,7.37,4.22,8.57,3.53,1.2,7.36-.7,8.56-4.23l1.51-4.46c.36-1.07-.21-2.22-1.27-2.58h0Z" style="fill:#fff; stroke:#000; stroke-miterlimit:10;"/><path d="M281.01,132.84c-12.69-3.46-26.32,3.38-31.14,15.63-2.91,7.38-2.21,15.23,1.18,21.69h.02l.05,.13,1.22,2.05,5.12,8.64c.55,.93,1.42,1.63,2.45,1.96l11.03,3.6c1.03,.34,2.14,.29,3.14-.14l9.56-4.1,.29-.13,1.23-.53,.06-.02c6.29-2.97,11.39-8.4,13.71-15.51,4.61-14.09-3.48-29.33-17.92-33.28Zm-3.07,13.59c6.39,2.08,9.89,9,7.8,15.4s-8.99,9.91-15.38,7.82-9.89-9-7.8-15.39,9-9.92,15.38-7.83Z" style="fill:#fff; stroke:#000; stroke-miterlimit:10;"/></g><path d="M194.37,609.57c-.19,0-.39-.06-.56-.17-.46-.31-.57-.93-.26-1.39l70.35-103.02c.31-.46,.93-.57,1.39-.26,.46,.31,.57,.93,.26,1.39l-70.35,103.02c-.19,.28-.51,.44-.83,.44Z" style="fill:#fff; stroke:#1d1d1b; stroke-miterlimit:10;"/><path d="M119.55,558.06c-.09,0-.19-.01-.28-.04-.53-.16-.83-.71-.68-1.24l36.03-122.57c.16-.53,.71-.84,1.24-.68,.53,.16,.83,.71,.68,1.24l-36.03,122.57c-.13,.44-.53,.72-.96,.72Z" style="fill:#fff; stroke:#1d1d1b; stroke-miterlimit:10;"/><path d="M168.66,580.09c-.16,0-.31-.04-.46-.11-.49-.26-.68-.86-.42-1.35l64.8-124.21c.25-.49,.86-.68,1.35-.42,.49,.26,.68,.86,.42,1.35l-64.8,124.21c-.18,.34-.53,.54-.89,.54Z" style="fill:#fff; stroke:#1d1d1b; stroke-miterlimit:10;"/><path d="M183.08,600.58c0,8.51-6.9,15.41-15.41,15.41s-15.41-6.9-15.41-15.41,6.9-22.31,15.41-22.31,15.41,13.8,15.41,22.31Z" style="fill:#f7c434; stroke:#231f20; stroke-miterlimit:10;"/><path d="M119.6,582.75c-5.44,6.55-15.16,7.45-21.71,2.01-6.55-5.44-7.45-15.16-2.01-21.71s19.57-12.75,26.11-7.31,3.04,20.46-2.4,27.01Z" style="fill:#f7c434; stroke:#231f20; stroke-miterlimit:10;"/><path d="M376.85,124.56c-4.95-7.71-11.83-14.53-20.21-18.45,2.16,.87,4.32,1.82,6.32,3.06,6.09,3.67,11.33,8.59,15.58,14.31l-1.68,1.08h0Z" style="fill:#1d1d1b;"/><path d="M376.63,110.64c-5.65-9.03-15.22-15.29-24.96-19.26-1.44-.57-2.9-1.06-4.36-1.59,2.97,.88,5.95,1.78,8.8,3.01,5.77,2.39,11.2,5.62,15.9,9.76,2.35,2.11,4.54,4.33,6.37,7.1l-1.74,.99h0Z" style="fill:#1d1d1b;"/><path d="M377.26,107.86c11.03-1.56,22.02,1.75,31.69,6.83,1.36,.74,2.68,1.55,4.02,2.32-1.38-.7-2.74-1.43-4.14-2.1-6.94-3.23-14.49-5.42-22.15-5.74-3.02-.12-6.15,0-8.96,.64l-.47-1.94h0Z" style="fill:#1d1d1b;"/><path d="M374.61,92.4c-3.36-5.72-9.73-9.12-15.83-11.25l2.46,.64c5.77,1.75,11.57,4.59,15.13,9.67l-1.77,.94h0Z" style="fill:#1d1d1b;"/><path d="M374.24,90.27c6.48-2.81,13.87-1.76,20.39,.31l-2.49-.49c-5.59-.86-11.82-.87-16.88,1.89l-1.02-1.72h0Z" style="fill:#1d1d1b;"/><path d="M372.28,79.89c-4.78-7.74-13.66-12.06-21.92-15.18,6.68,1.9,13.29,4.61,18.76,8.98,1.89,1.58,3.58,3.12,4.94,5.29l-1.78,.91h0Z" style="fill:#1d1d1b;"/><path d="M369.75,171.05c-4-7.04-10.42-12.71-17.61-16.41,1.89,.82,3.78,1.69,5.55,2.76,5.44,3.2,10.24,7.41,13.8,12.68l-1.75,.98h0Z" style="fill:#1d1d1b;"/><path d="M334.18,157.11c-5.22-.57-10.26-2.26-14.73-5.03,5.27,.13,10.48,1.91,14.73,5.03h0Z" style="fill:#1d1d1b;"/><path d="M367.07,180.5c-4.29-6.68-10.99-11.61-17.54-15.97-1.69-1.08-5.19-3.16-6.96-4.12l3.64,1.78c7.19,3.76,14.28,8.13,19.92,14.04,.96,1.02,1.84,2.02,2.68,3.29l-1.74,.98h0Z" style="fill:#1d1d1b;"/><path d="M368.19,178.12c8.29,.6,15.91,4.23,23.12,8.08,1.76,.98,5.25,3.09,6.93,4.2-6.96-3.9-14.47-7.41-22.24-9.26-2.49-.57-5.24-1.08-7.73-1.02l-.08-2h0Z" style="fill:#1d1d1b;"/><path d="M363.77,191.02c-6.12-6.91-13.3-13.56-22.16-16.67,2.28,.59,4.49,1.47,6.62,2.51,6.36,3.28,11.98,7.77,17.03,12.84l-1.5,1.33h0Z" style="fill:#1d1d1b;"/><path d="M360.64,200.26c-2.55-4.07-6.15-7.65-10.41-9.94,3.52,1.31,6.7,3.45,9.44,6.01,.93,.88,1.79,1.76,2.63,2.81l-1.66,1.12h0Z" style="fill:#1d1d1b;"/><path d="M358.05,206.37c-2.55-4.07-6.15-7.65-10.41-9.94,3.52,1.31,6.7,3.45,9.44,6.01,.93,.88,1.79,1.76,2.63,2.81l-1.66,1.12h0Z" style="fill:#1d1d1b;"/><path d="M285.15,351.79c-5.34-7.73-13.31-13.8-22.27-16.73,2.3,.63,4.61,1.32,6.8,2.34,6.67,2.98,12.56,7.52,17.13,13.26l-1.65,1.12h0Z" style="fill:#1d1d1b;"/><path d="M281.41,358.54c-2.25-4.25-5.57-8.08-9.65-10.68,3.41,1.56,6.43,3.93,8.97,6.69,.86,.94,1.65,1.89,2.42,2.99l-1.73,1h0Z" style="fill:#1d1d1b;"/><path d="M299.25,325.97c-2.56-4.44-5.83-8.71-10.27-11.45,3.64,1.61,6.73,4.33,9.4,7.26,.9,1,1.75,2.01,2.56,3.13l-1.7,1.05h0Z" style="fill:#1d1d1b;"/><path d="M300.12,324.59c4.73,2.41,9.31,5.55,12.34,9.95-2.61-2.96-5.99-5.01-9.52-6.66-1.17-.53-2.38-1.04-3.56-1.43l.73-1.86h0Z" style="fill:#1d1d1b;"/><path d="M266.64,384.92c-2.86-4.25-6.43-8.28-11.05-10.69,3.74,1.35,7.02,3.84,9.89,6.58,.97,.93,1.88,1.88,2.78,2.95l-1.62,1.17h0Z" style="fill:#1d1d1b;"/><path d="M350.08,227.25c-3.7-6.05-9.68-10.64-16.03-13.73,1.69,.65,3.37,1.35,4.98,2.2,4.93,2.58,9.41,5.96,12.76,10.5l-1.72,1.03h0Z" style="fill:#1d1d1b;"/><path d="M345.48,237.84c-4.91-7.97-12.93-13.91-21.29-17.97-1.23-.59-2.49-1.1-3.74-1.66,2.57,.93,5.14,1.88,7.59,3.1,7.46,3.65,14.36,8.63,19.18,15.54l-1.74,.99h0Z" style="fill:#1d1d1b;"/><path d="M346.02,236.37c11.12,1.27,21.04,7.18,29.18,14.57-1.08-.83-2.14-1.69-3.24-2.49-7.57-5.4-16.62-9.59-25.97-10.09l.04-2h0Z" style="fill:#1d1d1b;"/><path d="M306.8,312.54c-2.74-8.95-9.01-16.72-16.08-22.75-1.04-.88-2.13-1.69-3.2-2.54,2.25,1.54,4.5,3.11,6.56,4.91,6.3,5.41,11.72,11.97,14.65,19.87l-1.93,.52h0Z" style="fill:#1d1d1b;"/><path d="M334.52,261.04c-5.16-9.78-14.47-16.86-24.04-22.07-1.42-.73-2.86-1.42-4.29-2.13,1.46,.64,2.94,1.24,4.4,1.91,8.72,4.11,16.93,9.69,22.97,17.31,1.01,1.3,1.94,2.59,2.77,4.14l-1.81,.84h0Z" style="fill:#1d1d1b;"/><path d="M312.61,301.48c-3.41-10.52-11.37-19.09-19.9-25.86-1.27-.96-2.57-1.89-3.86-2.83,1.33,.88,2.69,1.73,4.01,2.63,7.88,5.55,15.02,12.45,19.66,20.99,.77,1.46,1.47,2.89,2.02,4.55l-1.93,.52h0Z" style="fill:#1d1d1b;"/><path d="M263.5,393.13c-6.15-9.19-16.15-15.26-26.2-19.45-1.49-.58-2.99-1.11-4.49-1.67,1.52,.48,3.06,.93,4.58,1.44,9.1,3.18,17.85,7.87,24.64,14.83,1.14,1.19,2.2,2.38,3.19,3.83l-1.72,1.03h0Z" style="fill:#1d1d1b;"/><g><path d="M470.96,261.66c-1.74-9.34-8.33-17.22-15.58-23.04-2.51-2.01-5.22-3.74-7.96-5.42,2.83,1.54,5.64,3.13,8.26,5.02,6.28,4.47,11.81,10.24,15.21,17.24,.87,1.93,1.64,3.77,2.06,5.95l-1.98,.25h0Z" style="fill:#1d1d1b;"/><path d="M466.54,273.73c-1.92-10.17-9.46-18.45-17.59-24.42-1.22-.85-2.48-1.66-3.72-2.5,1.28,.76,2.58,1.5,3.86,2.29,6.95,4.49,13.21,10.36,17.02,17.81,1.07,2.12,1.92,4.15,2.42,6.56l-1.98,.26h0Z" style="fill:#1d1d1b;"/><path d="M460.72,287.51c-1.74-9.37-8.42-17.18-15.73-22.95-1.1-.83-2.23-1.61-3.35-2.42,1.16,.74,2.34,1.46,3.49,2.22,5.73,3.95,10.85,8.87,14.36,14.95,1.43,2.52,2.59,5.03,3.21,7.94l-1.98,.26h0Z" style="fill:#1d1d1b;"/><path d="M456.17,298.13c-1.57-8.58-7.38-15.9-13.87-21.47-.97-.8-1.98-1.57-2.97-2.35,1.04,.72,2.1,1.42,3.13,2.16,5.12,3.81,9.67,8.47,12.8,14.09,1.25,2.29,2.31,4.6,2.9,7.32l-1.98,.27h0Z" style="fill:#1d1d1b;"/><path d="M449.97,307.41c-1.37-7.75-6.37-14.66-12.02-20-.85-.78-1.73-1.52-2.59-2.28,1.85,1.38,3.7,2.78,5.38,4.37,5.14,4.83,9.49,10.65,11.22,17.64l-1.98,.27h0Z" style="fill:#1d1d1b;"/><path d="M442.68,315.99c-1.2-6.99-5.37-13.39-10.17-18.54-.72-.75-1.47-1.47-2.21-2.21,1.6,1.34,3.2,2.69,4.64,4.2,4.43,4.6,8.14,9.95,9.72,16.26l-1.98,.28h0Z" style="fill:#1d1d1b;"/><path d="M436.13,324.03c-1.04-6.26-4.4-12.14-8.33-17.07-.59-.72-1.21-1.42-1.81-2.13,1.34,1.3,2.68,2.61,3.89,4.04,3.71,4.36,6.8,9.23,8.23,14.87l-1.98,.29h0Z" style="fill:#1d1d1b;"/><path d="M428.92,330.33c-1.03-6.38-4.18-12.41-7.91-17.66,2.2,2.49,4.19,5.16,5.89,8.02,1.7,2.97,3.15,5.94,4,9.33l-1.98,.31h0Z" style="fill:#1d1d1b;"/></g><path d="M181.52,140.06c-6.24-6.14-15.22-8.91-23.67-10.47-2.56-.46-6.23-.81-8.85-1.01l4.47,.13c4.43,.3,8.98,.86,13.29,1.99,5.87,1.58,11.7,3.82,16.26,8.02l-1.49,1.33h0Z" style="fill:#1d1d1b;"/><path d="M178.93,150.25c-4.79-3.28-9.98-6.3-15.74-7.51,4.44,.38,8.73,1.99,12.79,3.81,1.36,.63,2.69,1.28,4.03,2.02l-1.08,1.68h0Z" style="fill:#1d1d1b;"/><path d="M175.42,170.12c-6.72-5.08-15.16-7.83-23.5-8.81,2.14,.1,4.29,.26,6.42,.6,6.47,1.01,12.76,3.04,18.31,6.63l-1.23,1.58h0Z" style="fill:#1d1d1b;"/><path d="M172.73,193.87c-8.97-3.6-18.79-5.6-28.5-5.08,2.43-.27,4.89-.49,7.35-.44,7.44,.07,14.8,1.33,21.89,3.65l-.74,1.86h0Z" style="fill:#1d1d1b;"/><path d="M171.16,207.92c-13.41-5.58-28.51-7.65-42.88-5.22,10.83-2.37,22.14-2.06,32.96,.27,3.63,.79,7.18,1.76,10.72,3.11l-.8,1.83h0Z" style="fill:#1d1d1b;"/><path d="M205.42,75c-2.51-2.83-6.04-4.57-9.37-6.3-3.53-1.73-7.2-3.18-10.9-4.53,3.82,1.03,7.61,2.17,11.3,3.61,3.73,1.57,7.71,3.11,10.6,6.07l-1.64,1.15h0Z" style="fill:#1d1d1b;"/><path d="M213.38,61.75c-6.82-6.86-16.44-10.46-25.47-13.5l-4.04-1.2,4.11,.96c8.18,2.13,16.43,4.89,23.49,9.64,1.2,.83,2.32,1.65,3.44,2.81l-1.53,1.29h0Z" style="fill:#1d1d1b;"/><path d="M221.29,53.14c-3.1-4.01-7.74-6.86-12.54-8.43,3.9,.74,7.67,2.25,10.95,4.54,1.11,.78,2.15,1.59,3.16,2.65l-1.56,1.25h0Z" style="fill:#1d1d1b;"/><path d="M389.35,365.96c.31-6.8-2.39-13.67-6.19-19.27-.56-.82-1.18-1.61-1.78-2.42,1.33,1.5,2.66,3.02,3.79,4.68,3.5,5.06,5.97,10.88,6.17,17.14l-2-.14h0Z" style="fill:#1d1d1b;"/><path d="M383.97,370.84c-.32-4.41-.93-9.21-3.8-12.79,2.63,2.35,3.93,5.83,4.95,9.13,.33,1.13,.62,2.25,.84,3.45l-1.99,.21h0Z" style="fill:#1d1d1b;"/><path d="M366.74,385.96c1.03-6.76-5.75-14.94-9.96-19.8l2.11,2.06c4.12,4.29,8.25,9.05,9.67,14.99,.2,1.19,.37,2.1,.07,3.4l-1.89-.65h0Z" style="fill:#1d1d1b;"/><path d="M357.49,394.75c.82-10.36-8.69-19.8-16.23-25.76l-3.74-2.74,3.88,2.54c8.11,5.78,16.56,13.37,18.05,23.77,.06,.85,.14,1.6,0,2.58l-1.96-.39h0Z" style="fill:#1d1d1b;"/><path d="M165.69,319.19c-7.58-4.86-16.54-7.55-25.45-8.72,2.28,.14,4.56,.33,6.83,.69,6.87,1.06,13.58,2.99,19.72,6.36l-1.1,1.67h0Z" style="fill:#1d1d1b;"/><path d="M163.47,359.47c-6.08-4.75-13.99-7.11-21.63-7.77-1.12-.09-2.25-.11-3.38-.17,2.26-.08,4.53-.13,6.79,.07,6.88,.56,13.68,2.41,19.49,6.32l-1.27,1.55h0Z" style="fill:#1d1d1b;"/><path d="M162.85,371.81c-11.62-5.7-25.01-8.32-37.91-6.67,3.23-.53,6.5-.97,9.8-.96,9.95-.13,19.86,1.88,29.01,5.85l-.91,1.78h0Z" style="fill:#1d1d1b;"/><path d="M166.3,299.13c-1.85-2.27-4.71-3.77-7.54-4.5,3.21,.14,6.44,1.08,9.01,3.14l-1.47,1.36h0Z" style="fill:#1d1d1b;"/><path d="M166.03,310.49c-6.15-3.93-13.38-6.18-20.44-7.96-7.11-1.77-14.72-2.78-22.03-3.41,11.17,.45,22.47,1.79,33.15,5.2,3.64,1.23,7.12,2.5,10.47,4.53l-1.15,1.64h0Z" style="fill:#1d1d1b;"/><path d="M356.56,211.71c-2.55-4.07-6.15-7.65-10.41-9.94,3.52,1.31,6.7,3.45,9.44,6.01,.93,.88,1.79,1.76,2.63,2.81l-1.66,1.12h0Z" style="fill:#1d1d1b;"/><path d="M170.68,584.17s9.14,5.96,6,22.1" style="fill:none; stroke:#231f20; stroke-miterlimit:10;"/><path d="M120.56,562.2s3.22,10.43-9.51,20.83" style="fill:none; stroke:#231f20; stroke-miterlimit:10;"/><path d="M203.6,613.76s8.18,3.33,8.84,17.96" style="fill:none; stroke:#231f20; stroke-miterlimit:10;"/><g><path d="M130.7,683.13c-.62,.58-1.6,.66-2.36,.89-3.75,.93-8.73,2.09-13.73,3.25s-10.01,2.29-13.83,3.17c2.41-.72,6.66-2,10.89-3.27,4.23-1.27,8.43-2.55,10.76-3.26,1.86-.58,4.88-1.5,6.7-2.12,.12-.04,.03-.02,0,.02-.04,.04-.07,.11-.07,.18l1.64,1.15h0Z" style="fill:#231f20;"/><path d="M131.17,686.37h0l-1.51-1.03c0-.06,.03-.12,.06-.16,.03-.04,.12-.06,0-.02-1.65,.55-4.48,1.44-6.17,1.96-1.41,.44-3.68,1.13-6.12,1.87-1.2,.36-2.53,.77-3.79,1.15-1,.3-2.04,.62-3.01,.91-2.77,.83-5.4,1.63-7.02,2.11,3.47-.8,8.03-1.84,12.57-2.88" style="fill:#231f20; stroke:#231f20; stroke-miterlimit:10; stroke-width:.09px;"/><path d="M131.64,689.61h0l-1.38-.92c0-.06,.02-.11,.05-.15,.03-.03,.11-.05,0-.02-1.49,.49-4.13,1.33-5.65,1.8-1.27,.39-3.41,1.05-5.6,1.71-1.08,.33-2.33,.71-3.47,1.05-.9,.27-1.88,.57-2.76,.83-2.49,.75-4.96,1.5-6.42,1.94,3.12-.72,7.22-1.65,11.31-2.6" style="fill:#231f20; stroke:#231f20; stroke-miterlimit:10; stroke-width:.18px;"/><path d="M132.12,692.84h0l-1.25-.81c0-.05,.02-.1,.05-.13,.03-.03,.1-.04,0-.02-1.32,.44-3.77,1.22-5.12,1.64-1.13,.35-3.13,.97-5.08,1.56-.96,.29-2.14,.65-3.15,.96-.8,.24-1.72,.53-2.5,.76-2.21,.67-4.53,1.38-5.83,1.77,2.78-.64,6.42-1.47,10.06-2.31" style="fill:#231f20; stroke:#231f20; stroke-miterlimit:10; stroke-width:.27px;"/><path d="M132.59,696.08h0l-1.12-.7s.02-.09,.04-.11c.02-.03,.08-.04,0-.01-1.16,.38-3.42,1.11-4.6,1.47-.99,.31-2.85,.89-4.56,1.41-.84,.25-1.95,.6-2.83,.87-.7,.21-1.56,.48-2.24,.68-1.94,.58-4.09,1.25-5.23,1.59,2.43-.56,5.62-1.29,8.8-2.02" style="fill:#231f20; stroke:#231f20; stroke-miterlimit:10; stroke-width:.36px;"/><path d="M133.06,699.32h0l-.99-.59s.01-.07,.04-.1c.02-.02,.07-.03,0-.01-.99,.33-3.06,.99-4.08,1.31-.85,.26-2.58,.81-4.04,1.25-.72,.22-1.75,.54-2.51,.77-.6,.18-1.4,.43-1.99,.61-1.66,.5-3.66,1.12-4.63,1.42,2.08-.48,4.82-1.1,7.54-1.73" style="fill:#231f20; stroke:#231f20; stroke-miterlimit:10; stroke-width:.45px;"/><path d="M133.53,702.55h0l-.86-.48s.01-.06,.03-.08c.02-.02,.06-.03,0,0-.83,.27-2.71,.88-3.55,1.15-.71,.22-2.3,.73-3.52,1.1-.6,.18-1.56,.49-2.19,.68-.5,.15-1.24,.39-1.73,.53-1.38,.42-3.22,1-4.03,1.24,1.73-.4,4.01-.92,6.29-1.44" style="fill:#231f20; stroke:#231f20; stroke-miterlimit:10; stroke-width:.55px;"/><path d="M134,705.79h0l-.73-.37s0-.05,.02-.07c.01-.01,.05-.02,0,0-.66,.22-2.35,.77-3.03,.98-.57,.17-2.03,.65-3,.94-.48,.15-1.37,.43-1.87,.59-.4,.12-1.08,.34-1.47,.46-1.11,.33-2.78,.87-3.43,1.07,1.39-.32,3.21-.73,5.03-1.15" style="fill:#231f20; stroke:#231f20; stroke-miterlimit:10; stroke-width:.64px;"/><path d="M134.47,709.02h0l-.6-.26s0-.04,.02-.05c.01-.01,.04-.02,0,0-.5,.16-2,.66-2.51,.82-.42,.13-1.75,.57-2.48,.79-.36,.11-1.17,.38-1.55,.49-.3,.09-.92,.3-1.22,.38-.83,.25-2.35,.75-2.83,.89,1.04-.24,2.41-.55,3.77-.87" style="fill:#231f20; stroke:#231f20; stroke-miterlimit:10; stroke-width:.73px;"/><path d="M134.94,712.26h0l-.48-.15s0-.02,.01-.03c0,0,.02-.01,0,0-.33,.11-1.64,.55-1.98,.66-.28,.09-1.48,.49-1.96,.64-.24,.07-.98,.32-1.23,.4-.2,.06-.76,.25-.96,.31-.55,.17-1.91,.62-2.24,.72,.69-.16,1.61-.37,2.51-.58" style="fill:#231f20; stroke:#231f20; stroke-miterlimit:10; stroke-width:.82px;"/><path d="M135.41,715.5h0l-.35-.03s0-.01,0-.02c0,0,.01,0,0,0-.17,.05-1.29,.44-1.46,.5-.14,.04-1.2,.41-1.44,.48-.12,.04-.79,.27-.91,.31-.1,.03-.6,.2-.7,.23-.28,.08-1.48,.5-1.64,.54,.35-.08,.8-.18,1.26-.29" style="fill:#231f20; stroke:#231f20; stroke-miterlimit:10; stroke-width:.91px;"/><polyline points="135.88 718.73 133.8 719.47 132.76 719.84 131.72 720.21" style="fill:none; stroke:#231f20; stroke-miterlimit:10;"/></g></svg>