<svg viewBox="0 0 127 127" fill="none" xmlns="http://www.w3.org/2000/svg">
  <g id="Icon-AccessDeFi">
    <g id="Group 427320103">
      <path id="Vector 82 (Stroke)" fill-rule="evenodd" clip-rule="evenodd"
        d="M63.4354 94.9512C68.291 94.9512 72.2272 98.4938 72.2272 102.864L72.2272 118.689C72.2272 123.059 68.291 126.602 63.4354 126.602C58.5798 126.602 54.6436 123.059 54.6436 118.689L54.6436 102.864C54.6436 98.4938 58.5798 94.9512 63.4354 94.9512Z"
        fill="#8D85FF" />
      <path id="Vector 82 (Stroke)_2"
        d="M63.4354 95.4512C68.0657 95.4512 71.7272 98.8182 71.7272 102.864L71.7272 118.689C71.7272 122.735 68.0657 126.102 63.4354 126.102C58.8051 126.102 55.1436 122.735 55.1436 118.689L55.1436 102.864C55.1436 98.8182 58.8051 95.4512 63.4354 95.4512Z"
        stroke="black" />
      <path id="Ellipse 20"
        d="M63.4354 126.102C58.8051 126.102 55.1436 122.735 55.1436 118.689C55.1436 114.643 58.8051 111.276 63.4354 111.276C68.0657 111.276 71.7272 114.643 71.7272 118.689C71.7272 122.735 68.0657 126.102 63.4354 126.102Z"
        stroke="black" />
      <path id="Vector 83 (Stroke)" fill-rule="evenodd" clip-rule="evenodd"
        d="M63.4354 -3.843e-07C68.291 -1.72057e-07 72.2272 3.54259 72.2272 7.91259L72.2272 23.7378C72.2272 28.1078 68.291 31.6504 63.4354 31.6504C58.5798 31.6504 54.6436 28.1078 54.6436 23.7378L54.6436 7.91259C54.6436 3.54259 58.5798 -5.96544e-07 63.4354 -3.843e-07Z"
        fill="#8D85FF" />
      <path id="Vector 83 (Stroke)_2"
        d="M63.4354 0.5C68.0657 0.5 71.7272 3.86698 71.7272 7.91259L71.7272 23.7378C71.7272 27.7834 68.0657 31.1504 63.4354 31.1504C58.8051 31.1504 55.1436 27.7834 55.1436 23.7378L55.1436 7.91259C55.1436 3.86698 58.8051 0.499999 63.4354 0.5Z"
        stroke="black" />
      <path id="Ellipse 19"
        d="M63.4354 15.3252C58.8051 15.3252 55.1436 11.9582 55.1436 7.91259C55.1436 3.86698 58.8051 0.499999 63.4354 0.5C68.0657 0.5 71.7272 3.86698 71.7272 7.91259C71.7272 11.9582 68.0657 15.3252 63.4354 15.3252Z"
        stroke="black" />
    </g>
    <g id="Group 427320104">
      <path id="Vector 82 (Stroke)_3" fill-rule="evenodd" clip-rule="evenodd"
        d="M95.0858 63.2996C95.0858 58.444 98.6284 54.5078 102.998 54.5078L118.824 54.5078C123.194 54.5078 126.736 58.444 126.736 63.2996C126.736 68.1551 123.194 72.0913 118.824 72.0913L102.998 72.0913C98.6284 72.0913 95.0858 68.1551 95.0858 63.2996Z"
        fill="#8D85FF" />
      <path id="Vector 82 (Stroke)_4"
        d="M95.5858 63.2996C95.5858 58.6693 98.9528 55.0078 102.998 55.0078L118.824 55.0078C122.869 55.0078 126.236 58.6693 126.236 63.2996C126.236 67.9299 122.869 71.5913 118.824 71.5913L102.998 71.5913C98.9528 71.5913 95.5858 67.9299 95.5858 63.2996Z"
        stroke="black" />
      <path id="Ellipse 20_2"
        d="M126.236 63.2996C126.236 67.9299 122.869 71.5913 118.824 71.5913C114.778 71.5913 111.411 67.9299 111.411 63.2996C111.411 58.6693 114.778 55.0078 118.824 55.0078C122.869 55.0078 126.236 58.6693 126.236 63.2996Z"
        stroke="black" />
    </g>
    <g id="Group 427320105">
      <path id="Vector 82 (Stroke)_5" fill-rule="evenodd" clip-rule="evenodd"
        d="M85.8155 85.6806C89.2489 82.2472 94.5372 81.9689 97.6273 85.0589L108.817 96.249C111.907 99.3391 111.629 104.627 108.196 108.061C104.762 111.494 99.474 111.772 96.3839 108.682L85.1938 97.4923C82.1038 94.4023 82.3821 89.114 85.8155 85.6806Z"
        fill="#8D85FF" />
      <path id="Vector 82 (Stroke)_6"
        d="M86.1691 86.0341C89.4432 82.76 94.413 82.5518 97.2737 85.4125L108.464 96.6026C111.324 99.4632 111.116 104.433 107.842 107.707C104.568 110.981 99.5982 111.19 96.7375 108.329L85.5474 97.1388C82.6867 94.2781 82.895 89.3082 86.1691 86.0341Z"
        stroke="black" />
      <path id="Ellipse 20_3"
        d="M107.842 107.709C104.568 110.983 99.5982 111.191 96.7375 108.33C93.8768 105.47 94.0851 100.5 97.3592 97.2255C100.633 93.9514 105.603 93.7432 108.464 96.6039C111.325 99.4646 111.116 104.434 107.842 107.709Z"
        stroke="black" />
      <path id="Vector 83 (Stroke)_3" fill-rule="evenodd" clip-rule="evenodd"
        d="M18.6748 18.54C22.1082 15.1066 27.3965 14.8282 30.4866 17.9183L41.6767 29.1084C44.7667 32.1984 44.4884 37.4867 41.055 40.9201C37.6216 44.3535 32.3333 44.6319 29.2432 41.5418L18.0532 30.3517C14.9631 27.2617 15.2414 21.9734 18.6748 18.54Z"
        fill="#8D85FF" />
      <path id="Vector 83 (Stroke)_4"
        d="M19.0284 18.8935C22.3025 15.6194 27.2724 15.4112 30.133 18.2718L41.3231 29.4619C44.1838 32.3226 43.9755 37.2925 40.7015 40.5666C37.4274 43.8407 32.4575 44.0489 29.5968 41.1883L18.4067 29.9982C15.546 27.1375 15.7543 22.1676 19.0284 18.8935Z"
        stroke="black" />
      <path id="Ellipse 19_2"
        d="M29.5114 29.3765C26.2373 32.6506 21.2674 32.8588 18.4067 29.9982C15.546 27.1375 15.7543 22.1676 19.0284 18.8935C22.3025 15.6194 27.2724 15.4112 30.133 18.2718C32.9937 21.1325 32.7855 26.1024 29.5114 29.3765Z"
        stroke="black" />
    </g>
    <g id="Group 427320106">
      <path id="Vector 82 (Stroke)_7" fill-rule="evenodd" clip-rule="evenodd"
        d="M85.8156 40.9208C82.3822 37.4874 82.1039 32.1991 85.1939 29.1091L96.384 17.919C99.4741 14.8289 104.762 15.1072 108.196 18.5406C111.629 21.974 111.908 27.2623 108.817 30.3524L97.6274 41.5425C94.5373 44.6325 89.249 44.3542 85.8156 40.9208Z"
        fill="#8D85FF" />
      <path id="Vector 82 (Stroke)_8"
        d="M86.1691 40.5673C82.8951 37.2932 82.6868 32.3233 85.5475 29.4626L96.7376 18.2725C99.5982 15.4118 104.568 15.6201 107.842 18.8942C111.116 22.1683 111.325 27.1382 108.464 29.9988L97.2738 41.1889C94.4131 44.0496 89.4432 43.8414 86.1691 40.5673Z"
        stroke="black" />
      <path id="Ellipse 20_4"
        d="M107.842 18.8929C111.116 22.167 111.325 27.1369 108.464 29.9975C105.603 32.8582 100.633 32.65 97.3592 29.3759C94.0851 26.1018 93.8769 21.1319 96.7375 18.2712C99.5982 15.4105 104.568 15.6188 107.842 18.8929Z"
        stroke="black" />
      <path id="Vector 83 (Stroke)_5" fill-rule="evenodd" clip-rule="evenodd"
        d="M18.6752 108.06C15.2418 104.627 14.9634 99.3388 18.0535 96.2487L29.2436 85.0586C32.3336 81.9686 37.6219 82.2469 41.0553 85.6803C44.4887 89.1137 44.7671 94.402 41.677 97.492L30.4869 108.682C27.3969 111.772 22.1086 111.494 18.6752 108.06Z"
        fill="#8D85FF" />
      <path id="Vector 83 (Stroke)_6"
        d="M19.0287 107.707C15.7546 104.433 15.5464 99.4629 18.407 96.6023L29.5971 85.4122C32.4578 82.5515 37.4277 82.7597 40.7018 86.0338C43.9759 89.3079 44.1841 94.2778 41.3235 97.1385L30.1334 108.329C27.2727 111.189 22.3028 110.981 19.0287 107.707Z"
        stroke="black" />
      <path id="Ellipse 19_3"
        d="M29.5117 97.2239C32.7858 100.498 32.994 105.468 30.1334 108.329C27.2727 111.189 22.3028 110.981 19.0287 107.707C15.7546 104.433 15.5464 99.4629 18.407 96.6023C21.2677 93.7416 26.2376 93.9498 29.5117 97.2239Z"
        stroke="black" />
    </g>
    <path id="Star"
      d="M114.867 35.6067C118.384 35.6067 118.384 28.5732 118.384 28.5732C118.384 28.5732 118.384 35.6067 121.901 35.6067C118.384 35.6067 118.384 42.6401 118.384 42.6401C118.384 42.6401 118.384 35.6067 114.867 35.6067Z"
      fill="#FEF2DF" stroke="black" stroke-linejoin="round" />
    <path id="Star_2"
      d="M4.091 91.8742C7.60771 91.8742 7.60771 84.8408 7.60771 84.8408C7.60771 84.8408 7.60771 91.8742 11.1244 91.8742C7.60771 91.8742 7.60771 98.9076 7.60771 98.9076C7.60771 98.9076 7.60771 91.8742 4.091 91.8742Z"
      fill="#FEF2DF" stroke="black" stroke-linejoin="round" />
    <path id="Star_3"
      d="M121.901 85.7196C122.78 85.7196 122.78 83.082 122.78 83.082C122.78 83.082 122.78 85.7196 123.659 85.7196C122.78 85.7196 122.78 88.3571 122.78 88.3571C122.78 88.3571 122.78 85.7196 121.901 85.7196Z"
      fill="#FEF2DF" stroke="black" stroke-linejoin="round" />
    <g id="Group 427320107">
      <path id="Star_4"
        d="M39.2581 14.5057C44.5331 14.5057 44.5331 2.19727 44.5331 2.19727C44.5331 2.19727 44.5331 14.5057 49.8082 14.5057C44.5331 14.5057 44.5331 26.8142 44.5331 26.8142C44.5331 26.8142 44.5331 14.5057 39.2581 14.5057Z"
        fill="#FFE563" stroke="black" stroke-linejoin="round" />
      <path id="Star_5"
        d="M76.1835 112.974C81.4585 112.974 81.4585 100.665 81.4585 100.665C81.4585 100.665 81.4585 112.974 86.7336 112.974C81.4585 112.974 81.4585 125.282 81.4585 125.282C81.4585 125.282 81.4585 112.974 76.1835 112.974Z"
        fill="#7FD689" stroke="black" stroke-linejoin="round" />
    </g>
    <g id="Group 427320102">
      <path id="Vector 86" d="M63.8751 64.1798L81.4586 54.2891L63.8751 44.3984L46.2917 54.2891L63.8751 64.1798Z"
        fill="#FF845A" stroke="black" stroke-linejoin="round" />
      <path id="Vector 90" d="M81.4586 74.0705V54.2891L63.8751 64.1798V83.9612L81.4586 74.0705Z" fill="#FF845A"
        stroke="black" stroke-linejoin="round" />
      <path id="Vector 91" d="M81.4586 74.0705V54.2891L63.8751 64.1798V83.9612L81.4586 74.0705Z" stroke="black"
        stroke-linejoin="round" />
      <path id="Vector 89" d="M46.2915 74.0704V54.2891L63.875 64.1798V83.9612L46.2915 74.0704Z" fill="#FF845A"
        stroke="black" stroke-linejoin="round" />
    </g>
    <g id="b">
      <g id="c">
        <path id="Vector"
          d="M1.67036 64.5556C0.795094 63.9345 0.795094 62.6457 1.67036 62.0246L19.3008 49.5247C20.3324 48.7949 21.7703 49.5247 21.7703 50.7824L21.7703 57.0867C21.7703 57.9408 22.4736 58.6395 23.3333 58.6395L33.5435 58.6395C34.4031 58.6395 35.1064 59.3383 35.1064 60.1923L35.1064 66.4034C35.1064 67.2574 34.4031 67.9562 33.5435 67.9562L23.3333 67.9562C22.4736 67.9562 21.7703 68.6549 21.7703 69.509L21.7703 75.8132C21.7703 77.071 20.3324 77.8163 19.3008 77.071L1.67036 64.5556Z"
          fill="white" stroke="black" stroke-linejoin="round" />
      </g>
    </g>
  </g>
</svg>