<svg id="Layer_1" data-name="Layer 1" xmlns="http://www.w3.org/2000/svg" xmlns:xlink="http://www.w3.org/1999/xlink"
  viewBox="0 0 332 243">
  <defs>
    <style>
      .cls-1,
      .cls-2,
      .cls-3,
      .cls-4,
      .cls-5,
      .cls-6 {
        stroke: #e07138;
      }

      .cls-1,
      .cls-2,
      .cls-4 {
        stroke-miterlimit: 4;
      }

      .cls-1,
      .cls-4 {
        stroke-width: 1px;
      }

      .cls-1,
      .cls-6,
      .cls-7 {
        fill: none;
      }

      .cls-8 {
        mask: url(#mask);
      }

      .cls-9,
      .cls-10,
      .cls-11,
      .cls-12,
      .cls-13,
      .cls-14,
      .cls-15,
      .cls-16,
      .cls-17,
      .cls-18,
      .cls-19,
      .cls-20,
      .cls-7,
      .cls-21,
      .cls-22 {
        stroke: #000;
      }

      .cls-9,
      .cls-11,
      .cls-12,
      .cls-13 {
        stroke-miterlimit: 10;
      }

      .cls-10 {
        stroke-linecap: round;
      }

      .cls-10,
      .cls-12,
      .cls-23,
      .cls-22 {
        fill: #fff;
      }

      .cls-10,
      .cls-24,
      .cls-25,
      .cls-23,
      .cls-26,
      .cls-27,
      .cls-22 {
        fill-rule: evenodd;
      }

      .cls-10,
      .cls-21 {
        stroke-linejoin: round;
      }

      .cls-11 {
        fill: #6978ff;
      }

      .cls-13 {
        fill: #5338d6;
      }

      .cls-2 {
        stroke-width: 2px;
      }

      .cls-2,
      .cls-3 {
        fill: #ef4343;
      }

      .cls-3 {
        stroke-width: 2px;
      }

      .cls-3,
      .cls-5 {
        stroke-miterlimit: 4;
      }

      .cls-14 {
        fill: #6257ec;
      }

      .cls-15 {
        fill: #8d84ff;
      }

      .cls-16 {
        fill: #00c137;
      }

      .cls-17 {
        fill: #007421;
      }

      .cls-4,
      .cls-5 {
        fill: #f9d665;
      }

      .cls-5 {
        stroke-width: 1px;
      }

      .cls-24 {
        fill: #5d42ff;
      }

      .cls-24,
      .cls-25,
      .cls-23,
      .cls-26,
      .cls-27,
      .cls-28,
      .cls-29,
      .cls-30 {
        stroke-width: 0px;
      }

      .cls-25,
      .cls-29 {
        fill: #ff9d29;
      }

      .cls-26,
      .cls-18 {
        fill: #ff9875;
      }

      .cls-27 {
        fill: #3347ff;
      }

      .cls-18,
      .cls-19,
      .cls-20 {
        stroke-miterlimit: 4;
        stroke-width: 1px;
      }

      .cls-19 {
        fill: #ce1c1d;
      }

      .cls-20 {
        fill: #e4393a;
      }

      .cls-21 {
        fill: #fef2df;
      }

      .cls-28 {
        fill: #e07138;
      }

      .cls-30 {
        fill: #e9f8ff;
      }
    </style>
    <mask id="mask" x="296.23" y="88.42" width="29.29" height="42.84" maskUnits="userSpaceOnUse">
      <g id="path-32-inside-2_5692_13921" data-name="path-32-inside-2 5692 13921">
        <path class="cls-23"
          d="m306.17,128.65c11.01-2.97,17.52-14.3,14.55-25.31-1.8-6.66-6.65-11.67-12.65-13.94,7.37,1.54,13.63,7.07,15.72,14.84,2.97,11.01-3.54,22.34-14.55,25.31-4.35,1.17-8.75.87-12.66-.61,3.08.64,6.35.59,9.59-.29Z" />
      </g>
    </mask>
  </defs>
  <circle class="cls-30" cx="177" cy="118.23" r="97" />
  <path class="cls-21" d="m164.9,77.3c6,0,6-12,6-12,0,0,0,12,6,12-6,0-6,12-6,12,0,0,0-12-6-12Z" />
  <path class="cls-21" d="m12.9,130.3c4,0,4-8,4-8,0,0,0,8,4,8-4,0-4,8-4,8,0,0,0-8-4-8Z" />
  <path class="cls-21" d="m31.9,81.3c4,0,4-8,4-8,0,0,0,8,4,8-4,0-4,8-4,8,0,0,0-8-4-8Z" />
  <path class="cls-10"
    d="m84.49,126.57c.43.1.7.52.6.95l-3.43,15.12c-.1.43-.52.7-.95.6-.43-.1-.7-.52-.6-.95l3.43-15.12c.1-.43.52-.7.95-.6Z" />
  <path class="cls-10"
    d="m100.64,127.91c.44-.04.82.28.87.72l1.45,15.43c.04.44-.28.82-.72.86-.44.04-.83-.28-.87-.72l-1.45-15.43c-.04-.44.28-.82.72-.86Z" />
  <path class="cls-15"
    d="m101.18,128c10.72-6.67,20.9-13.64,28.68-21.68,7.8-8.07,13.15-17.18,14.2-28.11,2.28-23.62-16.9-44.87-42.95-47.38-26.04-2.51-48.93,14.69-51.21,38.31-1.04,10.74,3.53,22.03,10.32,32.17,6.75,10.08,15.66,18.98,23.29,24.99h.02s.01,0,.01,0h.01s.01,0,.01,0h.01s.01,0,.01,0h.01s.01,0,.01,0h.01s.01,0,.01,0h.01s.01,0,.01,0h.01s.01,0,.01,0h.01s.01,0,.01,0h.01s.01,0,.01,0h.01s.01,0,.01,0h.01s.01,0,.01,0h.01s.01,0,.01,0h.01s.01,0,.01,0h.01s.01,0,.01,0h.01s.01,0,.01,0h.01s.02,0,.02,0h.02s.02,0,.02,0h.02s.02,0,.02,0h.02s.02,0,.02,0h.02s.02,0,.02,0h.02s.02,0,.02,0h.02s.02,0,.02,0h.02s.02,0,.02,0h.02s.02,0,.02,0h.02s.02,0,.02,0h.02s.02,0,.02,0h.02s.02,0,.02,0h.02s.02,0,.02,0h.02s.02,0,.02,0h.02s.02,0,.02,0h.02s.02,0,.02,0h.02s.02,0,.02,0h.02s.02,0,.02,0h.02s.02,0,.02,0h.02s.02,0,.02,0h.02s.02,0,.02,0h.02s.02,0,.02,0h.02s.02,0,.02,0h.02s.02,0,.02,0h.02s.02,0,.02,0h.02s.02,0,.02,0h.02s.02,0,.02,0h.02s.02,0,.02,0h.02s.02,0,.02,0h.02s.02,0,.02,0h.02s.02,0,.02,0h.02s.02,0,.02,0h.02s.02,0,.02,0h.02s.02,0,.02,0h.02s.02,0,.02,0h.02s.02,0,.02,0h.02s.02,0,.02,0h.02s.02,0,.02,0h.02s.02,0,.02,0h.02s.02,0,.02,0h.02s.02,0,.02,0h.02s.02,0,.02,0h.02s.02,0,.02,0h.02s.02,0,.02,0h.02s.02,0,.02,0h.02s.02,0,.02,0h.02s.02,0,.02,0h.02s.02,0,.02,0h.02s.02,0,.02,0h.02s.02,0,.02,0h.02s.02,0,.02,0h.02s.02,0,.02,0h.02s.02,0,.02,0h.02s.02,0,.02,0h.02s.02,0,.02,0h.02s.02,0,.02,0h.02s.02,0,.02,0h.02s.02,0,.02,0h.02s.02,0,.02,0h.02s.02,0,.02,0h.02s.02,0,.02,0h.02s.02,0,.02,0h.02s.02,0,.02,0h.02s.02,0,.02,0h.02s.02,0,.02,0h.02s.02,0,.02,0h.02s.02,0,.02,0h.02s.02,0,.02,0h.02s.02,0,.02,0h.02s.02,0,.02,0h.02s.02,0,.02,0h.02s.02,0,.02,0h.02s.02,0,.02,0h.02s.02,0,.02,0h.02s.02,0,.02,0h.02s.02,0,.02,0h.02s.02,0,.02,0h.02s.02,0,.02,0h.02s.02,0,.02,0h.02s.02,0,.02,0h.02s.02,0,.02,0h.02s.02,0,.02,0h.02s.02,0,.02,0h.02s.02,0,.02,0h.02s.02,0,.02,0h.02s.02,0,.02,0h.02s.02,0,.02,0h.02s.02,0,.02,0h.02s.02,0,.02,0h.02s.02,0,.02,0h.02s.02,0,.02,0h.02s.02,0,.02,0h.02s.02,0,.02,0h.02s.02,0,.02,0h.02s.02,0,.02,0h.02s.02,0,.02,0h.02s.02,0,.02,0h.02s.02,0,.02,0h.02s.02,0,.02,0h.02s.02,0,.02,0h.02s.02,0,.02,0h.02s.02,0,.02,0h.02s.02,0,.02,0h.02s.02,0,.02,0h.02s.02,0,.02,0h.02s.02,0,.02,0h.02s.02,0,.02,0h.02s.02,0,.02,0h.02s.02,0,.02,0h.02s.02,0,.02,0h.02s.02,0,.02,0h.02s.02,0,.02,0h.02s.02,0,.02,0h.02s.02,0,.02,0h.02s.02,0,.02,0h.02s.02,0,.02,0h.02s.02,0,.02,0h.02s.02,0,.02,0h.02s.02,0,.02,0h.02s.02,0,.02,0h.02s.02,0,.02,0h.02s.02,0,.02,0h.02s.02,0,.02,0h.02s.02,0,.02,0h.02s.02,0,.02,0h.02s.02,0,.02,0h.02s.02,0,.02,0h.02s.02,0,.02,0h.02s.02,0,.02,0h.02s.02,0,.02,0h.02s.02,0,.02,0h.02s.02,0,.02,0h.02s.02,0,.02,0h.02s.02,0,.02,0h.02s.02,0,.02,0h.02s.02,0,.02,0h.02s.02,0,.02,0h.02s.02,0,.02,0h.02s.02,0,.02,0h.02s.02,0,.02,0h.02s.02,0,.02,0h.02s.02,0,.02,0h.02s.02,0,.02,0h.02s.02,0,.02,0h.02s.02,0,.02,0h.02s.02,0,.02,0h.02s.02,0,.02,0h.02s.02,0,.02,0h.02s.02,0,.02,0h.02s.02,0,.02,0h.02s.02,0,.02,0h.02s.02,0,.02,0h.02s.02,0,.02,0h.02s.02,0,.02,0h.02s.02,0,.02,0h.02s.02,0,.02,0h.02s.02,0,.02,0h.02s.02,0,.02,0h.02s.02,0,.02,0h.02s.02,0,.02,0h.02s.02,0,.02,0h.02s.02,0,.02,0h.02s.02,0,.02,0h.02s.02,0,.02,0h.02s.02,0,.02,0h.02s.02,0,.02,0h.02s.02,0,.02,0h.02s.02,0,.02,0h.02s.02,0,.02,0h.02s.02,0,.02,0h.02s.02,0,.02,0h.02s.02,0,.02,0h.02s.02,0,.02,0h.02s.02,0,.02,0h.02s.02,0,.02,0h.02s.02,0,.02,0h.02s.02,0,.02,0h.02s.02,0,.02,0h.02s.02,0,.02,0h.02s.02,0,.02,0h.02s.02,0,.02,0h.02s.02,0,.02,0h.02s.02,0,.02,0h.02s.02,0,.02,0h.02s.02,0,.02,0h.02s.02,0,.02,0h.02s.02,0,.02,0h.02s.02,0,.02,0h.02s.02,0,.02,0h.02s.02,0,.02,0h.02s.02,0,.02,0h.02s.02,0,.02,0h.02s.02,0,.02,0h.02s.02,0,.02,0h.02s.02,0,.02,0h.02s.02,0,.02,0h.02s.02,0,.02,0h.02s.02,0,.02,0h.02s.02,0,.02,0h.02s.02,0,.02,0h.02s.02,0,.02,0h.02s.02,0,.02,0h.02s.02,0,.02,0h.02s.02,0,.02,0h.02s.02,0,.02,0h.02s.02,0,.02,0h.02s.02,0,.02,0h.02s.02,0,.02,0h.02s.02,0,.02,0h.02s.02,0,.02,0h.02s.02,0,.02,0h.02s.02,0,.02,0h.02s.02,0,.02,0h.02s.02,0,.02,0h.02s.02,0,.02,0h.02s.02,0,.02,0h.02s.02,0,.02,0h.02s.02,0,.02,0h.02s.02,0,.02,0h.02s.02,0,.02,0h.02s.02,0,.02,0h.02s.02,0,.02,0h.02s.02,0,.02,0h.02s.01,0,.01,0h.01s.01,0,.01,0h.01s.01,0,.01,0h.01s.01,0,.01,0h.01s.01,0,.01,0h.01s.01,0,.01,0h.01s.01,0,.01,0h.01s.01,0,.01,0h.01s.01,0,.01,0h.01s.01,0,.01,0h.01s.01,0,.01,0h.01s.01,0,.01,0h0c.59.06,1.38.14,2.26.22.29.03.6.06.91.09,1.82.18,3.82.38,5.11.48,0,0,0,0,0,0Zm0,0l-5.12-.48,5.12.48Z" />
  <path class="cls-27"
    d="m101.3,128.7c21.56-13.39,41.12-28.1,43.26-50.25,2.31-23.94-17.12-45.4-43.4-47.93-3.05-.29-6.05-.32-8.99-.1,1.92-.03,3.86.05,5.81.24,26.27,2.53,45.7,23.99,43.4,47.93-2.11,21.94-21.33,36.58-42.66,49.88.99.1,1.9.18,2.58.23Z" />
  <path class="cls-7"
    d="m101.18,128.19c10.72-6.67,20.9-13.64,28.68-21.68,7.8-8.07,13.15-17.18,14.2-28.11,2.28-23.62-16.9-44.87-42.95-47.38-26.04-2.51-48.93,14.69-51.21,38.31-1.04,10.74,3.53,22.03,10.32,32.17,6.75,10.08,15.66,18.98,23.29,24.99h.02s.01,0,.01,0h.01s.01,0,.01,0h.01s.01,0,.01,0h.01s.01,0,.01,0h.01s.01,0,.01,0h.01s.01,0,.01,0h.01s.01,0,.01,0h.01s.01,0,.01,0h.01s.01,0,.01,0h.01s.01,0,.01,0h.01s.01,0,.01,0h.01s.01,0,.01,0h.01s.01,0,.01,0h.01s.01,0,.01,0h.01s.01,0,.01,0h.01s.02,0,.02,0h.02s.02,0,.02,0h.02s.02,0,.02,0h.02s.02,0,.02,0h.02s.02,0,.02,0h.02s.02,0,.02,0h.02s.02,0,.02,0h.02s.02,0,.02,0h.02s.02,0,.02,0h.02s.02,0,.02,0h.02s.02,0,.02,0h.02s.02,0,.02,0h.02s.02,0,.02,0h.02s.02,0,.02,0h.02s.02,0,.02,0h.02s.02,0,.02,0h.02s.02,0,.02,0h.02s.02,0,.02,0h.02s.02,0,.02,0h.02s.02,0,.02,0h.02s.02,0,.02,0h.02s.02,0,.02,0h.02s.02,0,.02,0h.02s.02,0,.02,0h.02s.02,0,.02,0h.02s.02,0,.02,0h.02s.02,0,.02,0h.02s.02,0,.02,0h.02s.02,0,.02,0h.02s.02,0,.02,0h.02s.02,0,.02,0h.02s.02,0,.02,0h.02s.02,0,.02,0h.02s.02,0,.02,0h.02s.02,0,.02,0h.02s.02,0,.02,0h.02s.02,0,.02,0h.02s.02,0,.02,0h.02s.02,0,.02,0h.02s.02,0,.02,0h.02s.02,0,.02,0h.02s.02,0,.02,0h.02s.02,0,.02,0h.02s.02,0,.02,0h.02s.02,0,.02,0h.02s.02,0,.02,0h.02s.02,0,.02,0h.02s.02,0,.02,0h.02s.02,0,.02,0h.02s.02,0,.02,0h.02s.02,0,.02,0h.02s.02,0,.02,0h.02s.02,0,.02,0h.02s.02,0,.02,0h.02s.02,0,.02,0h.02s.02,0,.02,0h.02s.02,0,.02,0h.02s.02,0,.02,0h.02s.02,0,.02,0h.02s.02,0,.02,0h.02s.02,0,.02,0h.02s.02,0,.02,0h.02s.02,0,.02,0h.02s.02,0,.02,0h.02s.02,0,.02,0h.02s.02,0,.02,0h.02s.02,0,.02,0h.02s.02,0,.02,0h.02s.02,0,.02,0h.02s.02,0,.02,0h.02s.02,0,.02,0h.02s.02,0,.02,0h.02s.02,0,.02,0h.02s.02,0,.02,0h.02s.02,0,.02,0h.02s.02,0,.02,0h.02s.02,0,.02,0h.02s.02,0,.02,0h.02s.02,0,.02,0h.02s.02,0,.02,0h.02s.02,0,.02,0h.02s.02,0,.02,0h.02s.02,0,.02,0h.02s.02,0,.02,0h.02s.02,0,.02,0h.02s.02,0,.02,0h.02s.02,0,.02,0h.02s.02,0,.02,0h.02s.02,0,.02,0h.02s.02,0,.02,0h.02s.02,0,.02,0h.02s.02,0,.02,0h.02s.02,0,.02,0h.02s.02,0,.02,0h.02s.02,0,.02,0h.02s.02,0,.02,0h.02s.02,0,.02,0h.02s.02,0,.02,0h.02s.02,0,.02,0h.02s.02,0,.02,0h.02s.02,0,.02,0h.02s.02,0,.02,0h.02s.02,0,.02,0h.02s.02,0,.02,0h.02s.02,0,.02,0h.02s.02,0,.02,0h.02s.02,0,.02,0h.02s.02,0,.02,0h.02s.02,0,.02,0h.02s.02,0,.02,0h.02s.02,0,.02,0h.02s.02,0,.02,0h.02s.02,0,.02,0h.02s.02,0,.02,0h.02s.02,0,.02,0h.02s.02,0,.02,0h.02s.02,0,.02,0h.02s.02,0,.02,0h.02s.02,0,.02,0h.02s.02,0,.02,0h.02s.02,0,.02,0h.02s.02,0,.02,0h.02s.02,0,.02,0h.02s.02,0,.02,0h.02s.02,0,.02,0h.02s.02,0,.02,0h.02s.02,0,.02,0h.02s.02,0,.02,0h.02s.02,0,.02,0h.02s.02,0,.02,0h.02s.02,0,.02,0h.02s.02,0,.02,0h.02s.02,0,.02,0h.02s.02,0,.02,0h.02s.02,0,.02,0h.02s.02,0,.02,0h.02s.02,0,.02,0h.02s.02,0,.02,0h.02s.02,0,.02,0h.02s.02,0,.02,0h.02s.02,0,.02,0h.02s.02,0,.02,0h.02s.02,0,.02,0h.02s.02,0,.02,0h.02s.02,0,.02,0h.02s.02,0,.02,0h.02s.02,0,.02,0h.02s.02,0,.02,0h.02s.02,0,.02,0h.02s.02,0,.02,0h.02s.02,0,.02,0h.02s.02,0,.02,0h.02s.02,0,.02,0h.02s.02,0,.02,0h.02s.02,0,.02,0h.02s.02,0,.02,0h.02s.02,0,.02,0h.02s.02,0,.02,0h.02s.02,0,.02,0h.02s.02,0,.02,0h.02s.02,0,.02,0h.02s.02,0,.02,0h.02s.02,0,.02,0h.02s.02,0,.02,0h.02s.02,0,.02,0h.02s.02,0,.02,0h.02s.02,0,.02,0h.02s.02,0,.02,0h.02s.02,0,.02,0h.02s.02,0,.02,0h.02s.02,0,.02,0h.02s.02,0,.02,0h.02s.02,0,.02,0h.02s.02,0,.02,0h.02s.02,0,.02,0h.02s.02,0,.02,0h.02s.02,0,.02,0h.02s.02,0,.02,0h.02s.02,0,.02,0h.02s.02,0,.02,0h.02s.02,0,.02,0h.02s.02,0,.02,0h.02s.02,0,.02,0h.02s.02,0,.02,0h.02s.02,0,.02,0h.02s.02,0,.02,0h.02s.02,0,.02,0h.02s.02,0,.02,0h.02s.02,0,.02,0h.02s.02,0,.02,0h.02s.02,0,.02,0h.02s.02,0,.02,0h.02s.02,0,.02,0h.02s.02,0,.02,0h.02s.02,0,.02,0h.02s.02,0,.02,0h.02s.02,0,.02,0h.02s.02,0,.02,0h.02s.02,0,.02,0h.02s.02,0,.02,0h.02s.02,0,.02,0h.02s.02,0,.02,0h.02s.02,0,.02,0h.02s.02,0,.02,0h.02s.02,0,.02,0h.02s.02,0,.02,0h.02s.02,0,.02,0h.02s.02,0,.02,0h.02s.02,0,.02,0h.02s.02,0,.02,0h.02s.02,0,.02,0h.02s.02,0,.02,0h.02s.02,0,.02,0h.02s.02,0,.02,0h.02s.02,0,.02,0h.02s.02,0,.02,0h.02s.02,0,.02,0h.02s.02,0,.02,0h.02s.02,0,.02,0h.02s.02,0,.02,0h.02s.02,0,.02,0h.02s.02,0,.02,0h.02s.02,0,.02,0h.02s.01,0,.01,0h.01s.01,0,.01,0h.01s.01,0,.01,0h.01s.01,0,.01,0h.01s.01,0,.01,0h.01s.01,0,.01,0h.01s.01,0,.01,0h.01s.01,0,.01,0h.01s.01,0,.01,0h.01s.01,0,.01,0h.01s.01,0,.01,0h.01s.01,0,.01,0h0c.59.06,1.38.14,2.26.22.29.03.6.06.91.09,1.82.18,3.82.38,5.11.48,0,0,0,0,0,0Zm0,0l-5.12-.48,5.12.48Z" />
  <path class="cls-14"
    d="m133.49,77.19c-2.11,21.85-17.42,36.8-34.46,50.59l-3.91-.37c-.24-.02-.47-.05-.7-.07-.69-.07-1.31-.13-1.77-.18h-.01s-.01,0-.01,0h-.01s-.01,0-.01,0h-.01s-.01,0-.01,0h-.01s-.01,0-.01,0h-.01s-.01,0-.01,0h-.01s-.01,0-.01,0h-.01s-.01,0-.01,0h-.01s-.01,0-.01,0h-.01s-.01,0-.01,0h-.01s-.01,0-.01,0h-.01s-.01,0-.01,0h-.01s-.01,0-.01,0h-.01s-.01,0-.01,0h-.01s-.01,0-.01,0h-.01s-.01,0-.01,0h-.01s-.01,0-.01,0h-.01s-.01,0-.01,0h-.01s-.01,0-.01,0h-.01s-.01,0-.01,0h-.01s-.01,0-.01,0h-.01s-.01,0-.01,0h-.01s-.01,0-.01,0h-.01s-.01,0-.01,0h-.01s-.01,0-.01,0h-.01s-.01,0-.01,0h-.01s-.01,0-.01,0h-.01s-.01,0-.01,0h-.01s-.01,0-.01,0h-.01s-.01,0-.01,0h-.01s-.01,0-.01,0h-.01s-.01,0-.01,0h-.01s-.01,0-.01,0h-.01s-.01,0-.01,0h-.01s-.01,0-.01,0h-.01s-.01,0-.01,0h-.01s-.01,0-.01,0h-.01s-.01,0-.01,0h-.01s-.01,0-.01,0h-.01s-.01,0-.01,0h-.01s-.01,0-.01,0h-.01s-.01,0-.01,0h-.01s-.01,0-.01,0h-.01s-.01,0-.01,0h-.01s-.01,0-.01,0h-.01s-.01,0-.01,0h-.01s-.01,0-.01,0h-.01s-.01,0-.01,0h-.01s-.01,0-.01,0h-.01s-.01,0-.01,0h-.01s-.01,0-.01,0h-.01s-.01,0-.01,0h-.01s-.01,0-.01,0h-.01s-.01,0-.01,0h-.01s-.01,0-.01,0h-.01s-.01,0-.01,0h-.01s-.01,0-.01,0h-.01s-.01,0-.01,0h-.01s-.01,0-.01,0h-.01s-.01,0-.01,0h-.01s-.02,0-.02,0h-.01s-.02,0-.02,0h-.02s-.02,0-.02,0h-.02s-.02,0-.02,0h-.02s-.02,0-.02,0h-.02s-.02,0-.02,0h-.02s-.02,0-.02,0h-.02s-.02,0-.02,0h-.02s-.02,0-.02,0h-.02s-.02,0-.02,0h-.02s-.02,0-.02,0h-.02s-.02,0-.02,0h-.02s-.02,0-.02,0h-.02s-.02,0-.02,0h-.02s-.02,0-.02,0h-.02s-.02,0-.02,0h-.02s-.02,0-.02,0h-.02s-.02,0-.02,0h-.02s-.02,0-.02,0h-.02s-.02,0-.02,0h-.02s-.02,0-.02,0h-.02s-.02,0-.02,0h-.02s-.02,0-.02,0h-.02s-.02,0-.02,0h-.02s-.02,0-.02,0h-.02s-.02,0-.02,0h-.02s-.02,0-.02,0h-.02s-.02,0-.02,0h-.02s-.02,0-.02,0h-.02s-.02,0-.02,0h-.02s-.02,0-.02,0h-.02s-.02,0-.02,0h-.02s-.02,0-.02,0h-.02s-.02,0-.02,0h-.02s-.02,0-.02,0h-.02s-.02,0-.02,0h-.02s-.02,0-.02,0h-.02s-.02,0-.02,0h-.02s-.02,0-.02,0h-.02s-.02,0-.02,0h-.02s-.02,0-.02,0h-.02s-.02,0-.02,0h-.02s-.02,0-.02,0h-.02s-.02,0-.02,0h-.02s-.02,0-.02,0h-.02s-.02,0-.02,0h-.02s-.02,0-.02,0h-.02s-.02,0-.02,0h-.02s-.02,0-.02,0h-.02s-.02,0-.02,0h-.02s-.02,0-.02,0h-.02s-.02,0-.02,0h-.02s-.02,0-.02,0h-.02s-.02,0-.02,0h-.02s-.02,0-.02,0h-.02s-.02,0-.02,0h-.02s-.02,0-.02,0h-.02s-.02,0-.02,0h-.02s-.02,0-.02,0h-.02s-.02,0-.02,0h-.02s-.02,0-.02,0h-.02s-.02,0-.02,0h-.02s-.02,0-.02,0h-.02s-.02,0-.02,0h-.02s-.02,0-.02,0h-.02s-.02,0-.02,0h-.02s-.02,0-.02,0h-.02s-.02,0-.02,0h-.02s-.02,0-.02,0h-.02s-.02,0-.02,0h-.02s-.02,0-.02,0h-.02s-.02,0-.02,0h-.02s-.02,0-.02,0h-.02s-.02,0-.02,0h-.02s-.02,0-.02,0h-.02s-.02,0-.02,0h-.02s-.02,0-.02,0h-.02s-.02,0-.02,0h-.02s-.02,0-.02,0h-.02s-.02,0-.02,0h-.02s-.02,0-.02,0h-.02s-.02,0-.02,0h-.02s-.02,0-.02,0h-.02s-.02,0-.02,0h-.02s-.02,0-.02,0h-.02s-.02,0-.02,0h-.02s-.02,0-.02,0h-.02s-.02,0-.02,0h-.02s-.02,0-.02,0h-.02s-.02,0-.02,0h-.02s-.02,0-.02,0h-.02s-.02,0-.02,0h-.02s-.02,0-.02,0h-.02s-.02,0-.02,0h-.02s-.02,0-.02,0h-.02s-.02,0-.02,0h-.02s-.02,0-.02,0h-.02s-.02,0-.02,0h-.02s-.02,0-.02,0h-.02s-.02,0-.02,0h-.02s-.02,0-.02,0h-.02s-.02,0-.02,0h-.02s-.02,0-.02,0h-.02s-.02,0-.02,0h-.02s-.02,0-.02,0h-.02s-.02,0-.02,0h-.02s-.02,0-.02,0h-.02s-.02,0-.02,0h-.02s-.02,0-.02,0h-.02s-.02,0-.02,0h-.02s-.02,0-.02,0h-.02s-.02,0-.02,0h-.02s-.02,0-.02,0h-.02s-.02,0-.02,0h-.02s-.02,0-.02,0h-.02s-.02,0-.02,0h-.02s-.02,0-.02,0h-.02s-.02,0-.02,0h-.02s-.02,0-.02,0h-.02s-.02,0-.02,0h-.02s-.02,0-.02,0h-.02s-.02,0-.02,0h-.02s-.02,0-.02,0h-.02s-.02,0-.02,0h-.02s-.02,0-.02,0h-.02s-.02,0-.02,0h-.02s-.02,0-.02,0h-.01s-.01,0-.01,0h-.01s-.01,0-.01,0h-.01s-.01,0-.01,0h-.01s-.01,0-.01,0h-.01s-.01,0-.01,0h-.01s-.01,0-.01,0h-.01s-.01,0-.01,0h-.01s-.01,0-.01,0h-.01s-.01,0-.01,0h-.01s-.01,0-.01,0h-.01s-.01,0-.01,0h-.01s-.01,0-.01,0h-.01s-.01,0-.01,0h-.01s-.01,0-.01,0h-.01s-.01,0-.01,0h-.01s-.01,0-.01,0h-.01s-.01,0-.01,0h-.01s-.01,0-.01,0h-.01s-.01,0-.01,0h-.01s-.01,0-.01,0h-.01s-.01,0-.01,0h-.01s-.01,0-.01,0h-.01s-.01,0-.01,0h-.01s-.01,0-.01,0h-.01s-.01,0-.01,0h-.01s-.01,0-.01,0h-.01s-.01,0-.01,0h-.01s-.01,0-.01,0h-.01s-.01,0-.01,0h-.01s-.01,0-.01,0h-.01s-.01,0-.01,0h-.01s-.01,0-.01,0h-.01s-.01,0-.01,0h-.01s-.01,0-.01,0h-.01s-.01,0-.01,0h-.01s-.01,0-.01,0h-.01s-.01,0-.01,0h-.01s-.01,0-.01,0h-.01s-.01,0-.01,0h-.01s-.01,0-.01,0h-.01s-.01,0-.01,0h-.01s-.01,0-.01,0h-.01s-.01,0-.01,0h-.01s-.01,0-.01,0h-.01s-.01,0-.01,0h-.01s-.01,0-.01,0h-.01s-.01,0-.01,0h-.01s-.01,0-.01,0h-.01s-.01,0-.01,0h-.01s-.01,0-.01,0h-.01s-.01,0-.01,0h-.01s-.01,0-.01,0h-.01s-.01,0-.01,0h-.01s-.01,0-.01,0h-.01s-.01,0-.01,0h-.01s-.01,0-.01,0h-.01s-.01,0-.01,0h-.01s-.01,0-.01,0h-.01s-.01,0-.01,0h-.01s-.01,0-.01,0h-.01s-.01,0-.01,0h0c-5.8-5.83-12.54-14.49-17.58-24.38-5.08-9.97-8.41-21.15-7.37-31.93,2.29-23.74,20.54-41.26,40.63-39.32,20.09,1.94,34.66,22.62,32.38,46.36Z" />
  <path class="cls-7"
    d="m133.49,77.38c-2.11,21.85-17.42,36.8-34.46,50.59l-3.91-.37c-.24-.02-.47-.05-.7-.07-.69-.07-1.31-.13-1.77-.18h-.01s-.01,0-.01,0h-.01s-.01,0-.01,0h-.01s-.01,0-.01,0h-.01s-.01,0-.01,0h-.01s-.01,0-.01,0h-.01s-.01,0-.01,0h-.01s-.01,0-.01,0h-.01s-.01,0-.01,0h-.01s-.01,0-.01,0h-.01s-.01,0-.01,0h-.01s-.01,0-.01,0h-.01s-.01,0-.01,0h-.01s-.01,0-.01,0h-.01s-.01,0-.01,0h-.01s-.01,0-.01,0h-.01s-.01,0-.01,0h-.01s-.01,0-.01,0h-.01s-.01,0-.01,0h-.01s-.01,0-.01,0h-.01s-.01,0-.01,0h-.01s-.01,0-.01,0h-.01s-.01,0-.01,0h-.01s-.01,0-.01,0h-.01s-.01,0-.01,0h-.01s-.01,0-.01,0h-.01s-.01,0-.01,0h-.01s-.01,0-.01,0h-.01s-.01,0-.01,0h-.01s-.01,0-.01,0h-.01s-.01,0-.01,0h-.01s-.01,0-.01,0h-.01s-.01,0-.01,0h-.01s-.01,0-.01,0h-.01s-.01,0-.01,0h-.01s-.01,0-.01,0h-.01s-.01,0-.01,0h-.01s-.01,0-.01,0h-.01s-.01,0-.01,0h-.01s-.01,0-.01,0h-.01s-.01,0-.01,0h-.01s-.01,0-.01,0h-.01s-.01,0-.01,0h-.01s-.01,0-.01,0h-.01s-.01,0-.01,0h-.01s-.01,0-.01,0h-.01s-.01,0-.01,0h-.01s-.01,0-.01,0h-.01s-.01,0-.01,0h-.01s-.01,0-.01,0h-.01s-.01,0-.01,0h-.01s-.01,0-.01,0h-.01s-.01,0-.01,0h-.01s-.01,0-.01,0h-.01s-.01,0-.01,0h-.01s-.01,0-.01,0h-.01s-.01,0-.01,0h-.01s-.01,0-.01,0h-.01s-.01,0-.01,0h-.01s-.01,0-.01,0h-.01s-.02,0-.02,0h-.01s-.02,0-.02,0h-.02s-.02,0-.02,0h-.02s-.02,0-.02,0h-.02s-.02,0-.02,0h-.02s-.02,0-.02,0h-.02s-.02,0-.02,0h-.02s-.02,0-.02,0h-.02s-.02,0-.02,0h-.02s-.02,0-.02,0h-.02s-.02,0-.02,0h-.02s-.02,0-.02,0h-.02s-.02,0-.02,0h-.02s-.02,0-.02,0h-.02s-.02,0-.02,0h-.02s-.02,0-.02,0h-.02s-.02,0-.02,0h-.02s-.02,0-.02,0h-.02s-.02,0-.02,0h-.02s-.02,0-.02,0h-.02s-.02,0-.02,0h-.02s-.02,0-.02,0h-.02s-.02,0-.02,0h-.02s-.02,0-.02,0h-.02s-.02,0-.02,0h-.02s-.02,0-.02,0h-.02s-.02,0-.02,0h-.02s-.02,0-.02,0h-.02s-.02,0-.02,0h-.02s-.02,0-.02,0h-.02s-.02,0-.02,0h-.02s-.02,0-.02,0h-.02s-.02,0-.02,0h-.02s-.02,0-.02,0h-.02s-.02,0-.02,0h-.02s-.02,0-.02,0h-.02s-.02,0-.02,0h-.02s-.02,0-.02,0h-.02s-.02,0-.02,0h-.02s-.02,0-.02,0h-.02s-.02,0-.02,0h-.02s-.02,0-.02,0h-.02s-.02,0-.02,0h-.02s-.02,0-.02,0h-.02s-.02,0-.02,0h-.02s-.02,0-.02,0h-.02s-.02,0-.02,0h-.02s-.02,0-.02,0h-.02s-.02,0-.02,0h-.02s-.02,0-.02,0h-.02s-.02,0-.02,0h-.02s-.02,0-.02,0h-.02s-.02,0-.02,0h-.02s-.02,0-.02,0h-.02s-.02,0-.02,0h-.02s-.02,0-.02,0h-.02s-.02,0-.02,0h-.02s-.02,0-.02,0h-.02s-.02,0-.02,0h-.02s-.02,0-.02,0h-.02s-.02,0-.02,0h-.02s-.02,0-.02,0h-.02s-.02,0-.02,0h-.02s-.02,0-.02,0h-.02s-.02,0-.02,0h-.02s-.02,0-.02,0h-.02s-.02,0-.02,0h-.02s-.02,0-.02,0h-.02s-.02,0-.02,0h-.02s-.02,0-.02,0h-.02s-.02,0-.02,0h-.02s-.02,0-.02,0h-.02s-.02,0-.02,0h-.02s-.02,0-.02,0h-.02s-.02,0-.02,0h-.02s-.02,0-.02,0h-.02s-.02,0-.02,0h-.02s-.02,0-.02,0h-.02s-.02,0-.02,0h-.02s-.02,0-.02,0h-.02s-.02,0-.02,0h-.02s-.02,0-.02,0h-.02s-.02,0-.02,0h-.02s-.02,0-.02,0h-.02s-.02,0-.02,0h-.02s-.02,0-.02,0h-.02s-.02,0-.02,0h-.02s-.02,0-.02,0h-.02s-.02,0-.02,0h-.02s-.02,0-.02,0h-.02s-.02,0-.02,0h-.02s-.02,0-.02,0h-.02s-.02,0-.02,0h-.02s-.02,0-.02,0h-.02s-.02,0-.02,0h-.02s-.02,0-.02,0h-.02s-.02,0-.02,0h-.02s-.02,0-.02,0h-.02s-.02,0-.02,0h-.02s-.02,0-.02,0h-.02s-.02,0-.02,0h-.02s-.02,0-.02,0h-.02s-.02,0-.02,0h-.02s-.02,0-.02,0h-.02s-.02,0-.02,0h-.02s-.02,0-.02,0h-.02s-.02,0-.02,0h-.02s-.02,0-.02,0h-.02s-.02,0-.02,0h-.02s-.02,0-.02,0h-.02s-.02,0-.02,0h-.02s-.02,0-.02,0h-.02s-.02,0-.02,0h-.02s-.02,0-.02,0h-.02s-.02,0-.02,0h-.02s-.02,0-.02,0h-.02s-.02,0-.02,0h-.02s-.02,0-.02,0h-.02s-.02,0-.02,0h-.02s-.02,0-.02,0h-.02s-.02,0-.02,0h-.02s-.02,0-.02,0h-.02s-.02,0-.02,0h-.02s-.02,0-.02,0h-.02s-.02,0-.02,0h-.02s-.02,0-.02,0h-.02s-.02,0-.02,0h-.01s-.01,0-.01,0h-.01s-.01,0-.01,0h-.01s-.01,0-.01,0h-.01s-.01,0-.01,0h-.01s-.01,0-.01,0h-.01s-.01,0-.01,0h-.01s-.01,0-.01,0h-.01s-.01,0-.01,0h-.01s-.01,0-.01,0h-.01s-.01,0-.01,0h-.01s-.01,0-.01,0h-.01s-.01,0-.01,0h-.01s-.01,0-.01,0h-.01s-.01,0-.01,0h-.01s-.01,0-.01,0h-.01s-.01,0-.01,0h-.01s-.01,0-.01,0h-.01s-.01,0-.01,0h-.01s-.01,0-.01,0h-.01s-.01,0-.01,0h-.01s-.01,0-.01,0h-.01s-.01,0-.01,0h-.01s-.01,0-.01,0h-.01s-.01,0-.01,0h-.01s-.01,0-.01,0h-.01s-.01,0-.01,0h-.01s-.01,0-.01,0h-.01s-.01,0-.01,0h-.01s-.01,0-.01,0h-.01s-.01,0-.01,0h-.01s-.01,0-.01,0h-.01s-.01,0-.01,0h-.01s-.01,0-.01,0h-.01s-.01,0-.01,0h-.01s-.01,0-.01,0h-.01s-.01,0-.01,0h-.01s-.01,0-.01,0h-.01s-.01,0-.01,0h-.01s-.01,0-.01,0h-.01s-.01,0-.01,0h-.01s-.01,0-.01,0h-.01s-.01,0-.01,0h-.01s-.01,0-.01,0h-.01s-.01,0-.01,0h-.01s-.01,0-.01,0h-.01s-.01,0-.01,0h-.01s-.01,0-.01,0h-.01s-.01,0-.01,0h-.01s-.01,0-.01,0h-.01s-.01,0-.01,0h-.01s-.01,0-.01,0h-.01s-.01,0-.01,0h-.01s-.01,0-.01,0h-.01s-.01,0-.01,0h-.01s-.01,0-.01,0h-.01s-.01,0-.01,0h-.01s-.01,0-.01,0h-.01s-.01,0-.01,0h-.01s-.01,0-.01,0h-.01s-.01,0-.01,0h-.01s-.01,0-.01,0h0c-5.8-5.83-12.54-14.49-17.58-24.38-5.08-9.97-8.41-21.15-7.37-31.93,2.29-23.74,20.54-41.26,40.63-39.32,20.09,1.94,34.66,22.62,32.38,46.36Z" />
  <path class="cls-15"
    d="m93.53,127.25c-.12-.01-.23-.03-.34-.04-.36-.04-.69-.07-.93-.1h0s0,0,0,0h0s0,0,0,0h0s0,0,0,0h0s0,0,0,0h-.01s0,0,0,0h0s0,0,0,0h0s0,0,0,0h0s0,0,0,0h-.01s0,0,0,0h0s0,0,0,0h0s0,0,0,0h-.01s0,0,0,0h0s0,0,0,0h-.01s0,0,0,0h0s0,0,0,0h-.01s0,0,0,0h0s0,0,0,0h-.01s0,0,0,0h0s0,0,0,0h-.01s0,0,0,0h-.01s0,0,0,0h0s0,0,0,0h-.01s0,0,0,0h-.01s0,0,0,0h-.01s0,0,0,0h-.01s0,0,0,0h-.01s0,0,0,0h-.01s0,0,0,0h-.01s0,0,0,0h-.01s0,0,0,0h-.01s0,0,0,0h-.01s0,0,0,0h-.01s0,0,0,0h-.01s0,0,0,0h0s0,0,0,0h0s0,0,0,0h-.01s0,0,0,0h0s0,0,0,0h0s0,0,0,0h-.01s0,0,0,0h0s0,0,0,0h0s0,0,0,0h-.02s0,0,0,0h0s0,0,0,0h0s0,0,0,0h0s0,0,0,0h0s0,0,0,0h0s0,0,0,0h0s0,0,0,0h0s0,0,0,0h0s0,0,0,0h0s0,0,0,0h0s0,0,0,0h0s0,0,0,0h0s0,0,0,0h0s0,0,0,0h0s0,0,0,0h0s0,0,0,0h0s0,0,0,0h0s0,0,0,0h-.02s0,0,0,0h0s0,0,0,0h0s0,0,0,0h0s0,0,0,0h-.02s0,0,0,0h0s0,0,0,0h0s0,0,0,0h0s0,0,0,0h-.02s0,0,0,0h0s0,0,0,0h-.02s0,0,0,0h0s0,0,0,0h0s0,0,0,0h0s0,0,0,0h-.02s0,0,0,0h0s0,0,0,0h-.02s0,0,0,0h0s0,0,0,0h0s0,0,0,0h0s0,0,0,0h0s0,0,0,0h-.02s0,0,0,0h0s0,0,0,0h-.02s0,0,0,0h0s0,0,0,0h-.02s0,0,0,0h0s0,0,0,0h0s0,0,0,0h0s0,0,0,0h0s0,0,0,0h-.02s0,0,0,0h0s0,0,0,0h0s0,0,0,0h0s0,0,0,0h0s0,0,0,0h-.02s0,0,0,0h0s0,0,0,0h0s0,0,0,0h0s0,0,0,0h0s0,0,0,0h0s0,0,0,0h0s0,0,0,0h0s0,0,0,0h-.02s0,0,0,0h0s0,0,0,0h0s0,0,0,0h0s0,0,0,0h0s0,0,0,0h0s0,0,0,0h0s0,0,0,0h0s0,0,0,0h-.02s0,0,0,0h0s0,0,0,0h0s0,0,0,0h0s0,0,0,0h0s0,0,0,0h0s0,0,0,0h0s0,0,0,0h0s0,0,0,0h-.02s0,0,0,0h0s0,0,0,0h0s0,0,0,0h0s0,0,0,0h0s0,0,0,0h-.02s0,0,0,0h0s0,0,0,0h0s0,0,0,0h0s0,0,0,0h0s0,0,0,0h-.02s0,0,0,0h0s0,0,0,0h-.02s0,0,0,0h0s0,0,0,0h-.02s0,0,0,0h0s0,0,0,0h0s0,0,0,0h0s0,0,0,0h0s0,0,0,0h-.02s0,0,0,0h0s0,0,0,0h-.02s0,0,0,0h0s0,0,0,0h0s0,0,0,0h0s0,0,0,0h-.02s0,0,0,0h0s0,0,0,0h-.02s0,0,0,0h0s0,0,0,0h0s0,0,0,0h0s0,0,0,0h-.02s0,0,0,0h0s0,0,0,0h0s0,0,0,0h0s0,0,0,0h-.02s0,0,0,0h0s0,0,0,0h0s0,0,0,0h0s0,0,0,0h0s0,0,0,0h0s0,0,0,0h0s0,0,0,0h0s0,0,0,0h0s0,0,0,0h0s0,0,0,0h0s0,0,0,0h0s0,0,0,0h0s0,0,0,0h0s0,0,0,0h0s0,0,0,0h-.02s0,0,0,0h0s0,0,0,0h0s0,0,0,0h0s0,0,0,0h0s0,0,0,0h-.01s0,0,0,0h0s0,0,0,0h0s0,0,0,0h-.01s0,0,0,0h-.01s0,0,0,0h0s0,0,0,0h0s0,0,0,0h-.01s0,0,0,0h-.01s0,0,0,0h-.01s0,0,0,0h-.01s0,0,0,0h-.01s0,0,0,0h-.01s0,0,0,0h-.01s0,0,0,0h-.01s0,0,0,0h-.01s0,0,0,0h-.01s0,0,0,0h0s0,0,0,0h-.01s0,0,0,0h-.01s0,0,0,0h0s0,0,0,0h-.01s0,0,0,0h-.01s0,0,0,0h0s0,0,0,0h0c-5.49-11.15-12.35-33.37-10.28-54.9,1.15-11.92,4.31-22.47,8.47-29.91,2.08-3.72,4.4-6.64,6.82-8.56,2.42-1.92,4.91-2.82,7.38-2.59,2.46.24,4.74,1.6,6.75,3.95,2.01,2.35,3.73,5.65,5.06,9.7,2.66,8.09,3.75,19.06,2.6,30.98-2.11,21.89-10.74,37.51-20.18,51.96l-1.81-.16Z" />
  <path class="cls-24"
    d="m92.69,127.86c9.41-14.44,18.03-30.09,20.15-52.02,2.28-23.65-4.18-43.67-14.48-45.13.93-.21,1.86-.28,2.8-.19,10.51,1.01,17.16,21.24,14.85,45.17-2.13,22.14-10.91,37.89-20.42,52.44-.6-.03-1.64-.14-2.48-.23-.15-.02-.29-.03-.42-.04Z" />
  <path class="cls-7"
    d="m93.53,127.44c-.12-.01-.23-.03-.34-.04-.36-.04-.69-.07-.93-.1h0s0,0,0,0h0s0,0,0,0h0s0,0,0,0h0s0,0,0,0h-.01s0,0,0,0h0s0,0,0,0h0s0,0,0,0h0s0,0,0,0h-.01s0,0,0,0h0s0,0,0,0h0s0,0,0,0h-.01s0,0,0,0h0s0,0,0,0h-.01s0,0,0,0h0s0,0,0,0h-.01s0,0,0,0h0s0,0,0,0h-.01s0,0,0,0h0s0,0,0,0h-.01s0,0,0,0h-.01s0,0,0,0h0s0,0,0,0h-.01s0,0,0,0h-.01s0,0,0,0h-.01s0,0,0,0h-.01s0,0,0,0h-.01s0,0,0,0h-.01s0,0,0,0h-.01s0,0,0,0h-.01s0,0,0,0h-.01s0,0,0,0h-.01s0,0,0,0h-.01s0,0,0,0h-.01s0,0,0,0h0s0,0,0,0h0s0,0,0,0h-.01s0,0,0,0h0s0,0,0,0h0s0,0,0,0h-.01s0,0,0,0h0s0,0,0,0h0s0,0,0,0h-.02s0,0,0,0h0s0,0,0,0h0s0,0,0,0h0s0,0,0,0h0s0,0,0,0h0s0,0,0,0h0s0,0,0,0h0s0,0,0,0h0s0,0,0,0h0s0,0,0,0h0s0,0,0,0h0s0,0,0,0h0s0,0,0,0h0s0,0,0,0h0s0,0,0,0h0s0,0,0,0h0s0,0,0,0h0s0,0,0,0h-.02s0,0,0,0h0s0,0,0,0h0s0,0,0,0h0s0,0,0,0h-.02s0,0,0,0h0s0,0,0,0h0s0,0,0,0h0s0,0,0,0h-.02s0,0,0,0h0s0,0,0,0h-.02s0,0,0,0h0s0,0,0,0h0s0,0,0,0h0s0,0,0,0h-.02s0,0,0,0h0s0,0,0,0h-.02s0,0,0,0h0s0,0,0,0h0s0,0,0,0h0s0,0,0,0h0s0,0,0,0h-.02s0,0,0,0h0s0,0,0,0h-.02s0,0,0,0h0s0,0,0,0h-.02s0,0,0,0h0s0,0,0,0h0s0,0,0,0h0s0,0,0,0h0s0,0,0,0h-.02s0,0,0,0h0s0,0,0,0h0s0,0,0,0h0s0,0,0,0h0s0,0,0,0h-.02s0,0,0,0h0s0,0,0,0h0s0,0,0,0h0s0,0,0,0h0s0,0,0,0h0s0,0,0,0h0s0,0,0,0h0s0,0,0,0h-.02s0,0,0,0h0s0,0,0,0h0s0,0,0,0h0s0,0,0,0h0s0,0,0,0h0s0,0,0,0h0s0,0,0,0h0s0,0,0,0h-.02s0,0,0,0h0s0,0,0,0h0s0,0,0,0h0s0,0,0,0h0s0,0,0,0h0s0,0,0,0h0s0,0,0,0h0s0,0,0,0h-.02s0,0,0,0h0s0,0,0,0h0s0,0,0,0h0s0,0,0,0h0s0,0,0,0h-.02s0,0,0,0h0s0,0,0,0h0s0,0,0,0h0s0,0,0,0h0s0,0,0,0h-.02s0,0,0,0h0s0,0,0,0h-.02s0,0,0,0h0s0,0,0,0h-.02s0,0,0,0h0s0,0,0,0h0s0,0,0,0h0s0,0,0,0h0s0,0,0,0h-.02s0,0,0,0h0s0,0,0,0h-.02s0,0,0,0h0s0,0,0,0h0s0,0,0,0h0s0,0,0,0h-.02s0,0,0,0h0s0,0,0,0h-.02s0,0,0,0h0s0,0,0,0h0s0,0,0,0h0s0,0,0,0h-.02s0,0,0,0h0s0,0,0,0h0s0,0,0,0h0s0,0,0,0h-.02s0,0,0,0h0s0,0,0,0h0s0,0,0,0h0s0,0,0,0h0s0,0,0,0h0s0,0,0,0h0s0,0,0,0h0s0,0,0,0h0s0,0,0,0h0s0,0,0,0h0s0,0,0,0h0s0,0,0,0h0s0,0,0,0h0s0,0,0,0h0s0,0,0,0h-.02s0,0,0,0h0s0,0,0,0h0s0,0,0,0h0s0,0,0,0h0s0,0,0,0h-.01s0,0,0,0h0s0,0,0,0h0s0,0,0,0h-.01s0,0,0,0h-.01s0,0,0,0h0s0,0,0,0h0s0,0,0,0h-.01s0,0,0,0h-.01s0,0,0,0h-.01s0,0,0,0h-.01s0,0,0,0h-.01s0,0,0,0h-.01s0,0,0,0h-.01s0,0,0,0h-.01s0,0,0,0h-.01s0,0,0,0h-.01s0,0,0,0h0s0,0,0,0h-.01s0,0,0,0h-.01s0,0,0,0h0s0,0,0,0h-.01s0,0,0,0h-.01s0,0,0,0h0s0,0,0,0h0c-5.49-11.15-12.35-33.37-10.28-54.9,1.15-11.92,4.31-22.47,8.47-29.91,2.08-3.72,4.4-6.64,6.82-8.56,2.42-1.92,4.91-2.82,7.38-2.59,2.46.24,4.74,1.6,6.75,3.95,2.01,2.35,3.73,5.65,5.06,9.7,2.66,8.09,3.75,19.06,2.6,30.98-2.11,21.89-10.74,37.51-20.18,51.96l-1.81-.16Z" />
  <path class="cls-26"
    d="m84.63,187.12c13.73,1.36,25.97-8.67,27.33-22.4.82-8.31-2.52-16.07-8.33-21.2,7.68,4.9,12.39,13.85,11.43,23.54-1.36,13.73-13.6,23.77-27.33,22.41-5.43-.54-10.28-2.77-14.07-6.13,3.21,2.05,6.93,3.39,10.97,3.79Z" />
  <circle class="cls-19" cx="90.19" cy="164.59" r="24.99" />
  <circle class="cls-18" cx="87.09" cy="162.25" r="24.99" />
  <circle class="cls-20" cx="87.09" cy="162.25" r="24.99" />
  <path class="cls-22"
    d="m76.4,169.03l-4.52-1.02c-.95-.22-1.42-.32-1.66-.57-.26-.28-.37-.66-.31-1.04.06-.35.39-.72,1.05-1.47l15.75-17.75c.67-.75,1.01-1.13,1.35-1.22.36-.1.75,0,1.04.23.27.23.41.71.69,1.68l1.36,4.65v.02c.31,1.04.46,1.57.47,2.09,0,.57-.12,1.13-.37,1.64-.23.47-.59.88-1.32,1.7l-8.28,9.35-.02.02c-.73.82-1.1,1.23-1.54,1.5-.48.3-1.02.47-1.58.52-.51.03-1.04-.09-2.1-.33Zm11.41,2.58l6.47,1.47c.96.22,1.44.33,1.77.2.36-.14.63-.44.73-.81.09-.33-.04-.79-.31-1.69,0-.03-.02-.06-.03-.09l-1.95-6.46-.02-.07c-.28-.9-.41-1.35-.68-1.57-.29-.24-.67-.33-1.04-.23-.33.09-.67.46-1.33,1.19l-4.53,4.99-.02.02c-.66.74-1,1.1-1.06,1.45-.06.38.05.77.31,1.05.24.25.72.36,1.67.58Z" />
  <path class="cls-25"
    d="m293.43,93.14c10.35,4.79,22.62.29,27.41-10.06,2.9-6.26,2.39-13.22-.74-18.8,4.66,5.91,5.91,14.17,2.53,21.47-4.79,10.35-17.06,14.85-27.41,10.06-4.09-1.89-7.26-4.95-9.31-8.6,1.94,2.47,4.48,4.53,7.53,5.94Z" />
  <circle class="cls-1" cx="303.89" cy="77.07" r="20.14" transform="translate(106.26 320.45) rotate(-65.15)" />
  <circle class="cls-2" cx="302.11" cy="74.41" r="19.64" transform="translate(107.64 317.28) rotate(-65.15)" />
  <circle class="cls-4" cx="302.11" cy="74.41" r="20.14" transform="translate(107.64 317.28) rotate(-65.15)" />
  <path class="cls-29"
    d="m288.92,77.05l3.79,1.76c.89.41,1.34.62,1.79.7.49.08,1,.04,1.47-.11.43-.14.83-.41,1.6-.94h0s.02-.02.02-.02l8.81-6.12c.78-.54,1.17-.81,1.44-1.15.3-.37.51-.82.6-1.29.08-.43.04-.9-.06-1.83l-.43-4.16c-.08-.86-.13-1.29-.33-1.54-.21-.26-.54-.41-.87-.4-.31,0-.67.25-1.38.75l-16.75,11.61c-.7.49-1.05.73-1.17,1.01-.12.31-.08.65.1.93.17.26.57.44,1.36.81Z" />
  <path class="cls-29"
    d="m307.73,85.76l-5.44-2.52c-.8-.37-1.21-.56-1.37-.82-.18-.28-.22-.63-.1-.94.11-.28.46-.52,1.17-1h0s.02-.01.02-.01l4.8-3.24c.71-.48,1.06-.71,1.37-.72.34,0,.66.14.87.4.19.24.24.64.33,1.44h0s0,.07,0,.07l.64,5.76h0s0,.06,0,.08h0c.09.8.13,1.21,0,1.47-.15.29-.44.49-.78.53-.31.04-.71-.15-1.52-.52Z" />
  <path class="cls-6"
    d="m288.92,77.05l3.79,1.76c.89.41,1.34.62,1.79.7.49.08,1,.04,1.47-.11.43-.14.83-.41,1.6-.94h0s.02-.02.02-.02l8.81-6.12c.78-.54,1.17-.81,1.44-1.15.3-.37.51-.82.6-1.29.08-.43.04-.9-.06-1.83l-.43-4.16c-.08-.86-.13-1.29-.33-1.54-.21-.26-.54-.41-.87-.4-.31,0-.67.25-1.38.75l-16.75,11.61c-.7.49-1.05.73-1.17,1.01-.12.31-.08.65.1.93.17.26.57.44,1.36.81Z" />
  <path class="cls-6"
    d="m307.73,85.76l-5.44-2.52c-.8-.37-1.21-.56-1.37-.82-.18-.28-.22-.63-.1-.94.11-.28.46-.52,1.17-1h0s.02-.01.02-.01l4.8-3.24c.71-.48,1.06-.71,1.37-.72.34,0,.66.14.87.4.19.24.24.64.33,1.44h0s0,.07,0,.07l.64,5.76h0s0,.06,0,.08h0c.09.8.13,1.21,0,1.47-.15.29-.44.49-.78.53-.31.04-.71-.15-1.52-.52Z" />
  <path class="cls-25"
    d="m306.17,128.65c11.01-2.97,17.52-14.3,14.55-25.31-1.8-6.66-6.65-11.67-12.65-13.94,7.37,1.54,13.63,7.07,15.72,14.84,2.97,11.01-3.54,22.34-14.55,25.31-4.35,1.17-8.75.87-12.66-.61,3.08.64,6.35.59,9.59-.29Z" />
  <g class="cls-8">
    <path class="cls-28"
      d="m308.08,89.4l.21-.98-.56,1.91.35-.94Zm-11.49,39.53l.2-.98-.56,1.91.35-.93Zm23.17-25.33c2.83,10.47-3.37,21.26-13.85,24.08l.52,1.93c11.54-3.11,18.37-14.99,15.26-26.54l-1.93.52Zm-12.03-13.26c5.71,2.16,10.32,6.93,12.03,13.26l1.93-.52c-1.88-6.98-6.98-12.24-13.26-14.61l-.71,1.87Zm.15.04c7.01,1.47,12.97,6.73,14.96,14.12l1.93-.52c-2.2-8.14-8.76-13.94-16.48-15.56l-.41,1.96Zm14.96,14.12c2.83,10.47-3.37,21.26-13.85,24.08l.52,1.93c11.54-3.11,18.37-15,15.26-26.54l-1.93.52Zm-13.85,24.08c-4.14,1.12-8.32.82-12.05-.58l-.71,1.87c4.1,1.55,8.72,1.87,13.28.64l-.52-1.93Zm-3.08-.9c-3.09.83-6.2.88-9.12.27l-.41,1.96c3.23.67,6.65.62,10.05-.3l-.52-1.93Z" />
  </g>
  <circle class="cls-3" cx="300.8" cy="108.71" r="19.64" transform="translate(-17.94 82.12) rotate(-15.1)" />
  <circle class="cls-5" cx="300.8" cy="108.71" r="20.14" transform="translate(-17.94 82.12) rotate(-15.1)" />
  <path class="cls-29"
    d="m292.39,119.21l4.04-1.09c.95-.26,1.42-.39,1.82-.61.43-.26.79-.61,1.05-1.03.24-.39.37-.84.62-1.75h0s0-.03,0-.03l2.82-10.35c.25-.91.38-1.37.37-1.81,0-.48-.14-.95-.37-1.37-.21-.38-.55-.71-1.22-1.36l-3-2.92c-.62-.61-.93-.91-1.24-.97-.33-.06-.68.03-.93.25-.24.21-.35.62-.58,1.46l-5.39,19.66c-.23.82-.34,1.24-.25,1.52.11.31.35.55.67.65.3.09.72-.02,1.57-.25Z" />
  <path class="cls-29"
    d="m312.4,113.81l-5.78,1.56c-.85.23-1.28.35-1.58.26-.32-.1-.57-.34-.68-.65-.09-.29.02-.69.26-1.51h0v-.02s1.6-5.57,1.6-5.57c.23-.82.35-1.23.58-1.43.25-.22.6-.31.92-.25.3.06.6.34,1.18.89h0s.05.05.05.05l4.19,4.01h0s.04.04.05.06h0c.58.56.88.85.94,1.13.07.32-.03.66-.25.9-.21.23-.64.35-1.49.58Z" />
  <path class="cls-6"
    d="m292.39,119.21l4.04-1.09c.95-.26,1.42-.39,1.82-.61.43-.26.79-.61,1.05-1.03.24-.39.37-.84.62-1.75h0s0-.03,0-.03l2.82-10.35c.25-.91.38-1.37.37-1.81,0-.48-.14-.95-.37-1.37-.21-.38-.55-.71-1.22-1.36l-3-2.92c-.62-.61-.93-.91-1.24-.97-.33-.06-.68.03-.93.25-.24.21-.35.62-.58,1.46l-5.39,19.66c-.23.82-.34,1.24-.25,1.52.11.31.35.55.67.65.3.09.72-.02,1.57-.25Z" />
  <path class="cls-6"
    d="m312.4,113.81l-5.78,1.56c-.85.23-1.28.35-1.58.26-.32-.1-.57-.34-.68-.65-.09-.29.02-.69.26-1.51h0v-.02s1.6-5.57,1.6-5.57c.23-.82.35-1.23.58-1.43.25-.22.6-.31.92-.25.3.06.6.34,1.18.89h0s.05.05.05.05l4.19,4.01h0s.04.04.05.06h0c.58.56.88.85.94,1.13.07.32-.03.66-.25.9-.21.23-.64.35-1.49.58Z" />
  <path class="cls-17"
    d="m171.76,133.47h.5v6.25c0,2.1,2.41,3.29,4.07,2.01l.02-.02.03-.02,19.25-11.16c.25-.21.5-.67.68-1.38.18-.71.28-1.57.28-2.44s-.1-1.74-.28-2.44c-.19-.73-.45-1.2-.71-1.39l-19.28-14.84c-1.67-1.28-4.07-.1-4.07,2.01v4.73h-24.75c-1.4,0-2.53,1.13-2.53,2.53v13.64c0,1.4,1.13,2.53,2.53,2.53h24.25Z" />
  <path class="cls-16"
    d="m171.76,137.89h.5v6.25c0,2.1,2.41,3.29,4.07,2.01l19.28-14.84c1.32-1.01,1.32-3,0-4.01l-19.28-14.84c-1.67-1.28-4.07-.09-4.07,2.01v4.73h-24.75c-1.4,0-2.53,1.13-2.53,2.53v13.64c0,1.4,1.13,2.53,2.53,2.53h24.25Z" />
  <path class="cls-9"
    d="m241.62,87.03l-23.75,17.02c-6.69,4.81-9.5,13.32-6.93,21.08l9.07,27.55c2.56,7.77,9.89,13.03,18.17,13.03h29.34c8.28,0,15.61-5.26,18.17-13.03l9.07-27.55c2.55-7.77-.24-16.28-6.94-21.08l-23.74-17.02c-6.69-4.8-15.76-4.8-22.46,0Z" />
  <path class="cls-13"
    d="m241.62,80.6l-23.75,17.02c-6.69,4.81-9.5,13.32-6.93,21.08l9.07,27.55c2.56,7.77,9.89,13.03,18.17,13.03h29.34c8.28,0,15.61-5.26,18.17-13.03l9.07-27.55c2.55-7.77-.24-16.28-6.94-21.08l-23.75-17.02c-6.69-4.8-15.76-4.8-22.46,0h0Z" />
  <path class="cls-13"
    d="m238.17,154.13c-6.04,0-11.35-3.81-13.21-9.48l-9.07-27.55c-1.87-5.67.16-11.82,5.04-15.33l23.75-17.02c2.39-1.71,5.21-2.62,8.17-2.62s5.78.91,8.17,2.62l23.74,17.02c4.88,3.5,6.91,9.66,5.04,15.33l-9.07,27.55c-1.86,5.67-7.18,9.48-13.21,9.48h-29.35Z" />
  <path class="cls-11"
    d="m270.83,139.79h-35.97c-5.84,0-11.11-2.92-14.2-7.56l4.3,13.07c1.86,5.67,7.18,9.48,13.21,9.48h29.35c6.04,0,11.35-3.81,13.21-9.48l4.3-13.07c-3.09,4.64-8.36,7.56-14.2,7.56Z" />
  <path class="cls-12"
    d="m255.53,135.37l-5.29-.06c-.63,0-1.15.49-1.15,1.11l-.03,2.61c-.03,2.07,1.65,3.75,3.74,3.78,2.09.03,3.81-1.63,3.83-3.69l.03-2.61c0-.62-.5-1.13-1.13-1.14h0Z" />
  <path class="cls-12"
    d="m252.13,99.92c-7.37.35-13.45,6.29-13.88,13.55-.27,4.38,1.47,8.38,4.41,11.2h.01l.05.06,1,.87,4.24,3.66c.46.39,1.04.61,1.65.61h6.51c.61,0,1.19-.22,1.65-.61l4.39-3.8.7-.6.03-.02c2.84-2.64,4.61-6.37,4.61-10.5,0-8.2-6.97-14.82-15.36-14.42h0Zm.72,7.67c3.77,0,6.85,3.03,6.85,6.75s-3.07,6.75-6.85,6.75-6.84-3.03-6.84-6.75,3.07-6.75,6.84-6.75Z" />
  <g>
    <path class="cls-12"
      d="m96.63,95.46l-4.86-.51c-.58-.06-1.1.36-1.16.94l-.25,2.43c-.2,1.92,1.19,3.64,3.12,3.84,1.92.2,3.64-1.19,3.84-3.11l.25-2.43c.06-.58-.36-1.1-.94-1.16h0Z" />
    <path class="cls-12"
      d="m96.56,62.13c-6.81-.3-12.91,4.71-13.94,11.45-.62,4.06.63,7.94,3.08,10.81h0s.04.06.04.06l.85.89,3.58,3.77c.39.41.9.66,1.47.71l5.99.55c.56.05,1.12-.1,1.57-.43l4.36-3.16.69-.51.03-.02c2.84-2.22,4.79-5.54,5.15-9.39.71-7.64-5.13-14.4-12.88-14.74h0Zm0,7.21c3.47.32,6.03,3.41,5.71,6.88s-3.41,6.03-6.87,5.71-6.03-3.41-5.71-6.87,3.41-6.03,6.88-5.71Z" />
  </g>
</svg>