<svg width="87" height="97" viewBox="0 0 87 97" fill="none" xmlns="http://www.w3.org/2000/svg">
<g clip-path="url(#clip0_4563_11983)">
<path d="M36.9896 9.10625C37.2196 9.09625 37.4496 9.09625 37.6696 9.08625C38.0196 9.08625 38.3696 9.06625 38.7196 9.07625C38.9596 9.07625 39.2096 9.09625 39.4496 9.10625C39.7896 9.12625 40.1296 9.13625 40.4696 9.16625C40.7696 9.19625 41.0696 9.22625 41.3796 9.25625C41.5796 9.27625 41.7796 9.30625 41.9796 9.32625C42.3296 9.37625 42.6896 9.43625 43.0396 9.49625C43.2096 9.52625 43.3896 9.55625 43.5596 9.58625C43.7096 9.61625 43.8496 9.65625 43.9996 9.68625C44.5596 9.80625 45.1196 9.94625 45.6896 10.1062C45.9096 10.1662 46.1296 10.2362 46.3496 10.2962C46.7496 10.4162 47.1496 10.5562 47.5496 10.6962C47.7796 10.7762 48.0196 10.8563 48.2496 10.9462C48.5596 11.0662 48.8596 11.1862 49.1696 11.3162C49.4396 11.4262 49.7096 11.5363 49.9696 11.6562C50.2296 11.7762 50.4796 11.8962 50.7396 12.0162C51.0296 12.1562 51.3296 12.2962 51.6196 12.4462C51.8496 12.5662 52.0896 12.6962 52.3196 12.8263C52.6296 12.9963 52.9296 13.1662 53.2396 13.3362C53.4496 13.4562 53.6496 13.5763 53.8596 13.7063C54.1796 13.8963 54.4996 14.0962 54.8096 14.3062C55.0096 14.4362 55.2096 14.5662 55.3996 14.6962C55.7396 14.9262 56.0696 15.1663 56.4096 15.4062C56.5696 15.5262 56.7396 15.6462 56.9096 15.7662C57.3696 16.1163 57.8396 16.4762 58.2896 16.8562C58.3196 16.8762 58.3496 16.9062 58.3796 16.9263C58.9096 17.3563 59.4296 17.8162 59.9396 18.2862L69.9696 16.3562C69.8796 16.2762 69.7996 16.1962 69.7096 16.1163C69.2796 15.7362 68.8496 15.3662 68.4196 15.0062C68.4196 15.0062 68.4196 15.0062 68.4096 15.0062C68.3796 14.9762 68.3496 14.9562 68.3196 14.9362C67.9196 14.6062 67.5196 14.2862 67.1096 13.9762C67.0496 13.9362 66.9996 13.8962 66.9396 13.8562C66.7796 13.7362 66.6096 13.6163 66.4396 13.4963C66.2096 13.3363 65.9896 13.1662 65.7696 13.0062C65.6596 12.9262 65.5496 12.8563 65.4396 12.7863C65.2396 12.6562 65.0496 12.5262 64.8496 12.3962C64.6896 12.2962 64.5396 12.1862 64.3796 12.0862C64.2196 11.9862 64.0596 11.8962 63.8996 11.7962C63.6896 11.6662 63.4896 11.5462 63.2796 11.4262C63.1696 11.3662 63.0596 11.2862 62.9496 11.2262C62.7596 11.1162 62.5596 11.0163 62.3596 10.9163C62.1296 10.7863 61.8896 10.6562 61.6596 10.5363C61.5696 10.4963 61.4896 10.4462 61.4096 10.3962C61.1996 10.2962 60.9896 10.2062 60.7796 10.1062C60.5196 9.98625 60.2696 9.85625 60.0096 9.74625C59.9396 9.71625 59.8596 9.67625 59.7896 9.63625C59.5996 9.55625 59.3996 9.48625 59.2096 9.40625C58.8996 9.27625 58.5996 9.15625 58.2896 9.03625C58.2096 9.00625 58.1296 8.96625 58.0396 8.93625C57.8896 8.87625 57.7396 8.83625 57.5896 8.78625C57.1896 8.64625 56.7896 8.51625 56.3896 8.38625C56.2696 8.34625 56.1596 8.30625 56.0396 8.27625C55.9396 8.24625 55.8296 8.22625 55.7296 8.19625C55.1696 8.03625 54.5996 7.89625 54.0396 7.77625C53.9396 7.75625 53.8296 7.71625 53.7296 7.69625C53.6896 7.69625 53.6496 7.68625 53.5996 7.67625C53.4196 7.63625 53.2496 7.61625 53.0696 7.58625C52.7196 7.52625 52.3696 7.46625 52.0096 7.41625C51.8096 7.38625 51.5996 7.36625 51.3996 7.33625C51.1996 7.31625 50.9996 7.28625 50.8096 7.26625C50.7096 7.26625 50.5996 7.25625 50.4996 7.24625C50.1596 7.21625 49.8196 7.19625 49.4796 7.18625C49.2396 7.17625 48.9896 7.16625 48.7496 7.15625C48.3996 7.15625 48.0396 7.15625 47.6896 7.16625C47.4596 7.16625 47.2396 7.16625 47.0096 7.18625C46.6196 7.20625 46.2396 7.24625 45.8596 7.27625C45.6696 7.29625 45.4796 7.30625 45.2996 7.32625C44.7296 7.39625 44.1696 7.47625 43.6096 7.58625L33.5796 9.51625C34.1396 9.40625 34.6996 9.32625 35.2696 9.25625C35.4596 9.23625 35.6496 9.22625 35.8296 9.20625C36.2096 9.16625 36.5896 9.13625 36.9796 9.11625L36.9896 9.10625Z" fill="#FFECBB" stroke="black" stroke-linecap="round" stroke-linejoin="bevel"/>
<path d="M57.3323 86.3779C73.4222 80.5915 80.3552 58.9098 72.8175 37.9503C65.2799 16.9908 46.1261 4.69057 30.0362 10.4769C13.9463 16.2633 7.01327 37.9451 14.5509 58.9046C22.0885 79.8641 41.2424 92.1643 57.3323 86.3779Z" fill="#FFBE15" stroke="black" stroke-linecap="round" stroke-linejoin="bevel"/>
<path d="M36.6398 80.2465C34.4298 79.0164 32.2898 77.4565 30.2698 75.6065C16.3298 62.8865 11.6198 40.2665 19.7698 25.1865C22.9698 19.2565 27.7098 15.3465 33.4798 13.8665C39.0098 12.4465 44.9698 13.4065 50.7098 16.6165C52.9198 17.8465 55.0598 19.4165 57.0798 21.2565C71.0098 33.9765 75.7198 56.5965 67.5798 71.6765C64.3798 77.6065 59.6398 81.5164 53.8698 82.9965C48.3398 84.4165 42.3798 83.4565 36.6298 80.2465H36.6398Z" fill="#FFBE15" stroke="black" stroke-linecap="round" stroke-linejoin="bevel"/>
<path d="M80.5995 73.3165C80.5995 73.3165 80.6195 73.2865 80.6295 73.2765C80.7495 73.0765 80.8596 72.8665 80.9796 72.6665C81.1196 72.4265 81.2596 72.1965 81.3895 71.9565C81.4095 71.9165 81.4295 71.8765 81.4495 71.8365C81.6795 71.4165 81.8996 70.9865 82.1096 70.5565C82.1396 70.5065 82.1595 70.4465 82.1796 70.3965C82.2696 70.2065 82.3596 70.0165 82.4396 69.8165C82.5496 69.5865 82.6596 69.3565 82.7596 69.1165C82.7996 69.0265 82.8296 68.9365 82.8696 68.8465C82.9596 68.6265 83.0495 68.4065 83.1295 68.1965C83.1995 68.0065 83.2896 67.8165 83.3596 67.6265C83.4095 67.5065 83.4395 67.3865 83.4895 67.2665C83.5795 67.0365 83.6595 66.7965 83.7395 66.5665C83.7895 66.4065 83.8496 66.2465 83.9096 66.0865C83.9596 65.9365 83.9995 65.7865 84.0396 65.6465C84.1196 65.3965 84.1995 65.1365 84.2695 64.8865C84.3095 64.7465 84.3595 64.6165 84.3895 64.4765C84.4296 64.3165 84.4696 64.1465 84.5096 63.9865C84.5796 63.7065 84.6596 63.4165 84.7196 63.1365C84.7496 63.0065 84.7895 62.8765 84.8195 62.7465C84.8596 62.5865 84.8795 62.4165 84.9195 62.2565C84.9895 61.9465 85.0496 61.6465 85.1096 61.3365C85.1396 61.2065 85.1696 61.0665 85.1896 60.9365C85.2196 60.7965 85.2296 60.6465 85.2596 60.4965C85.3196 60.1165 85.3796 59.7365 85.4396 59.3565C85.4596 59.2065 85.4896 59.0465 85.5096 58.8965C85.5196 58.7865 85.5296 58.6765 85.5396 58.5765C85.5996 58.0865 85.6496 57.6065 85.6896 57.1065C85.6996 56.9465 85.7295 56.7965 85.7395 56.6465C85.7395 56.5965 85.7395 56.5465 85.7395 56.5065C85.7995 55.7465 85.8295 54.9865 85.8495 54.2165C85.8495 54.1665 85.8495 54.1165 85.8495 54.0665C85.8495 53.9765 85.8495 53.8865 85.8495 53.7965C85.8595 52.8965 85.8495 51.9865 85.8095 51.0765C85.8095 51.0165 85.8095 50.9465 85.8095 50.8865C85.8095 50.8565 85.8095 50.8265 85.8095 50.7965C85.7695 50.0965 85.7196 49.3865 85.6596 48.6765C85.6396 48.5065 85.6195 48.3265 85.5995 48.1565C85.5395 47.6165 85.4796 47.0865 85.4096 46.5465C85.3996 46.4565 85.3895 46.3665 85.3795 46.2765C85.3595 46.1365 85.3295 45.9965 85.3095 45.8565C85.2295 45.3065 85.1395 44.7665 85.0295 44.2165C84.9895 43.9865 84.9496 43.7565 84.8996 43.5365C84.7596 42.8465 84.6195 42.1665 84.4495 41.4865C84.4295 41.4265 84.4196 41.3665 84.4096 41.3065C84.2296 40.5665 84.0295 39.8265 83.8095 39.0965C83.7495 38.8865 83.6796 38.6665 83.6096 38.4565C83.4496 37.9165 83.2695 37.3865 83.0895 36.8465C83.0395 36.7165 83.0095 36.5765 82.9595 36.4465C82.9195 36.3465 82.8795 36.2465 82.8495 36.1465C82.6595 35.6265 82.4696 35.1065 82.2596 34.5865C82.1896 34.4065 82.1296 34.2265 82.0496 34.0565C81.7696 33.3665 81.4795 32.6865 81.1695 32.0165C81.1595 31.9865 81.1495 31.9565 81.1295 31.9365C81.0995 31.8765 81.0696 31.8165 81.0396 31.7465C80.6496 30.9165 80.2395 30.0865 79.8095 29.2765C79.7595 29.1865 79.7196 29.0965 79.6796 29.0065C79.6495 28.9565 79.6195 28.9065 79.5995 28.8565C79.2295 28.1665 78.8396 27.4865 78.4296 26.8065C78.4095 26.7765 78.3896 26.7365 78.3696 26.7065C78.2896 26.5665 78.1896 26.4265 78.1096 26.2965C77.8396 25.8565 77.5595 25.4165 77.2695 24.9865C77.2195 24.9065 77.1695 24.8265 77.1096 24.7465C77.0096 24.5965 76.8996 24.4465 76.7896 24.2965C76.5596 23.9665 76.3295 23.6365 76.0995 23.3165C76.0195 23.2065 75.9496 23.0965 75.8696 22.9865C75.7696 22.8465 75.6596 22.7165 75.5496 22.5765C75.3496 22.3065 75.1395 22.0365 74.9296 21.7765C74.8396 21.6565 74.7495 21.5365 74.6595 21.4165C74.5495 21.2765 74.4296 21.1465 74.3195 21.0065C74.1295 20.7765 73.9296 20.5365 73.7396 20.3065C73.6396 20.1965 73.5495 20.0765 73.4595 19.9665C73.3295 19.8165 73.1995 19.6765 73.0695 19.5365C72.8795 19.3265 72.6896 19.1065 72.4896 18.8965C72.3996 18.7965 72.3195 18.7065 72.2295 18.6065C72.0695 18.4365 71.9095 18.2765 71.7495 18.1165C71.5695 17.9365 71.3895 17.7465 71.2095 17.5665C71.1395 17.4965 71.0695 17.4265 70.9995 17.3565C70.6695 17.0365 70.3296 16.7165 69.9896 16.3965L59.9595 18.3265C60.3795 18.7065 60.7796 19.0965 61.1796 19.4965C61.3595 19.6765 61.5396 19.8565 61.7196 20.0365C61.9696 20.2965 62.2196 20.5565 62.4696 20.8165C62.6696 21.0265 62.8595 21.2365 63.0495 21.4565C63.2795 21.7065 63.4995 21.9665 63.7295 22.2265C63.9295 22.4565 64.1195 22.6865 64.3195 22.9265C64.5295 23.1765 64.7295 23.4365 64.9395 23.6865C65.1495 23.9465 65.3596 24.2165 65.5596 24.4865C65.7496 24.7365 65.9296 24.9765 66.1096 25.2265C66.3496 25.5465 66.5795 25.8765 66.7995 26.2065C66.9595 26.4365 67.1196 26.6665 67.2696 26.8965C67.5596 27.3265 67.8396 27.7665 68.1096 28.2065C68.2196 28.3765 68.3295 28.5465 68.4296 28.7165C68.8396 29.3865 69.2295 30.0765 69.5995 30.7665C69.6695 30.9065 69.7395 31.0465 69.8195 31.1865C70.2495 31.9965 70.6595 32.8165 71.0495 33.6565C71.0896 33.7465 71.1395 33.8365 71.1796 33.9265C71.4895 34.5965 71.7796 35.2765 72.0596 35.9665C72.1296 36.1465 72.1996 36.3165 72.2696 36.4965C72.4696 37.0165 72.6695 37.5365 72.8596 38.0565C72.9396 38.2865 73.0195 38.5165 73.0995 38.7465C73.2795 39.2865 73.4595 39.8165 73.6195 40.3565C73.6795 40.5665 73.7496 40.7765 73.8096 40.9965C74.0196 41.7265 74.2295 42.4665 74.4095 43.2065C74.4195 43.2665 74.4396 43.3265 74.4496 43.3865C74.6096 44.0665 74.7596 44.7565 74.8996 45.4365C74.9496 45.6665 74.9895 45.8965 75.0295 46.1165C75.1295 46.6665 75.2195 47.2065 75.3095 47.7565C75.3495 47.9865 75.3796 48.2165 75.4096 48.4465C75.4796 48.9865 75.5495 49.5165 75.5995 50.0565C75.6195 50.2265 75.6396 50.4065 75.6596 50.5765C75.7296 51.2865 75.7795 51.9865 75.8095 52.6965C75.8095 52.7865 75.8095 52.8865 75.8095 52.9765C75.8495 53.8865 75.8595 54.7965 75.8495 55.6965C75.8495 55.8365 75.8495 55.9765 75.8495 56.1165C75.8295 56.8865 75.7995 57.6465 75.7395 58.4065C75.7295 58.6065 75.6996 58.8065 75.6896 59.0065C75.6496 59.4965 75.5996 59.9865 75.5396 60.4765C75.5096 60.7365 75.4696 60.9965 75.4396 61.2565C75.3896 61.6365 75.3296 62.0165 75.2596 62.3965C75.2096 62.6765 75.1595 62.9565 75.1096 63.2365C75.0496 63.5465 74.9895 63.8565 74.9195 64.1665C74.8595 64.4565 74.7896 64.7565 74.7196 65.0465C74.6496 65.3365 74.5795 65.6165 74.4995 65.9065C74.4195 66.2065 74.3396 66.5065 74.2495 66.8065C74.1796 67.0665 74.0996 67.3165 74.0196 67.5765C73.9195 67.8865 73.8196 68.1865 73.7196 68.4965C73.6396 68.7365 73.5596 68.9665 73.4696 69.2065C73.3596 69.5165 73.2395 69.8265 73.1195 70.1365C73.0295 70.3565 72.9495 70.5765 72.8495 70.7965C72.7095 71.1165 72.5695 71.4365 72.4296 71.7565C72.3396 71.9465 72.2595 72.1465 72.1695 72.3365C71.9395 72.8265 71.6895 73.3065 71.4395 73.7865C71.2895 74.0665 71.1195 74.3365 70.9595 74.6165C70.8395 74.8165 70.7296 75.0265 70.6096 75.2265C70.4696 75.4565 70.3195 75.6765 70.1695 75.9065C70.0295 76.1165 69.8995 76.3365 69.7595 76.5465C69.6395 76.7265 69.5095 76.8865 69.3895 77.0665C69.2095 77.3165 69.0295 77.5765 68.8495 77.8165C68.7395 77.9665 68.6195 78.0965 68.5095 78.2465C68.2995 78.5165 68.0796 78.7865 67.8596 79.0465C67.7296 79.1965 67.5996 79.3365 67.4696 79.4765C67.2496 79.7265 67.0196 79.9765 66.7896 80.2165C66.6596 80.3565 66.5295 80.4865 66.3895 80.6165C66.1195 80.8865 65.8495 81.1465 65.5695 81.4065C65.4295 81.5265 65.2996 81.6565 65.1595 81.7765C64.7695 82.1165 64.3795 82.4465 63.9795 82.7565C63.9195 82.8065 63.8595 82.8565 63.7995 82.8965C63.2695 83.2965 62.7295 83.6665 62.1695 84.0265C62.0195 84.1265 61.8595 84.2265 61.7095 84.3165C61.4995 84.4465 61.2896 84.5665 61.0796 84.6865C60.8896 84.7965 60.6895 84.9065 60.4995 85.0065C60.2796 85.1165 60.0695 85.2365 59.8495 85.3365C59.6595 85.4365 59.4596 85.5265 59.2696 85.6165C59.0096 85.7365 58.7496 85.8465 58.4896 85.9565C58.3096 86.0365 58.1195 86.1165 57.9395 86.1865C57.6695 86.2965 57.3896 86.3865 57.1096 86.4865C56.9296 86.5465 56.7596 86.6165 56.5796 86.6665C56.2696 86.7665 55.9596 86.8565 55.6496 86.9365C55.4996 86.9765 55.3496 87.0265 55.1996 87.0665C54.7296 87.1865 54.2696 87.2965 53.7896 87.3865L63.8195 85.4565C64.2895 85.3665 64.7595 85.2565 65.2295 85.1365C65.3795 85.0965 65.5296 85.0465 65.6796 85.0065C65.9896 84.9165 66.2996 84.8365 66.6096 84.7365C66.7896 84.6765 66.9695 84.6165 67.1395 84.5565C67.4195 84.4565 67.6896 84.3665 67.9696 84.2565C68.1596 84.1865 68.3396 84.1065 68.5196 84.0265C68.7796 83.9165 69.0395 83.8065 69.2995 83.6865C69.3795 83.6465 69.4596 83.6165 69.5396 83.5865C69.6596 83.5265 69.7696 83.4665 69.8796 83.4065C70.0996 83.2965 70.3095 83.1865 70.5295 83.0765C70.7295 82.9765 70.9195 82.8665 71.1195 82.7565C71.3295 82.6365 71.5396 82.5165 71.7495 82.3865C71.8396 82.3265 71.9395 82.2765 72.0295 82.2265C72.0895 82.1865 72.1495 82.1365 72.2095 82.0965C72.7595 81.7465 73.3095 81.3665 73.8396 80.9665C73.8496 80.9665 73.8595 80.9465 73.8695 80.9465C73.9195 80.9065 73.9696 80.8665 74.0196 80.8265C74.4195 80.5165 74.8095 80.1865 75.1995 79.8565C75.2595 79.8065 75.3295 79.7565 75.3895 79.6965C75.4695 79.6265 75.5396 79.5565 75.6096 79.4865C75.8896 79.2265 76.1595 78.9665 76.4296 78.6965C76.5196 78.6065 76.6096 78.5365 76.6896 78.4465C76.7396 78.3965 76.7795 78.3465 76.8195 78.2965C77.0495 78.0565 77.2696 77.8065 77.4995 77.5565C77.5996 77.4465 77.7095 77.3365 77.8095 77.2265C77.8395 77.1965 77.8595 77.1665 77.8895 77.1265C78.1095 76.8665 78.3296 76.5965 78.5396 76.3265C78.6396 76.2065 78.7395 76.0865 78.8395 75.9565C78.8495 75.9365 78.8695 75.9165 78.8795 75.8965C79.0695 75.6565 79.2395 75.3965 79.4296 75.1465C79.5396 74.9865 79.6595 74.8365 79.7695 74.6765C79.7695 74.6665 79.7896 74.6465 79.7996 74.6365C79.9396 74.4265 80.0796 74.2065 80.2196 73.9865C80.3496 73.7765 80.4896 73.5765 80.6196 73.3565L80.5995 73.3165Z" fill="#BD7118" stroke="black" stroke-miterlimit="10"/>
<path d="M36.6398 80.2465C34.4298 79.0164 32.2898 77.4565 30.2698 75.6065C16.3298 62.8865 11.6198 40.2665 19.7698 25.1865C22.9698 19.2565 27.7098 15.3465 33.4798 13.8665C39.0098 12.4465 44.9698 13.4065 50.7098 16.6165C52.9198 17.8465 55.0598 19.4165 57.0798 21.2565C71.0098 33.9765 75.7198 56.5965 67.5798 71.6765C64.3798 77.6065 59.6398 81.5164 53.8698 82.9965C48.3398 84.4165 42.3798 83.4565 36.6298 80.2465H36.6398Z" fill="#FFBE15" stroke="black" stroke-linecap="round" stroke-linejoin="bevel"/>
<path d="M20.9297 30.817C24.1297 24.887 28.8696 20.977 34.6397 19.497C40.1697 18.077 46.1296 19.037 51.8696 22.247C54.0796 23.477 56.2197 25.047 58.2397 26.887C64.3297 32.447 68.6596 39.897 70.9196 47.777C69.3696 37.827 64.5297 28.017 56.9697 21.107C54.9496 19.257 52.7996 17.697 50.5996 16.467C44.8496 13.247 38.8897 12.297 33.3697 13.717C27.6097 15.187 22.8697 19.107 19.6597 25.037C15.0697 33.527 14.5597 44.407 17.4797 54.567C16.1797 46.187 17.2097 37.707 20.9297 30.817Z" fill="#BD7118" stroke="black" stroke-linecap="round" stroke-linejoin="bevel"/>
<mask id="mask0_4563_11983" style="mask-type:luminance" maskUnits="userSpaceOnUse" x="20" y="16" width="48" height="67">
<path d="M20.0498 63.0067L31.4398 16.3867L67.1098 35.4867L55.7198 82.1167L20.0498 63.0067Z" fill="white"/>
</mask>
<g mask="url(#mask0_4563_11983)">
<path d="M32.4895 63.7166C30.9895 62.9166 30.2995 59.8866 30.9095 56.7266C31.5295 53.4966 33.2595 51.5066 34.8295 52.2166C34.8595 52.2366 34.8995 52.2466 34.9295 52.2666C36.4295 53.0666 37.1295 56.0866 36.5195 59.2566C35.8995 62.4966 34.1695 64.4866 32.5995 63.7666L32.4895 63.7166ZM43.0495 68.4766C42.3195 68.0866 41.7595 67.1466 41.4695 65.8266C41.1895 64.5266 41.1795 62.9866 41.4695 61.4866C41.7595 59.9966 42.2995 58.6966 42.9995 57.8466C43.7595 56.9266 44.5995 56.6166 45.3895 56.9666C45.4195 56.9866 45.4595 56.9966 45.4895 57.0166C46.2295 57.4166 46.7995 58.3466 47.0895 59.6866C47.3695 60.9866 47.3695 62.5266 47.0895 64.0266C46.7995 65.5166 46.2595 66.8166 45.5595 67.6666C44.7995 68.5866 43.9595 68.8966 43.1695 68.5366L43.0495 68.4866M42.5795 52.6066C42.0395 52.3166 41.4695 52.0366 40.8695 51.7666C35.9795 49.5566 32.4995 49.6366 30.4395 50.0966C28.9895 50.4166 28.0395 50.9566 27.5595 51.2866C27.4495 51.6566 27.3595 52.0466 27.2795 52.4366C25.9495 59.3166 29.8595 67.2066 36.0795 70.5466C36.3595 70.6966 36.6495 70.8366 36.9395 70.9666C43.6595 73.9866 50.2595 70.6066 51.6495 63.4166C51.7495 62.8966 51.8195 62.3666 51.8595 61.8366C51.5395 61.1366 50.9895 60.1166 50.1095 58.9366C48.7695 57.1366 46.4095 54.6766 42.5595 52.6166" fill="#FFBE15"/>
<path d="M51.8795 61.8066C51.8395 62.3366 51.7695 62.8666 51.6695 63.3866C50.2795 70.5766 43.6795 73.9566 36.9595 70.9366C36.6695 70.8066 36.3795 70.6666 36.0995 70.5166C29.8795 67.1866 25.9695 59.2866 27.2995 52.4066C27.3795 52.0066 27.4695 51.6266 27.5795 51.2566C27.5495 51.2766 27.5295 51.2966 27.4995 51.3066C27.3095 51.4366 27.0795 51.4466 26.8795 51.3366C26.8295 51.3066 26.7795 51.2766 26.7295 51.2266C26.6595 51.4966 26.5995 51.7766 26.5395 52.0666C25.1195 59.4566 29.2495 67.9166 35.8595 71.4566C36.1595 71.6166 36.4695 71.7766 36.7795 71.9166C43.9095 75.1266 50.9395 71.4666 52.4295 63.7266C52.4895 63.4366 52.5295 63.1466 52.5695 62.8566C52.5695 62.8566 52.5595 62.8566 52.5495 62.8566C52.3695 62.7566 52.2095 62.5766 52.1195 62.3266C52.0595 62.1866 51.9895 62.0066 51.8895 61.7966" fill="#231F20"/>
<path d="M34.7096 53.2369L34.6396 53.1969C33.5296 52.6969 32.1696 54.4669 31.6596 57.0669C31.1796 59.5969 31.6396 62.1669 32.6996 62.7369C32.7296 62.7569 32.7596 62.7669 32.7896 62.7769C33.8996 63.2869 35.2696 61.5069 35.7596 58.9169C36.2496 56.3669 35.7596 53.8069 34.6996 53.2369" fill="#FFBE15"/>
<path d="M32.6997 62.7368C31.6397 62.1668 31.1797 59.5968 31.6597 57.0668C32.1697 54.4668 33.5297 52.6968 34.6397 53.1968L34.7097 53.2368C35.7697 53.8068 36.2597 56.3668 35.7697 58.9168C35.2697 61.5068 33.8997 63.2868 32.7997 62.7768C32.7697 62.7668 32.7397 62.7468 32.7097 62.7368M34.9397 52.2668C34.9397 52.2668 34.8797 52.2368 34.8397 52.2168C33.2597 51.5068 31.5397 53.4968 30.9197 56.7268C30.3097 59.8868 30.9997 62.9168 32.4997 63.7168L32.6097 63.7668C34.1797 64.4868 35.9097 62.4968 36.5297 59.2568C37.1397 56.0968 36.4397 53.0668 34.9397 52.2668Z" fill="#221F20"/>
<path d="M45.2796 57.9966L45.2096 57.9566C44.6996 57.7366 44.1196 57.9666 43.5696 58.6466C42.9696 59.3766 42.4896 60.5066 42.2396 61.8366C41.9896 63.1566 41.9796 64.4966 42.2396 65.6166C42.4496 66.5766 42.8196 67.2566 43.2896 67.5066C43.3196 67.5166 43.3496 67.5366 43.3696 67.5466C43.8796 67.7866 44.4696 67.5466 45.0096 66.8666C45.6096 66.1366 46.0896 65.0066 46.3396 63.6766C46.5896 62.3566 46.5996 61.0166 46.3596 59.8966C46.1396 58.9266 45.7596 58.2566 45.2896 57.9966" fill="#FFBE15"/>
<path d="M43.2697 67.4963C42.7997 67.2463 42.4297 66.5663 42.2197 65.6063C41.9697 64.4863 41.9697 63.1563 42.2197 61.8263C42.4697 60.5063 42.9497 59.3663 43.5497 58.6363C44.0997 57.9663 44.6897 57.7263 45.1897 57.9463L45.2597 57.9863C45.7397 58.2463 46.1097 58.9163 46.3297 59.8863C46.5697 61.0063 46.5697 62.3463 46.3097 63.6663C46.0597 64.9863 45.5797 66.1263 44.9797 66.8563C44.4297 67.5363 43.8497 67.7663 43.3397 67.5363C43.3097 67.5263 43.2797 67.5063 43.2597 67.4963M45.4797 57.0163C45.4797 57.0163 45.4097 56.9863 45.3797 56.9663C44.5897 56.6163 43.7497 56.9263 42.9897 57.8463C42.2897 58.6963 41.7397 59.9863 41.4597 61.4863C41.1697 62.9863 41.1697 64.5263 41.4597 65.8263C41.7497 67.1463 42.3097 68.0863 43.0397 68.4763L43.1597 68.5263C43.9497 68.8863 44.7897 68.5763 45.5497 67.6563C46.2497 66.8063 46.7997 65.5163 47.0797 64.0163C47.3697 62.5163 47.3697 60.9763 47.0797 59.6763C46.7897 58.3463 46.2197 57.4063 45.4797 57.0063" fill="#221F20"/>
<path d="M56.4697 30.8567C54.1997 29.6467 40.3497 28.9567 36.6697 29.6867C34.4997 30.1167 32.5997 33.9467 31.4697 36.8267C34.3097 36.3067 38.2597 36.4867 43.3397 38.7767C43.9997 39.0767 44.6397 39.3867 45.2397 39.7167C48.8497 41.6467 51.4497 43.9867 53.3197 46.1867L53.0597 43.3267C53.0397 43.0667 53.1497 42.8467 53.3397 42.7967L58.0397 41.5367C58.1197 41.5167 58.1897 41.5267 58.2697 41.5667C58.2997 41.5867 58.3297 41.6067 58.3597 41.6267L63.3397 46.1367C63.3397 46.1367 63.3997 46.1767 63.4197 46.1967C63.5997 46.2967 63.7297 46.1667 63.7697 46.1167C63.8097 46.0667 63.9497 45.8467 63.8197 45.5567C60.0797 37.1867 57.4197 31.7467 56.7097 31.0267C56.6597 30.9767 56.5797 30.9167 56.4797 30.8667" fill="#FFBE15"/>
<path d="M56.7797 29.9567C53.8897 28.4067 39.7297 28.0067 36.4897 28.6467C33.7897 29.1767 31.6097 33.9667 30.4697 37.0367C30.7897 36.9567 31.1197 36.8767 31.4697 36.8167C32.5997 33.9367 34.4997 30.1067 36.6697 29.6767C40.3497 28.9567 54.1997 29.6367 56.4697 30.8467C56.5697 30.8967 56.6497 30.9567 56.6997 31.0067C57.4097 31.7267 60.0697 37.1567 63.8097 45.5367C63.9397 45.8367 63.8097 46.0467 63.7597 46.0967C63.7197 46.1467 63.5897 46.2767 63.4097 46.1767C63.3797 46.1667 63.3597 46.1467 63.3297 46.1167L58.3497 41.6067C58.3497 41.6067 58.2897 41.5568 58.2597 41.5468C58.1897 41.5068 58.1097 41.4967 58.0297 41.5167L53.3297 42.7767C53.1397 42.8267 53.0297 43.0467 53.0497 43.3067L53.3097 46.1667C53.6197 46.5367 53.9197 46.9067 54.1897 47.2667L53.8697 43.7167L58.0897 42.5767L62.9197 46.9567C62.9997 47.0267 63.0797 47.0867 63.1597 47.1267C63.5597 47.3367 63.9997 47.2567 64.3097 46.8767C64.6797 46.4167 64.7397 45.6767 64.4597 45.0467C61.6897 38.8667 58.1697 31.2667 57.1297 30.1967C57.0397 30.1067 56.9197 30.0267 56.7697 29.9467" fill="#231F20"/>
<path d="M45.0297 40.6771C44.4297 40.3571 43.8097 40.0571 43.1597 39.7671C35.2497 36.1971 30.2097 37.8871 27.8997 39.2071C27.5997 39.3671 27.3897 39.7171 27.3397 40.1471C27.2797 40.5771 27.3797 41.0271 27.5997 41.3771L27.6897 41.5471C27.7697 41.6871 27.7897 41.8671 27.7597 42.0271C27.7297 42.1871 27.6297 42.2971 27.5097 42.3471C27.3797 42.3871 27.2497 42.4271 27.1197 42.4771C26.2297 42.7971 25.5797 43.6671 25.3397 44.8471C25.0997 46.0571 25.3097 47.3471 25.9397 48.3871L26.1397 48.7271C26.1397 48.7271 26.7797 49.8171 27.1097 50.4171C27.5597 50.0571 28.6197 49.4171 30.2597 49.0571C32.3997 48.5871 36.0097 48.5071 41.0597 50.7771C41.6797 51.0571 42.2597 51.3471 42.8197 51.6471C46.7997 53.7771 49.2497 56.3471 50.6497 58.2371C51.8597 59.8671 52.5097 61.2571 52.7797 61.9471C53.2997 61.6871 54.4397 61.2371 54.4397 61.2371C55.3497 60.9071 55.9997 60.0071 56.2297 58.7971C56.4697 57.5771 56.2297 56.2771 55.5797 55.2471L55.3397 54.8871C55.2497 54.7471 55.2197 54.5671 55.2497 54.4071C55.2697 54.2471 55.3697 54.1171 55.4897 54.0671L55.5697 54.0371C55.8797 53.9271 56.1097 53.6271 56.2097 53.2371C56.3097 52.8471 56.2697 52.3871 56.0897 51.9971C54.7797 49.2271 51.6697 44.2771 45.0197 40.7171" fill="#FFBE15"/>
<path d="M27.1097 50.3966C26.7797 49.7966 26.1397 48.7066 26.1397 48.7066L25.9397 48.3666C25.3197 47.3266 25.0997 46.0366 25.3397 44.8266C25.5797 43.6466 26.2297 42.7766 27.1197 42.4566C27.2497 42.4066 27.3797 42.3566 27.5097 42.3266C27.6297 42.2866 27.7197 42.1666 27.7597 42.0066C27.7997 41.8466 27.7697 41.6666 27.6897 41.5266L27.5997 41.3566C27.3697 41.0066 27.2797 40.5566 27.3397 40.1266C27.3897 39.7066 27.5997 39.3566 27.8997 39.1866C30.1997 37.8666 35.2497 36.1766 43.1597 39.7466C43.8097 40.0366 44.4297 40.3366 45.0297 40.6566C51.6797 44.2166 54.7897 49.1666 56.0997 51.9366C56.2797 52.3266 56.3297 52.7866 56.2197 53.1766C56.1197 53.5766 55.8897 53.8766 55.5797 53.9766L55.4997 54.0066C55.3797 54.0566 55.2897 54.1866 55.2597 54.3466C55.2297 54.5066 55.2597 54.6866 55.3497 54.8266L55.5897 55.1866C56.2397 56.2166 56.4797 57.5166 56.2397 58.7366C56.0097 59.9466 55.3597 60.8466 54.4497 61.1766C54.4497 61.1766 53.3097 61.6266 52.7897 61.8866C52.5197 61.1966 51.8697 59.8066 50.6597 58.1766C49.2597 56.2866 46.8097 53.7266 42.8297 51.5866C42.2697 51.2866 41.6897 50.9966 41.0697 50.7166C36.0197 48.4466 32.4097 48.5266 30.2697 48.9966C28.6297 49.3666 27.5697 49.9966 27.1197 50.3566M45.2497 39.6666C44.6397 39.3466 44.0097 39.0266 43.3497 38.7266C38.2697 36.4366 34.3197 36.2566 31.4797 36.7766C31.1297 36.8366 30.7997 36.9166 30.4797 36.9966C29.2397 37.3166 28.2697 37.7666 27.5397 38.1866C27.0297 38.4766 26.6697 39.0866 26.5697 39.8266C26.4997 40.3766 26.5697 40.9466 26.7597 41.4366C25.6797 41.8766 24.8897 42.9666 24.5797 44.4266C24.2697 45.9366 24.5497 47.6166 25.3397 48.9266L25.5397 49.2566C25.5397 49.2566 26.1697 50.3366 26.4997 50.9266C26.5597 51.0366 26.6297 51.1266 26.7097 51.1966C26.7597 51.2366 26.8097 51.2766 26.8597 51.3066C27.0597 51.4166 27.2897 51.4066 27.4797 51.2766C27.4997 51.2566 27.5297 51.2366 27.5597 51.2266C28.0397 50.8966 28.9897 50.3466 30.4397 50.0366C32.4997 49.5766 35.9697 49.5066 40.8697 51.7066C41.4697 51.9766 42.0397 52.2566 42.5797 52.5466C46.4297 54.6066 48.7797 57.0666 50.1297 58.8666C50.9997 60.0466 51.5597 61.0766 51.8797 61.7666C51.9797 61.9766 52.0497 62.1466 52.1097 62.2966C52.2097 62.5466 52.3597 62.7266 52.5397 62.8266C52.5397 62.8266 52.5497 62.8266 52.5597 62.8266C52.7197 62.9066 52.8897 62.9166 53.0497 62.8466C53.5997 62.6066 54.7197 62.1766 54.7197 62.1766C55.8597 61.7466 56.7097 60.5866 56.9897 59.0666C57.2697 57.5966 56.9997 55.9966 56.2697 54.7266C56.5897 54.4566 56.8397 54.0566 56.9597 53.5566C57.1397 52.8666 57.0597 52.0866 56.7497 51.4166C56.2197 50.2966 55.4097 48.8266 54.1997 47.2366C53.9297 46.8766 53.6297 46.5066 53.3197 46.1366C51.4597 43.9366 48.8497 41.5966 45.2397 39.6666" fill="#231F20"/>
</g>
<path d="M32.4198 52.1057C30.9698 52.4257 30.0198 52.9657 29.5398 53.2957C29.4298 53.6657 29.3398 54.0557 29.2698 54.4457C28.2098 59.9357 30.4798 66.0557 34.5998 70.0057C29.2298 66.3057 25.9898 59.1257 27.2198 52.7857C27.3098 52.3857 27.3998 52.0057 27.4998 51.6357C27.6898 51.4957 27.9898 51.3257 28.3498 51.1457C28.5698 51.5157 28.8898 52.0657 29.0898 52.4257C29.5398 52.0757 30.5998 51.4357 32.2398 51.0757C33.7398 50.7457 36.0098 50.6157 38.9698 51.3657C39.5598 51.5757 40.1698 51.8257 40.8098 52.1157C41.4098 52.3857 41.9798 52.6657 42.5198 52.9557C44.5998 54.0757 46.2298 55.3057 47.5198 56.4757C46.6498 55.8357 45.6698 55.2057 44.5698 54.6157C44.0298 54.3257 43.4698 54.0557 42.8698 53.7857C37.9798 51.5757 34.4998 51.6557 32.4398 52.1157L32.4198 52.1057Z" fill="#FFF7AB"/>
<path d="M38.6399 31.7061C36.9199 32.0361 35.3799 34.5161 34.2499 36.9561C33.1999 36.9561 32.2399 37.0361 31.3999 37.1861C32.5399 34.3061 34.4199 30.4661 36.5999 30.0461C40.2799 29.3161 54.1299 29.9961 56.3999 31.2061C56.4999 31.2661 56.5799 31.3161 56.6199 31.3661C56.7799 31.5261 57.0299 31.9261 57.3699 32.5161C53.3899 31.5361 41.9299 31.0561 38.6399 31.7061Z" fill="#FFF7AB"/>
<path d="M50.3698 44.8156C49.3598 44.0756 48.2398 43.3656 47.0098 42.6956C46.3998 42.3656 45.7898 42.0756 45.1398 41.7756C37.2198 38.2056 32.1798 39.8956 29.8698 41.2156C29.5798 41.3856 29.3698 41.7256 29.3198 42.1556C29.2598 42.5756 29.3598 43.0356 29.5798 43.3856L29.6598 43.5456C29.7398 43.6856 29.7698 43.8656 29.7298 44.0256C29.6898 44.1856 29.5998 44.2956 29.4798 44.3456C29.3498 44.3756 29.2098 44.4156 29.0798 44.4756C28.1898 44.7856 27.5498 45.6656 27.2998 46.8456C27.0598 48.0056 27.2698 49.2356 27.8398 50.2556C27.4898 50.4356 27.2098 50.6156 27.0298 50.7556C26.6998 50.1556 26.0598 49.0656 26.0598 49.0656L25.8498 48.7156C25.2298 47.6756 25.0098 46.3856 25.2598 45.1756C25.4998 43.9956 26.1498 43.1156 27.0398 42.8056C27.1698 42.7556 27.2998 42.7156 27.4298 42.6656C27.5498 42.6256 27.6498 42.5056 27.6798 42.3456C27.7098 42.1856 27.6898 42.0156 27.6198 41.8756L27.5298 41.7056C27.3098 41.3656 27.2098 40.9156 27.2698 40.4756C27.3298 40.0556 27.5298 39.7056 27.8298 39.5456C29.0498 38.8456 31.0298 38.0556 33.7898 37.9756C33.6598 38.2656 33.5398 38.5556 33.4298 38.8356C35.3898 38.4756 37.8798 38.4656 40.8898 39.2356C41.5998 39.4956 42.3198 39.7656 43.0698 40.1056C43.7198 40.3956 44.3398 40.6956 44.9398 41.0256C47.0998 42.1756 48.8798 43.4756 50.3598 44.8056L50.3698 44.8156Z" fill="#FFF7AB"/>
<path d="M82.1098 70.5567C82.1398 70.5067 82.1598 70.4467 82.1798 70.3967C82.2698 70.2067 82.3598 70.0167 82.4398 69.8167C82.5498 69.5867 82.6598 69.3567 82.7598 69.1167C82.7998 69.0267 82.8298 68.9367 82.8698 68.8467C82.9598 68.6267 83.0498 68.4067 83.1298 68.1967C83.1998 68.0067 83.2898 67.8167 83.3598 67.6267C83.4098 67.5067 83.4398 67.3867 83.4898 67.2667C83.5798 67.0367 83.6598 66.7967 83.7398 66.5667C83.7898 66.4067 83.8498 66.2467 83.9098 66.0867C83.9598 65.9367 83.9998 65.7867 84.0398 65.6467C84.1198 65.3967 84.1998 65.1367 84.2698 64.8867C84.3098 64.7467 84.3598 64.6167 84.3898 64.4767C84.4298 64.3167 84.4698 64.1467 84.5098 63.9867C84.5798 63.7067 84.6598 63.4167 84.7198 63.1367C84.7498 63.0067 84.7898 62.8767 84.8198 62.7467C84.8598 62.5867 84.8798 62.4167 84.9198 62.2567C84.9898 61.9467 85.0498 61.6467 85.1098 61.3367C85.1398 61.2067 85.1698 61.0667 85.1898 60.9367C85.2198 60.7967 85.2298 60.6467 85.2598 60.4967C85.3198 60.1167 85.3798 59.7367 85.4398 59.3567C85.4598 59.2067 85.4898 59.0467 85.5098 58.8967C85.5198 58.7867 85.5298 58.6767 85.5398 58.5767C85.5598 58.4267 85.5698 58.2867 85.5798 58.1367L75.3998 61.3367C75.3498 61.6967 75.2898 62.0567 75.2298 62.4267C75.1798 62.7067 75.1298 62.9867 75.0798 63.2667C75.0198 63.5767 74.9598 63.8867 74.8898 64.1967C74.8298 64.4867 74.7598 64.7867 74.6898 65.0767C74.6198 65.3667 74.5498 65.6467 74.4698 65.9367C74.3898 66.2367 74.3098 66.5367 74.2198 66.8367C74.1498 67.0967 74.0698 67.3467 73.9898 67.6067C73.8898 67.9167 73.7898 68.2167 73.6898 68.5267C73.6098 68.7667 73.5298 68.9967 73.4398 69.2367C73.3298 69.5467 73.2098 69.8567 73.0898 70.1667C72.9998 70.3867 72.9198 70.6067 72.8198 70.8267C72.6798 71.1467 72.5398 71.4667 72.3998 71.7867C72.3098 71.9767 72.2298 72.1767 72.1398 72.3667C71.9098 72.8567 71.6598 73.3367 71.4098 73.8167C71.2598 74.0967 71.0898 74.3667 70.9298 74.6467C70.8098 74.8467 70.6998 75.0567 70.5798 75.2567C70.4398 75.4867 70.2898 75.7067 70.1398 75.9367C69.9998 76.1467 69.8698 76.3667 69.7298 76.5767C69.6098 76.7567 69.4798 76.9167 69.3598 77.0967C69.1798 77.3467 68.9998 77.6067 68.8198 77.8467C68.7098 77.9967 68.5898 78.1267 68.4798 78.2767C68.2698 78.5467 68.0498 78.8167 67.8298 79.0767C67.6998 79.2267 67.5698 79.3667 67.4398 79.5067C67.2198 79.7567 66.9898 80.0067 66.7598 80.2467C66.6298 80.3867 66.4998 80.5167 66.3598 80.6467C66.0898 80.9167 65.8198 81.1767 65.5398 81.4367C65.3998 81.5567 65.2698 81.6867 65.1298 81.8067C64.7398 82.1467 64.3498 82.4767 63.9498 82.7867C63.8898 82.8367 63.8298 82.8867 63.7698 82.9267C63.2398 83.3267 62.6998 83.6967 62.1398 84.0567C61.9898 84.1567 61.8298 84.2567 61.6798 84.3467C61.4698 84.4767 61.2598 84.5967 61.0498 84.7167C60.8598 84.8267 60.6598 84.9367 60.4698 85.0367C60.2498 85.1467 60.0398 85.2667 59.8198 85.3667C59.6298 85.4667 59.4298 85.5567 59.2398 85.6467C58.9798 85.7667 58.7198 85.8767 58.4598 85.9867C58.2798 86.0667 58.0898 86.1467 57.9098 86.2167C57.6398 86.3267 57.3598 86.4167 57.0798 86.5167C56.8998 86.5767 56.7298 86.6467 56.5498 86.6967C56.2398 86.7967 55.9298 86.8867 55.6198 86.9667C55.4698 87.0067 55.3198 87.0567 55.1698 87.0967C54.7098 87.2167 54.2398 87.3267 53.7598 87.4167L63.7898 85.4867C64.2598 85.3967 64.7298 85.2867 65.1998 85.1667C65.3498 85.1267 65.4998 85.0767 65.6498 85.0367C65.9598 84.9467 66.2698 84.8667 66.5798 84.7667C66.7598 84.7067 66.9398 84.6467 67.1098 84.5867C67.3898 84.4867 67.6598 84.3967 67.9398 84.2867C68.1298 84.2167 68.3098 84.1367 68.4898 84.0567C68.7498 83.9467 69.0098 83.8367 69.2698 83.7167C69.3498 83.6767 69.4298 83.6467 69.5098 83.6167C69.6298 83.5567 69.7398 83.4967 69.8498 83.4367C70.0698 83.3267 70.2798 83.2167 70.4998 83.1067C70.6998 83.0067 70.8898 82.8967 71.0898 82.7867C71.2998 82.6667 71.5098 82.5467 71.7198 82.4167C71.8098 82.3567 71.9098 82.3067 71.9998 82.2567C72.0598 82.2167 72.1198 82.1667 72.1798 82.1267C72.7298 81.7767 73.2798 81.3967 73.8098 80.9967C73.8198 80.9967 73.8298 80.9767 73.8398 80.9767C73.8898 80.9367 73.9398 80.8967 73.9898 80.8567C74.3898 80.5467 74.7798 80.2167 75.1698 79.8867C75.2298 79.8367 75.2998 79.7867 75.3598 79.7267C75.4398 79.6567 75.5098 79.5867 75.5798 79.5167C75.8598 79.2567 76.1298 78.9967 76.3998 78.7267C76.4898 78.6367 76.5798 78.5667 76.6598 78.4767C76.7098 78.4267 76.7498 78.3767 76.7898 78.3267C77.0198 78.0867 77.2398 77.8367 77.4698 77.5867C77.5698 77.4767 77.6798 77.3667 77.7798 77.2567C77.8098 77.2267 77.8298 77.1967 77.8598 77.1567C78.0798 76.8967 78.2998 76.6267 78.5098 76.3567C78.6098 76.2367 78.7098 76.1167 78.8098 75.9867C78.8198 75.9667 78.8398 75.9467 78.8498 75.9267C79.0398 75.6867 79.2098 75.4267 79.3998 75.1767C79.5098 75.0167 79.6298 74.8667 79.7398 74.7067C79.7398 74.6967 79.7598 74.6767 79.7698 74.6667C79.9098 74.4567 80.0498 74.2367 80.1898 74.0167C80.3198 73.8067 80.4598 73.6067 80.5898 73.3867C80.5898 73.3767 80.6098 73.3567 80.6198 73.3467C80.7398 73.1467 80.8498 72.9367 80.9698 72.7367C81.1098 72.4967 81.2498 72.2667 81.3798 72.0267C81.3998 71.9867 81.4198 71.9467 81.4398 71.9067C81.6698 71.4867 81.8898 71.0567 82.0998 70.6267L82.1098 70.5567Z" fill="black" stroke="black" stroke-miterlimit="10"/>
<path d="M75.8398 56.1264L85.8699 53.7764" stroke="black" stroke-width="2" stroke-miterlimit="10"/>
<path d="M79.0233 2.16305C79.1706 1.69756 79.8294 1.69756 79.9767 2.16305L80.6698 4.35279C80.8171 4.81826 81.1817 5.18291 81.6472 5.33023L83.8369 6.02331C84.3024 6.17064 84.3024 6.82936 83.8369 6.97669L81.6472 7.66977C81.1817 7.81709 80.8171 8.18174 80.6698 8.64721L79.9767 10.8369C79.8294 11.3024 79.1706 11.3024 79.0233 10.8369L78.3302 8.64721C78.1829 8.18174 77.8183 7.81709 77.3528 7.66977L75.1631 6.97669C74.6976 6.82936 74.6976 6.17064 75.1631 6.02331L77.3528 5.33023C77.8183 5.18291 78.1829 4.81826 78.3302 4.35279L79.0233 2.16305Z" fill="#FFE99D" stroke="black"/>
</g>
<defs>
<clipPath id="clip0_4563_11983">
<rect width="86.0969" height="96.8553" fill="white" transform="translate(0.902832)"/>
</clipPath>
</defs>
</svg>
