<svg width="153" height="146" viewBox="0 0 153 146" fill="none" xmlns="http://www.w3.org/2000/svg">
<path d="M147.915 73.957L127.859 135.38" stroke="black"/>
<path d="M6.26766 78.9717L28.8311 132.873" stroke="black"/>
<path d="M119.084 10.0273L146.662 73.957" stroke="black"/>
<path d="M13.7882 28.8311L147.915 73.9578" stroke="black"/>
<path d="M6.26702 78.9717L119.084 10.028" stroke="black"/>
<path d="M15.0417 28.8311L6.26709 78.9719" stroke="black"/>
<path d="M15.0417 28.8301L119.084 10.0272" stroke="black"/>
<path d="M129.112 135.381L119.084 10.0287" stroke="black"/>
<path d="M127.859 135.381L6.26709 78.9724" stroke="black"/>
<path d="M127.859 135.381L15.0425 28.8315" stroke="black"/>
<path d="M146.662 73.958L6.26709 78.9721" stroke="black"/>
<path d="M28.8304 132.872L119.084 10.0269" stroke="black"/>
<path d="M28.8305 132.873L146.662 73.9575" stroke="black"/>
<path d="M28.8307 132.873L127.859 135.38" stroke="black"/>
<path d="M15.0423 28.8311L28.8311 132.873" stroke="black"/>
<circle cx="127.859" cy="135.382" r="9.52818" fill="#8D85FF" stroke="black"/>
<circle cx="146.662" cy="73.9571" r="5.76761" fill="#8D85FF" stroke="black"/>
<circle cx="6.26761" cy="78.9717" r="5.76761" fill="#8D85FF" stroke="black"/>
<circle cx="28.8305" cy="132.872" r="4.51409" fill="#8D85FF" stroke="black"/>
<circle cx="15.0416" cy="28.8317" r="7.02113" fill="#8D85FF" stroke="black"/>
<circle cx="119.084" cy="10.0282" r="9.52818" fill="#8D85FF" stroke="black"/>
<rect x="19.4546" y="40.5234" width="113.108" height="76.4914" rx="13.5" fill="black" stroke="black"/>
<rect x="19.4546" y="33.7109" width="113.108" height="76.4914" rx="13.5" fill="white" stroke="black"/>
<line x1="19.8062" y1="60.8125" x2="133.063" y2="60.8125" stroke="black"/>
<line x1="19.8062" y1="84.6553" x2="133.063" y2="84.6553" stroke="black"/>
<rect x="28.8218" y="47.3359" width="12.6249" height="4.10932" rx="1.5" fill="#8E84EA" stroke="black"/>
<rect x="28.8218" y="70.3281" width="12.6249" height="4.10932" rx="1.5" fill="#C2BAE6" stroke="black"/>
<rect x="28.8218" y="94.1709" width="12.6249" height="4.10932" rx="1.5" fill="#C2BAE6" stroke="black"/>
<rect x="48.4072" y="47.3359" width="21.1404" height="4.10932" rx="1.5" fill="#8E84EA" stroke="black"/>
<rect x="48.4072" y="70.3281" width="21.1404" height="4.10932" rx="1.5" fill="#C2BAE6" stroke="black"/>
<rect x="48.4072" y="94.1709" width="21.1404" height="4.10932" rx="1.5" fill="#C2BAE6" stroke="black"/>
<rect x="82.4697" y="47.3359" width="11.7733" height="4.10932" rx="1.5" fill="#8E84EA" stroke="black"/>
<rect x="82.4697" y="70.3281" width="11.7733" height="4.10932" rx="1.5" fill="#49E988" stroke="black"/>
<rect x="82.4697" y="94.1709" width="11.7733" height="4.10932" rx="1.5" fill="#FFB831" stroke="black"/>
<rect x="108.016" y="47.3359" width="11.7733" height="4.10932" rx="1.5" fill="#8E84EA" stroke="black"/>
<rect x="108.016" y="70.3281" width="11.7733" height="4.10932" rx="1.5" fill="#C2BAE6" stroke="black"/>
<rect x="108.016" y="94.1709" width="11.7733" height="4.10932" rx="1.5" fill="#C2BAE6" stroke="black"/>
</svg>
