<svg width="225" height="180" viewBox="0 0 225 180" fill="none" xmlns="http://www.w3.org/2000/svg">
<path opacity="0.2" d="M167.445 173.022H52.9787C51.0529 173.022 49.4917 174.584 49.4917 176.511C49.4917 178.438 51.0529 180 52.9787 180H167.445C169.37 180 170.931 178.438 170.931 176.511C170.931 174.584 169.37 173.022 167.445 173.022Z" fill="black"/>
<path opacity="0.2" d="M37.1198 173.022H30.674C28.7482 173.022 27.187 174.584 27.187 176.511C27.187 178.438 28.7482 180 30.674 180H37.1198C39.0456 180 40.6067 178.438 40.6067 176.511C40.6067 174.584 39.0456 173.022 37.1198 173.022Z" fill="black"/>
<path opacity="0.2" d="M188.157 173.022H181.711C179.785 173.022 178.224 174.584 178.224 176.511C178.224 178.438 179.785 180 181.711 180H188.157C190.083 180 191.644 178.438 191.644 176.511C191.644 174.584 190.083 173.022 188.157 173.022Z" fill="black"/>
<path d="M110.103 90.1347C129.314 90.1347 144.888 74.5532 144.888 55.3325C144.888 36.1117 129.314 20.5303 110.103 20.5303C90.891 20.5303 75.3169 36.1117 75.3169 55.3325C75.3169 74.5532 90.891 90.1347 110.103 90.1347Z" fill="#805E18" stroke="black" stroke-miterlimit="10"/>
<path d="M110.103 87.619C129.314 87.619 144.888 72.0376 144.888 52.8168C144.888 33.5961 129.314 18.0146 110.103 18.0146C90.891 18.0146 75.3169 33.5961 75.3169 52.8168C75.3169 72.0376 90.891 87.619 110.103 87.619Z" fill="#F8CC3E" stroke="black" stroke-miterlimit="10"/>
<path d="M110.103 20.9749C128.468 20.9749 143.397 35.617 143.9 53.8651C143.908 53.5464 143.925 53.2361 143.925 52.9091C143.925 34.2165 128.778 19.0713 110.103 19.0713C91.4277 19.0713 76.2812 34.2249 76.2812 52.9091C76.2812 53.2278 76.298 53.5464 76.3064 53.8651C76.8093 35.617 91.7462 20.9749 110.103 20.9749Z" fill="#FFDAA4"/>
<path d="M110.103 82.587C126.537 82.587 139.859 69.2583 139.859 52.8165C139.859 36.3746 126.537 23.0459 110.103 23.0459C93.6686 23.0459 80.3462 36.3746 80.3462 52.8165C80.3462 69.2583 93.6686 82.587 110.103 82.587Z" fill="#F8CC3E" stroke="black" stroke-miterlimit="10"/>
<path d="M128.468 43.4491C125.249 40.6985 119.658 36.0191 118.46 35.6585C116.75 35.1385 102.601 40.4805 99.2899 42.4596C97.01 43.8265 96.1215 48.1537 95.7862 50.7115C94.6714 51.4327 93.8415 52.1539 93.2464 52.7493C92.5674 53.4286 92.7183 54.5607 93.5482 55.0387L93.6404 55.1058C93.523 55.1896 93.4057 55.2735 93.2967 55.3574C91.4945 56.7411 91.6454 59.5085 93.5649 60.7077L93.8331 60.8754C93.8331 60.8754 94.663 61.4121 95.1072 61.714C95.2497 61.8146 95.4341 61.7895 95.5599 61.6721C95.5347 62.0411 95.5347 62.4184 95.5599 62.7958C95.9119 68.7332 101.981 73.1945 109.122 72.7669C116.255 72.3392 121.754 67.1901 121.402 61.2528C121.377 60.7664 121.293 60.2884 121.184 59.8271C121.285 59.911 121.377 59.9949 121.452 60.0619C121.586 60.1877 121.796 60.1961 121.93 60.0787C122.391 59.693 123.338 58.9382 123.338 58.9382C125.157 57.521 124.973 54.72 122.994 53.5376C122.894 53.4789 122.793 53.4202 122.693 53.3615L122.726 53.3363L122.76 53.3112C123.497 52.7325 123.506 51.6172 122.777 51.0302C122.022 50.418 120.916 49.6716 119.424 48.9923L118.124 46.1327L122.19 43.4072L127.823 44.7322C128.577 44.9083 129.063 43.9523 128.476 43.4491H128.468Z" fill="#CC8912" stroke="black" stroke-miterlimit="10"/>
<path d="M110.103 25.5617C126.112 25.5617 139.172 38.2163 139.826 54.0744C139.842 53.6551 139.859 53.2358 139.859 52.8165C139.859 36.3714 126.54 23.0459 110.103 23.0459C93.6653 23.0459 80.3462 36.3714 80.3462 52.8165C80.3462 53.2358 80.363 53.6551 80.3797 54.0744C81.0419 38.2163 94.0928 25.5617 110.103 25.5617Z" fill="#BF8825" stroke="black" stroke-miterlimit="10"/>
<path d="M109.124 71.5004C116.259 71.0751 121.756 65.9217 121.403 59.99C121.05 54.0583 114.979 49.5945 107.844 50.0199C100.709 50.4452 95.2117 55.5986 95.565 61.5303C95.9182 67.462 101.989 71.9258 109.124 71.5004Z" fill="#FFB727" stroke="black" stroke-miterlimit="10"/>
<path d="M103.405 67.2374C104.782 67.1553 105.787 65.211 105.649 62.8947C105.511 60.5785 104.283 58.7673 102.906 58.8494C101.528 58.9315 100.524 60.8758 100.662 63.192C100.8 65.5083 102.028 67.3195 103.405 67.2374Z" fill="#F7B541" stroke="black" stroke-miterlimit="10"/>
<path d="M114.278 66.5909C115.655 66.5088 116.659 64.5645 116.521 62.2483C116.383 59.932 115.155 58.1208 113.778 58.2029C112.401 58.285 111.397 60.2293 111.534 62.5456C111.672 64.8618 112.901 66.673 114.278 66.5909Z" fill="#F7B541" stroke="black" stroke-miterlimit="10"/>
<path d="M95.5933 51.4076C95.5933 51.4076 95.9788 43.1809 99.2898 41.2018C102.601 39.2227 116.75 33.8807 118.46 34.4007C119.667 34.7613 125.258 39.4407 128.468 42.1913C129.055 42.6945 128.568 43.6505 127.814 43.4744L122.181 42.1494L118.116 44.8749L119.734 48.4389L95.5933 51.4076Z" fill="#FFB727"/>
<path d="M95.5933 51.4076C95.5933 51.4076 95.9788 43.1809 99.2898 41.2018C102.601 39.2227 116.75 33.8807 118.46 34.4007C119.667 34.7613 125.258 39.4407 128.468 42.1913C129.055 42.6945 128.568 43.6505 127.814 43.4744L122.181 42.1494L118.116 44.8749L119.734 48.4389L95.5933 51.4076Z" stroke="black" stroke-miterlimit="10"/>
<path d="M122.986 52.2879C122.885 52.2292 122.785 52.1705 122.684 52.1118L122.718 52.0866L122.751 52.0615C123.489 51.4828 123.497 50.3675 122.768 49.7805C120.706 48.1032 116.037 45.4113 107.756 45.8977C99.4743 46.3841 95.1491 49.5792 93.2464 51.4912C92.5674 52.1705 92.7183 53.3026 93.5482 53.7806L93.6404 53.8477C93.523 53.9316 93.4057 54.0154 93.2967 54.0993C91.4945 55.483 91.6454 58.2504 93.5649 59.4496L93.8331 59.6173C93.8331 59.6173 94.663 60.154 95.1072 60.4559C95.2581 60.5566 95.4677 60.5314 95.585 60.3888C95.9371 59.9779 96.7417 59.1393 98.1415 58.2756C99.9772 57.1351 103.246 55.7094 108.359 55.4075C113.456 55.1056 116.817 56.1287 118.745 57.0344C120.195 57.7221 121.067 58.4433 121.452 58.8123C121.586 58.9381 121.796 58.9464 121.93 58.829C122.391 58.4433 123.338 57.6885 123.338 57.6885C125.157 56.2713 124.973 53.4703 122.994 52.2879H122.986Z" fill="#FFB727" stroke="black" stroke-miterlimit="10"/>
<path d="M109.902 69.8407C103.246 70.2097 97.5549 66.1173 97.228 60.658C97.2112 60.4231 97.228 60.1967 97.228 59.9619C96.8592 60.2722 96.5826 60.5406 96.3898 60.7502C96.3898 60.9934 96.373 61.245 96.3898 61.4966C96.7167 66.9559 102.408 71.0567 109.063 70.6793C112.316 70.4864 115.308 69.2537 117.488 67.2159C117.731 66.9811 117.965 66.7462 118.183 66.5031C116.021 68.4654 113.087 69.6562 109.902 69.8491V69.8407Z" fill="#FFDAA4"/>
<path d="M102.333 63.9874C102.274 63.0314 102.442 62.0922 102.794 61.4129C103.07 60.8762 103.439 60.5491 103.791 60.5324C103.808 60.5324 103.816 60.5324 103.833 60.5324C103.934 60.5324 104.034 60.5575 104.135 60.6078C104.101 60.5575 104.084 60.4988 104.051 60.4569C103.724 59.9705 103.338 59.7021 102.995 59.7021C102.978 59.7021 102.97 59.7021 102.953 59.7021C102.601 59.7273 102.232 60.046 101.955 60.5827C101.603 61.262 101.436 62.2012 101.494 63.1572C101.553 64.1132 101.83 65.0273 102.257 65.6563C102.492 66.0001 102.752 66.2349 103.012 66.3439C102.634 65.7233 102.383 64.8847 102.333 63.9874Z" fill="#FFDAA4"/>
<path d="M113.204 63.3415C113.146 62.3855 113.313 61.4463 113.665 60.767C113.942 60.2303 114.311 59.9032 114.663 59.8865C114.679 59.8865 114.688 59.8865 114.705 59.8865C114.805 59.8865 114.914 59.9116 115.023 59.9619C114.679 59.3917 114.252 59.0479 113.866 59.0479C113.85 59.0479 113.841 59.0479 113.824 59.0479C113.472 59.073 113.104 59.3917 112.827 59.9284C112.475 60.6077 112.307 61.5469 112.366 62.5029C112.467 64.1382 113.162 65.371 113.866 65.6812C113.523 65.1026 113.263 64.2891 113.204 63.3415Z" fill="#FFDAA4"/>
<path d="M102.232 42.7615C105.409 40.8579 116.13 36.8913 119.7 36.1533C118.644 35.3901 118.301 35.2308 118.208 35.2056C118.166 35.2056 118.116 35.1973 118.057 35.1973C115.928 35.1973 103.23 39.8264 99.7174 41.9229C98.2254 42.8202 97.3537 45.4534 96.8843 47.8435C97.7728 47.3822 98.787 46.9378 99.9354 46.5352C100.447 44.8748 101.176 43.3821 102.232 42.7615Z" fill="#FFDAA4"/>
<path d="M94.5456 57.6225C94.512 56.8259 94.8473 56.0879 95.476 55.6099L95.8029 55.3667C96.0208 55.2073 96.1549 54.9474 96.1466 54.679C96.1466 54.4107 96.0041 54.1507 95.7777 53.9997L95.6269 53.8991C95.4005 53.7649 95.3419 53.5553 95.3251 53.4463C95.3 53.2534 95.367 53.0605 95.5011 52.9263C97.2949 51.1317 101.486 48.054 109.466 47.576C110.128 47.5341 110.765 47.5173 111.377 47.5173C115.342 47.5173 118.309 48.2888 120.463 49.2281C118.292 47.9702 114.813 46.6787 109.7 46.6787C109.089 46.6787 108.451 46.6955 107.789 46.7374C99.8011 47.2154 95.6101 50.2931 93.8247 52.0877C93.6906 52.2303 93.6235 52.4148 93.6487 52.6077C93.6655 52.7167 93.7241 52.9263 93.9504 53.0605L94.1013 53.1611C94.3276 53.3121 94.4618 53.5721 94.4701 53.8404C94.4701 54.1172 94.3444 54.3687 94.1265 54.5281L93.7996 54.7713C93.1709 55.2493 92.8272 55.9873 92.8692 56.7839C92.9111 57.5974 93.3218 58.3102 94.0091 58.7463L94.2773 58.914C94.2773 58.914 94.7887 59.241 95.2245 59.5346C95.2748 59.4842 95.3419 59.4171 95.4005 59.3584C94.8892 58.9224 94.5707 58.3186 94.5372 57.6309L94.5456 57.6225Z" fill="#FFDAA4"/>
<path d="M120.765 57.111C120.589 57.0271 120.388 56.9432 120.187 56.8594C120.849 57.2535 121.36 57.6309 121.704 57.916C121.779 57.8573 121.855 57.7986 121.93 57.7315C121.586 57.5219 121.209 57.3122 120.773 57.111H120.765Z" fill="#FFDAA4"/>
<path d="M100.43 42.5105C103.942 40.414 116.649 35.7849 118.77 35.7849C118.829 35.7849 118.879 35.7849 118.921 35.7933C118.979 35.81 119.164 35.8939 119.591 36.1706C119.625 36.1706 119.667 36.1539 119.7 36.1455C118.644 35.3823 118.301 35.223 118.208 35.1978C118.166 35.1978 118.116 35.1895 118.057 35.1895C115.928 35.1895 103.23 39.8186 99.7174 41.9151C98.2254 42.8124 97.3537 45.4456 96.8843 47.8357C97.1777 47.6763 97.4962 47.5254 97.8231 47.3744C98.326 45.3031 99.1391 43.2652 100.422 42.5021L100.43 42.5105Z" fill="white"/>
<path d="M120.949 49.1097C120.857 49.0594 120.748 49.0007 120.647 48.9503C120.354 48.8413 120.052 48.7407 119.742 48.6484C120.17 48.7994 120.58 48.9503 120.949 49.1181V49.1097Z" fill="white"/>
<path d="M95.4591 59.0306L95.1908 58.8629C94.5035 58.4352 94.0844 57.714 94.0509 56.9006C94.0173 56.1039 94.3526 55.3659 94.9813 54.8879L95.3082 54.6447C95.5261 54.4854 95.6602 54.2254 95.6519 53.9571C95.6519 53.6887 95.5094 53.4287 95.283 53.2778L95.1322 53.1772C94.9058 53.043 94.8472 52.8333 94.8304 52.7243C94.8053 52.5314 94.8723 52.3385 95.0064 52.2044C96.8002 50.4097 100.991 47.3321 108.971 46.8541C109.633 46.8121 110.27 46.7954 110.882 46.7954C113.858 46.7954 116.263 47.2398 118.191 47.852C116.154 47.114 113.522 46.5605 110.17 46.5605C109.558 46.5605 108.921 46.5773 108.259 46.6192C100.27 47.0972 96.0793 50.1749 94.294 51.9696C94.1598 52.1121 94.0928 52.2966 94.1179 52.4895C94.1347 52.5985 94.1934 52.8082 94.4197 52.9423L94.5706 53.043C94.7969 53.1939 94.931 53.4539 94.9394 53.7222C94.9394 53.999 94.8136 54.2506 94.5957 54.4099L94.2688 54.6531C93.6401 55.1311 93.2965 55.8691 93.3384 56.6658C93.3803 57.4792 93.791 58.192 94.4784 58.6281L94.7466 58.7958C94.7466 58.7958 95.2579 59.1229 95.6938 59.4164C95.7357 59.3745 95.786 59.3241 95.8279 59.2822C95.6099 59.1397 95.4507 59.039 95.4507 59.039L95.4591 59.0306Z" fill="white"/>
<path d="M80.2876 51.9697H87.0017" stroke="black" stroke-miterlimit="10"/>
<path d="M80.3716 54.0752H88.9632" stroke="black" stroke-miterlimit="10"/>
<path d="M138.61 60.0879H130.22" stroke="black" stroke-miterlimit="10"/>
<path d="M137.906 62.4609H128.258" stroke="black" stroke-miterlimit="10"/>
<path d="M129.516 75.0566H125.182" stroke="black" stroke-miterlimit="10"/>
<path d="M91.897 31.8184H95.3923" stroke="black" stroke-miterlimit="10"/>
<path d="M143.372 44.0677L143.372 44.0676L143.369 44.0736L142.386 45.8691L140.595 46.8503C140.036 47.1472 140.07 47.9207 140.585 48.2123L140.585 48.2123L140.591 48.2156L142.386 49.1986L143.367 50.9907C143.664 51.5503 144.437 51.5161 144.729 51.0001L144.729 51.0001L144.732 50.9941L145.715 49.1986L147.506 48.2175C148.065 47.9205 148.031 47.1471 147.515 46.8554L147.515 46.8554L147.509 46.8521L145.715 45.8691L144.734 44.077C144.437 43.5174 143.663 43.5516 143.372 44.0677Z" fill="white" stroke="black"/>
<path d="M76.4365 28.2252L75.4811 28.7452C75.0233 28.993 75.0232 29.6532 75.481 29.901L76.4365 30.421L76.9563 31.377C77.204 31.835 77.8643 31.835 78.1121 31.3769L78.6318 30.421L79.5873 29.901C80.0451 29.6531 80.045 28.993 79.5872 28.7452L78.6318 28.2252L78.112 27.2693C77.8643 26.8113 77.2039 26.8113 76.9562 27.2694L76.4365 28.2252Z" fill="white" stroke="black"/>
<path d="M65.3134 43.8405L64.358 44.3605C63.9002 44.6083 63.9002 45.2685 64.358 45.5163L65.3134 46.0363L65.8332 46.9922C66.081 47.4502 66.7413 47.4502 66.989 46.9921L67.5088 46.0363L68.4642 45.5163C68.922 45.2684 68.922 44.6083 68.4642 44.3605L67.5088 43.8405L66.989 42.8846C66.7413 42.4265 66.0809 42.4265 65.8332 42.8846L65.3134 43.8405Z" fill="white" stroke="black"/>
<path d="M43.412 39.9064C42.5877 38.6252 40.8812 38.2551 39.6006 39.0799C38.3199 39.9046 37.95 41.6119 38.7744 42.8932L61.9855 78.9683C62.8099 80.2495 64.5163 80.6196 65.797 79.7948C67.0776 78.9701 67.4475 77.2628 66.6231 75.9815L43.412 39.9064Z" fill="#4939AA" stroke="black" stroke-miterlimit="10"/>
<path d="M152.982 75.9853C152.158 77.2666 152.528 78.9739 153.809 79.7986C155.089 80.6234 156.796 80.2533 157.62 78.9721L180.831 42.8969C181.656 41.6157 181.286 39.9084 180.005 39.0837C178.724 38.2589 177.018 38.629 176.194 39.9102L152.982 75.9853Z" fill="#4939AA" stroke="black" stroke-miterlimit="10"/>
<path d="M60.6235 76.7422H159.432V168.654C159.432 172.486 156.322 175.597 152.491 175.597H67.5639C63.7333 175.597 60.6235 172.486 60.6235 168.654V76.7422Z" fill="#3E33BB" stroke="black" stroke-miterlimit="10"/>
<path d="M119.139 76.7422H100.916V175.597H119.139V76.7422Z" fill="#FF9D29" stroke="black" stroke-miterlimit="10"/>
<path d="M167.261 113.549H52.803C50.1375 113.549 48.2851 110.907 49.1903 108.4L60.5564 76.8596L159.474 76.7422L170.873 108.4C171.778 110.907 169.918 113.549 167.261 113.549Z" fill="#6B61D6" stroke="black" stroke-miterlimit="10"/>
<path d="M160.278 78.9729L159.473 76.7422L60.5478 76.8596L59.7432 79.0987L160.278 78.9729Z" fill="#8E84EA" stroke="black" stroke-miterlimit="10"/>
<path opacity="0.5" d="M159.465 113.389H60.5479V126.127H159.465V113.389Z" fill="black" stroke="black" stroke-miterlimit="10"/>
<path d="M170.806 108.467C170.236 109.825 168.903 110.832 167.26 110.832H52.8029C51.16 110.832 49.8272 109.825 49.2572 108.467L49.1902 108.66C48.2849 111.167 50.1457 113.809 52.8029 113.809H167.26C169.926 113.809 171.778 111.167 170.873 108.66L170.806 108.467Z" fill="#3F3A9B" stroke="black" stroke-miterlimit="10"/>
<path opacity="0.5" d="M155.919 170.489H64.1439C62.2077 170.489 60.6318 168.913 60.6318 166.976V171.647C60.6318 173.592 62.2077 175.16 64.1439 175.16H155.919C157.856 175.16 159.432 173.584 159.432 171.647V166.976C159.432 168.921 157.856 170.489 155.919 170.489Z" fill="black" stroke="black" stroke-miterlimit="10"/>
<path d="M46.5665 86.5536C34.1946 83.174 21.152 84.0965 9.59312 89.1113C8.3861 89.6313 6.99467 89.0694 6.50851 87.8534C4.84047 83.6436 3.18082 79.4422 1.51278 75.2324C1.00985 73.9661 1.70557 72.5321 3.01318 72.1547C18.9392 67.5172 35.8794 68.5319 50.9252 74.9724C52.082 75.4672 52.6352 76.7922 52.1742 77.9579C51.2186 80.3647 50.2714 82.7715 49.3159 85.1783C48.88 86.2685 47.6981 86.8639 46.5665 86.5536Z" fill="#F9AE40" stroke="black" stroke-miterlimit="10"/>
<path d="M46.5665 86.5536C34.1946 83.174 21.152 84.0965 9.59312 89.1113C8.3861 89.6313 6.99467 89.0694 6.50851 87.8534C4.84047 83.6436 3.18082 79.4422 1.51278 75.2324C1.00985 73.9661 1.70557 72.5321 3.01318 72.1547C18.9392 67.5172 35.8794 68.5319 50.9252 74.9724C52.082 75.4672 52.6352 76.7922 52.1742 77.9579C51.2186 80.3647 50.2714 82.7715 49.3159 85.1783C48.88 86.2685 47.6981 86.8639 46.5665 86.5536Z" fill="#FF9D29" stroke="black" stroke-miterlimit="10"/>
<path d="M184.813 101.423C195.399 103.611 204.846 109.28 211.627 117.465C212.331 118.32 213.597 118.429 214.427 117.691C217.285 115.167 220.143 112.643 222.993 110.11C223.856 109.347 223.873 108.006 223.035 107.226C212.834 97.6572 199.724 91.9546 185.953 91.0489C184.896 90.9819 183.974 91.7618 183.874 92.8184C183.673 94.9904 183.471 97.1624 183.27 99.3344C183.178 100.324 183.84 101.221 184.813 101.423Z" fill="#F9AE40" stroke="black" stroke-miterlimit="10"/>
<path d="M184.813 101.423C195.399 103.611 204.846 109.28 211.627 117.465C212.331 118.32 213.597 118.429 214.427 117.691C217.285 115.167 220.143 112.643 222.993 110.11C223.856 109.347 223.873 108.006 223.035 107.226C212.834 97.6572 199.724 91.9546 185.953 91.0489C184.896 90.9819 183.974 91.7618 183.874 92.8184C183.673 94.9904 183.471 97.1624 183.27 99.3344C183.178 100.324 183.84 101.221 184.813 101.423Z" fill="#FF9D29" stroke="black" stroke-miterlimit="10"/>
<path d="M39.3748 119.343C33.7085 121.448 28.9642 125.381 25.9131 130.48C25.5946 131.009 24.9073 131.176 24.3876 130.841C22.5938 129.684 20.8 128.535 19.0146 127.377C18.4782 127.034 18.3525 126.287 18.7464 125.784C23.5745 119.629 30.3389 115.368 37.866 113.708C38.4443 113.582 39.0227 113.934 39.1652 114.513C39.4586 115.696 39.7603 116.878 40.0537 118.06C40.1878 118.597 39.8944 119.151 39.3831 119.343H39.3748Z" fill="#F9AE40" stroke="black" stroke-miterlimit="10"/>
<path d="M39.3748 119.343C33.7085 121.448 28.9642 125.381 25.9131 130.48C25.5946 131.009 24.9073 131.176 24.3876 130.841C22.5938 129.684 20.8 128.535 19.0146 127.377C18.4782 127.034 18.3525 126.287 18.7464 125.784C23.5745 119.629 30.3389 115.368 37.866 113.708C38.4443 113.582 39.0227 113.934 39.1652 114.513C39.4586 115.696 39.7603 116.878 40.0537 118.06C40.1878 118.597 39.8944 119.151 39.3831 119.343H39.3748Z" fill="#FF9D29" stroke="black" stroke-miterlimit="10"/>
<path d="M200.763 127.897C204.879 132.325 207.335 137.977 207.771 143.897C207.813 144.518 208.358 144.979 208.97 144.912C211.09 144.686 213.211 144.468 215.332 144.241C215.969 144.174 216.413 143.57 216.287 142.941C214.745 135.276 210.621 128.425 204.644 123.544C204.183 123.167 203.513 123.226 203.127 123.679C202.331 124.601 201.535 125.523 200.738 126.446C200.378 126.865 200.386 127.486 200.763 127.897Z" fill="#F9AE40" stroke="black" stroke-miterlimit="10"/>
<path d="M200.763 127.897C204.879 132.325 207.335 137.977 207.771 143.897C207.813 144.518 208.358 144.979 208.97 144.912C211.09 144.686 213.211 144.468 215.332 144.241C215.969 144.174 216.413 143.57 216.287 142.941C214.745 135.276 210.621 128.425 204.644 123.544C204.183 123.167 203.513 123.226 203.127 123.679C202.331 124.601 201.535 125.523 200.738 126.446C200.378 126.865 200.386 127.486 200.763 127.897Z" fill="#FF9D29" stroke="black" stroke-miterlimit="10"/>
</svg>
