<svg width="355" height="253" viewBox="0 0 355 253" fill="none" xmlns="http://www.w3.org/2000/svg">
<circle cx="170" cy="89" r="64.5" fill="#E9F8FF" stroke="#CCE3FF"/>
<circle cx="170" cy="89" r="52.5" fill="#CBEEFF" stroke="#CCE3FF"/>
<path d="M69.2689 135.54C65.3089 135.54 62.3689 137.88 62.3689 141.66C62.3689 146.4 66.6289 148.02 71.5489 149.64C78.1489 151.74 85.8889 154.02 85.8889 164.16C85.8889 172.68 78.3289 177.6 69.3889 177.6C64.4689 177.6 61.0489 175.98 58.4689 175.98C56.7889 175.98 55.5289 176.58 54.1489 177.6L53.0089 163.56H53.1289C57.2089 171.24 63.3889 176.46 69.3289 176.46C74.1889 176.46 77.1289 174.06 77.1289 169.74C77.1289 163.98 71.1289 162.66 65.1289 160.56C59.2489 158.58 53.3089 155.88 53.3089 147.48C53.3089 139.5 59.6089 134.4 69.2689 134.4C73.7089 134.4 76.8289 136.02 79.3489 136.02C80.7889 136.02 81.9889 135.18 82.9489 134.4L83.1889 146.46H83.0689C79.1689 139.98 75.4489 135.54 69.2689 135.54ZM110.235 164.82V153.84C110.235 149.64 109.995 149.04 107.175 147.3V147.18H122.235V170.58C122.235 174.48 122.535 175.14 125.055 176.88V177H110.235V169.2C108.855 174.6 105.075 177.6 99.9753 177.6C93.3153 177.6 90.4353 172.74 90.4353 167.16V153.84C90.4353 149.64 90.1353 149.04 87.3753 147.3V147.18H102.435V167.64C102.435 169.98 103.635 171.96 105.975 171.96C108.495 171.96 110.235 169.92 110.235 164.82ZM144.531 147.6C140.631 147.6 139.071 152.88 139.071 159.66C139.071 167.88 142.491 172.14 148.131 172.14C151.251 172.14 154.191 170.76 156.051 167.34L156.471 167.52C154.671 173.88 149.091 177.6 142.371 177.6C133.851 177.6 126.651 171.96 126.651 162.66C126.651 152.52 134.331 146.58 144.351 146.58C150.831 146.58 155.871 149.22 155.871 154.44C155.871 158.22 152.931 160.08 149.931 160.08C146.511 160.08 144.591 158.28 144.351 156.42C144.711 156.6 145.191 156.66 145.491 156.66C147.771 156.66 148.611 154.62 148.611 152.22C148.611 149.34 147.171 147.6 144.531 147.6ZM175.938 147.6C172.038 147.6 170.478 152.88 170.478 159.66C170.478 167.88 173.898 172.14 179.538 172.14C182.658 172.14 185.598 170.76 187.458 167.34L187.878 167.52C186.078 173.88 180.498 177.6 173.778 177.6C165.258 177.6 158.058 171.96 158.058 162.66C158.058 152.52 165.738 146.58 175.758 146.58C182.238 146.58 187.278 149.22 187.278 154.44C187.278 158.22 184.338 160.08 181.338 160.08C177.918 160.08 175.998 158.28 175.758 156.42C176.118 156.6 176.598 156.66 176.898 156.66C179.178 156.66 180.018 154.62 180.018 152.22C180.018 149.34 178.578 147.6 175.938 147.6ZM205.604 146.58C215.504 146.58 220.184 152.88 220.184 160.68H201.584C201.584 168.06 205.484 172.14 211.004 172.14C214.484 172.14 217.484 170.76 219.404 167.34L219.764 167.52C217.904 173.88 212.324 177.6 205.484 177.6C196.664 177.6 189.464 171.96 189.464 162.12C189.464 152.58 196.784 146.58 205.604 146.58ZM201.584 159.48H208.844C208.844 152.58 208.484 147.6 205.604 147.6C202.784 147.6 201.704 152.4 201.584 159.48ZM234.096 147.6C231.636 147.6 229.956 148.8 229.956 150.9C229.956 153.6 231.996 154.26 237.396 156.06C245.076 158.58 248.436 161.34 248.436 167.4C248.436 173.58 243.516 177.6 235.956 177.6C231.816 177.6 228.996 176.4 226.716 176.4C225.156 176.4 224.436 177.06 223.596 177.66L222.936 166.8H223.056C226.596 173.28 230.736 176.58 235.956 176.58C238.776 176.58 240.756 175.32 240.756 172.68C240.756 169.74 238.236 169.08 233.916 167.64C226.416 165.24 222.996 162.18 222.996 156.18C222.996 150.48 227.796 146.58 234.096 146.58C237.876 146.58 240.276 147.96 242.436 147.96C243.876 147.96 244.776 147.42 245.916 146.52V156.18H245.796C243.036 150.96 238.236 147.6 234.096 147.6ZM262.69 147.6C260.23 147.6 258.55 148.8 258.55 150.9C258.55 153.6 260.59 154.26 265.99 156.06C273.67 158.58 277.03 161.34 277.03 167.4C277.03 173.58 272.11 177.6 264.55 177.6C260.41 177.6 257.59 176.4 255.31 176.4C253.75 176.4 253.03 177.06 252.19 177.66L251.53 166.8H251.65C255.19 173.28 259.33 176.58 264.55 176.58C267.37 176.58 269.35 175.32 269.35 172.68C269.35 169.74 266.83 169.08 262.51 167.64C255.01 165.24 251.59 162.18 251.59 156.18C251.59 150.48 256.39 146.58 262.69 146.58C266.47 146.58 268.87 147.96 271.03 147.96C272.47 147.96 273.37 147.42 274.51 146.52V156.18H274.39C271.63 150.96 266.83 147.6 262.69 147.6ZM280.364 135H295.484L288.044 161.76H287.804L280.364 135ZM294.344 170.94C294.344 174.54 291.584 177.42 287.924 177.42C284.264 177.42 281.504 174.54 281.504 170.94C281.504 167.4 284.264 164.46 287.924 164.46C291.584 164.46 294.344 167.4 294.344 170.94Z" fill="black"/>
<path d="M176.819 114.763L243.811 115.785L241.871 102.274L237.122 100.425L176.819 114.763Z" fill="#FFEB76" stroke="#9A5400"/>
<path d="M248.051 100.451L247.746 104.992L251.331 107.817C252.078 108.407 251.823 109.595 250.897 109.828L246.465 110.941L244.875 115.208C244.542 116.097 243.331 116.226 242.822 115.42L240.39 111.569L235.824 111.382C234.873 111.344 234.376 110.231 234.986 109.504L237.911 106.01L236.68 101.627C236.421 100.713 237.331 99.8982 238.215 100.251L242.459 101.942L246.265 99.4205C247.058 98.8928 248.114 99.5036 248.051 100.451Z" fill="#FFE236" stroke="#9A5400"/>
<path d="M241.27 110.052L236.705 109.865L239.63 106.367L238.399 101.988L242.643 103.679L246.449 101.157L246.144 105.698L249.729 108.523L245.297 109.637L243.707 113.904L241.27 110.052Z" fill="#F7C434" stroke="#9A5400"/>
<path d="M225.684 107.904L213.441 109.811" stroke="#9A5400"/>
<path d="M237.915 106.001L229.214 107.355" stroke="#9A5400"/>
<path d="M211.805 110.058L201.59 111.449" stroke="#9A5400"/>
<path d="M235.824 111.378L220.835 111.993" stroke="#9A5400"/>
<path d="M173.769 111.016L295.652 34.827L276.285 12.749L265.561 14.951L173.769 111.016Z" fill="#FFEB76" stroke="#9A5400"/>
<path d="M285.278 2.25799L290.064 10.7917L299.837 11.7057C301.878 11.8969 302.813 14.3357 301.419 15.8313L294.746 23.0023L296.896 32.5415C297.342 34.5316 295.306 36.1727 293.444 35.3168L284.535 31.212L276.089 36.1935C274.324 37.2321 272.129 35.8071 272.375 33.7837L273.544 24.0784L266.174 17.6179C264.634 16.2676 265.319 13.7498 267.33 13.3552L276.961 11.4606L280.855 2.48649C281.668 0.612731 284.285 0.479781 285.286 2.26214L285.278 2.25799Z" fill="#FFE236" stroke="#9A5400"/>
<path d="M284.343 27.4564L275.897 32.4379L277.061 22.7325L269.692 16.272L279.323 14.3774L283.221 5.40332L288.007 13.937L297.78 14.8511L291.107 22.0221L293.257 31.5612L284.343 27.4564Z" fill="#F7C434" stroke="#9A5400"/>
<path d="M253.743 41.7441L233.93 59.4348" stroke="#9A5400"/>
<path d="M273.539 24.0703L259.456 36.6424" stroke="#9A5400"/>
<path d="M231.268 61.7822L214.497 76.1865" stroke="#9A5400"/>
<path d="M276.089 36.1895L249.808 54.7567" stroke="#9A5400"/>
<path d="M175.405 112.587L265.878 88.9922L258.192 71.5466L251.11 70.832L175.405 112.587Z" fill="#FFEB76" stroke="#9A5400"/>
<path d="M265.82 66.7894L267.118 73.009L272.997 75.4727C274.224 75.9879 274.328 77.6789 273.173 78.3353L267.631 81.4845L267.097 87.8163C266.984 89.1375 265.398 89.7565 264.414 88.8674L259.694 84.5964L253.48 86.0464C252.183 86.3497 251.102 85.041 251.648 83.8319L254.269 78.0403L250.964 72.606C250.276 71.4718 251.189 70.0425 252.516 70.188L258.859 70.8818L263.028 66.0748C263.9 65.0694 265.549 65.4973 265.82 66.7936V66.7894Z" fill="#FFE236" stroke="#9A5400"/>
<path d="M260.308 82.2299L254.094 83.6841L256.719 77.8883L253.414 72.454L259.757 73.1478L263.925 68.3408L265.223 74.5604L271.107 77.0241L265.565 80.1734L265.031 86.5051L260.308 82.2299Z" fill="#F7C434" stroke="#9A5400"/>
<path d="M238.541 85.1523L222.797 92.2776" stroke="#9A5400"/>
<path d="M254.273 78.0361L243.081 83.1007" stroke="#9A5400"/>
<path d="M220.685 93.2178L207.469 98.8931" stroke="#9A5400"/>
<path d="M253.48 86.043L233.555 92.4578" stroke="#9A5400"/>
<path d="M164.267 114.763L97.2747 115.785L99.2151 102.274L103.964 100.425L164.267 114.763Z" fill="#FFEB76" stroke="#9A5400"/>
<path d="M93.0306 100.451L93.3353 104.992L89.7507 107.817C89.0037 108.407 89.2583 109.595 90.1847 109.828L94.6163 110.941L96.2062 115.208C96.5401 116.097 97.7502 116.226 98.2593 115.42L100.692 111.569L105.257 111.382C106.209 111.344 106.705 110.231 106.096 109.504L103.171 106.01L104.402 101.627C104.661 100.713 103.751 99.8982 102.866 100.251L98.6224 101.942L94.8166 99.4205C94.0238 98.8928 92.968 99.5036 93.0306 100.451Z" fill="#FFE236" stroke="#9A5400"/>
<path d="M99.8116 110.052L104.381 109.865L101.452 106.367L102.687 101.988L98.4428 103.679L94.6371 101.157L94.9417 105.698L91.3572 108.523L95.7888 109.637L97.3787 113.904L99.8116 110.052Z" fill="#F7C434" stroke="#9A5400"/>
<path d="M115.402 107.905L127.641 109.812" stroke="#9A5400"/>
<path d="M103.171 106.002L111.872 107.356" stroke="#9A5400"/>
<path d="M129.277 110.058L139.496 111.449" stroke="#9A5400"/>
<path d="M105.261 111.378L120.251 111.993" stroke="#9A5400"/>
<path d="M167.318 111.016L45.4303 34.827L64.7969 12.749L75.5214 14.951L167.318 111.016Z" fill="#FFEB76" stroke="#9A5400"/>
<path d="M55.804 2.25799L51.0177 10.7917L41.2446 11.7057C39.2041 11.8969 38.2693 14.3357 39.6631 15.8313L46.3356 23.0023L44.1866 32.5415C43.74 34.5316 45.7764 36.1727 47.6376 35.3168L56.5468 31.212L64.9929 36.1935C66.758 37.2321 68.953 35.8071 68.7068 33.7837L67.5384 24.0784L74.9078 17.6179C76.4476 16.2676 75.7632 13.7498 73.7519 13.3552L64.1207 11.4606L60.2274 2.48649C59.4136 0.612731 56.7972 0.479781 55.7957 2.26214L55.804 2.25799Z" fill="#FFE236" stroke="#9A5400"/>
<path d="M56.7386 27.4564L65.1889 32.4379L64.0204 22.7325L71.394 16.272L61.7587 14.3774L57.8653 5.40332L53.079 13.937L43.3018 14.8511L49.9785 22.0221L47.8294 31.5612L56.7386 27.4564Z" fill="#F7C434" stroke="#9A5400"/>
<path d="M87.3433 41.7441L107.156 59.4348" stroke="#9A5400"/>
<path d="M67.5468 24.0703L81.6304 36.6424" stroke="#9A5400"/>
<path d="M109.815 61.7822L126.59 76.1865" stroke="#9A5400"/>
<path d="M64.9969 36.1895L91.2782 54.7567" stroke="#9A5400"/>
<path d="M165.682 112.587L75.2083 88.9922L82.8948 71.5466L89.9721 70.832L165.682 112.587Z" fill="#FFEB76" stroke="#9A5400"/>
<path d="M75.2667 66.7894L73.9689 73.009L68.0892 75.4727C66.8624 75.9879 66.758 77.6789 67.914 78.3353L73.4556 81.4845L73.9898 87.8163C74.1024 89.1375 75.6881 89.7565 76.673 88.8674L81.3926 84.5964L87.6061 86.0464C88.9039 86.3497 89.9847 85.041 89.438 83.8319L86.8174 78.0403L90.1224 72.606C90.8109 71.4718 89.897 70.0425 88.57 70.188L82.2272 70.8818L78.0584 66.0748C77.1862 65.0694 75.5379 65.4973 75.2667 66.7936V66.7894Z" fill="#FFE236" stroke="#9A5400"/>
<path d="M80.775 82.2299L86.9885 83.6841L84.3679 77.8883L87.6729 72.454L81.33 73.1478L77.1571 68.3408L75.8593 74.5604L69.9796 77.0241L75.5213 80.1734L76.0554 86.5051L80.775 82.2299Z" fill="#F7C434" stroke="#9A5400"/>
<path d="M102.545 85.1523L118.29 92.2776" stroke="#9A5400"/>
<path d="M86.8134 78.0361L98.0052 83.1007" stroke="#9A5400"/>
<path d="M120.397 93.2178L133.617 98.8931" stroke="#9A5400"/>
<path d="M87.6017 86.043L107.532 92.4578" stroke="#9A5400"/>
<g clip-path="url(#clip0_5214_8330)">
<path d="M169.39 131.5C192.31 131.5 210.89 112.92 210.89 90C210.89 67.0802 192.31 48.5 169.39 48.5C146.47 48.5 127.89 67.0802 127.89 90C127.89 112.92 146.47 131.5 169.39 131.5Z" fill="#805E18" stroke="#7D4F25" stroke-miterlimit="10"/>
<path d="M169.39 128.5C192.31 128.5 210.89 109.92 210.89 87C210.89 64.0802 192.31 45.5 169.39 45.5C146.47 45.5 127.89 64.0802 127.89 87C127.89 109.92 146.47 128.5 169.39 128.5Z" fill="#FFB727" stroke="#7D4F25" stroke-miterlimit="10"/>
<path d="M169.39 49.0298C191.3 49.0298 209.11 66.4898 209.71 88.2498C209.72 87.8698 209.74 87.4998 209.74 87.1098C209.74 64.8198 191.67 46.7598 169.39 46.7598C147.11 46.7598 129.03 64.8198 129.03 87.1098C129.03 87.4898 129.05 87.8698 129.06 88.2498C129.66 66.4898 147.48 49.0298 169.39 49.0298Z" fill="#FFDAA4"/>
<path d="M169.39 122.5C188.996 122.5 204.89 106.606 204.89 87C204.89 67.3939 188.996 51.5 169.39 51.5C149.784 51.5 133.89 67.3939 133.89 87C133.89 106.606 149.784 122.5 169.39 122.5Z" fill="#FFCE33" stroke="#7D4F25" stroke-miterlimit="10"/>
<path d="M191.3 75.8303C187.46 72.5503 180.79 66.9703 179.36 66.5403C177.32 65.9203 160.44 72.2903 156.49 74.6503C153.77 76.2803 152.71 81.4403 152.31 84.4903C150.98 85.3503 149.99 86.2103 149.28 86.9203C148.47 87.7303 148.65 89.0803 149.64 89.6503L149.75 89.7303C149.61 89.8303 149.47 89.9303 149.34 90.0303C147.19 91.6803 147.37 94.9803 149.66 96.4103L149.98 96.6103C149.98 96.6103 150.97 97.2503 151.5 97.6103C151.67 97.7303 151.89 97.7003 152.04 97.5603C152.01 98.0003 152.01 98.4503 152.04 98.9003C152.46 105.98 159.7 111.3 168.22 110.79C176.73 110.28 183.29 104.14 182.87 97.0603C182.84 96.4803 182.74 95.9103 182.61 95.3603C182.73 95.4603 182.84 95.5603 182.93 95.6403C183.09 95.7903 183.34 95.8003 183.5 95.6603C184.05 95.2003 185.18 94.3003 185.18 94.3003C187.35 92.6103 187.13 89.2703 184.77 87.8603C184.65 87.7903 184.53 87.7203 184.41 87.6503L184.45 87.6203L184.49 87.5903C185.37 86.9003 185.38 85.5703 184.51 84.8703C183.61 84.1403 182.29 83.2503 180.51 82.4403L178.96 79.0303L183.81 75.7803L190.53 77.3603C191.43 77.5703 192.01 76.4303 191.31 75.8303H191.3Z" fill="#CC8912" stroke="#7D4F25" stroke-miterlimit="10"/>
<path d="M169.39 54.5C188.49 54.5 204.07 69.59 204.85 88.5C204.87 88 204.89 87.5 204.89 87C204.89 67.39 189 51.5 169.39 51.5C149.78 51.5 133.89 67.39 133.89 87C133.89 87.5 133.91 88 133.93 88.5C134.72 69.59 150.29 54.5 169.39 54.5Z" fill="#BF8825" stroke="#7D4F25" stroke-miterlimit="10"/>
<path d="M168.212 109.287C176.725 108.78 183.283 102.635 182.862 95.5613C182.44 88.4881 175.198 83.1652 166.686 83.6724C158.174 84.1796 151.615 90.3248 152.037 97.3981C152.458 104.471 159.7 109.794 168.212 109.287Z" fill="#FFB727" stroke="#7D4F25" stroke-miterlimit="10"/>
<path d="M161.4 104.204C163.043 104.106 164.241 101.788 164.077 99.0255C163.912 96.2635 162.447 94.1038 160.804 94.2017C159.161 94.2995 157.963 96.618 158.127 99.38C158.292 102.142 159.757 104.302 161.4 104.204Z" fill="#F7B541" stroke="#7D4F25" stroke-miterlimit="10"/>
<path d="M174.371 103.433C176.014 103.336 177.213 101.017 177.048 98.255C176.884 95.493 175.418 93.3333 173.775 93.4311C172.132 93.529 170.934 95.8475 171.099 98.6095C171.263 101.372 172.728 103.531 174.371 103.433Z" fill="#F7B541" stroke="#7D4F25" stroke-miterlimit="10"/>
<path d="M152.08 85.3203C152.08 85.3203 152.54 75.5103 156.49 73.1503C160.44 70.7903 177.32 64.4203 179.36 65.0403C180.8 65.4703 187.47 71.0503 191.3 74.3303C192 74.9303 191.42 76.0703 190.52 75.8603L183.8 74.2803L178.95 77.5303L180.88 81.7803L152.08 85.3203Z" fill="#FFB727"/>
<path d="M152.08 85.3203C152.08 85.3203 152.54 75.5103 156.49 73.1503C160.44 70.7903 177.32 64.4203 179.36 65.0403C180.8 65.4703 187.47 71.0503 191.3 74.3303C192 74.9303 191.42 76.0703 190.52 75.8603L183.8 74.2803L178.95 77.5303L180.88 81.7803L152.08 85.3203Z" stroke="#7D4F25" stroke-miterlimit="10"/>
<path d="M184.76 86.3706C184.64 86.3006 184.52 86.2306 184.4 86.1606L184.44 86.1306L184.48 86.1006C185.36 85.4106 185.37 84.0806 184.5 83.3806C182.04 81.3806 176.47 78.1706 166.59 78.7506C156.71 79.3306 151.55 83.1406 149.28 85.4206C148.47 86.2306 148.65 87.5806 149.64 88.1506L149.75 88.2306C149.61 88.3306 149.47 88.4306 149.34 88.5306C147.19 90.1806 147.37 93.4806 149.66 94.9106L149.98 95.1106C149.98 95.1106 150.97 95.7506 151.5 96.1106C151.68 96.2306 151.93 96.2006 152.07 96.0306C152.49 95.5406 153.45 94.5406 155.12 93.5106C157.31 92.1506 161.21 90.4506 167.31 90.0906C173.39 89.7306 177.4 90.9506 179.7 92.0306C181.43 92.8506 182.47 93.7106 182.93 94.1506C183.09 94.3006 183.34 94.3106 183.5 94.1706C184.05 93.7106 185.18 92.8106 185.18 92.8106C187.35 91.1206 187.13 87.7806 184.77 86.3706H184.76Z" fill="#FFB727" stroke="#7D4F25" stroke-miterlimit="10"/>
<path d="M169.15 107.29C161.21 107.73 154.42 102.85 154.03 96.3398C154.01 96.0598 154.03 95.7898 154.03 95.5098C153.59 95.8798 153.26 96.1998 153.03 96.4498C153.03 96.7398 153.01 97.0398 153.03 97.3398C153.42 103.85 160.21 108.74 168.15 108.29C172.03 108.06 175.6 106.59 178.2 104.16C178.49 103.88 178.77 103.6 179.03 103.31C176.45 105.65 172.95 107.07 169.15 107.3V107.29Z" fill="#FFDAA4"/>
<path d="M160.12 100.32C160.05 99.18 160.25 98.06 160.67 97.25C161 96.61 161.44 96.22 161.86 96.2C161.88 96.2 161.89 96.2 161.91 96.2C162.03 96.2 162.15 96.23 162.27 96.29C162.23 96.23 162.21 96.16 162.17 96.11C161.78 95.53 161.32 95.21 160.91 95.21C160.89 95.21 160.88 95.21 160.86 95.21C160.44 95.24 160 95.62 159.67 96.26C159.25 97.07 159.05 98.19 159.12 99.33C159.19 100.47 159.52 101.56 160.03 102.31C160.31 102.72 160.62 103 160.93 103.13C160.48 102.39 160.18 101.39 160.12 100.32Z" fill="#FFDAA4"/>
<path d="M173.09 99.5497C173.02 98.4097 173.22 97.2897 173.64 96.4797C173.97 95.8397 174.41 95.4497 174.83 95.4297C174.85 95.4297 174.86 95.4297 174.88 95.4297C175 95.4297 175.13 95.4597 175.26 95.5197C174.85 94.8397 174.34 94.4297 173.88 94.4297C173.86 94.4297 173.85 94.4297 173.83 94.4297C173.41 94.4597 172.97 94.8397 172.64 95.4797C172.22 96.2897 172.02 97.4097 172.09 98.5497C172.21 100.5 173.04 101.97 173.88 102.34C173.47 101.65 173.16 100.68 173.09 99.5497Z" fill="#FFDAA4"/>
<path d="M160 75.0102C163.79 72.7402 176.58 68.0102 180.84 67.1302C179.58 66.2202 179.17 66.0302 179.06 66.0002C179.01 66.0002 178.95 65.9902 178.88 65.9902C176.34 65.9902 161.19 71.5102 157 74.0102C155.22 75.0802 154.18 78.2202 153.62 81.0702C154.68 80.5202 155.89 79.9902 157.26 79.5102C157.87 77.5302 158.74 75.7502 160 75.0102Z" fill="#FFDAA4"/>
<path d="M150.83 92.7297C150.79 91.7797 151.19 90.8997 151.94 90.3297L152.33 90.0397C152.59 89.8497 152.75 89.5397 152.74 89.2197C152.74 88.8997 152.57 88.5897 152.3 88.4097L152.12 88.2897C151.85 88.1297 151.78 87.8797 151.76 87.7497C151.73 87.5197 151.81 87.2897 151.97 87.1297C154.11 84.9897 159.11 81.3197 168.63 80.7497C169.42 80.6997 170.18 80.6797 170.91 80.6797C175.64 80.6797 179.18 81.5997 181.75 82.7197C179.16 81.2197 175.01 79.6797 168.91 79.6797C168.18 79.6797 167.42 79.6997 166.63 79.7497C157.1 80.3197 152.1 83.9897 149.97 86.1297C149.81 86.2997 149.73 86.5197 149.76 86.7497C149.78 86.8797 149.85 87.1297 150.12 87.2897L150.3 87.4097C150.57 87.5897 150.73 87.8997 150.74 88.2197C150.74 88.5497 150.59 88.8497 150.33 89.0397L149.94 89.3297C149.19 89.8997 148.78 90.7797 148.83 91.7297C148.88 92.6997 149.37 93.5497 150.19 94.0697L150.51 94.2697C150.51 94.2697 151.12 94.6597 151.64 95.0097C151.7 94.9497 151.78 94.8697 151.85 94.7997C151.24 94.2797 150.86 93.5597 150.82 92.7397L150.83 92.7297Z" fill="#FFDAA4"/>
<path d="M182.11 92.1193C181.9 92.0193 181.66 91.9193 181.42 91.8193C182.21 92.2893 182.82 92.7393 183.23 93.0793C183.32 93.0093 183.41 92.9393 183.5 92.8593C183.09 92.6093 182.64 92.3593 182.12 92.1193H182.11Z" fill="#FFDAA4"/>
<path d="M157.85 74.7105C162.04 72.2105 177.2 66.6905 179.73 66.6905C179.8 66.6905 179.86 66.6905 179.91 66.7005C179.98 66.7205 180.2 66.8205 180.71 67.1505C180.75 67.1505 180.8 67.1305 180.84 67.1205C179.58 66.2105 179.17 66.0205 179.06 65.9905C179.01 65.9905 178.95 65.9805 178.88 65.9805C176.34 65.9805 161.19 71.5005 157 74.0005C155.22 75.0705 154.18 78.2105 153.62 81.0605C153.97 80.8705 154.35 80.6905 154.74 80.5105C155.34 78.0405 156.31 75.6105 157.84 74.7005L157.85 74.7105Z" fill="white"/>
<path d="M182.33 82.5803C182.22 82.5203 182.09 82.4503 181.97 82.3903C181.62 82.2603 181.26 82.1403 180.89 82.0303C181.4 82.2103 181.89 82.3903 182.33 82.5903V82.5803Z" fill="white"/>
<path d="M151.92 94.41L151.6 94.21C150.78 93.7 150.28 92.84 150.24 91.87C150.2 90.92 150.6 90.04 151.35 89.47L151.74 89.18C152 88.99 152.16 88.68 152.15 88.36C152.15 88.04 151.98 87.73 151.71 87.55L151.53 87.43C151.26 87.27 151.19 87.02 151.17 86.89C151.14 86.66 151.22 86.43 151.38 86.27C153.52 84.13 158.52 80.46 168.04 79.89C168.83 79.84 169.59 79.82 170.32 79.82C173.87 79.82 176.74 80.35 179.04 81.08C176.61 80.2 173.47 79.54 169.47 79.54C168.74 79.54 167.98 79.56 167.19 79.61C157.66 80.18 152.66 83.85 150.53 85.99C150.37 86.16 150.29 86.38 150.32 86.61C150.34 86.74 150.41 86.99 150.68 87.15L150.86 87.27C151.13 87.45 151.29 87.76 151.3 88.08C151.3 88.41 151.15 88.71 150.89 88.9L150.5 89.19C149.75 89.76 149.34 90.64 149.39 91.59C149.44 92.56 149.93 93.41 150.75 93.93L151.07 94.13C151.07 94.13 151.68 94.52 152.2 94.87C152.25 94.82 152.31 94.76 152.36 94.71C152.1 94.54 151.91 94.42 151.91 94.42L151.92 94.41Z" fill="white"/>
<path d="M133.82 85.9902H141.83" stroke="#7D4F25" stroke-miterlimit="10"/>
<path d="M133.92 88.5H144.17" stroke="#7D4F25" stroke-miterlimit="10"/>
<path d="M203.4 95.6699H193.39" stroke="#7D4F25" stroke-miterlimit="10"/>
<path d="M202.57 98.5H191.05" stroke="#7D4F25" stroke-miterlimit="10"/>
<path d="M192.55 113.52H187.38" stroke="#7D4F25" stroke-miterlimit="10"/>
<path d="M147.67 61.96H151.84" stroke="#7D4F25" stroke-miterlimit="10"/>
<path d="M208.39 79.0602L209.6 76.8502C209.73 76.6202 210.06 76.6202 210.18 76.8502L211.39 79.0602C211.42 79.1202 211.47 79.1602 211.52 79.1902L213.73 80.4002C213.96 80.5302 213.96 80.8602 213.73 80.9802L211.52 82.1902C211.46 82.2202 211.42 82.2702 211.39 82.3202L210.18 84.5302C210.05 84.7602 209.72 84.7602 209.6 84.5302L208.39 82.3202C208.36 82.2602 208.31 82.2202 208.26 82.1902L206.05 80.9802C205.82 80.8502 205.82 80.5202 206.05 80.4002L208.26 79.1902C208.32 79.1602 208.36 79.1102 208.39 79.0602Z" fill="white"/>
<path d="M129.69 58.0702L130.37 56.8202C130.44 56.6902 130.63 56.6902 130.7 56.8202L131.38 58.0702C131.38 58.0702 131.42 58.1302 131.45 58.1402L132.7 58.8202C132.83 58.8902 132.83 59.0802 132.7 59.1502L131.45 59.8302C131.45 59.8302 131.39 59.8702 131.38 59.9002L130.7 61.1502C130.63 61.2802 130.44 61.2802 130.37 61.1502L129.69 59.9002C129.69 59.9002 129.65 59.8402 129.62 59.8302L128.37 59.1502C128.24 59.0802 128.24 58.8902 128.37 58.8202L129.62 58.1402C129.62 58.1402 129.68 58.1002 129.69 58.0702Z" fill="white"/>
<path d="M116.42 76.6903L117.1 75.4403C117.17 75.3103 117.36 75.3103 117.43 75.4403L118.11 76.6903C118.11 76.6903 118.15 76.7503 118.18 76.7603L119.43 77.4403C119.56 77.5103 119.56 77.7003 119.43 77.7703L118.18 78.4503C118.18 78.4503 118.12 78.4903 118.11 78.5203L117.43 79.7703C117.36 79.9003 117.17 79.9003 117.1 79.7703L116.42 78.5203C116.42 78.5203 116.38 78.4603 116.35 78.4503L115.1 77.7703C114.97 77.7003 114.97 77.5103 115.1 77.4403L116.35 76.7603C116.35 76.7603 116.41 76.7203 116.42 76.6903Z" fill="white"/>
</g>
<path d="M120 36.9403C123.469 36.9403 123.469 30.002 123.469 30.002C123.469 30.002 123.469 36.9403 126.938 36.9403C123.469 36.9403 123.469 43.8787 123.469 43.8787C123.469 43.8787 123.469 36.9403 120 36.9403Z" fill="#FEF2DF" stroke="black" stroke-linejoin="round"/>
<path d="M255.929 109.423C258.964 109.423 258.964 103.352 258.964 103.352C258.964 103.352 258.964 109.423 262 109.423C258.964 109.423 258.964 115.494 258.964 115.494C258.964 115.494 258.964 109.423 255.929 109.423Z" fill="#FEF2DF" stroke="black" stroke-linejoin="round"/>
<path d="M27 52.073C30.0355 52.073 30.0355 46.002 30.0355 46.002C30.0355 46.002 30.0355 52.073 33.0711 52.073C30.0355 52.073 30.0355 58.1441 30.0355 58.1441C30.0355 58.1441 30.0355 52.073 27 52.073Z" fill="#FEF2DF" stroke="black" stroke-linejoin="round"/>
<path d="M72 110.409C77.2038 110.409 77.2038 100.001 77.2038 100.001C77.2038 100.001 77.2038 110.409 82.4076 110.409C77.2038 110.409 77.2038 120.816 77.2038 120.816C77.2038 120.816 77.2038 110.409 72 110.409Z" fill="#FEF2DF" stroke="black" stroke-linejoin="round"/>
<path d="M307 51.9403C310.469 51.9403 310.469 45.002 310.469 45.002C310.469 45.002 310.469 51.9403 313.938 51.9403C310.469 51.9403 310.469 58.8787 310.469 58.8787C310.469 58.8787 310.469 51.9403 307 51.9403Z" fill="#FEF2DF" stroke="black" stroke-linejoin="round"/>
<path fill-rule="evenodd" clip-rule="evenodd" d="M51.5756 63.583C50.8596 62.9466 50.7951 61.8502 51.4315 61.1342C53.2237 59.1179 58.0225 56.8434 64.3462 60.1448C65.1953 60.5882 65.5243 61.636 65.081 62.4851C64.6377 63.3343 63.5899 63.6633 62.7407 63.22C57.8311 60.6568 54.762 62.6089 54.0244 63.4388C53.388 64.1548 52.2916 64.2194 51.5756 63.583Z" fill="#00C137" stroke="black" stroke-linecap="round" stroke-linejoin="round"/>
<path fill-rule="evenodd" clip-rule="evenodd" d="M284.591 102.793C284.631 101.836 285.439 101.092 286.396 101.132C289.092 101.244 293.89 103.521 295.334 110.507C295.528 111.445 294.925 112.363 293.987 112.557C293.049 112.751 292.131 112.147 291.937 111.209C290.815 105.786 287.362 104.644 286.252 104.598C285.295 104.558 284.552 103.75 284.591 102.793Z" fill="#FE6363" stroke="black" stroke-linecap="round" stroke-linejoin="round"/>
<path fill-rule="evenodd" clip-rule="evenodd" d="M54.7922 120.588C53.8343 120.591 53.0551 119.817 53.0519 118.859C53.0429 116.162 55.1024 111.267 62.0163 109.51C62.9448 109.274 63.8887 109.836 64.1245 110.764C64.3604 111.693 63.799 112.637 62.8705 112.872C57.5026 114.236 56.5172 117.737 56.5209 118.848C56.5241 119.806 55.7501 120.585 54.7922 120.588Z" fill="#FE6363" stroke="black" stroke-linecap="round" stroke-linejoin="round"/>
<path fill-rule="evenodd" clip-rule="evenodd" d="M279.029 67.144C278.163 66.8887 277.669 65.9798 277.924 65.114C278.643 62.6759 281.822 58.8114 288.538 59.089C289.44 59.1263 290.141 59.8877 290.103 60.7895C290.066 61.6914 289.305 62.3923 288.403 62.355C283.189 62.1395 281.355 65.0351 281.059 66.0386C280.804 66.9044 279.895 67.3993 279.029 67.144Z" fill="#FFE563" stroke="black" stroke-linecap="round" stroke-linejoin="round"/>
<path fill-rule="evenodd" clip-rule="evenodd" d="M210.081 40.1281C209.215 40.3812 208.307 39.8839 208.054 39.0175C207.342 36.5775 207.928 31.608 213.729 28.2122C214.508 27.7561 215.509 28.018 215.965 28.7969C216.421 29.5759 216.159 30.5771 215.38 31.0331C210.876 33.6696 210.899 37.0968 211.192 38.1011C211.445 38.9676 210.948 39.8751 210.081 40.1281Z" fill="#FF845A" stroke="black" stroke-linecap="round" stroke-linejoin="round"/>
<rect x="6.98535" y="153.707" width="7.4645" height="7.4645" transform="rotate(45 6.98535 153.707)" stroke="black"/>
<path d="M12 159H45" stroke="black"/>
<rect x="342.015" y="164.264" width="7.4645" height="7.4645" transform="rotate(-135 342.015 164.264)" stroke="black"/>
<path d="M337 159L298 159" stroke="black"/>
<path d="M15.0081 130.159H25.1599C25.5783 130.159 25.9193 130.5 25.9193 130.919V135.214C25.9193 136.637 24.7643 137.792 23.341 137.792H16.827C15.4037 137.792 14.2487 136.637 14.2487 135.214V130.919C14.2487 130.5 14.5897 130.159 15.0081 130.159Z" fill="#CC7323" stroke="#201858" stroke-miterlimit="10" stroke-linecap="round"/>
<path d="M15.0079 130.159L4.7196 114.45" stroke="#201858" stroke-miterlimit="10" stroke-linecap="round"/>
<path d="M17.3773 129.926L15.0286 121.466" stroke="#201858" stroke-miterlimit="10" stroke-linecap="round"/>
<path d="M22.559 129.926L24.9076 121.693" stroke="#201858" stroke-miterlimit="10" stroke-linecap="round"/>
<path d="M14.292 132.306H17.2296" stroke="#201858" stroke-miterlimit="10" stroke-linecap="round"/>
<path d="M14.6259 133.82H15.9991" stroke="#201858" stroke-miterlimit="10" stroke-linecap="round"/>
<path d="M14.292 135.26H17.7684" stroke="#201858" stroke-miterlimit="10" stroke-linecap="round"/>
<path d="M5.64941 90.749H8.96213" stroke="#201858" stroke-miterlimit="10" stroke-linecap="round"/>
<path d="M9.24207 107.741H10.9723" stroke="#201858" stroke-miterlimit="10" stroke-linecap="round"/>
<path d="M11.4497 106.308H13.1777" stroke="#201858" stroke-miterlimit="10" stroke-linecap="round"/>
<path d="M20.0829 84C30.6213 84 39.1634 92.5421 39.1634 103.081C39.1634 113.619 30.6213 122.163 20.0829 122.163C25.0486 122.163 29.0752 113.621 29.0752 103.081C29.0752 92.5399 25.0486 84 20.0829 84Z" fill="#6257EC"/>
<path d="M20.083 84C25.0487 84 29.0753 92.5421 29.0753 103.081C29.0753 113.619 25.0487 122.163 20.083 122.163C15.1173 122.163 11.0907 113.621 11.0907 103.081C11.0907 92.5399 15.1173 84 20.083 84ZM24.2415 104.547C25.4193 103.437 26.1559 101.869 26.1559 100.132C26.1559 96.6825 23.2639 93.8995 19.7806 94.07H19.7829C16.7248 94.2178 14.2033 96.7143 14.0214 99.7701C13.9123 101.609 14.6331 103.294 15.8495 104.477H15.8517L15.8722 104.502L16.2883 104.865L18.0458 106.405C18.2368 106.571 18.4778 106.662 18.7325 106.662H21.4336C21.6859 106.662 21.9292 106.571 22.1202 106.405L23.9391 104.811L24.2279 104.556L24.2415 104.547ZM21.6655 109.454C21.6655 109.192 21.4586 108.976 21.1971 108.976L19.003 108.949C18.7416 108.949 18.5278 109.156 18.5256 109.417L18.5119 110.513C18.5028 111.382 19.1986 112.091 20.0671 112.1C20.9356 112.111 21.645 111.416 21.6564 110.549L21.6677 109.454H21.6655Z" fill="#7E74FF"/>
<path d="M26.1557 100.131C26.1557 101.868 25.4191 103.437 24.2413 104.547L24.2277 104.556L23.9389 104.811L22.12 106.404C21.929 106.57 21.6857 106.661 21.4334 106.661H18.7323C18.4776 106.661 18.2366 106.57 18.0456 106.404L16.2881 104.865L15.872 104.501L15.8515 104.476H15.8493C14.6329 103.294 13.9121 101.609 14.0212 99.7699C14.2031 96.7141 16.7246 94.2176 19.7827 94.0721H19.7804C23.2636 93.8993 26.1557 96.6822 26.1557 100.131ZM22.9249 100.131C22.9249 98.5671 21.6494 97.2916 20.0851 97.2916C18.5208 97.2916 17.2453 98.5694 17.2453 100.131C17.2453 101.693 18.5208 102.969 20.0851 102.969C21.6494 102.969 22.9249 101.696 22.9249 100.131Z" fill="white"/>
<path d="M20.0852 97.2939C21.6494 97.2939 22.925 98.5695 22.925 100.134C22.925 101.698 21.6494 102.971 20.0852 102.971C18.5209 102.971 17.2454 101.696 17.2454 100.134C17.2454 98.5717 18.5209 97.2939 20.0852 97.2939Z" fill="#7E74FF"/>
<path d="M21.1968 108.976C21.4583 108.976 21.6675 109.192 21.6652 109.453L21.6538 110.549C21.6425 111.415 20.9331 112.111 20.0645 112.1C19.196 112.09 18.5003 111.381 18.5094 110.513L18.523 109.417C18.523 109.155 18.739 108.946 19.0005 108.948L21.1946 108.976H21.1968Z" fill="white"/>
<path d="M20.0828 84C15.1171 84 11.0905 92.5421 11.0905 103.081C11.0905 113.619 15.1171 122.163 20.0828 122.163C9.5444 122.163 1 113.621 1 103.081C1 92.5399 9.5444 84 20.0828 84Z" fill="#9D95FF"/>
<path d="M20.0828 84C30.6212 84 39.1633 92.5421 39.1633 103.081C39.1633 113.619 30.6212 122.163 20.0828 122.163C9.5444 122.163 1 113.621 1 103.081C1 92.5399 9.5444 84 20.0828 84Z" stroke="#201858" stroke-miterlimit="10" stroke-linecap="round"/>
<path d="M25.1488 130.159L35.4371 114.45" stroke="#201858" stroke-miterlimit="10" stroke-linecap="round"/>
<path d="M20.083 84C25.0487 84 29.0753 92.5421 29.0753 103.081C29.0753 113.619 25.0487 122.163 20.083 122.163C15.1173 122.163 11.0907 113.621 11.0907 103.081C11.0907 92.5399 15.1173 84 20.083 84Z" stroke="#201858" stroke-miterlimit="10" stroke-linecap="round"/>
<path d="M21.1946 108.976L19.0005 108.948C18.739 108.948 18.5253 109.155 18.523 109.417L18.5094 110.513C18.5003 111.381 19.196 112.09 20.0645 112.1C20.9331 112.111 21.6425 111.415 21.6538 110.549L21.6652 109.453C21.6652 109.192 21.4583 108.976 21.1968 108.976H21.1946Z" stroke="#201858" stroke-miterlimit="10" stroke-linecap="round"/>
<path d="M19.7827 94.0722C16.7246 94.2177 14.2031 96.7142 14.0212 99.77C13.9121 101.609 14.6329 103.294 15.8493 104.476H15.8515L15.872 104.501L16.2881 104.865L18.0456 106.405C18.2366 106.57 18.4776 106.661 18.7323 106.661H21.4334C21.6857 106.661 21.929 106.57 22.12 106.405L23.9389 104.811L24.2277 104.556L24.2413 104.547C25.4191 103.437 26.1557 101.869 26.1557 100.132C26.1557 96.6824 23.2636 93.8994 19.7804 94.0699H19.7827V94.0722Z" stroke="#201858" stroke-miterlimit="10" stroke-linecap="round"/>
<path d="M20.0852 97.2939C21.6494 97.2939 22.925 98.5695 22.925 100.134C22.925 101.698 21.6494 102.971 20.0852 102.971C18.5209 102.971 17.2454 101.696 17.2454 100.134C17.2454 98.5717 18.5209 97.2939 20.0852 97.2939Z" stroke="#201858" stroke-miterlimit="10" stroke-linecap="round"/>
<path d="M24.9075 90.8096H26.6355" stroke="#201858" stroke-miterlimit="10" stroke-linecap="round"/>
<path d="M27.4991 91.8008H29.2271" stroke="#201858" stroke-miterlimit="10" stroke-linecap="round"/>
<path d="M330.008 130.159H340.16C340.578 130.159 340.919 130.5 340.919 130.919V135.214C340.919 136.637 339.764 137.792 338.341 137.792H331.827C330.404 137.792 329.249 136.637 329.249 135.214V130.919C329.249 130.5 329.59 130.159 330.008 130.159Z" fill="#CC7323" stroke="#201858" stroke-miterlimit="10" stroke-linecap="round"/>
<path d="M330.008 130.159L319.72 114.45" stroke="#201858" stroke-miterlimit="10" stroke-linecap="round"/>
<path d="M332.377 129.926L330.029 121.466" stroke="#201858" stroke-miterlimit="10" stroke-linecap="round"/>
<path d="M337.559 129.926L339.908 121.693" stroke="#201858" stroke-miterlimit="10" stroke-linecap="round"/>
<path d="M329.292 132.306H332.23" stroke="#201858" stroke-miterlimit="10" stroke-linecap="round"/>
<path d="M329.626 133.82H330.999" stroke="#201858" stroke-miterlimit="10" stroke-linecap="round"/>
<path d="M329.292 135.26H332.768" stroke="#201858" stroke-miterlimit="10" stroke-linecap="round"/>
<path d="M320.649 90.749H323.962" stroke="#201858" stroke-miterlimit="10" stroke-linecap="round"/>
<path d="M324.242 107.741H325.972" stroke="#201858" stroke-miterlimit="10" stroke-linecap="round"/>
<path d="M326.45 106.308H328.178" stroke="#201858" stroke-miterlimit="10" stroke-linecap="round"/>
<path d="M335.083 84C345.621 84 354.163 92.5421 354.163 103.081C354.163 113.619 345.621 122.163 335.083 122.163C340.049 122.163 344.075 113.621 344.075 103.081C344.075 92.5399 340.049 84 335.083 84Z" fill="#6257EC"/>
<path d="M335.083 84C340.049 84 344.075 92.5421 344.075 103.081C344.075 113.619 340.049 122.163 335.083 122.163C330.117 122.163 326.091 113.621 326.091 103.081C326.091 92.5399 330.117 84 335.083 84ZM339.242 104.547C340.419 103.437 341.156 101.869 341.156 100.132C341.156 96.6825 338.264 93.8995 334.781 94.07H334.783C331.725 94.2178 329.203 96.7143 329.021 99.7701C328.912 101.609 329.633 103.294 330.849 104.477H330.852L330.872 104.502L331.288 104.865L333.046 106.405C333.237 106.571 333.478 106.662 333.732 106.662H336.434C336.686 106.662 336.929 106.571 337.12 106.405L338.939 104.811L339.228 104.556L339.242 104.547ZM336.665 109.454C336.665 109.192 336.459 108.976 336.197 108.976L334.003 108.949C333.742 108.949 333.528 109.156 333.526 109.417L333.512 110.513C333.503 111.382 334.199 112.091 335.067 112.1C335.936 112.111 336.645 111.416 336.656 110.549L336.668 109.454H336.665Z" fill="#7E74FF"/>
<path d="M341.156 100.131C341.156 101.868 340.419 103.437 339.241 104.547L339.228 104.556L338.939 104.811L337.12 106.404C336.929 106.57 336.686 106.661 336.433 106.661H333.732C333.478 106.661 333.237 106.57 333.046 106.404L331.288 104.865L330.872 104.501L330.852 104.476H330.849C329.633 103.294 328.912 101.609 329.021 99.7699C329.203 96.7141 331.725 94.2176 334.783 94.0721H334.78C338.264 93.8993 341.156 96.6822 341.156 100.131ZM337.925 100.131C337.925 98.5671 336.649 97.2916 335.085 97.2916C333.521 97.2916 332.245 98.5694 332.245 100.131C332.245 101.693 333.521 102.969 335.085 102.969C336.649 102.969 337.925 101.696 337.925 100.131Z" fill="white"/>
<path d="M335.085 97.2939C336.649 97.2939 337.925 98.5695 337.925 100.134C337.925 101.698 336.649 102.971 335.085 102.971C333.521 102.971 332.245 101.696 332.245 100.134C332.245 98.5717 333.521 97.2939 335.085 97.2939Z" fill="#7E74FF"/>
<path d="M336.197 108.976C336.458 108.976 336.667 109.192 336.665 109.453L336.654 110.549C336.642 111.415 335.933 112.111 335.065 112.1C334.196 112.09 333.5 111.381 333.509 110.513L333.523 109.417C333.523 109.155 333.739 108.946 334 108.948L336.195 108.976H336.197Z" fill="white"/>
<path d="M335.083 84C330.117 84 326.09 92.5421 326.09 103.081C326.09 113.619 330.117 122.163 335.083 122.163C324.544 122.163 316 113.621 316 103.081C316 92.5399 324.544 84 335.083 84Z" fill="#9D95FF"/>
<path d="M335.083 84C345.621 84 354.163 92.5421 354.163 103.081C354.163 113.619 345.621 122.163 335.083 122.163C324.544 122.163 316 113.621 316 103.081C316 92.5399 324.544 84 335.083 84Z" stroke="#201858" stroke-miterlimit="10" stroke-linecap="round"/>
<path d="M340.149 130.159L350.437 114.45" stroke="#201858" stroke-miterlimit="10" stroke-linecap="round"/>
<path d="M335.083 84C340.049 84 344.075 92.5421 344.075 103.081C344.075 113.619 340.049 122.163 335.083 122.163C330.117 122.163 326.091 113.621 326.091 103.081C326.091 92.5399 330.117 84 335.083 84Z" stroke="#201858" stroke-miterlimit="10" stroke-linecap="round"/>
<path d="M336.195 108.976L334 108.948C333.739 108.948 333.525 109.155 333.523 109.417L333.509 110.513C333.5 111.381 334.196 112.09 335.065 112.1C335.933 112.111 336.642 111.415 336.654 110.549L336.665 109.453C336.665 109.192 336.458 108.976 336.197 108.976H336.195Z" stroke="#201858" stroke-miterlimit="10" stroke-linecap="round"/>
<path d="M334.783 94.0722C331.725 94.2177 329.203 96.7142 329.021 99.77C328.912 101.609 329.633 103.294 330.849 104.476H330.852L330.872 104.501L331.288 104.865L333.046 106.405C333.237 106.57 333.478 106.661 333.732 106.661H336.433C336.686 106.661 336.929 106.57 337.12 106.405L338.939 104.811L339.228 104.556L339.241 104.547C340.419 103.437 341.156 101.869 341.156 100.132C341.156 96.6824 338.264 93.8994 334.78 94.0699H334.783V94.0722Z" stroke="#201858" stroke-miterlimit="10" stroke-linecap="round"/>
<path d="M335.085 97.2939C336.649 97.2939 337.925 98.5695 337.925 100.134C337.925 101.698 336.649 102.971 335.085 102.971C333.521 102.971 332.245 101.696 332.245 100.134C332.245 98.5717 333.521 97.2939 335.085 97.2939Z" stroke="#201858" stroke-miterlimit="10" stroke-linecap="round"/>
<path d="M339.907 90.8096H341.635" stroke="#201858" stroke-miterlimit="10" stroke-linecap="round"/>
<path d="M342.499 91.8008H344.227" stroke="#201858" stroke-miterlimit="10" stroke-linecap="round"/>
<path d="M2.10322 201.116H36.723V251.785H2.10322L8.28556 226.57L8.31475 226.451L8.28556 226.331L2.10322 201.116Z" fill="#FF9D29" stroke="black"/>
<path d="M346.363 201.116H311.743V251.785H346.363L340.18 226.57L340.151 226.451L340.18 226.331L346.363 201.116Z" fill="#FF9D29" stroke="black"/>
<rect x="21.7913" y="194.5" width="304.175" height="50.6686" fill="#F8CC3E" stroke="black"/>
<path d="M15.627 206.697H21.2915M15.627 209.737H21.2915M15.627 212.776H21.2915M15.627 215.815H21.2915M15.627 218.855H21.2915M15.627 221.894H21.2915M15.627 224.933H21.2915M15.627 227.973H21.2915M15.627 231.012H21.2915M15.627 234.051H21.2915M15.627 237.091H21.2915M15.627 240.13H21.2915" stroke="black"/>
<path d="M326.467 206.697H332.131M326.467 209.737H332.131M326.467 212.776H332.131M326.467 215.815H332.131M326.467 218.855H332.131M326.467 221.894H332.131M326.467 224.933H332.131M326.467 227.973H332.131M326.467 231.012H332.131M326.467 234.051H332.131M326.467 237.091H332.131M326.467 240.13H332.131" stroke="black"/>
<path d="M36.7227 245.493V251.509L23.5843 245.493H36.7227Z" fill="#D54E00" stroke="black"/>
<path d="M311.743 245.493V251.509L324.881 245.493H311.743Z" fill="#D54E00" stroke="black"/>
<path d="M119.998 220.01V217.93H125.662C125.716 218.826 125.625 219.663 125.39 220.442C125.156 221.22 124.793 221.908 124.302 222.506C123.812 223.103 123.198 223.572 122.462 223.914C121.726 224.244 120.884 224.41 119.934 224.41C119.038 224.41 118.217 224.271 117.47 223.994C116.724 223.706 116.078 223.3 115.534 222.778C114.99 222.244 114.564 221.615 114.254 220.89C113.956 220.154 113.806 219.343 113.806 218.458C113.806 217.572 113.961 216.772 114.27 216.058C114.58 215.332 115.017 214.714 115.582 214.202C116.148 213.69 116.809 213.295 117.566 213.018C118.324 212.74 119.145 212.602 120.03 212.602C120.82 212.602 121.529 212.714 122.158 212.938C122.788 213.162 123.342 213.476 123.822 213.882C124.313 214.276 124.734 214.735 125.086 215.258L122.686 216.506C122.43 216.058 122.084 215.69 121.646 215.402C121.22 215.103 120.681 214.954 120.03 214.954C119.412 214.954 118.841 215.092 118.318 215.37C117.806 215.647 117.396 216.047 117.086 216.57C116.788 217.082 116.638 217.711 116.638 218.458C116.638 219.194 116.782 219.834 117.07 220.378C117.369 220.911 117.769 221.327 118.27 221.626C118.782 221.914 119.369 222.058 120.03 222.058C120.436 222.058 120.804 222.01 121.134 221.914C121.465 221.807 121.748 221.663 121.982 221.482C122.217 221.29 122.414 221.071 122.574 220.826C122.745 220.57 122.878 220.298 122.974 220.01H119.998ZM134.47 220.01V217.93H140.134C140.187 218.826 140.096 219.663 139.862 220.442C139.627 221.22 139.264 221.908 138.774 222.506C138.283 223.103 137.67 223.572 136.934 223.914C136.198 224.244 135.355 224.41 134.406 224.41C133.51 224.41 132.688 224.271 131.942 223.994C131.195 223.706 130.55 223.3 130.006 222.778C129.462 222.244 129.035 221.615 128.726 220.89C128.427 220.154 128.278 219.343 128.278 218.458C128.278 217.572 128.432 216.772 128.742 216.058C129.051 215.332 129.488 214.714 130.054 214.202C130.619 213.69 131.28 213.295 132.038 213.018C132.795 212.74 133.616 212.602 134.502 212.602C135.291 212.602 136 212.714 136.63 212.938C137.259 213.162 137.814 213.476 138.294 213.882C138.784 214.276 139.206 214.735 139.558 215.258L137.158 216.506C136.902 216.058 136.555 215.69 136.118 215.402C135.691 215.103 135.152 214.954 134.502 214.954C133.883 214.954 133.312 215.092 132.79 215.37C132.278 215.647 131.867 216.047 131.558 216.57C131.259 217.082 131.11 217.711 131.11 218.458C131.11 219.194 131.254 219.834 131.542 220.378C131.84 220.911 132.24 221.327 132.742 221.626C133.254 221.914 133.84 222.058 134.502 222.058C134.907 222.058 135.275 222.01 135.606 221.914C135.936 221.807 136.219 221.663 136.454 221.482C136.688 221.29 136.886 221.071 137.046 220.826C137.216 220.57 137.35 220.298 137.446 220.01H134.47ZM143.389 212.858H146.093V224.058H143.389V212.858ZM145.085 215.082V212.858H147.277C148.226 212.858 149.021 213.007 149.661 213.306C150.312 213.594 150.802 214.01 151.133 214.554C151.464 215.098 151.629 215.754 151.629 216.522C151.629 217.268 151.464 217.919 151.133 218.474C150.802 219.018 150.312 219.439 149.661 219.738C149.021 220.026 148.226 220.17 147.277 220.17H145.085V217.946H147.277C147.821 217.946 148.248 217.823 148.557 217.578C148.866 217.332 149.021 216.98 149.021 216.522C149.021 216.052 148.866 215.695 148.557 215.45C148.248 215.204 147.821 215.082 147.277 215.082H145.085ZM162.267 220.122C162.491 220.527 162.741 220.879 163.019 221.178C163.307 221.476 163.616 221.706 163.947 221.866C164.288 222.026 164.645 222.106 165.019 222.106C165.413 222.106 165.739 222.01 165.995 221.818C166.251 221.615 166.379 221.343 166.379 221.002C166.379 220.714 166.304 220.484 166.155 220.314C166.005 220.132 165.765 219.962 165.435 219.802C165.104 219.642 164.667 219.46 164.123 219.258C163.856 219.162 163.547 219.028 163.195 218.858C162.853 218.687 162.528 218.468 162.219 218.202C161.909 217.924 161.653 217.594 161.451 217.21C161.248 216.815 161.147 216.34 161.147 215.786C161.147 215.124 161.317 214.554 161.659 214.074C162.011 213.594 162.48 213.231 163.067 212.986C163.664 212.73 164.325 212.602 165.051 212.602C165.797 212.602 166.443 212.724 166.987 212.97C167.541 213.215 168 213.524 168.363 213.898C168.725 214.271 169.003 214.65 169.195 215.034L167.131 216.186C166.971 215.919 166.784 215.69 166.571 215.498C166.368 215.295 166.139 215.14 165.883 215.034C165.637 214.916 165.371 214.858 165.083 214.858C164.699 214.858 164.405 214.943 164.203 215.114C164 215.274 163.899 215.476 163.899 215.722C163.899 215.978 163.995 216.202 164.187 216.394C164.389 216.586 164.672 216.762 165.035 216.922C165.408 217.082 165.856 217.252 166.379 217.434C166.773 217.583 167.141 217.759 167.483 217.962C167.824 218.154 168.123 218.388 168.379 218.666C168.645 218.943 168.853 219.263 169.003 219.626C169.152 219.988 169.227 220.404 169.227 220.874C169.227 221.439 169.109 221.946 168.875 222.394C168.651 222.831 168.341 223.199 167.947 223.498C167.563 223.796 167.12 224.02 166.619 224.17C166.128 224.33 165.621 224.41 165.099 224.41C164.373 224.41 163.696 224.282 163.067 224.026C162.448 223.759 161.909 223.402 161.451 222.954C160.992 222.506 160.635 222.015 160.379 221.482L162.267 220.122ZM171.355 215.274V212.858H180.219V215.274H177.131V224.058H174.427V215.274H171.355ZM183.05 221.898L183.242 219.834H188.794L188.97 221.898H183.05ZM185.978 216.97L184.41 220.586L184.538 221.178L183.146 224.058H180.09L185.978 212.154L191.882 224.058H188.81L187.466 221.29L187.562 220.602L185.978 216.97ZM194.495 212.858H197.295V224.058H194.495V212.858ZM201.103 212.858H204.271L199.727 218.106L204.511 224.058H201.231L196.511 218.186L201.103 212.858ZM208.915 224.058V221.834H214.563V224.058H208.915ZM208.915 215.082V212.858H214.563V215.082H208.915ZM208.915 219.258V217.082H214.243V219.258H208.915ZM207.123 212.858H209.715V224.058H207.123V212.858ZM218.203 212.858H220.987V224.058H218.203V212.858ZM222.203 224.058H219.995V221.658H222.107C222.534 221.658 222.945 221.604 223.339 221.498C223.745 221.391 224.097 221.215 224.395 220.97C224.705 220.724 224.95 220.399 225.131 219.994C225.313 219.578 225.403 219.066 225.403 218.458C225.403 217.85 225.313 217.343 225.131 216.938C224.95 216.522 224.705 216.191 224.395 215.946C224.097 215.7 223.745 215.524 223.339 215.418C222.945 215.311 222.534 215.258 222.107 215.258H219.995V212.858H222.203C223.43 212.858 224.491 213.087 225.387 213.546C226.283 214.004 226.977 214.65 227.467 215.482C227.958 216.314 228.203 217.306 228.203 218.458C228.203 219.599 227.958 220.591 227.467 221.434C226.977 222.266 226.283 222.911 225.387 223.37C224.491 223.828 223.43 224.058 222.203 224.058Z" fill="#7A3007"/>
<defs>
<clipPath id="clip0_5214_8330">
<rect width="98.91" height="87" fill="white" transform="translate(115 45)"/>
</clipPath>
</defs>
</svg>
