<svg width="228" height="290" viewBox="0 0 228 290" fill="none" xmlns="http://www.w3.org/2000/svg">
<circle cx="110.043" cy="157.217" r="110.043" fill="#E9F8FF"/>
<mask id="path-2-inside-1_5114_5077" fill="white">
<path fill-rule="evenodd" clip-rule="evenodd" d="M172.998 175.941C187.739 182.767 205.222 176.351 212.048 161.61C216.177 152.695 215.461 142.776 210.989 134.818C217.629 143.243 219.404 155.008 214.588 165.408C207.762 180.148 190.279 186.564 175.539 179.738C169.714 177.041 165.189 172.679 162.268 167.48C165.039 170.997 168.658 173.931 172.998 175.941Z"/>
</mask>
<path fill-rule="evenodd" clip-rule="evenodd" d="M172.998 175.941C187.739 182.767 205.222 176.351 212.048 161.61C216.177 152.695 215.461 142.776 210.989 134.818C217.629 143.243 219.404 155.008 214.588 165.408C207.762 180.148 190.279 186.564 175.539 179.738C169.714 177.041 165.189 172.679 162.268 167.48C165.039 170.997 168.658 173.931 172.998 175.941Z" fill="#FF9D29"/>
<path d="M210.989 134.818L211.774 134.199L210.117 135.308L210.989 134.818ZM162.268 167.48L163.053 166.861L161.396 167.97L162.268 167.48ZM211.141 161.19C204.547 175.43 187.658 181.627 173.419 175.033L172.578 176.848C187.82 183.906 205.897 177.272 212.955 162.031L211.141 161.19ZM210.117 135.308C214.439 142.998 215.128 152.578 211.141 161.19L212.955 162.031C217.225 152.811 216.483 142.554 211.861 134.329L210.117 135.308ZM210.204 135.437C216.62 143.578 218.333 154.942 213.681 164.987L215.496 165.828C220.476 155.073 218.638 142.908 211.774 134.199L210.204 135.437ZM213.681 164.987C207.087 179.227 190.198 185.424 175.959 178.831L175.119 180.645C190.36 187.703 208.438 181.069 215.496 165.828L213.681 164.987ZM175.959 178.831C170.331 176.224 165.961 172.012 163.139 166.99L161.396 167.97C164.417 173.346 169.097 177.857 175.119 180.645L175.959 178.831ZM173.419 175.033C169.224 173.091 165.729 170.257 163.053 166.861L161.482 168.099C164.349 171.736 168.092 174.771 172.578 176.848L173.419 175.033Z" fill="#E07138" mask="url(#path-2-inside-1_5114_5077)"/>
<circle cx="187.899" cy="153.048" r="28.9128" transform="rotate(24.8479 187.899 153.048)" stroke="#E07138"/>
<circle cx="185.359" cy="149.251" r="28.4128" transform="rotate(24.8479 185.359 149.251)" fill="#EF4343" stroke="#E07138" stroke-width="2"/>
<circle cx="185.359" cy="149.251" r="28.9128" transform="rotate(24.8479 185.359 149.251)" fill="#F9D665" stroke="#E07138"/>
<path d="M166.572 153.016L171.978 155.52C173.251 156.109 173.887 156.404 174.526 156.515C175.231 156.624 175.946 156.57 176.62 156.353C177.238 156.155 177.796 155.771 178.896 155.013L178.897 155.013L178.929 154.991L191.483 146.268C192.592 145.506 193.145 145.12 193.539 144.628C193.968 144.096 194.262 143.462 194.39 142.791C194.509 142.177 194.441 141.508 194.307 140.189L193.702 134.262C193.581 133.035 193.517 132.419 193.237 132.073C192.936 131.7 192.47 131.485 191.991 131.496C191.546 131.506 191.035 131.856 190.021 132.558L166.152 149.098C165.15 149.789 164.649 150.135 164.489 150.535C164.32 150.97 164.369 151.458 164.631 151.861C164.875 152.23 165.436 152.49 166.572 153.016Z" fill="#FF9D29"/>
<path d="M193.375 165.428L185.629 161.841C184.487 161.312 183.912 161.046 183.674 160.679C183.412 160.277 183.367 159.782 183.535 159.347C183.694 158.951 184.195 158.61 185.198 157.929L185.198 157.929L185.222 157.913L192.056 153.293C193.062 152.611 193.566 152.275 194.005 152.261C194.483 152.25 194.942 152.462 195.243 152.835C195.516 153.172 195.583 153.749 195.716 154.89L195.716 154.892L195.727 154.985L196.638 163.191L196.64 163.208C196.644 163.242 196.647 163.277 196.651 163.311L196.651 163.311C196.774 164.456 196.837 165.04 196.642 165.409C196.426 165.822 196.013 166.104 195.536 166.164C195.093 166.224 194.518 165.957 193.375 165.428Z" fill="#FF9D29"/>
<path d="M166.572 153.016L171.978 155.52C173.251 156.109 173.887 156.404 174.526 156.515C175.231 156.624 175.946 156.57 176.62 156.353C177.238 156.155 177.796 155.771 178.896 155.013L178.897 155.013L178.929 154.991L191.483 146.268C192.592 145.506 193.145 145.12 193.539 144.628C193.968 144.096 194.262 143.462 194.39 142.791C194.509 142.177 194.441 141.508 194.307 140.189L193.702 134.262C193.581 133.035 193.517 132.419 193.237 132.073C192.936 131.7 192.47 131.485 191.991 131.496C191.546 131.506 191.035 131.856 190.021 132.558L166.152 149.098C165.15 149.789 164.649 150.135 164.489 150.535C164.32 150.97 164.369 151.458 164.631 151.861C164.875 152.23 165.436 152.49 166.572 153.016Z" stroke="#E07138"/>
<path d="M193.375 165.428L185.629 161.841C184.487 161.312 183.912 161.046 183.674 160.679C183.412 160.277 183.367 159.782 183.535 159.347C183.694 158.951 184.195 158.61 185.198 157.929L185.198 157.929L185.222 157.913L192.056 153.293C193.062 152.611 193.566 152.275 194.005 152.261C194.483 152.25 194.942 152.462 195.243 152.835C195.516 153.172 195.583 153.749 195.716 154.89L195.716 154.892L195.727 154.985L196.638 163.191L196.64 163.208C196.644 163.242 196.647 163.277 196.651 163.311L196.651 163.311C196.774 164.456 196.837 165.04 196.642 165.409C196.426 165.822 196.013 166.104 195.536 166.164C195.093 166.224 194.518 165.957 193.375 165.428Z" stroke="#E07138"/>
<mask id="path-8-inside-2_5114_5077" fill="white">
<path fill-rule="evenodd" clip-rule="evenodd" d="M191.151 226.533C206.834 222.301 216.117 206.157 211.885 190.473C209.326 180.989 202.41 173.845 193.874 170.616C204.372 172.812 213.285 180.69 216.27 191.754C220.502 207.437 211.219 223.581 195.536 227.814C189.337 229.486 183.066 229.048 177.487 226.937C181.871 227.854 186.531 227.78 191.151 226.533Z"/>
</mask>
<path fill-rule="evenodd" clip-rule="evenodd" d="M191.151 226.533C206.834 222.301 216.117 206.157 211.885 190.473C209.326 180.989 202.41 173.845 193.874 170.616C204.372 172.812 213.285 180.69 216.27 191.754C220.502 207.437 211.219 223.581 195.536 227.814C189.337 229.486 183.066 229.048 177.487 226.937C181.871 227.854 186.531 227.78 191.151 226.533Z" fill="#FF9D29"/>
<path d="M193.874 170.616L194.079 169.637L193.52 171.551L193.874 170.616ZM177.487 226.937L177.692 225.958L177.133 227.872L177.487 226.937ZM210.92 190.734C215.008 205.884 206.04 221.48 190.89 225.568L191.411 227.499C207.628 223.123 217.226 206.429 212.85 190.213L210.92 190.734ZM193.52 171.551C201.768 174.672 208.447 181.573 210.92 190.734L212.85 190.213C210.204 180.405 203.051 173.019 194.228 169.681L193.52 171.551ZM193.669 171.595C203.813 173.717 212.421 181.328 215.305 192.014L217.236 191.493C214.148 180.052 204.93 171.907 194.079 169.637L193.669 171.595ZM215.305 192.014C219.393 207.164 210.426 222.76 195.276 226.848L195.797 228.779C212.013 224.403 221.612 207.71 217.236 191.493L215.305 192.014ZM195.276 226.848C189.286 228.464 183.23 228.041 177.841 226.002L177.133 227.872C182.902 230.055 189.388 230.508 195.797 228.779L195.276 226.848ZM190.89 225.568C186.426 226.773 181.925 226.844 177.692 225.958L177.282 227.916C181.817 228.864 186.636 228.787 191.411 227.499L190.89 225.568Z" fill="#E07138" mask="url(#path-8-inside-2_5114_5077)"/>
<circle cx="187.874" cy="199.412" r="28.9128" transform="rotate(-15.1015 187.874 199.412)" stroke="#E07138"/>
<circle cx="183.489" cy="198.133" r="28.4128" transform="rotate(-15.1015 183.489 198.133)" fill="#EF4343" stroke="#E07138" stroke-width="2"/>
<circle cx="183.489" cy="198.133" r="28.9128" transform="rotate(-15.1015 183.489 198.133)" fill="#F9D665" stroke="#E07138"/>
<path d="M171.505 213.084L177.256 211.532C178.61 211.166 179.287 210.984 179.848 210.659C180.459 210.29 180.973 209.79 181.35 209.19C181.696 208.641 181.878 207.989 182.235 206.701L182.235 206.701L182.245 206.663L186.268 191.915C186.629 190.619 186.805 189.968 186.791 189.338C186.779 188.655 186.597 187.98 186.264 187.383C185.961 186.836 185.48 186.367 184.53 185.442L180.261 181.287C179.379 180.423 178.935 179.992 178.498 179.907C178.028 179.815 177.533 179.948 177.173 180.264C176.838 180.558 176.671 181.154 176.344 182.344L168.666 210.35C168.342 211.524 168.18 212.11 168.314 212.519C168.465 212.961 168.815 213.304 169.274 213.444C169.699 213.571 170.296 213.41 171.505 213.084Z" fill="#FF9D29"/>
<path d="M200.022 205.389L191.781 207.612C190.565 207.941 189.953 208.106 189.536 207.977C189.076 207.837 188.724 207.487 188.574 207.045C188.441 206.639 188.606 206.056 188.938 204.89L188.938 204.89L188.945 204.863L191.218 196.933C191.551 195.764 191.722 195.182 192.05 194.89C192.41 194.574 192.898 194.443 193.367 194.535C193.793 194.618 194.215 195.017 195.05 195.807L195.051 195.808L195.119 195.873L201.087 201.579L201.099 201.59C201.124 201.614 201.149 201.638 201.174 201.662L201.174 201.662C202.003 202.461 202.426 202.869 202.514 203.276C202.613 203.731 202.478 204.213 202.151 204.565C201.849 204.895 201.238 205.06 200.022 205.389Z" fill="#FF9D29"/>
<path d="M171.505 213.084L177.256 211.532C178.61 211.166 179.287 210.984 179.848 210.659C180.459 210.29 180.973 209.79 181.35 209.19C181.696 208.641 181.878 207.989 182.235 206.701L182.235 206.701L182.245 206.663L186.268 191.915C186.629 190.619 186.805 189.968 186.791 189.338C186.779 188.655 186.597 187.98 186.264 187.383C185.961 186.836 185.48 186.367 184.53 185.442L180.261 181.287C179.379 180.423 178.935 179.992 178.498 179.907C178.028 179.815 177.533 179.948 177.173 180.264C176.838 180.558 176.671 181.154 176.344 182.344L168.666 210.35C168.342 211.524 168.18 212.11 168.314 212.519C168.465 212.961 168.815 213.304 169.274 213.444C169.699 213.571 170.296 213.41 171.505 213.084Z" stroke="#E07138"/>
<path d="M200.022 205.389L191.781 207.612C190.565 207.941 189.953 208.106 189.536 207.977C189.076 207.837 188.724 207.487 188.574 207.045C188.441 206.639 188.606 206.056 188.938 204.89L188.938 204.89L188.945 204.863L191.218 196.933C191.551 195.764 191.722 195.182 192.05 194.89C192.41 194.574 192.898 194.443 193.367 194.535C193.793 194.618 194.215 195.017 195.05 195.807L195.051 195.808L195.119 195.873L201.087 201.579L201.099 201.59C201.124 201.614 201.149 201.638 201.174 201.662L201.174 201.662C202.003 202.461 202.426 202.869 202.514 203.276C202.613 203.731 202.478 204.213 202.151 204.565C201.849 204.895 201.238 205.06 200.022 205.389Z" stroke="#E07138"/>
<rect x="52.5" y="257.5" width="118" height="9" rx="4.5" fill="#FFD07E" stroke="black"/>
<rect x="49.5" y="266.5" width="118" height="9" rx="4.5" fill="#FF9D29" stroke="black"/>
<path d="M44.3059 164.086C44.3059 160.496 47.216 157.586 50.8059 157.586H172.489C176.079 157.586 178.989 160.496 178.989 164.086V251.354C178.989 254.944 176.079 257.854 172.489 257.854H67.0853C62.1484 257.854 58.1463 261.856 58.1463 266.793C58.1463 271.73 62.1484 275.732 67.0853 275.732H172.105C175.907 275.732 178.989 278.814 178.989 282.616C178.989 286.418 175.907 289.5 172.105 289.5H51.8059C47.6638 289.5 44.3059 286.142 44.3059 282V164.086Z" fill="#6B61D6" stroke="black"/>
<path d="M44.3059 252.309C44.3059 248.166 47.6638 244.809 51.8059 244.809H172.221C175.959 244.809 178.989 247.839 178.989 251.577C178.989 255.316 175.959 258.346 172.221 258.346H66.6463C61.9519 258.346 58.1463 262.152 58.1463 266.846V267.46C58.1463 272.155 61.9519 275.96 66.6463 275.96H172.221C175.959 275.96 178.989 278.991 178.989 282.729C178.989 286.467 175.959 289.498 172.221 289.498H51.8059C47.6638 289.498 44.3059 286.14 44.3059 281.998V252.309Z" fill="#2E25A0" stroke="black"/>
<path d="M52.1125 161.238L52.1126 245.694" stroke="black"/>
<path d="M136.956 203.894C136.956 208.071 134.05 211.944 129.152 214.802C124.266 217.652 117.483 219.43 109.965 219.43C102.446 219.43 95.6631 217.652 90.7773 214.802C85.8792 211.944 82.9734 208.071 82.9734 203.894C82.9734 199.717 85.8792 195.843 90.7773 192.986C95.6631 190.136 102.446 188.357 109.965 188.357C117.483 188.357 124.266 190.136 129.152 192.986C134.05 195.843 136.956 199.717 136.956 203.894Z" fill="#3E33BB" stroke="black"/>
<path d="M90.0411 174.387L90.061 174.413L90.0774 174.441L105.692 201.366C106.019 201.771 106.718 202.14 107.73 202.403C108.736 202.666 109.96 202.801 111.195 202.801C112.43 202.801 113.653 202.666 114.659 202.403C115.69 202.135 116.397 201.756 116.715 201.343L137.466 174.387C139.358 171.929 137.606 168.369 134.504 168.369L128.586 168.369L128.086 168.369L128.086 167.869L128.086 133.966C128.086 131.902 126.412 130.229 124.348 130.229L105.278 130.229C103.213 130.229 101.54 131.902 101.54 133.966L101.54 167.869L101.54 168.369L101.04 168.369L93.003 168.369C89.9012 168.369 88.149 171.929 90.0411 174.387Z" fill="#007421" stroke="black"/>
<path d="M95.3545 167.869L95.3545 168.369L94.8545 168.369L86.8177 168.369C83.7159 168.369 81.9637 171.929 83.8558 174.387L104.606 201.343C106.102 203.286 109.034 203.286 110.53 201.343L131.28 174.387C133.172 171.929 131.42 168.369 128.318 168.369L122.401 168.369L121.901 168.369L121.901 167.869L121.901 133.966C121.901 131.902 120.227 130.229 118.163 130.229L99.0923 130.229C97.028 130.229 95.3545 131.902 95.3545 133.966L95.3545 167.869Z" fill="#00C137" stroke="black"/>
<path fill-rule="evenodd" clip-rule="evenodd" d="M87.6605 112.091C112.794 123.73 142.603 112.79 154.242 87.657C161.281 72.4554 160.061 55.5431 152.436 41.9755C163.758 56.3393 166.785 76.3992 158.573 94.1313C146.935 119.264 117.125 130.204 91.9923 118.565C82.0607 113.966 74.3455 106.53 69.364 97.6656C74.0893 103.661 80.2595 108.664 87.6605 112.091Z" fill="#AD2323"/>
<circle cx="113.068" cy="73.0558" r="49.6501" transform="rotate(24.8479 113.068 73.0558)" stroke="black"/>
<circle cx="108.736" cy="66.5812" r="50.1501" transform="rotate(24.8479 108.736 66.5812)" fill="#EF4343"/>
<circle cx="108.736" cy="66.5812" r="49.6501" transform="rotate(24.8479 108.736 66.5812)" fill="#E4393A" stroke="black"/>
<path d="M76.8954 75.8202L86.1124 80.0884C88.2826 81.0933 89.3676 81.5957 90.4559 81.7852C91.6587 81.9721 92.8774 81.8801 94.0269 81.509C95.0812 81.1711 96.0323 80.5165 97.9083 79.2252L97.9094 79.2244L97.9646 79.1865L119.369 64.3143C121.261 63.0145 122.203 62.3561 122.875 61.5178C123.606 60.6112 124.107 59.5296 124.325 58.3854C124.529 57.3388 124.413 56.1982 124.184 53.949L123.153 43.8439C122.946 41.7504 122.837 40.701 122.36 40.1104C121.846 39.4757 121.052 39.1083 120.236 39.1271C119.477 39.1449 118.606 39.7406 116.876 40.9372L73.3431 64.8479C73.0364 67.4681 73.3431 70.0879 73.3431 71.5888C73.3431 72.7083 73.1382 73.1635 73.5855 73.8498C74.002 74.4803 74.9586 74.9233 76.8954 75.8202Z" fill="#EECCCC"/>
<path d="M122.595 96.9829L109.389 90.867C107.44 89.9648 106.46 89.5109 106.055 88.8858C105.608 88.1996 105.818 87.9239 105.818 87.1188C105.818 86.3136 105.132 82.5336 105.818 80.5686L108.653 81.7852L120.346 76.2917C122.061 75.1289 122.921 74.5558 123.669 74.5325C124.485 74.5136 125.267 74.8758 125.78 75.5104C126.246 76.0855 126.36 77.0688 126.586 79.0155L126.587 79.0184L126.605 79.1763L128.159 93.1693L128.162 93.1967C128.168 93.2561 128.175 93.3146 128.181 93.3724C128.39 95.3251 128.497 96.3219 128.166 96.9494C127.797 97.6537 127.092 98.1352 126.28 98.238C125.524 98.3391 124.544 97.8851 122.595 96.9829Z" fill="#EECCCC"/>
<path d="M76.8954 75.8202L86.1124 80.0884C88.2826 81.0933 89.3676 81.5957 90.4559 81.7852C91.6587 81.9721 92.8774 81.8801 94.0269 81.509C95.0812 81.1711 96.0323 80.5165 97.9083 79.2252L97.9094 79.2244L97.9646 79.1865L119.369 64.3143C121.261 63.0145 122.203 62.3561 122.875 61.5178C123.606 60.6112 124.107 59.5296 124.325 58.3854C124.529 57.3388 124.413 56.1982 124.184 53.949L123.153 43.8439C122.946 41.7504 122.837 40.701 122.36 40.1104C121.846 39.4757 121.052 39.1083 120.236 39.1271C119.477 39.1449 118.606 39.7406 116.876 40.9372L73.3431 64.8479C73.0364 67.4681 73.3431 70.0879 73.3431 71.5888C73.3431 72.7083 73.1382 73.1635 73.5855 73.8498C74.002 74.4803 74.9586 74.9233 76.8954 75.8202Z" stroke="black"/>
<path d="M122.595 96.9829L109.389 90.867C107.44 89.9648 106.46 89.5109 106.055 88.8858C105.608 88.1996 105.818 87.9239 105.818 87.1188C105.818 86.3136 105.132 82.5336 105.818 80.5686L108.653 81.7852L120.346 76.2917C122.061 75.1289 122.921 74.5558 123.669 74.5325C124.485 74.5136 125.267 74.8758 125.78 75.5104C126.246 76.0855 126.36 77.0688 126.586 79.0155L126.587 79.0184L126.605 79.1763L128.159 93.1693L128.162 93.1967C128.168 93.2561 128.175 93.3146 128.181 93.3724C128.39 95.3251 128.497 96.3219 128.166 96.9494C127.797 97.6537 127.092 98.1352 126.28 98.238C125.524 98.3391 124.544 97.8851 122.595 96.9829Z" stroke="black"/>
<path d="M76.7036 69.3885L85.9206 73.6567C88.0907 74.6617 89.1757 75.1641 90.264 75.3536C91.4669 75.5405 92.6856 75.4484 93.8351 75.0774C94.8894 74.7395 95.8404 74.0849 97.7165 72.7935L97.7176 72.7928L97.7727 72.7548L119.177 57.8827C121.069 56.5828 122.011 55.9245 122.683 55.0861C123.414 54.1796 123.915 53.0979 124.133 51.9537C124.337 50.9072 124.221 49.7666 123.992 47.5174L122.961 37.4123C122.754 35.3188 122.645 34.2693 122.168 33.6788C121.654 33.0441 120.861 32.6767 120.044 32.6954C119.285 32.7133 118.414 33.3089 116.684 34.5056L75.9862 62.707C74.2781 63.8865 73.4239 64.4765 73.1513 65.1572C72.8639 65.9001 72.9463 66.7319 73.3937 67.4182C73.8101 68.0486 74.7668 68.4916 76.7036 69.3885Z" fill="white"/>
<path d="M122.404 90.5512L109.197 84.4354C107.248 83.5331 106.268 83.0793 105.863 82.4542C105.416 81.7679 105.339 80.9251 105.626 80.1823C105.897 79.5066 106.751 78.9261 108.461 77.7644L108.461 77.7642L108.501 77.737L120.154 69.8601C121.869 68.6973 122.729 68.1242 123.477 68.1009C124.293 68.0819 125.075 68.4442 125.589 69.0788C126.054 69.6539 126.168 70.6371 126.394 72.5839L126.395 72.5868L126.413 72.7447L127.967 86.7376L127.97 86.765C127.977 86.8244 127.983 86.8829 127.989 86.9407L127.989 86.9409C128.199 88.8937 128.305 89.8902 127.974 90.5178C127.605 91.2221 126.9 91.7035 126.088 91.8064C125.332 91.9074 124.352 91.4535 122.404 90.5512Z" fill="white"/>
<path d="M76.7036 69.3885L85.9206 73.6567C88.0907 74.6617 89.1757 75.1641 90.264 75.3536C91.4669 75.5405 92.6856 75.4484 93.8351 75.0774C94.8894 74.7395 95.8404 74.0849 97.7165 72.7935L97.7176 72.7928L97.7727 72.7548L119.177 57.8827C121.069 56.5828 122.011 55.9245 122.683 55.0861C123.414 54.1796 123.915 53.0979 124.133 51.9537C124.337 50.9072 124.221 49.7666 123.992 47.5174L122.961 37.4123C122.754 35.3188 122.645 34.2693 122.168 33.6788C121.654 33.0441 120.861 32.6767 120.044 32.6954C119.285 32.7133 118.414 33.3089 116.684 34.5056L75.9862 62.707C74.2781 63.8865 73.4239 64.4765 73.1513 65.1572C72.8639 65.9001 72.9463 66.7319 73.3937 67.4182C73.8101 68.0486 74.7668 68.4916 76.7036 69.3885Z" stroke="black"/>
<path d="M122.404 90.5512L109.197 84.4354C107.248 83.5331 106.268 83.0793 105.863 82.4542C105.416 81.7679 105.339 80.9251 105.626 80.1823C105.897 79.5066 106.751 78.9261 108.461 77.7644L108.461 77.7642L108.501 77.737L120.154 69.8601C121.869 68.6973 122.729 68.1242 123.477 68.1009C124.293 68.0819 125.075 68.4442 125.589 69.0788C126.054 69.6539 126.168 70.6371 126.394 72.5839L126.395 72.5868L126.413 72.7447L127.967 86.7376L127.97 86.765C127.977 86.8244 127.983 86.8829 127.989 86.9407L127.989 86.9409C128.199 88.8937 128.305 89.8902 127.974 90.5178C127.605 91.2221 126.9 91.7035 126.088 91.8064C125.332 91.9074 124.352 91.4535 122.404 90.5512Z" stroke="black"/>
<path d="M56.5864 15.5954C60.0477 15.5954 60.0477 7.98047 60.0477 7.98047C60.0477 7.98047 60.0477 15.5954 63.509 15.5954C60.0477 15.5954 60.0477 23.2102 60.0477 23.2102C60.0477 23.2102 60.0477 15.5954 56.5864 15.5954Z" fill="#FEF2DF" stroke="black" stroke-linejoin="round"/>
<path d="M14.8911 153.493C20.0457 153.493 20.0457 143.184 20.0457 143.184C20.0457 143.184 20.0457 153.493 25.2003 153.493C20.0457 153.493 20.0457 163.802 20.0457 163.802C20.0457 163.802 20.0457 153.493 14.8911 153.493Z" fill="#FEF2DF" stroke="black" stroke-linejoin="round"/>
<path d="M203.893 88.9411C208.046 88.9411 208.046 81.3262 208.046 81.3262C208.046 81.3262 208.046 88.9411 212.2 88.9411C208.046 88.9411 208.046 96.5559 208.046 96.5559C208.046 96.5559 208.046 88.9411 203.893 88.9411Z" fill="#FEF2DF" stroke="black" stroke-linejoin="round"/>
<path fill-rule="evenodd" clip-rule="evenodd" d="M40.7199 123.196C40.7647 122.117 41.6754 121.279 42.7539 121.324C45.7912 121.45 51.1974 124.016 52.8253 131.888C53.0439 132.945 52.3642 133.979 51.3071 134.198C50.25 134.417 49.2158 133.737 48.9972 132.68C47.7333 126.568 43.8418 125.282 42.5916 125.23C41.5131 125.185 40.6751 124.275 40.7199 123.196Z" fill="#FE6363" stroke="black" stroke-linecap="round" stroke-linejoin="round"/>
<path fill-rule="evenodd" clip-rule="evenodd" d="M182.603 125.895C181.626 126.18 180.603 125.62 180.318 124.644C179.515 121.894 180.176 116.294 186.713 112.468C187.59 111.954 188.719 112.249 189.232 113.127C189.746 114.005 189.451 115.133 188.574 115.647C183.498 118.617 183.523 122.479 183.854 123.611C184.139 124.587 183.579 125.61 182.603 125.895Z" fill="#FFE563" stroke="black" stroke-linecap="round" stroke-linejoin="round"/>
<path fill-rule="evenodd" clip-rule="evenodd" d="M180.982 59.4616C180.005 59.7468 178.983 59.1865 178.697 58.2101C177.894 55.4606 178.555 49.8607 185.092 46.0342C185.97 45.5203 187.098 45.8153 187.612 46.6931C188.125 47.5709 187.83 48.6991 186.953 49.2129C181.878 52.1838 181.903 56.0458 182.233 57.1775C182.518 58.1538 181.958 59.1765 180.982 59.4616Z" fill="#FF845A" stroke="black" stroke-linecap="round" stroke-linejoin="round"/>
</svg>
