<svg width="452" height="257" viewBox="0 0 452 257" fill="none" xmlns="http://www.w3.org/2000/svg">
<circle cx="225" cy="88.7383" r="64.5" fill="#E9F8FF" stroke="#CCE3FF"/>
<circle cx="225" cy="88.7383" r="52.5" fill="#CBEEFF" stroke="#CCE3FF"/>
<path d="M57.2192 174.204C57.2192 177.192 58.0472 178.92 60.2792 179.928V180H53.3672V179.928C55.2752 178.812 56.0312 177.192 56.0312 174.492V159.12C56.0312 156.744 55.6712 155.988 54.0872 154.872V154.8H63.9512L70.1072 169.524L76.1552 154.8H85.2992V154.872C83.7152 155.988 83.3552 156.744 83.3552 159.12V175.644C83.3552 178.02 83.7872 178.812 85.3712 179.928V180H73.7072V179.928C75.2912 178.812 75.7592 178.02 75.7592 175.644V158.4L66.7592 180.396H66.6152L57.2192 158.364V174.204ZM87.9353 156.636C87.9353 154.512 89.5913 152.892 91.8593 152.892C94.0913 152.892 95.8193 154.512 95.8193 156.636C95.8193 158.724 94.0913 160.38 91.8593 160.38C89.5913 160.38 87.9353 158.724 87.9353 156.636ZM95.4953 162.108V176.076C95.4953 178.452 95.5673 178.848 97.0793 179.928V180H86.7113V179.928C88.2233 178.848 88.2953 178.452 88.2953 176.076V166.104C88.2953 163.584 88.1153 163.224 86.4593 162.18V162.108H95.4953ZM98.0258 162.108H107.062V166.716C107.926 163.512 110.23 161.748 113.29 161.748C117.322 161.748 119.014 164.628 119.014 167.976V176.076C119.014 178.452 119.086 178.848 120.598 179.928V180H110.23V179.928C111.742 178.848 111.814 178.452 111.814 176.076V167.652C111.814 166.212 111.13 165.096 109.69 165.096C108.142 165.096 107.062 166.32 107.062 169.38V176.076C107.062 178.452 107.134 178.848 108.646 179.928V180H98.2778V179.928C99.7898 178.848 99.8618 178.452 99.8618 176.076V166.104C99.8618 163.584 99.6818 163.224 98.0258 162.18V162.108ZM122.916 156.636C122.916 154.512 124.572 152.892 126.84 152.892C129.072 152.892 130.8 154.512 130.8 156.636C130.8 158.724 129.072 160.38 126.84 160.38C124.572 160.38 122.916 158.724 122.916 156.636ZM130.476 162.108V176.076C130.476 178.452 130.548 178.848 132.06 179.928V180H121.692V179.928C123.204 178.848 123.276 178.452 123.276 176.076V166.104C123.276 163.584 123.096 163.224 121.44 162.18V162.108H130.476ZM144.706 164.52C143.086 164.52 141.826 166.392 141.826 168.984V173.448C141.826 176.544 143.158 178.524 144.814 178.524C146.83 178.524 147.658 175.968 147.658 170.856C147.658 166.752 146.686 164.52 144.706 164.52ZM141.826 176.616V183.888C141.826 186.264 141.898 186.66 143.41 187.74V187.812H133.042V187.74C134.554 186.66 134.626 186.264 134.626 183.888V166.104C134.626 163.584 134.482 163.224 132.79 162.18V162.108H141.826V166.464C142.582 163.8 144.634 161.748 147.73 161.748C151.87 161.748 155.254 165.312 155.254 170.82C155.254 176.616 151.654 180.36 147.19 180.36C144.346 180.36 142.582 178.884 141.826 176.616ZM166.892 180.36C161.384 180.36 156.74 176.724 156.74 171.036C156.74 165.348 161.384 161.748 166.892 161.748C172.364 161.748 177.044 165.348 177.044 171.036C177.044 176.724 172.364 180.36 166.892 180.36ZM166.892 179.748C168.872 179.748 169.448 176.94 169.448 171.036C169.448 165.168 168.872 162.36 166.892 162.36C164.912 162.36 164.336 165.168 164.336 171.036C164.336 176.94 164.912 179.748 166.892 179.748ZM188.654 180.36C183.146 180.36 178.502 176.724 178.502 171.036C178.502 165.348 183.146 161.748 188.654 161.748C194.126 161.748 198.806 165.348 198.806 171.036C198.806 176.724 194.126 180.36 188.654 180.36ZM188.654 179.748C190.634 179.748 191.21 176.94 191.21 171.036C191.21 165.168 190.634 162.36 188.654 162.36C186.674 162.36 186.098 165.168 186.098 171.036C186.098 176.94 186.674 179.748 188.654 179.748ZM208.695 153.036V176.076C208.695 178.452 208.767 178.848 210.279 179.928V180H199.911V179.928C201.423 178.848 201.495 178.452 201.495 176.076V157.032C201.495 154.548 201.063 153.972 199.371 153.108V153.036H208.695ZM241.189 154.44L241.441 163.152H241.369C239.497 158.544 236.905 155.232 233.413 155.232C229.237 155.232 226.933 160.092 226.933 165.888C226.933 172.656 230.641 176.472 235.249 176.472C237.985 176.472 240.361 175.572 241.909 172.404L242.125 172.512C240.829 177.336 236.941 180.36 231.217 180.36C224.089 180.36 218.833 175.392 218.833 167.832C218.833 159.84 225.025 154.44 232.585 154.44C235.933 154.44 237.625 155.484 238.849 155.484C239.785 155.484 240.361 155.124 241.189 154.44ZM253.658 180.36C248.15 180.36 243.506 176.724 243.506 171.036C243.506 165.348 248.15 161.748 253.658 161.748C259.13 161.748 263.81 165.348 263.81 171.036C263.81 176.724 259.13 180.36 253.658 180.36ZM253.658 179.748C255.638 179.748 256.214 176.94 256.214 171.036C256.214 165.168 255.638 162.36 253.658 162.36C251.678 162.36 251.102 165.168 251.102 171.036C251.102 176.94 251.678 179.748 253.658 179.748ZM285.327 166.716C286.155 163.512 288.171 161.748 291.231 161.748C295.263 161.748 296.883 164.628 296.883 167.976V176.076C296.883 178.452 296.955 178.848 298.467 179.928V180H288.099V179.928C289.611 178.848 289.683 178.452 289.683 176.076V167.652C289.683 166.212 289.143 165.096 287.739 165.096C286.335 165.096 285.363 166.32 285.363 169.38V176.076C285.363 178.452 285.435 178.848 286.947 179.928V180H276.579V179.928C278.091 178.848 278.163 178.452 278.163 176.076V167.652C278.163 166.212 277.623 165.096 276.219 165.096C274.815 165.096 273.843 166.32 273.843 169.38V176.076C273.843 178.452 273.915 178.848 275.427 179.928V180H265.059V179.928C266.571 178.848 266.643 178.452 266.643 176.076V166.104C266.643 163.584 266.463 163.224 264.807 162.18V162.108H273.843V166.716C274.671 163.512 276.651 161.748 279.711 161.748C283.203 161.748 284.967 163.908 285.327 166.716ZM310.995 164.52C309.375 164.52 308.115 166.392 308.115 168.984V173.448C308.115 176.544 309.447 178.524 311.103 178.524C313.119 178.524 313.947 175.968 313.947 170.856C313.947 166.752 312.975 164.52 310.995 164.52ZM308.115 176.616V183.888C308.115 186.264 308.187 186.66 309.699 187.74V187.812H299.331V187.74C300.843 186.66 300.915 186.264 300.915 183.888V166.104C300.915 163.584 300.771 163.224 299.079 162.18V162.108H308.115V166.464C308.871 163.8 310.923 161.748 314.019 161.748C318.159 161.748 321.543 165.312 321.543 170.82C321.543 176.616 317.943 180.36 313.479 180.36C310.635 180.36 308.871 178.884 308.115 176.616ZM331.461 153.036V176.076C331.461 178.452 331.533 178.848 333.045 179.928V180H322.677V179.928C324.189 178.848 324.261 178.452 324.261 176.076V157.032C324.261 154.548 323.829 153.972 322.137 153.108V153.036H331.461ZM343.787 161.748C349.727 161.748 352.535 165.528 352.535 170.208H341.375C341.375 174.636 343.715 177.084 347.027 177.084C349.115 177.084 350.915 176.256 352.067 174.204L352.283 174.312C351.167 178.128 347.819 180.36 343.715 180.36C338.423 180.36 334.103 176.976 334.103 171.072C334.103 165.348 338.495 161.748 343.787 161.748ZM341.375 169.488H345.731C345.731 165.348 345.515 162.36 343.787 162.36C342.095 162.36 341.447 165.24 341.375 169.488ZM367.438 173.124L367.906 173.304C367.366 176.796 365.638 180.36 360.994 180.36C357.574 180.36 354.946 178.38 354.982 174.096L355.09 163.008H353.29V162.576C357.142 161.748 360.346 159.48 361.822 155.808H362.182V162.108H367.546L367.366 163.008H362.182V174.312C362.182 176.004 362.866 177.012 364.306 177.012C365.89 177.012 366.97 175.608 367.438 173.124ZM378.346 161.748C384.286 161.748 387.094 165.528 387.094 170.208H375.934C375.934 174.636 378.274 177.084 381.586 177.084C383.674 177.084 385.474 176.256 386.626 174.204L386.842 174.312C385.726 178.128 382.378 180.36 378.274 180.36C372.982 180.36 368.662 176.976 368.662 171.072C368.662 165.348 373.054 161.748 378.346 161.748ZM375.934 169.488H380.29C380.29 165.348 380.074 162.36 378.346 162.36C376.654 162.36 376.006 165.24 375.934 169.488Z" fill="black"/>
<path d="M231.819 114.869L298.811 115.892L296.871 102.368L292.122 100.518L231.819 114.869Z" fill="#FFEB76" stroke="#9A5400"/>
<path d="M303.051 100.543L302.746 105.088L306.331 107.916C307.078 108.506 306.823 109.696 305.897 109.929L301.465 111.043L299.875 115.314C299.542 116.204 298.331 116.333 297.822 115.526L295.39 111.671L290.824 111.484C289.873 111.447 289.376 110.332 289.986 109.604L292.911 106.107L291.68 101.72C291.421 100.805 292.331 99.9897 293.215 100.343L297.459 102.036L301.265 99.5115C302.058 98.9833 303.114 99.5946 303.051 100.543Z" fill="#FFE236" stroke="#9A5400"/>
<path d="M296.27 110.153L291.705 109.966L294.63 106.465L293.399 102.082L297.643 103.774L301.449 101.25L301.144 105.795L304.729 108.623L300.297 109.738L298.707 114.008L296.27 110.153Z" fill="#F7C434" stroke="#9A5400"/>
<path d="M280.684 108.004L268.44 109.913" stroke="#9A5400"/>
<path d="M292.915 106.1L284.214 107.455" stroke="#9A5400"/>
<path d="M266.805 110.158L256.59 111.551" stroke="#9A5400"/>
<path d="M290.824 111.48L275.835 112.095" stroke="#9A5400"/>
<path d="M228.769 111.118L350.652 34.8584L331.285 12.7598L320.561 14.9638L228.769 111.118Z" fill="#FFEB76" stroke="#9A5400"/>
<path d="M340.278 2.25916L345.064 10.8009L354.837 11.7157C356.878 11.907 357.813 14.3481 356.419 15.8452L349.746 23.0229L351.896 32.571C352.342 34.5629 350.306 36.2056 348.444 35.3489L339.535 31.2402L331.089 36.2263C329.324 37.266 327.129 35.8396 327.375 33.8144L328.544 24.1L321.174 17.6334C319.634 16.2819 320.319 13.7618 322.33 13.3667L331.961 11.4704L335.855 2.48788C336.668 0.612369 339.285 0.479294 340.286 2.26332L340.278 2.25916Z" fill="#FFE236" stroke="#9A5400"/>
<path d="M339.343 27.4819L330.897 32.468L332.061 22.7536L324.692 16.287L334.323 14.3907L338.221 5.4082L343.007 13.9499L352.78 14.8648L346.107 22.0425L348.257 31.5905L339.343 27.4819Z" fill="#F7C434" stroke="#9A5400"/>
<path d="M308.743 41.7812L288.93 59.4884" stroke="#9A5400"/>
<path d="M328.54 24.0918L314.456 36.6756" stroke="#9A5400"/>
<path d="M286.268 61.8398L269.497 76.2576" stroke="#9A5400"/>
<path d="M331.089 36.2227L304.808 54.8073" stroke="#9A5400"/>
<path d="M230.405 112.69L320.878 89.0736L313.192 71.6118L306.11 70.8965L230.405 112.69Z" fill="#FFEB76" stroke="#9A5400"/>
<path d="M320.82 66.8502L322.118 73.0756L327.998 75.5416C329.224 76.0573 329.329 77.7498 328.173 78.4068L322.631 81.559L322.097 87.8967C321.984 89.2191 320.399 89.8388 319.414 88.9488L314.694 84.6738L308.481 86.1252C307.183 86.4287 306.102 85.1188 306.649 83.9086L309.269 78.1116L305.964 72.6722C305.276 71.5369 306.19 70.1063 307.517 70.2519L313.86 70.9464L318.028 66.1349C318.9 65.1285 320.549 65.5569 320.82 66.8543V66.8502Z" fill="#FFE236" stroke="#9A5400"/>
<path d="M315.308 82.3044L309.094 83.7599L311.719 77.9587L308.414 72.5193L314.757 73.2138L318.926 68.4023L320.223 74.6277L326.107 77.0938L320.566 80.2459L320.032 86.5836L315.308 82.3044Z" fill="#F7C434" stroke="#9A5400"/>
<path d="M293.541 85.2305L277.797 92.3624" stroke="#9A5400"/>
<path d="M309.273 78.1074L298.082 83.1767" stroke="#9A5400"/>
<path d="M275.685 93.3027L262.47 98.9833" stroke="#9A5400"/>
<path d="M308.48 86.1211L288.555 92.5419" stroke="#9A5400"/>
<path d="M219.267 114.869L152.274 115.892L154.215 102.368L158.964 100.518L219.267 114.869Z" fill="#FFEB76" stroke="#9A5400"/>
<path d="M148.031 100.543L148.335 105.088L144.751 107.916C144.004 108.506 144.258 109.696 145.185 109.929L149.616 111.043L151.206 115.314C151.54 116.204 152.75 116.333 153.259 115.526L155.692 111.671L160.257 111.484C161.209 111.447 161.705 110.332 161.096 109.604L158.171 106.107L159.402 101.72C159.661 100.805 158.751 99.9897 157.866 100.343L153.622 102.036L149.817 99.5115C149.024 98.9833 147.968 99.5946 148.031 100.543Z" fill="#FFE236" stroke="#9A5400"/>
<path d="M154.811 110.153L159.381 109.966L156.451 106.465L157.686 102.082L153.443 103.774L149.637 101.25L149.941 105.795L146.357 108.623L150.789 109.738L152.378 114.008L154.811 110.153Z" fill="#F7C434" stroke="#9A5400"/>
<path d="M170.402 108.004L182.641 109.913" stroke="#9A5400"/>
<path d="M158.171 106.1L166.871 107.455" stroke="#9A5400"/>
<path d="M184.277 110.158L194.496 111.551" stroke="#9A5400"/>
<path d="M160.262 111.48L175.251 112.095" stroke="#9A5400"/>
<path d="M222.318 111.118L100.43 34.8584L119.797 12.7598L130.521 14.9638L222.318 111.118Z" fill="#FFEB76" stroke="#9A5400"/>
<path d="M110.804 2.25916L106.018 10.8009L96.2446 11.7157C94.2041 11.907 93.2693 14.3481 94.6631 15.8452L101.336 23.0229L99.1866 32.571C98.74 34.5629 100.776 36.2056 102.638 35.3489L111.547 31.2402L119.993 36.2263C121.758 37.266 123.953 35.8396 123.707 33.8144L122.538 24.1L129.908 17.6334C131.448 16.2819 130.763 13.7618 128.752 13.3667L119.121 11.4704L115.227 2.48788C114.414 0.612369 111.797 0.479294 110.796 2.26332L110.804 2.25916Z" fill="#FFE236" stroke="#9A5400"/>
<path d="M111.739 27.4819L120.189 32.468L119.02 22.7536L126.394 16.287L116.759 14.3907L112.865 5.4082L108.079 13.9499L98.3018 14.8648L104.978 22.0425L102.829 31.5905L111.739 27.4819Z" fill="#F7C434" stroke="#9A5400"/>
<path d="M142.343 41.7812L162.156 59.4884" stroke="#9A5400"/>
<path d="M122.547 24.0918L136.631 36.6756" stroke="#9A5400"/>
<path d="M164.814 61.8398L181.59 76.2576" stroke="#9A5400"/>
<path d="M119.997 36.2227L146.278 54.8073" stroke="#9A5400"/>
<path d="M220.682 112.69L130.208 89.0736L137.895 71.6118L144.972 70.8965L220.682 112.69Z" fill="#FFEB76" stroke="#9A5400"/>
<path d="M130.267 66.8502L128.969 73.0756L123.089 75.5416C121.862 76.0573 121.758 77.7498 122.914 78.4068L128.456 81.559L128.99 87.8967C129.102 89.2191 130.688 89.8388 131.673 88.9488L136.393 84.6738L142.606 86.1252C143.904 86.4287 144.985 85.1188 144.438 83.9086L141.817 78.1116L145.122 72.6722C145.811 71.5369 144.897 70.1063 143.57 70.2519L137.227 70.9464L133.058 66.1349C132.186 65.1285 130.538 65.5569 130.267 66.8543V66.8502Z" fill="#FFE236" stroke="#9A5400"/>
<path d="M135.775 82.3044L141.988 83.7599L139.368 77.9587L142.673 72.5193L136.33 73.2138L132.157 68.4023L130.859 74.6277L124.979 77.0938L130.521 80.2459L131.055 86.5836L135.775 82.3044Z" fill="#F7C434" stroke="#9A5400"/>
<path d="M157.545 85.2305L173.29 92.3624" stroke="#9A5400"/>
<path d="M141.813 78.1074L153.005 83.1767" stroke="#9A5400"/>
<path d="M175.397 93.3027L188.617 98.9833" stroke="#9A5400"/>
<path d="M142.602 86.1211L162.532 92.5419" stroke="#9A5400"/>
<circle cx="225.057" cy="87.1115" r="38.1115" fill="#EF4343" stroke="#E07138" stroke-width="2"/>
<g filter="url(#filter0_di_6460_23656)">
<circle cx="225.057" cy="87.1115" r="39.1115" fill="#FF2A29"/>
<circle cx="225.057" cy="87.1115" r="38.6115" stroke="#590E0D"/>
</g>
<g filter="url(#filter1_i_6460_23656)">
<circle cx="225" cy="87" r="35" fill="url(#paint0_linear_6460_23656)"/>
</g>
<circle cx="225" cy="87" r="34.5" stroke="#590E0D"/>
<g filter="url(#filter2_d_6460_23656)">
<path fill-rule="evenodd" clip-rule="evenodd" d="M222.467 97.2266L222.487 97.1868L222.492 97.1968L230.996 82.4269C231.757 81.1326 232.127 80.4805 232.294 79.7936C232.476 79.0518 232.476 78.2703 232.294 77.5286C232.127 76.8515 231.752 76.2044 231.007 74.925L230.991 74.8952L227.662 69.1854C226.972 67.9956 226.623 67.3982 226.182 67.1792C225.711 66.9403 225.143 66.9403 224.672 67.1792C224.231 67.3982 223.881 67.9956 223.192 69.1854L207 97.2217C206.316 98.3915 205.976 98.9789 206.001 99.4618C206.032 99.9845 206.31 100.457 206.756 100.741C207.172 101 207.851 101 209.23 101H215.788C217.333 101 218.104 101 218.793 100.811C219.548 100.592 220.237 100.199 220.81 99.6609C221.337 99.1681 221.717 98.516 222.467 97.2266ZM241.745 100.995C243.129 100.995 243.828 100.995 244.244 100.726C244.69 100.437 244.974 99.9596 244.999 99.4369C245.019 98.9739 244.69 98.4064 244.036 97.3013C244.02 97.2733 244.004 97.2421 243.985 97.2103C243.98 97.2025 243.975 97.1947 243.97 97.1868L239.262 89.2767L239.206 89.1871L239.153 89.0988C238.525 88.0618 238.201 87.5286 237.782 87.3204C237.311 87.0814 236.754 87.0814 236.282 87.3204C235.851 87.5394 235.502 88.1218 234.813 89.2867L230.125 97.1968L230.11 97.2217L230.093 97.2499C229.42 98.396 229.081 98.9728 229.106 99.4468C229.142 99.9695 229.415 100.452 229.861 100.736C230.267 100.995 230.961 100.995 232.35 100.995H241.745Z" fill="white"/>
<path fill-rule="evenodd" clip-rule="evenodd" d="M222.467 97.2266L222.487 97.1868L222.492 97.1968L230.996 82.4269C231.757 81.1326 232.127 80.4805 232.294 79.7936C232.476 79.0518 232.476 78.2703 232.294 77.5286C232.127 76.8515 231.752 76.2044 231.007 74.925L230.991 74.8952L227.662 69.1854C226.972 67.9956 226.623 67.3982 226.182 67.1792C225.711 66.9403 225.143 66.9403 224.672 67.1792C224.231 67.3982 223.881 67.9956 223.192 69.1854L207 97.2217C206.316 98.3915 205.976 98.9789 206.001 99.4618C206.032 99.9845 206.31 100.457 206.756 100.741C207.172 101 207.851 101 209.23 101H215.788C217.333 101 218.104 101 218.793 100.811C219.548 100.592 220.237 100.199 220.81 99.6609C221.337 99.1681 221.717 98.516 222.467 97.2266ZM241.745 100.995C243.129 100.995 243.828 100.995 244.244 100.726C244.69 100.437 244.974 99.9596 244.999 99.4369C245.019 98.9739 244.69 98.4064 244.036 97.3013C244.02 97.2733 244.004 97.2421 243.985 97.2103C243.98 97.2025 243.975 97.1947 243.97 97.1868L239.262 89.2767L239.206 89.1871L239.153 89.0988C238.525 88.0618 238.201 87.5286 237.782 87.3204C237.311 87.0814 236.754 87.0814 236.282 87.3204C235.851 87.5394 235.502 88.1218 234.813 89.2867L230.125 97.1968L230.11 97.2217L230.093 97.2499C229.42 98.396 229.081 98.9728 229.106 99.4468C229.142 99.9695 229.415 100.452 229.861 100.736C230.267 100.995 230.961 100.995 232.35 100.995H241.745Z" stroke="#7A070B"/>
</g>
<path d="M175 36.6786C178.469 36.6786 178.469 29.7402 178.469 29.7402C178.469 29.7402 178.469 36.6786 181.938 36.6786C178.469 36.6786 178.469 43.617 178.469 43.617C178.469 43.617 178.469 36.6786 175 36.6786Z" fill="#FEF2DF" stroke="black" stroke-linejoin="round"/>
<path d="M310.929 109.161C313.964 109.161 313.964 103.09 313.964 103.09C313.964 103.09 313.964 109.161 317 109.161C313.964 109.161 313.964 115.232 313.964 115.232C313.964 115.232 313.964 109.161 310.929 109.161Z" fill="#FEF2DF" stroke="black" stroke-linejoin="round"/>
<path d="M82 51.8113C85.0355 51.8113 85.0355 45.7402 85.0355 45.7402C85.0355 45.7402 85.0355 51.8113 88.0711 51.8113C85.0355 51.8113 85.0355 57.8824 85.0355 57.8824C85.0355 57.8824 85.0355 51.8113 82 51.8113Z" fill="#FEF2DF" stroke="black" stroke-linejoin="round"/>
<path d="M127 110.148C132.204 110.148 132.204 99.7402 132.204 99.7402C132.204 99.7402 132.204 110.148 137.408 110.148C132.204 110.148 132.204 120.555 132.204 120.555C132.204 120.555 132.204 110.148 127 110.148Z" fill="#FEF2DF" stroke="black" stroke-linejoin="round"/>
<path d="M362 51.6786C365.469 51.6786 365.469 44.7402 365.469 44.7402C365.469 44.7402 365.469 51.6786 368.938 51.6786C365.469 51.6786 365.469 58.617 365.469 58.617C365.469 58.617 365.469 51.6786 362 51.6786Z" fill="#FEF2DF" stroke="black" stroke-linejoin="round"/>
<path fill-rule="evenodd" clip-rule="evenodd" d="M106.576 63.3213C105.86 62.6849 105.795 61.5885 106.432 60.8725C108.224 58.8561 113.023 56.5817 119.346 59.8831C120.195 60.3264 120.524 61.3742 120.081 62.2234C119.638 63.0726 118.59 63.4016 117.741 62.9583C112.831 60.3951 109.762 62.3472 109.024 63.1771C108.388 63.8931 107.292 63.9577 106.576 63.3213Z" fill="#00C137" stroke="black" stroke-linecap="round" stroke-linejoin="round"/>
<path fill-rule="evenodd" clip-rule="evenodd" d="M339.591 102.531C339.631 101.574 340.439 100.831 341.396 100.87C344.092 100.982 348.89 103.259 350.334 110.245C350.528 111.183 349.925 112.101 348.987 112.295C348.049 112.489 347.131 111.886 346.937 110.948C345.815 105.524 342.362 104.382 341.252 104.336C340.295 104.297 339.552 103.488 339.591 102.531Z" fill="#FE6363" stroke="black" stroke-linecap="round" stroke-linejoin="round"/>
<path fill-rule="evenodd" clip-rule="evenodd" d="M109.792 120.326C108.834 120.33 108.055 119.556 108.052 118.598C108.043 115.9 110.102 111.005 117.016 109.249C117.945 109.013 118.889 109.574 119.125 110.503C119.36 111.431 118.799 112.375 117.871 112.611C112.503 113.975 111.517 117.476 111.521 118.586C111.524 119.544 110.75 120.323 109.792 120.326Z" fill="#FE6363" stroke="black" stroke-linecap="round" stroke-linejoin="round"/>
<path fill-rule="evenodd" clip-rule="evenodd" d="M334.029 66.8823C333.163 66.6269 332.669 65.7181 332.924 64.8523C333.643 62.4142 336.822 58.5497 343.538 58.8273C344.44 58.8646 345.141 59.6259 345.103 60.5278C345.066 61.4297 344.305 62.1306 343.403 62.0933C338.189 61.8777 336.355 64.7734 336.059 65.7769C335.804 66.6427 334.895 67.1376 334.029 66.8823Z" fill="#FFE563" stroke="black" stroke-linecap="round" stroke-linejoin="round"/>
<path fill-rule="evenodd" clip-rule="evenodd" d="M265.081 39.8664C264.215 40.1195 263.307 39.6222 263.054 38.7558C262.342 36.3158 262.928 31.3462 268.729 27.9504C269.508 27.4944 270.509 27.7562 270.965 28.5352C271.421 29.3142 271.159 30.3154 270.38 30.7714C265.876 33.4079 265.899 36.8351 266.192 37.8394C266.445 38.7058 265.948 39.6134 265.081 39.8664Z" fill="#FF845A" stroke="black" stroke-linecap="round" stroke-linejoin="round"/>
<rect x="5.98535" y="164.445" width="7.4645" height="7.4645" transform="rotate(45 5.98535 164.445)" stroke="black"/>
<path d="M11 169.738H44" stroke="black"/>
<rect x="446.015" y="175.002" width="7.4645" height="7.4645" transform="rotate(-135 446.015 175.002)" stroke="black"/>
<path d="M441 169.738L402 169.738" stroke="black"/>
<path d="M70.0079 130.281H80.1598C80.5782 130.281 80.9192 130.623 80.9192 131.041V135.34C80.9192 136.765 79.7642 137.921 78.3409 137.921H71.8269C70.4036 137.921 69.2485 136.765 69.2485 135.34V131.041C69.2485 130.623 69.5896 130.281 70.0079 130.281Z" fill="#CC7323" stroke="#201858" stroke-miterlimit="10" stroke-linecap="round"/>
<path d="M70.008 130.28L59.7197 114.557" stroke="#201858" stroke-miterlimit="10" stroke-linecap="round"/>
<path d="M72.377 130.046L70.0283 121.578" stroke="#201858" stroke-miterlimit="10" stroke-linecap="round"/>
<path d="M77.5591 130.047L79.9078 121.807" stroke="#201858" stroke-miterlimit="10" stroke-linecap="round"/>
<path d="M69.292 132.43H72.2296" stroke="#201858" stroke-miterlimit="10" stroke-linecap="round"/>
<path d="M69.626 133.945H70.9993" stroke="#201858" stroke-miterlimit="10" stroke-linecap="round"/>
<path d="M69.292 135.385H72.7684" stroke="#201858" stroke-miterlimit="10" stroke-linecap="round"/>
<path d="M60.6494 90.834H63.9621" stroke="#201858" stroke-miterlimit="10" stroke-linecap="round"/>
<path d="M64.2422 107.842H65.9724" stroke="#201858" stroke-miterlimit="10" stroke-linecap="round"/>
<path d="M66.4497 106.406H68.1777" stroke="#201858" stroke-miterlimit="10" stroke-linecap="round"/>
<path d="M75.083 84.0781C85.6214 84.0781 94.1635 92.6282 94.1635 103.176C94.1635 113.725 85.6214 122.277 75.083 122.277C80.0487 122.277 84.0753 113.727 84.0753 103.176C84.0753 92.626 80.0487 84.0781 75.083 84.0781Z" fill="#6257EC"/>
<path d="M75.0831 84.0781C80.0488 84.0781 84.0754 92.6282 84.0754 103.176C84.0754 113.725 80.0488 122.277 75.0831 122.277C70.1175 122.277 66.0908 113.727 66.0908 103.176C66.0908 92.626 70.1175 84.0781 75.0831 84.0781ZM79.2416 104.644C80.4194 103.534 81.1561 101.963 81.1561 100.225C81.1561 96.7724 78.264 93.9869 74.7807 94.1576H74.783C71.7249 94.3055 69.2035 96.8043 69.0216 99.8629C68.9124 101.704 69.6332 103.39 70.8496 104.574H70.8519L70.8723 104.599L71.2884 104.963L73.0459 106.504C73.2369 106.67 73.4779 106.761 73.7326 106.761H76.4337C76.6861 106.761 76.9293 106.67 77.1203 106.504L78.9392 104.908L79.228 104.653L79.2416 104.644ZM76.6656 109.555C76.6656 109.294 76.4587 109.078 76.1972 109.078L74.0031 109.05C73.7417 109.05 73.5279 109.257 73.5257 109.519L73.512 110.616C73.5029 111.485 74.1987 112.195 75.0672 112.204C75.9358 112.216 76.6451 111.519 76.6565 110.652L76.6679 109.555H76.6656Z" fill="#7E74FF"/>
<path d="M81.1556 100.225C81.1556 101.964 80.419 103.534 79.2412 104.645L79.2276 104.654L78.9388 104.908L77.1199 106.504C76.9289 106.67 76.6856 106.761 76.4332 106.761H73.7321C73.4775 106.761 73.2365 106.67 73.0455 106.504L71.288 104.963L70.8719 104.599L70.8514 104.574H70.8491C69.6327 103.391 68.912 101.704 69.0211 99.8631C69.203 96.8044 71.7245 94.3056 74.7826 94.16H74.7803C78.2635 93.987 81.1556 96.7726 81.1556 100.225ZM77.9248 100.225C77.9248 98.6592 76.6492 97.3825 75.085 97.3825C73.5207 97.3825 72.2452 98.6615 72.2452 100.225C72.2452 101.788 73.5207 103.065 75.085 103.065C76.6492 103.065 77.9248 101.791 77.9248 100.225Z" fill="white"/>
<path d="M75.0849 97.3848C76.6492 97.3848 77.9247 98.6615 77.9247 100.227C77.9247 101.793 76.6492 103.067 75.0849 103.067C73.5206 103.067 72.2451 101.791 72.2451 100.227C72.2451 98.6638 73.5206 97.3848 75.0849 97.3848Z" fill="#7E74FF"/>
<path d="M76.1968 109.076C76.4583 109.076 76.6675 109.292 76.6652 109.554L76.6538 110.651C76.6425 111.518 75.9331 112.214 75.0645 112.203C74.196 112.194 73.5003 111.484 73.5094 110.615L73.523 109.518C73.523 109.256 73.739 109.047 74.0005 109.049L76.1946 109.076H76.1968Z" fill="white"/>
<path d="M75.0828 84.0781C70.1171 84.0781 66.0905 92.6282 66.0905 103.176C66.0905 113.725 70.1171 122.277 75.0828 122.277C64.5444 122.277 56 113.727 56 103.176C56 92.626 64.5444 84.0781 75.0828 84.0781Z" fill="#9D95FF"/>
<path d="M75.0828 84.0781C85.6212 84.0781 94.1633 92.6282 94.1633 103.176C94.1633 113.725 85.6212 122.277 75.0828 122.277C64.5444 122.277 56 113.727 56 103.176C56 92.626 64.5444 84.0781 75.0828 84.0781Z" stroke="#201858" stroke-miterlimit="10" stroke-linecap="round"/>
<path d="M80.1489 130.28L90.4372 114.557" stroke="#201858" stroke-miterlimit="10" stroke-linecap="round"/>
<path d="M75.0831 84.0781C80.0488 84.0781 84.0754 92.6282 84.0754 103.176C84.0754 113.725 80.0488 122.277 75.0831 122.277C70.1175 122.277 66.0908 113.727 66.0908 103.176C66.0908 92.626 70.1175 84.0781 75.0831 84.0781Z" stroke="#201858" stroke-miterlimit="10" stroke-linecap="round"/>
<path d="M76.1946 109.076L74.0005 109.049C73.739 109.049 73.5253 109.256 73.523 109.518L73.5094 110.615C73.5003 111.484 74.196 112.194 75.0645 112.203C75.9331 112.214 76.6425 111.518 76.6538 110.651L76.6652 109.554C76.6652 109.292 76.4583 109.076 76.1968 109.076H76.1946Z" stroke="#201858" stroke-miterlimit="10" stroke-linecap="round"/>
<path d="M74.7826 94.1601C71.7245 94.3058 69.203 96.8046 69.0211 99.8632C68.912 101.704 69.6327 103.391 70.8491 104.574H70.8514L70.8719 104.599L71.2879 104.963L73.0455 106.504C73.2365 106.67 73.4775 106.761 73.7321 106.761H76.4332C76.6856 106.761 76.9289 106.67 77.1199 106.504L78.9388 104.909L79.2276 104.654L79.2412 104.645C80.419 103.534 81.1556 101.964 81.1556 100.225C81.1556 96.7727 78.2635 93.9872 74.7803 94.1578H74.7826V94.1601Z" stroke="#201858" stroke-miterlimit="10" stroke-linecap="round"/>
<path d="M75.0849 97.3848C76.6492 97.3848 77.9247 98.6615 77.9247 100.227C77.9247 101.793 76.6492 103.067 75.0849 103.067C73.5206 103.067 72.2451 101.791 72.2451 100.227C72.2451 98.6638 73.5206 97.3848 75.0849 97.3848Z" stroke="#201858" stroke-miterlimit="10" stroke-linecap="round"/>
<path d="M79.9072 90.8945H81.6352" stroke="#201858" stroke-miterlimit="10" stroke-linecap="round"/>
<path d="M82.499 91.8867H84.227" stroke="#201858" stroke-miterlimit="10" stroke-linecap="round"/>
<path d="M385.008 130.281H395.16C395.578 130.281 395.919 130.623 395.919 131.041V135.34C395.919 136.765 394.764 137.921 393.341 137.921H386.827C385.404 137.921 384.249 136.765 384.249 135.34V131.041C384.249 130.623 384.59 130.281 385.008 130.281Z" fill="#CC7323" stroke="#201858" stroke-miterlimit="10" stroke-linecap="round"/>
<path d="M385.008 130.28L374.72 114.557" stroke="#201858" stroke-miterlimit="10" stroke-linecap="round"/>
<path d="M387.377 130.046L385.028 121.578" stroke="#201858" stroke-miterlimit="10" stroke-linecap="round"/>
<path d="M392.559 130.047L394.908 121.807" stroke="#201858" stroke-miterlimit="10" stroke-linecap="round"/>
<path d="M384.292 132.43H387.23" stroke="#201858" stroke-miterlimit="10" stroke-linecap="round"/>
<path d="M384.626 133.945H385.999" stroke="#201858" stroke-miterlimit="10" stroke-linecap="round"/>
<path d="M384.292 135.385H387.768" stroke="#201858" stroke-miterlimit="10" stroke-linecap="round"/>
<path d="M375.649 90.834H378.962" stroke="#201858" stroke-miterlimit="10" stroke-linecap="round"/>
<path d="M379.242 107.842H380.972" stroke="#201858" stroke-miterlimit="10" stroke-linecap="round"/>
<path d="M381.45 106.406H383.178" stroke="#201858" stroke-miterlimit="10" stroke-linecap="round"/>
<path d="M390.083 84.0781C400.621 84.0781 409.164 92.6282 409.164 103.176C409.164 113.725 400.621 122.277 390.083 122.277C395.049 122.277 399.075 113.727 399.075 103.176C399.075 92.626 395.049 84.0781 390.083 84.0781Z" fill="#6257EC"/>
<path d="M390.083 84.0781C395.049 84.0781 399.075 92.6282 399.075 103.176C399.075 113.725 395.049 122.277 390.083 122.277C385.117 122.277 381.091 113.727 381.091 103.176C381.091 92.626 385.117 84.0781 390.083 84.0781ZM394.242 104.644C395.419 103.534 396.156 101.963 396.156 100.225C396.156 96.7724 393.264 93.9869 389.781 94.1576H389.783C386.725 94.3055 384.203 96.8043 384.022 99.8629C383.912 101.704 384.633 103.39 385.85 104.574H385.852L385.872 104.599L386.288 104.963L388.046 106.504C388.237 106.67 388.478 106.761 388.733 106.761H391.434C391.686 106.761 391.929 106.67 392.12 106.504L393.939 104.908L394.228 104.653L394.242 104.644ZM391.666 109.555C391.666 109.294 391.459 109.078 391.197 109.078L389.003 109.05C388.742 109.05 388.528 109.257 388.526 109.519L388.512 110.616C388.503 111.485 389.199 112.195 390.067 112.204C390.936 112.216 391.645 111.519 391.656 110.652L391.668 109.555H391.666Z" fill="#7E74FF"/>
<path d="M396.156 100.225C396.156 101.964 395.419 103.534 394.241 104.645L394.228 104.654L393.939 104.908L392.12 106.504C391.929 106.67 391.686 106.761 391.433 106.761H388.732C388.477 106.761 388.236 106.67 388.045 106.504L386.288 104.963L385.872 104.599L385.851 104.574H385.849C384.633 103.391 383.912 101.704 384.021 99.8631C384.203 96.8044 386.724 94.3056 389.783 94.16H389.78C393.264 93.987 396.156 96.7726 396.156 100.225ZM392.925 100.225C392.925 98.6592 391.649 97.3825 390.085 97.3825C388.521 97.3825 387.245 98.6615 387.245 100.225C387.245 101.788 388.521 103.065 390.085 103.065C391.649 103.065 392.925 101.791 392.925 100.225Z" fill="white"/>
<path d="M390.085 97.3848C391.649 97.3848 392.925 98.6615 392.925 100.227C392.925 101.793 391.649 103.067 390.085 103.067C388.521 103.067 387.245 101.791 387.245 100.227C387.245 98.6638 388.521 97.3848 390.085 97.3848Z" fill="#7E74FF"/>
<path d="M391.197 109.076C391.458 109.076 391.667 109.292 391.665 109.554L391.654 110.651C391.642 111.518 390.933 112.214 390.065 112.203C389.196 112.194 388.5 111.484 388.509 110.615L388.523 109.518C388.523 109.256 388.739 109.047 389 109.049L391.195 109.076H391.197Z" fill="white"/>
<path d="M390.083 84.0781C385.117 84.0781 381.09 92.6282 381.09 103.176C381.09 113.725 385.117 122.277 390.083 122.277C379.544 122.277 371 113.727 371 103.176C371 92.626 379.544 84.0781 390.083 84.0781Z" fill="#9D95FF"/>
<path d="M390.083 84.0781C400.621 84.0781 409.163 92.6282 409.163 103.176C409.163 113.725 400.621 122.277 390.083 122.277C379.544 122.277 371 113.727 371 103.176C371 92.626 379.544 84.0781 390.083 84.0781Z" stroke="#201858" stroke-miterlimit="10" stroke-linecap="round"/>
<path d="M395.149 130.28L405.437 114.557" stroke="#201858" stroke-miterlimit="10" stroke-linecap="round"/>
<path d="M390.083 84.0781C395.049 84.0781 399.075 92.6282 399.075 103.176C399.075 113.725 395.049 122.277 390.083 122.277C385.117 122.277 381.091 113.727 381.091 103.176C381.091 92.626 385.117 84.0781 390.083 84.0781Z" stroke="#201858" stroke-miterlimit="10" stroke-linecap="round"/>
<path d="M391.195 109.076L389 109.049C388.739 109.049 388.525 109.256 388.523 109.518L388.509 110.615C388.5 111.484 389.196 112.194 390.065 112.203C390.933 112.214 391.642 111.518 391.654 110.651L391.665 109.554C391.665 109.292 391.458 109.076 391.197 109.076H391.195Z" stroke="#201858" stroke-miterlimit="10" stroke-linecap="round"/>
<path d="M389.783 94.1601C386.724 94.3058 384.203 96.8046 384.021 99.8632C383.912 101.704 384.633 103.391 385.849 104.574H385.851L385.872 104.599L386.288 104.963L388.045 106.504C388.236 106.67 388.477 106.761 388.732 106.761H391.433C391.686 106.761 391.929 106.67 392.12 106.504L393.939 104.909L394.228 104.654L394.241 104.645C395.419 103.534 396.156 101.964 396.156 100.225C396.156 96.7727 393.264 93.9872 389.78 94.1578H389.783V94.1601Z" stroke="#201858" stroke-miterlimit="10" stroke-linecap="round"/>
<path d="M390.085 97.3848C391.649 97.3848 392.925 98.6615 392.925 100.227C392.925 101.793 391.649 103.067 390.085 103.067C388.521 103.067 387.245 101.791 387.245 100.227C387.245 98.6638 388.521 97.3848 390.085 97.3848Z" stroke="#201858" stroke-miterlimit="10" stroke-linecap="round"/>
<path d="M394.907 90.8945H396.635" stroke="#201858" stroke-miterlimit="10" stroke-linecap="round"/>
<path d="M397.499 91.8867H399.227" stroke="#201858" stroke-miterlimit="10" stroke-linecap="round"/>
<path d="M48.1031 205.301H82.723V256.018H48.1031L54.2856 230.778L54.3147 230.659L54.2856 230.54L48.1031 205.301Z" fill="#FF9D29" stroke="black"/>
<path d="M392.363 205.301H357.743V256.018H392.363L386.18 230.778L386.151 230.659L386.18 230.54L392.363 205.301Z" fill="#FF9D29" stroke="black"/>
<rect x="67.791" y="198.68" width="304.175" height="50.7169" fill="#F8CC3E" stroke="black"/>
<path d="M61.627 210.889H67.2915M61.627 213.931H67.2915M61.627 216.973H67.2915M61.627 220.015H67.2915M61.627 223.057H67.2915M61.627 226.1H67.2915M61.627 229.142H67.2915M61.627 232.184H67.2915M61.627 235.226H67.2915M61.627 238.268H67.2915M61.627 241.31H67.2915M61.627 244.353H67.2915" stroke="black"/>
<path d="M372.467 210.889H378.131M372.467 213.931H378.131M372.467 216.973H378.131M372.467 220.015H378.131M372.467 223.057H378.131M372.467 226.1H378.131M372.467 229.142H378.131M372.467 232.184H378.131M372.467 235.226H378.131M372.467 238.268H378.131M372.467 241.31H378.131M372.467 244.353H378.131" stroke="black"/>
<path d="M82.7224 249.721V255.743L69.5822 249.721H82.7224Z" fill="#D54E00" stroke="black"/>
<path d="M357.743 249.721V255.743L370.883 249.721H357.743Z" fill="#D54E00" stroke="black"/>
<path d="M120.044 216.595H123.148L119.228 223.235V227.795H116.476V223.251L112.556 216.595H115.66L117.852 220.803L120.044 216.595ZM127.186 222.195C127.186 222.856 127.314 223.443 127.57 223.955C127.837 224.456 128.205 224.851 128.674 225.139C129.154 225.427 129.714 225.571 130.354 225.571C130.983 225.571 131.533 225.427 132.002 225.139C132.482 224.851 132.85 224.456 133.106 223.955C133.373 223.443 133.506 222.856 133.506 222.195C133.506 221.534 133.378 220.952 133.122 220.451C132.866 219.939 132.503 219.539 132.034 219.251C131.565 218.963 131.005 218.819 130.354 218.819C129.714 218.819 129.154 218.963 128.674 219.251C128.205 219.539 127.837 219.939 127.57 220.451C127.314 220.952 127.186 221.534 127.186 222.195ZM124.322 222.195C124.322 221.331 124.471 220.542 124.77 219.827C125.079 219.112 125.506 218.494 126.05 217.971C126.594 217.448 127.234 217.048 127.97 216.771C128.706 216.483 129.501 216.339 130.354 216.339C131.218 216.339 132.013 216.483 132.738 216.771C133.474 217.048 134.114 217.448 134.658 217.971C135.202 218.494 135.623 219.112 135.922 219.827C136.221 220.542 136.37 221.331 136.37 222.195C136.37 223.059 136.221 223.854 135.922 224.579C135.634 225.304 135.218 225.934 134.674 226.467C134.141 227 133.506 227.416 132.77 227.715C132.034 228.003 131.229 228.147 130.354 228.147C129.469 228.147 128.658 228.003 127.922 227.715C127.186 227.416 126.546 227 126.002 226.467C125.469 225.934 125.053 225.304 124.754 224.579C124.466 223.854 124.322 223.059 124.322 222.195ZM139.463 216.595H142.167V223.923C142.167 224.488 142.316 224.947 142.615 225.299C142.913 225.651 143.361 225.827 143.959 225.827C144.567 225.827 145.02 225.651 145.319 225.299C145.617 224.947 145.767 224.488 145.767 223.923V216.595H148.471V224.115C148.471 224.819 148.353 225.432 148.119 225.955C147.895 226.478 147.575 226.91 147.159 227.251C146.753 227.582 146.273 227.832 145.719 228.003C145.175 228.174 144.588 228.259 143.959 228.259C143.329 228.259 142.743 228.174 142.199 228.003C141.655 227.832 141.175 227.582 140.759 227.251C140.353 226.91 140.033 226.478 139.799 225.955C139.575 225.432 139.463 224.819 139.463 224.115V216.595ZM152.681 216.595H155.193L153.545 220.675H151.817L152.681 216.595ZM163.626 223.283L166.362 216.595H169.53L163.626 228.499L157.738 216.595H160.89L163.626 223.283ZM173.936 227.795V225.571H179.584V227.795H173.936ZM173.936 218.819V216.595H179.584V218.819H173.936ZM173.936 222.995V220.819H179.264V222.995H173.936ZM172.144 216.595H174.736V227.795H172.144V216.595ZM195.013 223.747V221.667H200.677C200.731 222.563 200.64 223.4 200.405 224.179C200.171 224.958 199.808 225.646 199.317 226.243C198.827 226.84 198.213 227.31 197.477 227.651C196.741 227.982 195.899 228.147 194.949 228.147C194.053 228.147 193.232 228.008 192.485 227.731C191.739 227.443 191.093 227.038 190.549 226.515C190.005 225.982 189.579 225.352 189.269 224.627C188.971 223.891 188.821 223.08 188.821 222.195C188.821 221.31 188.976 220.51 189.285 219.795C189.595 219.07 190.032 218.451 190.597 217.939C191.163 217.427 191.824 217.032 192.581 216.755C193.339 216.478 194.16 216.339 195.045 216.339C195.835 216.339 196.544 216.451 197.173 216.675C197.803 216.899 198.357 217.214 198.837 217.619C199.328 218.014 199.749 218.472 200.101 218.995L197.701 220.243C197.445 219.795 197.099 219.427 196.661 219.139C196.235 218.84 195.696 218.691 195.045 218.691C194.427 218.691 193.856 218.83 193.333 219.107C192.821 219.384 192.411 219.784 192.101 220.307C191.803 220.819 191.653 221.448 191.653 222.195C191.653 222.931 191.797 223.571 192.085 224.115C192.384 224.648 192.784 225.064 193.285 225.363C193.797 225.651 194.384 225.795 195.045 225.795C195.451 225.795 195.819 225.747 196.149 225.651C196.48 225.544 196.763 225.4 196.997 225.219C197.232 225.027 197.429 224.808 197.589 224.563C197.76 224.307 197.893 224.035 197.989 223.747H195.013ZM206.157 222.195C206.157 222.856 206.285 223.443 206.541 223.955C206.807 224.456 207.175 224.851 207.645 225.139C208.125 225.427 208.685 225.571 209.325 225.571C209.954 225.571 210.503 225.427 210.973 225.139C211.453 224.851 211.821 224.456 212.077 223.955C212.343 223.443 212.477 222.856 212.477 222.195C212.477 221.534 212.349 220.952 212.093 220.451C211.837 219.939 211.474 219.539 211.005 219.251C210.535 218.963 209.975 218.819 209.325 218.819C208.685 218.819 208.125 218.963 207.645 219.251C207.175 219.539 206.807 219.939 206.541 220.451C206.285 220.952 206.157 221.534 206.157 222.195ZM203.293 222.195C203.293 221.331 203.442 220.542 203.741 219.827C204.05 219.112 204.477 218.494 205.021 217.971C205.565 217.448 206.205 217.048 206.941 216.771C207.677 216.483 208.471 216.339 209.325 216.339C210.189 216.339 210.983 216.483 211.709 216.771C212.445 217.048 213.085 217.448 213.629 217.971C214.173 218.494 214.594 219.112 214.893 219.827C215.191 220.542 215.341 221.331 215.341 222.195C215.341 223.059 215.191 223.854 214.893 224.579C214.605 225.304 214.189 225.934 213.645 226.467C213.111 227 212.477 227.416 211.741 227.715C211.005 228.003 210.199 228.147 209.325 228.147C208.439 228.147 207.629 228.003 206.893 227.715C206.157 227.416 205.517 227 204.973 226.467C204.439 225.934 204.023 225.304 203.725 224.579C203.437 223.854 203.293 223.059 203.293 222.195ZM216.909 219.011V216.595H225.773V219.011H222.685V227.795H219.981V219.011H216.909ZM237.475 222.723H240.275L243.779 227.795H240.611L237.475 222.723ZM234.675 216.595H237.379V227.795H234.675V216.595ZM236.371 218.883V216.595H238.755C239.715 216.595 240.515 216.75 241.155 217.059C241.795 217.368 242.28 217.8 242.611 218.355C242.941 218.899 243.107 219.534 243.107 220.259C243.107 220.974 242.941 221.608 242.611 222.163C242.28 222.707 241.795 223.134 241.155 223.443C240.515 223.752 239.715 223.907 238.755 223.907H236.371V221.811H238.563C238.925 221.811 239.235 221.758 239.491 221.651C239.757 221.534 239.96 221.368 240.099 221.155C240.237 220.931 240.307 220.664 240.307 220.355C240.307 220.046 240.237 219.784 240.099 219.571C239.96 219.347 239.757 219.176 239.491 219.059C239.235 218.942 238.925 218.883 238.563 218.883H236.371ZM248.266 227.795V225.571H253.914V227.795H248.266ZM248.266 218.819V216.595H253.914V218.819H248.266ZM248.266 222.995V220.819H253.594V222.995H248.266ZM246.474 216.595H249.066V227.795H246.474V216.595ZM267.955 222.979L270.131 216.595H273.347L268.499 228.451L264.883 221.699L261.283 228.451L256.435 216.595H259.635L261.843 222.979L264.883 216.035L267.955 222.979ZM276.208 225.635L276.4 223.571H281.952L282.128 225.635H276.208ZM279.136 220.707L277.568 224.323L277.696 224.915L276.304 227.795H273.248L279.136 215.891L285.04 227.795H281.968L280.624 225.027L280.72 224.339L279.136 220.707ZM290.453 222.723H293.253L296.757 227.795H293.589L290.453 222.723ZM287.653 216.595H290.357V227.795H287.653V216.595ZM289.349 218.883V216.595H291.733C292.693 216.595 293.493 216.75 294.133 217.059C294.773 217.368 295.259 217.8 295.589 218.355C295.92 218.899 296.085 219.534 296.085 220.259C296.085 220.974 295.92 221.608 295.589 222.163C295.259 222.707 294.773 223.134 294.133 223.443C293.493 223.752 292.693 223.907 291.733 223.907H289.349V221.811H291.541C291.904 221.811 292.213 221.758 292.469 221.651C292.736 221.534 292.939 221.368 293.077 221.155C293.216 220.931 293.285 220.664 293.285 220.355C293.285 220.046 293.216 219.784 293.077 219.571C292.939 219.347 292.736 219.176 292.469 219.059C292.213 218.942 291.904 218.883 291.541 218.883H289.349ZM299.453 216.595H302.237V227.795H299.453V216.595ZM303.453 227.795H301.245V225.395H303.357C303.783 225.395 304.194 225.342 304.589 225.235C304.994 225.128 305.346 224.952 305.645 224.707C305.954 224.462 306.199 224.136 306.381 223.731C306.562 223.315 306.653 222.803 306.653 222.195C306.653 221.587 306.562 221.08 306.381 220.675C306.199 220.259 305.954 219.928 305.645 219.683C305.346 219.438 304.994 219.262 304.589 219.155C304.194 219.048 303.783 218.995 303.357 218.995H301.245V216.595H303.453C304.679 216.595 305.741 216.824 306.637 217.283C307.533 217.742 308.226 218.387 308.717 219.219C309.207 220.051 309.453 221.043 309.453 222.195C309.453 223.336 309.207 224.328 308.717 225.171C308.226 226.003 307.533 226.648 306.637 227.107C305.741 227.566 304.679 227.795 303.453 227.795ZM313.859 223.859C314.083 224.264 314.334 224.616 314.611 224.915C314.899 225.214 315.208 225.443 315.539 225.603C315.88 225.763 316.238 225.843 316.611 225.843C317.006 225.843 317.331 225.747 317.587 225.555C317.843 225.352 317.971 225.08 317.971 224.739C317.971 224.451 317.896 224.222 317.747 224.051C317.598 223.87 317.358 223.699 317.027 223.539C316.696 223.379 316.259 223.198 315.715 222.995C315.448 222.899 315.139 222.766 314.787 222.595C314.446 222.424 314.12 222.206 313.811 221.939C313.502 221.662 313.246 221.331 313.043 220.947C312.84 220.552 312.739 220.078 312.739 219.523C312.739 218.862 312.91 218.291 313.251 217.811C313.603 217.331 314.072 216.968 314.659 216.723C315.256 216.467 315.918 216.339 316.643 216.339C317.39 216.339 318.035 216.462 318.579 216.707C319.134 216.952 319.592 217.262 319.955 217.635C320.318 218.008 320.595 218.387 320.787 218.771L318.723 219.923C318.563 219.656 318.376 219.427 318.163 219.235C317.96 219.032 317.731 218.878 317.475 218.771C317.23 218.654 316.963 218.595 316.675 218.595C316.291 218.595 315.998 218.68 315.795 218.851C315.592 219.011 315.491 219.214 315.491 219.459C315.491 219.715 315.587 219.939 315.779 220.131C315.982 220.323 316.264 220.499 316.627 220.659C317 220.819 317.448 220.99 317.971 221.171C318.366 221.32 318.734 221.496 319.075 221.699C319.416 221.891 319.715 222.126 319.971 222.403C320.238 222.68 320.446 223 320.595 223.363C320.744 223.726 320.819 224.142 320.819 224.611C320.819 225.176 320.702 225.683 320.467 226.131C320.243 226.568 319.934 226.936 319.539 227.235C319.155 227.534 318.712 227.758 318.211 227.907C317.72 228.067 317.214 228.147 316.691 228.147C315.966 228.147 315.288 228.019 314.659 227.763C314.04 227.496 313.502 227.139 313.043 226.691C312.584 226.243 312.227 225.752 311.971 225.219L313.859 223.859Z" fill="#7A3007"/>
<defs>
<filter id="filter0_di_6460_23656" x="185.946" y="48" width="78.2231" height="83.2227" filterUnits="userSpaceOnUse" color-interpolation-filters="sRGB">
<feFlood flood-opacity="0" result="BackgroundImageFix"/>
<feColorMatrix in="SourceAlpha" type="matrix" values="0 0 0 0 0 0 0 0 0 0 0 0 0 0 0 0 0 0 127 0" result="hardAlpha"/>
<feOffset dy="5"/>
<feComposite in2="hardAlpha" operator="out"/>
<feColorMatrix type="matrix" values="0 0 0 0 0.34902 0 0 0 0 0.054902 0 0 0 0 0.0509804 0 0 0 1 0"/>
<feBlend mode="normal" in2="BackgroundImageFix" result="effect1_dropShadow_6460_23656"/>
<feBlend mode="normal" in="SourceGraphic" in2="effect1_dropShadow_6460_23656" result="shape"/>
<feColorMatrix in="SourceAlpha" type="matrix" values="0 0 0 0 0 0 0 0 0 0 0 0 0 0 0 0 0 0 127 0" result="hardAlpha"/>
<feOffset dy="4"/>
<feComposite in2="hardAlpha" operator="arithmetic" k2="-1" k3="1"/>
<feColorMatrix type="matrix" values="0 0 0 0 1 0 0 0 0 0.566667 0 0 0 0 0.566667 0 0 0 1 0"/>
<feBlend mode="normal" in2="shape" result="effect2_innerShadow_6460_23656"/>
</filter>
<filter id="filter1_i_6460_23656" x="190" y="52" width="70" height="70" filterUnits="userSpaceOnUse" color-interpolation-filters="sRGB">
<feFlood flood-opacity="0" result="BackgroundImageFix"/>
<feBlend mode="normal" in="SourceGraphic" in2="BackgroundImageFix" result="shape"/>
<feColorMatrix in="SourceAlpha" type="matrix" values="0 0 0 0 0 0 0 0 0 0 0 0 0 0 0 0 0 0 127 0" result="hardAlpha"/>
<feOffset dy="4"/>
<feComposite in2="hardAlpha" operator="arithmetic" k2="-1" k3="1"/>
<feColorMatrix type="matrix" values="0 0 0 0 0.854167 0 0 0 0 0 0 0 0 0 0 0 0 0 1 0"/>
<feBlend mode="normal" in2="shape" result="effect1_innerShadow_6460_23656"/>
</filter>
<filter id="filter2_d_6460_23656" x="205.5" y="66.5" width="40" height="36" filterUnits="userSpaceOnUse" color-interpolation-filters="sRGB">
<feFlood flood-opacity="0" result="BackgroundImageFix"/>
<feColorMatrix in="SourceAlpha" type="matrix" values="0 0 0 0 0 0 0 0 0 0 0 0 0 0 0 0 0 0 127 0" result="hardAlpha"/>
<feOffset dy="1"/>
<feComposite in2="hardAlpha" operator="out"/>
<feColorMatrix type="matrix" values="0 0 0 0 1 0 0 0 0 1 0 0 0 0 1 0 0 0 0.8 0"/>
<feBlend mode="normal" in2="BackgroundImageFix" result="effect1_dropShadow_6460_23656"/>
<feBlend mode="normal" in="SourceGraphic" in2="effect1_dropShadow_6460_23656" result="shape"/>
</filter>
<linearGradient id="paint0_linear_6460_23656" x1="184" y1="47" x2="274.5" y2="103.5" gradientUnits="userSpaceOnUse">
<stop offset="0.442608" stop-color="#FF3D00"/>
<stop offset="0.442708" stop-color="#FF9A6F"/>
<stop offset="0.630208" stop-color="#FF784E"/>
<stop offset="0.630308" stop-color="#FF3D00"/>
</linearGradient>
</defs>
</svg>
