<svg width="347" height="253" viewBox="0 0 347 253" fill="none" xmlns="http://www.w3.org/2000/svg">
<circle cx="169" cy="89" r="64.5" fill="#E9F8FF" stroke="#CCE3FF"/>
<circle cx="169" cy="89" r="52.5" fill="#CBEEFF" stroke="#CCE3FF"/>
<path d="M68.2689 135.54C64.3089 135.54 61.3689 137.88 61.3689 141.66C61.3689 146.4 65.6289 148.02 70.5489 149.64C77.1489 151.74 84.8889 154.02 84.8889 164.16C84.8889 172.68 77.3289 177.6 68.3889 177.6C63.4689 177.6 60.0489 175.98 57.4689 175.98C55.7889 175.98 54.5289 176.58 53.1489 177.6L52.0089 163.56H52.1289C56.2089 171.24 62.3889 176.46 68.3289 176.46C73.1889 176.46 76.1289 174.06 76.1289 169.74C76.1289 163.98 70.1289 162.66 64.1289 160.56C58.2489 158.58 52.3089 155.88 52.3089 147.48C52.3089 139.5 58.6089 134.4 68.2689 134.4C72.7089 134.4 75.8289 136.02 78.3489 136.02C79.7889 136.02 80.9889 135.18 81.9489 134.4L82.1889 146.46H82.0689C78.1689 139.98 74.4489 135.54 68.2689 135.54ZM109.235 164.82V153.84C109.235 149.64 108.995 149.04 106.175 147.3V147.18H121.235V170.58C121.235 174.48 121.535 175.14 124.055 176.88V177H109.235V169.2C107.855 174.6 104.075 177.6 98.9753 177.6C92.3153 177.6 89.4353 172.74 89.4353 167.16V153.84C89.4353 149.64 89.1353 149.04 86.3753 147.3V147.18H101.435V167.64C101.435 169.98 102.635 171.96 104.975 171.96C107.495 171.96 109.235 169.92 109.235 164.82ZM143.531 147.6C139.631 147.6 138.071 152.88 138.071 159.66C138.071 167.88 141.491 172.14 147.131 172.14C150.251 172.14 153.191 170.76 155.051 167.34L155.471 167.52C153.671 173.88 148.091 177.6 141.371 177.6C132.851 177.6 125.651 171.96 125.651 162.66C125.651 152.52 133.331 146.58 143.351 146.58C149.831 146.58 154.871 149.22 154.871 154.44C154.871 158.22 151.931 160.08 148.931 160.08C145.511 160.08 143.591 158.28 143.351 156.42C143.711 156.6 144.191 156.66 144.491 156.66C146.771 156.66 147.611 154.62 147.611 152.22C147.611 149.34 146.171 147.6 143.531 147.6ZM174.938 147.6C171.038 147.6 169.478 152.88 169.478 159.66C169.478 167.88 172.898 172.14 178.538 172.14C181.658 172.14 184.598 170.76 186.458 167.34L186.878 167.52C185.078 173.88 179.498 177.6 172.778 177.6C164.258 177.6 157.058 171.96 157.058 162.66C157.058 152.52 164.738 146.58 174.758 146.58C181.238 146.58 186.278 149.22 186.278 154.44C186.278 158.22 183.338 160.08 180.338 160.08C176.918 160.08 174.998 158.28 174.758 156.42C175.118 156.6 175.598 156.66 175.898 156.66C178.178 156.66 179.018 154.62 179.018 152.22C179.018 149.34 177.578 147.6 174.938 147.6ZM204.604 146.58C214.504 146.58 219.184 152.88 219.184 160.68H200.584C200.584 168.06 204.484 172.14 210.004 172.14C213.484 172.14 216.484 170.76 218.404 167.34L218.764 167.52C216.904 173.88 211.324 177.6 204.484 177.6C195.664 177.6 188.464 171.96 188.464 162.12C188.464 152.58 195.784 146.58 204.604 146.58ZM200.584 159.48H207.844C207.844 152.58 207.484 147.6 204.604 147.6C201.784 147.6 200.704 152.4 200.584 159.48ZM233.096 147.6C230.636 147.6 228.956 148.8 228.956 150.9C228.956 153.6 230.996 154.26 236.396 156.06C244.076 158.58 247.436 161.34 247.436 167.4C247.436 173.58 242.516 177.6 234.956 177.6C230.816 177.6 227.996 176.4 225.716 176.4C224.156 176.4 223.436 177.06 222.596 177.66L221.936 166.8H222.056C225.596 173.28 229.736 176.58 234.956 176.58C237.776 176.58 239.756 175.32 239.756 172.68C239.756 169.74 237.236 169.08 232.916 167.64C225.416 165.24 221.996 162.18 221.996 156.18C221.996 150.48 226.796 146.58 233.096 146.58C236.876 146.58 239.276 147.96 241.436 147.96C242.876 147.96 243.776 147.42 244.916 146.52V156.18H244.796C242.036 150.96 237.236 147.6 233.096 147.6ZM261.69 147.6C259.23 147.6 257.55 148.8 257.55 150.9C257.55 153.6 259.59 154.26 264.99 156.06C272.67 158.58 276.03 161.34 276.03 167.4C276.03 173.58 271.11 177.6 263.55 177.6C259.41 177.6 256.59 176.4 254.31 176.4C252.75 176.4 252.03 177.06 251.19 177.66L250.53 166.8H250.65C254.19 173.28 258.33 176.58 263.55 176.58C266.37 176.58 268.35 175.32 268.35 172.68C268.35 169.74 265.83 169.08 261.51 167.64C254.01 165.24 250.59 162.18 250.59 156.18C250.59 150.48 255.39 146.58 261.69 146.58C265.47 146.58 267.87 147.96 270.03 147.96C271.47 147.96 272.37 147.42 273.51 146.52V156.18H273.39C270.63 150.96 265.83 147.6 261.69 147.6ZM279.364 135H294.484L287.044 161.76H286.804L279.364 135ZM293.344 170.94C293.344 174.54 290.584 177.42 286.924 177.42C283.264 177.42 280.504 174.54 280.504 170.94C280.504 167.4 283.264 164.46 286.924 164.46C290.584 164.46 293.344 167.4 293.344 170.94Z" fill="black"/>
<path d="M175.819 114.762L242.811 115.784L240.871 102.273L236.122 100.424L175.819 114.762Z" fill="#FFEB76" stroke="#9A5400"/>
<path d="M247.051 100.45L246.746 104.991L250.331 107.816C251.078 108.406 250.823 109.594 249.897 109.827L245.465 110.94L243.875 115.207C243.542 116.096 242.331 116.225 241.822 115.419L239.39 111.568L234.824 111.381C233.873 111.343 233.376 110.23 233.986 109.503L236.911 106.009L235.68 101.626C235.421 100.712 236.331 99.8973 237.215 100.25L241.459 101.941L245.265 99.4195C246.058 98.8918 247.114 99.5026 247.051 100.45Z" fill="#FFE236" stroke="#9A5400"/>
<path d="M240.27 110.051L235.705 109.864L238.63 106.366L237.399 101.987L241.643 103.678L245.449 101.156L245.144 105.697L248.729 108.523L244.297 109.636L242.707 113.903L240.27 110.051Z" fill="#F7C434" stroke="#9A5400"/>
<path d="M224.684 107.904L212.441 109.811" stroke="#9A5400"/>
<path d="M236.915 106L228.214 107.354" stroke="#9A5400"/>
<path d="M210.805 110.057L200.59 111.448" stroke="#9A5400"/>
<path d="M234.824 111.377L219.835 111.992" stroke="#9A5400"/>
<path d="M172.769 111.015L294.652 34.826L275.285 12.748L264.561 14.95L172.769 111.015Z" fill="#FFEB76" stroke="#9A5400"/>
<path d="M284.278 2.25799L289.064 10.7917L298.837 11.7057C300.878 11.8969 301.813 14.3357 300.419 15.8313L293.746 23.0023L295.896 32.5415C296.342 34.5316 294.306 36.1727 292.444 35.3168L283.535 31.212L275.089 36.1935C273.324 37.2321 271.129 35.8071 271.375 33.7837L272.544 24.0784L265.174 17.6179C263.634 16.2676 264.319 13.7498 266.33 13.3552L275.961 11.4606L279.855 2.48649C280.668 0.612731 283.285 0.479781 284.286 2.26214L284.278 2.25799Z" fill="#FFE236" stroke="#9A5400"/>
<path d="M283.343 27.4554L274.897 32.4369L276.061 22.7315L268.692 16.271L278.323 14.3765L282.221 5.40234L287.007 13.9361L296.78 14.8501L290.107 22.0211L292.257 31.5602L283.343 27.4554Z" fill="#F7C434" stroke="#9A5400"/>
<path d="M252.743 41.7441L232.93 59.4348" stroke="#9A5400"/>
<path d="M272.539 24.0703L258.456 36.6424" stroke="#9A5400"/>
<path d="M230.268 61.7812L213.497 76.1855" stroke="#9A5400"/>
<path d="M275.089 36.1895L248.808 54.7567" stroke="#9A5400"/>
<path d="M174.405 112.587L264.878 88.9922L257.192 71.5466L250.11 70.832L174.405 112.587Z" fill="#FFEB76" stroke="#9A5400"/>
<path d="M264.82 66.7885L266.118 73.008L271.997 75.4717C273.224 75.9869 273.328 77.6779 272.173 78.3343L266.631 81.4836L266.097 87.8153C265.984 89.1365 264.398 89.7556 263.414 88.8664L258.694 84.5954L252.48 86.0454C251.183 86.3487 250.102 85.04 250.648 83.831L253.269 78.0393L249.964 72.605C249.276 71.4708 250.189 70.0416 251.516 70.187L257.859 70.8808L262.028 66.0738C262.9 65.0684 264.549 65.4963 264.82 66.7926V66.7885Z" fill="#FFE236" stroke="#9A5400"/>
<path d="M259.308 82.229L253.094 83.6831L255.719 77.8873L252.414 72.453L258.757 73.1468L262.925 68.3398L264.223 74.5594L270.107 77.0231L264.565 80.1724L264.031 86.5041L259.308 82.229Z" fill="#F7C434" stroke="#9A5400"/>
<path d="M237.541 85.1504L221.797 92.2757" stroke="#9A5400"/>
<path d="M253.273 78.0352L242.081 83.0997" stroke="#9A5400"/>
<path d="M219.685 93.2168L206.469 98.8921" stroke="#9A5400"/>
<path d="M252.48 86.041L232.555 92.4559" stroke="#9A5400"/>
<path d="M163.267 114.762L96.2747 115.784L98.2151 102.273L102.964 100.424L163.267 114.762Z" fill="#FFEB76" stroke="#9A5400"/>
<path d="M92.0306 100.45L92.3353 104.991L88.7507 107.816C88.0037 108.406 88.2583 109.594 89.1847 109.827L93.6163 110.94L95.2062 115.207C95.5401 116.096 96.7502 116.225 97.2593 115.419L99.6921 111.568L104.257 111.381C105.209 111.343 105.705 110.23 105.096 109.503L102.171 106.009L103.402 101.626C103.661 100.712 102.751 99.8973 101.866 100.25L97.6224 101.941L93.8166 99.4195C93.0238 98.8918 91.968 99.5026 92.0306 100.45Z" fill="#FFE236" stroke="#9A5400"/>
<path d="M98.8116 110.051L103.381 109.864L100.452 106.366L101.687 101.987L97.4428 103.678L93.6371 101.156L93.9417 105.697L90.3572 108.523L94.7888 109.636L96.3787 113.903L98.8116 110.051Z" fill="#F7C434" stroke="#9A5400"/>
<path d="M114.402 107.904L126.641 109.811" stroke="#9A5400"/>
<path d="M102.171 106L110.871 107.354" stroke="#9A5400"/>
<path d="M128.277 110.057L138.496 111.448" stroke="#9A5400"/>
<path d="M104.261 111.377L119.251 111.992" stroke="#9A5400"/>
<path d="M166.318 111.015L44.4302 34.826L63.7968 12.748L74.5213 14.95L166.318 111.015Z" fill="#FFEB76" stroke="#9A5400"/>
<path d="M54.804 2.25799L50.0177 10.7917L40.2446 11.7057C38.2041 11.8969 37.2693 14.3357 38.6631 15.8313L45.3356 23.0023L43.1866 32.5415C42.74 34.5316 44.7764 36.1727 46.6376 35.3168L55.5468 31.212L63.9929 36.1935C65.758 37.2321 67.953 35.8071 67.7068 33.7837L66.5384 24.0784L73.9078 17.6179C75.4476 16.2676 74.7632 13.7498 72.7519 13.3552L63.1207 11.4606L59.2274 2.48649C58.4136 0.612731 55.7972 0.479781 54.7957 2.26214L54.804 2.25799Z" fill="#FFE236" stroke="#9A5400"/>
<path d="M55.7386 27.4554L64.1889 32.4369L63.0204 22.7315L70.394 16.271L60.7587 14.3765L56.8653 5.40234L52.079 13.9361L42.3018 14.8501L48.9785 22.0211L46.8294 31.5602L55.7386 27.4554Z" fill="#F7C434" stroke="#9A5400"/>
<path d="M86.3433 41.7441L106.156 59.4348" stroke="#9A5400"/>
<path d="M66.5469 24.0703L80.6306 36.6424" stroke="#9A5400"/>
<path d="M108.814 61.7812L125.59 76.1855" stroke="#9A5400"/>
<path d="M63.9971 36.1895L90.2783 54.7567" stroke="#9A5400"/>
<path d="M164.682 112.587L74.2083 88.9922L81.8948 71.5466L88.9721 70.832L164.682 112.587Z" fill="#FFEB76" stroke="#9A5400"/>
<path d="M74.2667 66.7885L72.9689 73.008L67.0892 75.4717C65.8624 75.9869 65.758 77.6779 66.914 78.3343L72.4556 81.4836L72.9898 87.8153C73.1024 89.1365 74.6881 89.7556 75.673 88.8664L80.3926 84.5954L86.6061 86.0454C87.9039 86.3487 88.9847 85.04 88.438 83.831L85.8174 78.0393L89.1224 72.605C89.8109 71.4708 88.897 70.0416 87.57 70.187L81.2272 70.8808L77.0584 66.0738C76.1862 65.0684 74.5379 65.4963 74.2667 66.7926V66.7885Z" fill="#FFE236" stroke="#9A5400"/>
<path d="M79.7749 82.229L85.9884 83.6831L83.3678 77.8873L86.6728 72.453L80.3299 73.1468L76.157 68.3398L74.8592 74.5594L68.9795 77.0231L74.5212 80.1724L75.0553 86.5041L79.7749 82.229Z" fill="#F7C434" stroke="#9A5400"/>
<path d="M101.545 85.1504L117.29 92.2757" stroke="#9A5400"/>
<path d="M85.8132 78.0352L97.0051 83.0997" stroke="#9A5400"/>
<path d="M119.397 93.2168L132.617 98.8921" stroke="#9A5400"/>
<path d="M86.6016 86.041L106.532 92.4559" stroke="#9A5400"/>
<circle cx="169.057" cy="87.1115" r="38.1115" fill="#EF4343" stroke="#E07138" stroke-width="2"/>
<g filter="url(#filter0_di_5135_21376)">
<circle cx="169.057" cy="87.1115" r="39.1115" fill="#FF2A29"/>
<circle cx="169.057" cy="87.1115" r="38.6115" stroke="#590E0D"/>
</g>
<g filter="url(#filter1_i_5135_21376)">
<circle cx="169" cy="87" r="35" fill="url(#paint0_linear_5135_21376)"/>
</g>
<circle cx="169" cy="87" r="34.5" stroke="#590E0D"/>
<g filter="url(#filter2_d_5135_21376)">
<path fill-rule="evenodd" clip-rule="evenodd" d="M166.467 97.2266L166.487 97.1868L166.492 97.1968L174.996 82.4269C175.757 81.1326 176.127 80.4805 176.294 79.7936C176.476 79.0518 176.476 78.2703 176.294 77.5286C176.127 76.8515 175.752 76.2044 175.007 74.925L174.991 74.8952L171.662 69.1854C170.972 67.9956 170.623 67.3982 170.182 67.1792C169.711 66.9403 169.143 66.9403 168.672 67.1792C168.231 67.3982 167.881 67.9956 167.192 69.1854L151 97.2217C150.316 98.3915 149.976 98.9789 150.001 99.4618C150.032 99.9845 150.31 100.457 150.756 100.741C151.172 101 151.851 101 153.23 101H159.788C161.333 101 162.104 101 162.793 100.811C163.548 100.592 164.237 100.199 164.81 99.6609C165.337 99.1681 165.717 98.516 166.467 97.2266ZM185.745 100.995C187.129 100.995 187.828 100.995 188.244 100.726C188.69 100.437 188.974 99.9596 188.999 99.4369C189.019 98.9739 188.69 98.4064 188.036 97.3013C188.02 97.2733 188.004 97.2421 187.985 97.2103C187.98 97.2025 187.975 97.1947 187.97 97.1868L183.262 89.2767L183.206 89.1871L183.153 89.0988C182.525 88.0618 182.201 87.5286 181.782 87.3204C181.311 87.0814 180.754 87.0814 180.282 87.3204C179.851 87.5394 179.502 88.1218 178.813 89.2867L174.125 97.1968L174.11 97.2217L174.093 97.2499C173.42 98.396 173.081 98.9728 173.106 99.4468C173.142 99.9695 173.415 100.452 173.861 100.736C174.267 100.995 174.961 100.995 176.35 100.995H185.745Z" fill="white"/>
<path fill-rule="evenodd" clip-rule="evenodd" d="M166.467 97.2266L166.487 97.1868L166.492 97.1968L174.996 82.4269C175.757 81.1326 176.127 80.4805 176.294 79.7936C176.476 79.0518 176.476 78.2703 176.294 77.5286C176.127 76.8515 175.752 76.2044 175.007 74.925L174.991 74.8952L171.662 69.1854C170.972 67.9956 170.623 67.3982 170.182 67.1792C169.711 66.9403 169.143 66.9403 168.672 67.1792C168.231 67.3982 167.881 67.9956 167.192 69.1854L151 97.2217C150.316 98.3915 149.976 98.9789 150.001 99.4618C150.032 99.9845 150.31 100.457 150.756 100.741C151.172 101 151.851 101 153.23 101H159.788C161.333 101 162.104 101 162.793 100.811C163.548 100.592 164.237 100.199 164.81 99.6609C165.337 99.1681 165.717 98.516 166.467 97.2266ZM185.745 100.995C187.129 100.995 187.828 100.995 188.244 100.726C188.69 100.437 188.974 99.9596 188.999 99.4369C189.019 98.9739 188.69 98.4064 188.036 97.3013C188.02 97.2733 188.004 97.2421 187.985 97.2103C187.98 97.2025 187.975 97.1947 187.97 97.1868L183.262 89.2767L183.206 89.1871L183.153 89.0988C182.525 88.0618 182.201 87.5286 181.782 87.3204C181.311 87.0814 180.754 87.0814 180.282 87.3204C179.851 87.5394 179.502 88.1218 178.813 89.2867L174.125 97.1968L174.11 97.2217L174.093 97.2499C173.42 98.396 173.081 98.9728 173.106 99.4468C173.142 99.9695 173.415 100.452 173.861 100.736C174.267 100.995 174.961 100.995 176.35 100.995H185.745Z" stroke="#7A070B"/>
</g>
<path d="M119 36.9403C122.469 36.9403 122.469 30.002 122.469 30.002C122.469 30.002 122.469 36.9403 125.938 36.9403C122.469 36.9403 122.469 43.8787 122.469 43.8787C122.469 43.8787 122.469 36.9403 119 36.9403Z" fill="#FEF2DF" stroke="black" stroke-linejoin="round"/>
<path d="M254.929 109.423C257.964 109.423 257.964 103.352 257.964 103.352C257.964 103.352 257.964 109.423 261 109.423C257.964 109.423 257.964 115.494 257.964 115.494C257.964 115.494 257.964 109.423 254.929 109.423Z" fill="#FEF2DF" stroke="black" stroke-linejoin="round"/>
<path d="M26 52.073C29.0355 52.073 29.0355 46.002 29.0355 46.002C29.0355 46.002 29.0355 52.073 32.0711 52.073C29.0355 52.073 29.0355 58.1441 29.0355 58.1441C29.0355 58.1441 29.0355 52.073 26 52.073Z" fill="#FEF2DF" stroke="black" stroke-linejoin="round"/>
<path d="M71 110.41C76.2038 110.41 76.2038 100.002 76.2038 100.002C76.2038 100.002 76.2038 110.41 81.4076 110.41C76.2038 110.41 76.2038 120.817 76.2038 120.817C76.2038 120.817 76.2038 110.41 71 110.41Z" fill="#FEF2DF" stroke="black" stroke-linejoin="round"/>
<path d="M306 51.9403C309.469 51.9403 309.469 45.002 309.469 45.002C309.469 45.002 309.469 51.9403 312.938 51.9403C309.469 51.9403 309.469 58.8787 309.469 58.8787C309.469 58.8787 309.469 51.9403 306 51.9403Z" fill="#FEF2DF" stroke="black" stroke-linejoin="round"/>
<path fill-rule="evenodd" clip-rule="evenodd" d="M50.5758 63.583C49.8598 62.9466 49.7952 61.8502 50.4316 61.1342C52.2238 59.1179 57.0227 56.8434 63.3463 60.1448C64.1955 60.5882 64.5245 61.636 64.0811 62.4851C63.6378 63.3343 62.59 63.6633 61.7408 63.22C56.8312 60.6568 53.7621 62.6089 53.0245 63.4388C52.3881 64.1548 51.2918 64.2194 50.5758 63.583Z" fill="#00C137" stroke="black" stroke-linecap="round" stroke-linejoin="round"/>
<path fill-rule="evenodd" clip-rule="evenodd" d="M283.591 102.793C283.631 101.836 284.439 101.092 285.396 101.132C288.092 101.244 292.89 103.521 294.334 110.507C294.528 111.445 293.925 112.363 292.987 112.557C292.049 112.751 291.131 112.147 290.937 111.209C289.815 105.786 286.362 104.644 285.252 104.598C284.295 104.558 283.552 103.75 283.591 102.793Z" fill="#FE6363" stroke="black" stroke-linecap="round" stroke-linejoin="round"/>
<path fill-rule="evenodd" clip-rule="evenodd" d="M53.7922 120.588C52.8343 120.591 52.0551 119.817 52.0519 118.859C52.0429 116.162 54.1024 111.267 61.0163 109.51C61.9448 109.274 62.8887 109.836 63.1245 110.764C63.3604 111.693 62.799 112.637 61.8705 112.872C56.5026 114.236 55.5172 117.737 55.5209 118.848C55.5241 119.806 54.7501 120.585 53.7922 120.588Z" fill="#FE6363" stroke="black" stroke-linecap="round" stroke-linejoin="round"/>
<path fill-rule="evenodd" clip-rule="evenodd" d="M278.029 67.144C277.163 66.8887 276.669 65.9798 276.924 65.114C277.643 62.6759 280.822 58.8114 287.538 59.089C288.44 59.1263 289.141 59.8877 289.103 60.7895C289.066 61.6914 288.305 62.3923 287.403 62.355C282.189 62.1395 280.355 65.0351 280.059 66.0386C279.804 66.9044 278.895 67.3993 278.029 67.144Z" fill="#FFE563" stroke="black" stroke-linecap="round" stroke-linejoin="round"/>
<path fill-rule="evenodd" clip-rule="evenodd" d="M209.081 40.1281C208.215 40.3812 207.307 39.8839 207.054 39.0175C206.342 36.5775 206.928 31.608 212.729 28.2122C213.508 27.7561 214.509 28.018 214.965 28.7969C215.421 29.5759 215.159 30.5771 214.38 31.0331C209.876 33.6696 209.899 37.0968 210.192 38.1011C210.445 38.9676 209.948 39.8751 209.081 40.1281Z" fill="#FF845A" stroke="black" stroke-linecap="round" stroke-linejoin="round"/>
<rect x="5.98535" y="153.707" width="7.4645" height="7.4645" transform="rotate(45 5.98535 153.707)" stroke="black"/>
<path d="M11 159H44" stroke="black"/>
<rect x="341.015" y="164.264" width="7.4645" height="7.4645" transform="rotate(-135 341.015 164.264)" stroke="black"/>
<path d="M336 159L297 159" stroke="black"/>
<path d="M1.10322 201.115H35.723V251.784H1.10322L7.28556 226.569L7.31475 226.45L7.28556 226.33L1.10322 201.115Z" fill="#FF9D29" stroke="black"/>
<path d="M345.363 201.115H310.743V251.784H345.363L339.18 226.569L339.151 226.45L339.18 226.33L345.363 201.115Z" fill="#FF9D29" stroke="black"/>
<rect x="20.7913" y="194.5" width="304.175" height="50.6686" fill="#F8CC3E" stroke="black"/>
<path d="M14.627 206.697H20.2915M14.627 209.737H20.2915M14.627 212.776H20.2915M14.627 215.815H20.2915M14.627 218.855H20.2915M14.627 221.894H20.2915M14.627 224.933H20.2915M14.627 227.973H20.2915M14.627 231.012H20.2915M14.627 234.051H20.2915M14.627 237.091H20.2915M14.627 240.13H20.2915" stroke="black"/>
<path d="M325.467 206.697H331.131M325.467 209.737H331.131M325.467 212.776H331.131M325.467 215.815H331.131M325.467 218.855H331.131M325.467 221.894H331.131M325.467 224.933H331.131M325.467 227.973H331.131M325.467 231.012H331.131M325.467 234.051H331.131M325.467 237.091H331.131M325.467 240.13H331.131" stroke="black"/>
<path d="M35.7227 245.492V251.508L22.5843 245.492H35.7227Z" fill="#D54E00" stroke="black"/>
<path d="M310.743 245.492V251.508L323.881 245.492H310.743Z" fill="#D54E00" stroke="black"/>
<path d="M68.578 221.897L68.77 219.833H74.322L74.498 221.897H68.578ZM71.506 216.969L69.938 220.585L70.066 221.177L68.674 224.057H65.618L71.506 212.153L77.41 224.057H74.338L72.994 221.289L73.09 220.601L71.506 216.969ZM83.1178 219.545L85.8538 212.857H89.0218L83.1178 224.761L77.2298 212.857H80.3818L83.1178 219.545ZM91.8017 221.897L91.9937 219.833H97.5457L97.7217 221.897H91.8017ZM94.7297 216.969L93.1617 220.585L93.2897 221.177L91.8977 224.057H88.8417L94.7297 212.153L100.634 224.057H97.5617L96.2177 221.289L96.3137 220.601L94.7297 216.969ZM109.391 212.857H112.735L109.215 218.313L112.975 224.057H109.631L107.583 220.329L105.471 224.057H102.127L105.967 218.313L102.527 212.857H105.871L107.599 216.105L109.391 212.857ZM123.125 220.121C123.349 220.526 123.6 220.878 123.877 221.177C124.165 221.475 124.474 221.705 124.805 221.865C125.146 222.025 125.504 222.105 125.877 222.105C126.272 222.105 126.597 222.009 126.853 221.817C127.109 221.614 127.237 221.342 127.237 221.001C127.237 220.713 127.162 220.483 127.013 220.313C126.864 220.131 126.624 219.961 126.293 219.801C125.962 219.641 125.525 219.459 124.981 219.257C124.714 219.161 124.405 219.027 124.053 218.857C123.712 218.686 123.386 218.467 123.077 218.201C122.768 217.923 122.512 217.593 122.309 217.209C122.106 216.814 122.005 216.339 122.005 215.785C122.005 215.123 122.176 214.553 122.517 214.073C122.869 213.593 123.338 213.23 123.925 212.985C124.522 212.729 125.184 212.601 125.909 212.601C126.656 212.601 127.301 212.723 127.845 212.969C128.4 213.214 128.858 213.523 129.221 213.897C129.584 214.27 129.861 214.649 130.053 215.033L127.989 216.185C127.829 215.918 127.642 215.689 127.429 215.497C127.226 215.294 126.997 215.139 126.741 215.033C126.496 214.915 126.229 214.857 125.941 214.857C125.557 214.857 125.264 214.942 125.061 215.113C124.858 215.273 124.757 215.475 124.757 215.721C124.757 215.977 124.853 216.201 125.045 216.393C125.248 216.585 125.53 216.761 125.893 216.921C126.266 217.081 126.714 217.251 127.237 217.433C127.632 217.582 128 217.758 128.341 217.961C128.682 218.153 128.981 218.387 129.237 218.665C129.504 218.942 129.712 219.262 129.861 219.625C130.01 219.987 130.085 220.403 130.085 220.873C130.085 221.438 129.968 221.945 129.733 222.393C129.509 222.83 129.2 223.198 128.805 223.497C128.421 223.795 127.978 224.019 127.477 224.169C126.986 224.329 126.48 224.409 125.957 224.409C125.232 224.409 124.554 224.281 123.925 224.025C123.306 223.758 122.768 223.401 122.309 222.953C121.85 222.505 121.493 222.014 121.237 221.481L123.125 220.121ZM135.125 224.057V221.833H140.773V224.057H135.125ZM135.125 215.081V212.857H140.773V215.081H135.125ZM135.125 219.257V217.081H140.453V219.257H135.125ZM133.333 212.857H135.925V224.057H133.333V212.857ZM152.142 212.857H154.75V224.617L147.006 217.753V224.057H144.414V212.297L152.142 219.161V212.857ZM157.437 215.273V212.857H166.301V215.273H163.213V224.057H160.509V215.273H157.437ZM174.082 215.273V212.857H182.946V215.273H179.858V224.057H177.154V215.273H174.082ZM187.038 218.457C187.038 219.118 187.166 219.705 187.422 220.217C187.689 220.718 188.057 221.113 188.526 221.401C189.006 221.689 189.566 221.833 190.206 221.833C190.836 221.833 191.385 221.689 191.854 221.401C192.334 221.113 192.702 220.718 192.958 220.217C193.225 219.705 193.358 219.118 193.358 218.457C193.358 217.795 193.23 217.214 192.974 216.713C192.718 216.201 192.356 215.801 191.886 215.513C191.417 215.225 190.857 215.081 190.206 215.081C189.566 215.081 189.006 215.225 188.526 215.513C188.057 215.801 187.689 216.201 187.422 216.713C187.166 217.214 187.038 217.795 187.038 218.457ZM184.174 218.457C184.174 217.593 184.324 216.803 184.622 216.089C184.932 215.374 185.358 214.755 185.902 214.233C186.446 213.71 187.086 213.31 187.822 213.033C188.558 212.745 189.353 212.601 190.206 212.601C191.07 212.601 191.865 212.745 192.59 213.033C193.326 213.31 193.966 213.71 194.51 214.233C195.054 214.755 195.476 215.374 195.774 216.089C196.073 216.803 196.222 217.593 196.222 218.457C196.222 219.321 196.073 220.115 195.774 220.841C195.486 221.566 195.07 222.195 194.526 222.729C193.993 223.262 193.358 223.678 192.622 223.977C191.886 224.265 191.081 224.409 190.206 224.409C189.321 224.409 188.51 224.265 187.774 223.977C187.038 223.678 186.398 223.262 185.854 222.729C185.321 222.195 184.905 221.566 184.606 220.841C184.318 220.115 184.174 219.321 184.174 218.457ZM216.032 219.241L218.208 212.857H221.424L216.576 224.713L212.96 217.961L209.36 224.713L204.512 212.857H207.712L209.92 219.241L212.96 212.297L216.032 219.241ZM224.285 221.897L224.477 219.833H230.029L230.205 221.897H224.285ZM227.213 216.969L225.645 220.585L225.773 221.177L224.381 224.057H221.325L227.213 212.153L233.117 224.057H230.045L228.701 221.289L228.797 220.601L227.213 216.969ZM235.73 212.857H238.434V221.737H242.93V224.057H235.73V212.857ZM245.624 212.857H248.328V221.737H252.824V224.057H245.624V212.857ZM257.309 224.057V221.833H262.957V224.057H257.309ZM257.309 215.081V212.857H262.957V215.081H257.309ZM257.309 219.257V217.081H262.637V219.257H257.309ZM255.517 212.857H258.109V224.057H255.517V212.857ZM265.477 215.273V212.857H274.341V215.273H271.253V224.057H268.549V215.273H265.477Z" fill="#7A3007"/>
<defs>
<filter id="filter0_di_5135_21376" x="129.946" y="48" width="78.2231" height="83.2227" filterUnits="userSpaceOnUse" color-interpolation-filters="sRGB">
<feFlood flood-opacity="0" result="BackgroundImageFix"/>
<feColorMatrix in="SourceAlpha" type="matrix" values="0 0 0 0 0 0 0 0 0 0 0 0 0 0 0 0 0 0 127 0" result="hardAlpha"/>
<feOffset dy="5"/>
<feComposite in2="hardAlpha" operator="out"/>
<feColorMatrix type="matrix" values="0 0 0 0 0.34902 0 0 0 0 0.054902 0 0 0 0 0.0509804 0 0 0 1 0"/>
<feBlend mode="normal" in2="BackgroundImageFix" result="effect1_dropShadow_5135_21376"/>
<feBlend mode="normal" in="SourceGraphic" in2="effect1_dropShadow_5135_21376" result="shape"/>
<feColorMatrix in="SourceAlpha" type="matrix" values="0 0 0 0 0 0 0 0 0 0 0 0 0 0 0 0 0 0 127 0" result="hardAlpha"/>
<feOffset dy="4"/>
<feComposite in2="hardAlpha" operator="arithmetic" k2="-1" k3="1"/>
<feColorMatrix type="matrix" values="0 0 0 0 1 0 0 0 0 0.566667 0 0 0 0 0.566667 0 0 0 1 0"/>
<feBlend mode="normal" in2="shape" result="effect2_innerShadow_5135_21376"/>
</filter>
<filter id="filter1_i_5135_21376" x="134" y="52" width="70" height="70" filterUnits="userSpaceOnUse" color-interpolation-filters="sRGB">
<feFlood flood-opacity="0" result="BackgroundImageFix"/>
<feBlend mode="normal" in="SourceGraphic" in2="BackgroundImageFix" result="shape"/>
<feColorMatrix in="SourceAlpha" type="matrix" values="0 0 0 0 0 0 0 0 0 0 0 0 0 0 0 0 0 0 127 0" result="hardAlpha"/>
<feOffset dy="4"/>
<feComposite in2="hardAlpha" operator="arithmetic" k2="-1" k3="1"/>
<feColorMatrix type="matrix" values="0 0 0 0 0.854167 0 0 0 0 0 0 0 0 0 0 0 0 0 1 0"/>
<feBlend mode="normal" in2="shape" result="effect1_innerShadow_5135_21376"/>
</filter>
<filter id="filter2_d_5135_21376" x="149.5" y="66.5" width="40" height="36" filterUnits="userSpaceOnUse" color-interpolation-filters="sRGB">
<feFlood flood-opacity="0" result="BackgroundImageFix"/>
<feColorMatrix in="SourceAlpha" type="matrix" values="0 0 0 0 0 0 0 0 0 0 0 0 0 0 0 0 0 0 127 0" result="hardAlpha"/>
<feOffset dy="1"/>
<feComposite in2="hardAlpha" operator="out"/>
<feColorMatrix type="matrix" values="0 0 0 0 1 0 0 0 0 1 0 0 0 0 1 0 0 0 0.8 0"/>
<feBlend mode="normal" in2="BackgroundImageFix" result="effect1_dropShadow_5135_21376"/>
<feBlend mode="normal" in="SourceGraphic" in2="effect1_dropShadow_5135_21376" result="shape"/>
</filter>
<linearGradient id="paint0_linear_5135_21376" x1="128" y1="47" x2="218.5" y2="103.5" gradientUnits="userSpaceOnUse">
<stop offset="0.442608" stop-color="#FF3D00"/>
<stop offset="0.442708" stop-color="#FF9A6F"/>
<stop offset="0.630208" stop-color="#FF784E"/>
<stop offset="0.630308" stop-color="#FF3D00"/>
</linearGradient>
</defs>
</svg>
