<svg width="212" height="215" viewBox="0 0 212 215" fill="none" xmlns="http://www.w3.org/2000/svg">
<circle cx="106" cy="138.5" r="59" fill="#E9F8FF" stroke="black"/>
<path d="M62.5 9C66.5 9 66.5 1 66.5 1C66.5 1 66.5 9 70.5 9C66.5 9 66.5 17 66.5 17C66.5 17 66.5 9 62.5 9Z" fill="#FEF2DF" stroke="black" stroke-linejoin="round"/>
<path d="M143.5 206C147.5 206 147.5 198 147.5 198C147.5 198 147.5 206 151.5 206C147.5 206 147.5 214 147.5 214C147.5 214 147.5 206 143.5 206Z" fill="#FEF2DF" stroke="black" stroke-linejoin="round"/>
<path d="M204.5 141C208 141 208 134 208 134C208 134 208 141 211.5 141C208 141 208 148 208 148C208 148 208 141 204.5 141Z" fill="#FEF2DF" stroke="black" stroke-linejoin="round"/>
<path d="M0.5 70C4 70 4 63 4 63C4 63 4 70 7.5 70C4 70 4 77 4 77C4 77 4 70 0.5 70Z" fill="#FEF2DF" stroke="black" stroke-linejoin="round"/>
<path d="M7.5 151C13.5 151 13.5 139 13.5 139C13.5 139 13.5 151 19.5 151C13.5 151 13.5 163 13.5 163C13.5 163 13.5 151 7.5 151Z" fill="#FEF2DF" stroke="black" stroke-linejoin="round"/>
<path d="M196.5 55C200.5 55 200.5 47 200.5 47C200.5 47 200.5 55 204.5 55C200.5 55 200.5 63 200.5 63C200.5 63 200.5 55 196.5 55Z" fill="#FEF2DF" stroke="black" stroke-linejoin="round"/>
<path fill-rule="evenodd" clip-rule="evenodd" d="M103 156C130.338 156 152.5 133.838 152.5 106.5C152.5 89.9631 144.391 75.3204 131.932 66.3311C148.031 74.5004 159.062 91.2118 159.062 110.5C159.062 137.838 136.9 160 109.562 160C98.7609 160 88.7675 156.54 80.6299 150.669C87.3486 154.078 94.9499 156 103 156Z" fill="#5BEC94"/>
<mask id="mask0_790_3189" style="mask-type:alpha" maskUnits="userSpaceOnUse" x="80" y="66" width="80" height="94">
<path fill-rule="evenodd" clip-rule="evenodd" d="M103 156C130.338 156 152.5 133.838 152.5 106.5C152.5 89.9631 144.391 75.3204 131.932 66.3311C148.031 74.5004 159.062 91.2118 159.062 110.5C159.062 137.838 136.9 160 109.562 160C98.7609 160 88.7675 156.54 80.6299 150.669C87.3486 154.078 94.9499 156 103 156Z" fill="#EFAC83"/>
</mask>
<g mask="url(#mask0_790_3189)">
<path d="M166.5 116.529L147.214 113L111.5 135.353L147.214 145L166.5 116.529Z" fill="#2DE676"/>
<path d="M164.5 121.529L145.214 118L109.5 140.353L145.214 150L164.5 121.529Z" fill="#18C95E"/>
</g>
<circle cx="109.562" cy="110.5" r="49" stroke="black"/>
<circle cx="103" cy="106.5" r="49.5" fill="#88F1B2"/>
<circle cx="103" cy="106.5" r="49" stroke="black"/>
<circle cx="103" cy="106.5" r="47" stroke="black"/>
<circle cx="103" cy="106.5" r="48" stroke="#E4FCED"/>
<path d="M105.5 156V196" stroke="black" stroke-width="2" stroke-dasharray="4 4"/>
<path d="M120.741 97.0855L120.739 97.0886L101.624 123.419C101.624 123.42 101.624 123.42 101.623 123.421C100.784 124.558 99.5295 125.294 98.1516 125.463C96.7731 125.632 95.3852 125.22 94.3078 124.319L79.88 112.252C77.6901 110.42 77.3648 107.114 79.1601 104.872C80.9502 102.636 84.1674 102.31 86.3508 104.136L96.2567 112.421L96.6643 112.762L96.9798 112.334L113.386 90.0953C114.047 89.2001 114.721 88.5714 115.444 88.2169C116.154 87.8685 116.946 87.7675 117.887 87.9867C119.147 88.2804 120.121 88.855 120.742 89.3174C121.574 91.1326 121.987 92.4862 122 93.6614C122.013 94.8346 121.628 95.8836 120.741 97.0855Z" fill="#EEEEE7" stroke="black"/>
<path d="M93.853 110.237L94.2567 110.569L94.5704 110.151L111.487 87.6149C113.246 85.2713 116.562 84.8049 118.894 86.571C121.227 88.3382 121.693 91.6723 119.933 94.0172L99.3894 121.385C98.5225 122.54 97.2249 123.29 95.7965 123.462C94.3681 123.634 92.9311 123.214 91.8171 122.299L76.9408 110.07C74.6791 108.211 74.3454 104.861 76.1969 102.589C78.0473 100.317 81.3789 99.9834 83.6392 101.841L93.853 110.237Z" fill="white" stroke="black"/>
<path fill-rule="evenodd" clip-rule="evenodd" d="M28.1819 90.3714C28.2278 89.2678 29.1596 88.4104 30.2632 88.4562C33.3709 88.5854 38.9027 91.2108 40.5683 99.2654C40.792 100.347 40.0965 101.405 39.0149 101.629C37.9332 101.853 36.8751 101.157 36.6514 100.075C35.3582 93.8219 31.3762 92.5057 30.0971 92.4526C28.9935 92.4067 28.1361 91.475 28.1819 90.3714Z" fill="#FE6363" stroke="black" stroke-linecap="round" stroke-linejoin="round"/>
<path fill-rule="evenodd" clip-rule="evenodd" d="M173.358 93.1341C172.359 93.4259 171.313 92.8525 171.021 91.8535C170.199 89.0402 170.876 83.3103 177.564 79.3949C178.462 78.8691 179.616 79.171 180.142 80.0692C180.668 80.9673 180.366 82.1217 179.468 82.6475C174.275 85.6873 174.301 89.6389 174.639 90.7969C174.931 91.7959 174.357 92.8423 173.358 93.1341Z" fill="#FFE563" stroke="black" stroke-linecap="round" stroke-linejoin="round"/>
<path fill-rule="evenodd" clip-rule="evenodd" d="M105.358 43.1341C104.359 43.4259 103.313 42.8525 103.021 41.8535C102.199 39.0402 102.876 33.3103 109.564 29.3949C110.462 28.8691 111.616 29.171 112.142 30.0692C112.668 30.9673 112.366 32.1217 111.468 32.6475C106.275 35.6873 106.301 39.6389 106.639 40.7969C106.931 41.7959 106.357 42.8423 105.358 43.1341Z" fill="#FF845A" stroke="black" stroke-linecap="round" stroke-linejoin="round"/>
</svg>
