<svg width="180" height="100" viewBox="0 0 180 100" fill="none" xmlns="http://www.w3.org/2000/svg">
<circle cx="90.5" cy="50" r="43.5" fill="#E9F8FF" stroke="black"/>
<path d="M107.337 38.2956L104.64 35.2761C93.2325 22.4437 98.3153 11.0002 92.8872 6.46186C92.8371 6.41722 89.3623 3.12512 89.3123 3.08048C88.2924 2.16998 86.8936 1.51598 84.8971 1.16628C78.9358 0.122083 74.5511 4.16131 73.7544 8.64964C73.2431 11.5305 74.0483 20.1022 77.1471 28.0855L48.9854 23.1526C43.8888 22.2599 39.0372 25.6218 38.1417 30.6668C37.5933 33.7565 38.6722 36.7437 40.7568 38.8022C40.8057 38.8538 40.8557 38.8984 40.9058 38.943C40.9546 38.9946 41.0059 39.0323 41.0547 39.0839C41.1036 39.1355 41.1549 39.1732 41.2037 39.2248C41.2525 39.2764 41.3026 39.3211 41.3527 39.3657C41.4015 39.4173 41.4528 39.455 41.5016 39.5066C41.5504 39.5582 41.6005 39.6029 41.6506 39.6475C41.6994 39.6991 41.7507 39.7368 41.7995 39.7884C41.8483 39.84 41.8984 39.8846 41.9485 39.9293C41.9973 39.9809 42.0486 40.0186 42.0974 40.0702C42.1463 40.1218 42.1963 40.1664 42.2464 40.2111C42.2952 40.2627 42.3465 40.3004 42.3953 40.352C42.4442 40.4036 42.4955 40.4412 42.5443 40.4928C42.5931 40.5444 42.6432 40.5891 42.6932 40.6337C42.7421 40.6853 42.7934 40.723 42.8422 40.7746C42.891 40.8262 42.9411 40.8709 42.9911 40.9155C43.04 40.9671 43.0913 41.0048 43.1401 41.0564C43.1889 41.108 43.239 41.1527 43.2891 41.1973C43.3379 41.2489 43.3892 41.2866 43.438 41.3382C43.4868 41.3898 43.5381 41.4275 43.587 41.4791C43.6358 41.5307 43.6859 41.5753 43.7359 41.62C43.7847 41.6716 43.836 41.7093 43.8849 41.7609C43.9337 41.8125 43.9838 41.8571 44.0338 41.9018C44.0827 41.9534 44.134 41.991 44.1828 42.0426L44.2014 42.0603C42.8921 43.352 41.9362 45.0214 41.5903 46.9698C41.0357 50.0942 42.1507 53.1237 44.2845 55.1907C44.3333 55.2423 44.3834 55.287 44.4334 55.3316C44.4823 55.3832 44.5323 55.4279 44.5824 55.4725C44.6312 55.5241 44.6813 55.5687 44.7313 55.6134C44.7802 55.665 44.8302 55.7096 44.8803 55.7543C44.9291 55.8059 44.9792 55.8505 45.0292 55.8952C45.0781 55.9468 45.1281 55.9914 45.1782 56.0361C45.227 56.0877 45.2771 56.1323 45.3271 56.177C45.376 56.2286 45.426 56.2732 45.4761 56.3178C45.5249 56.3694 45.575 56.4141 45.6251 56.4587C45.6739 56.5103 45.7239 56.555 45.774 56.5996C45.8228 56.6512 45.8729 56.6959 45.923 56.7405C45.9718 56.7921 46.0219 56.8368 46.0719 56.8814C46.1207 56.933 46.1708 56.9777 46.2209 57.0223C46.2697 57.0739 46.3198 57.1185 46.3698 57.1632C46.4187 57.2148 46.4687 57.2594 46.5188 57.3041C46.5676 57.3557 46.6177 57.4003 46.6677 57.445C46.7166 57.4966 46.7666 57.5412 46.8167 57.5859C46.8655 57.6375 46.9156 57.6821 46.9656 57.7268C46.9971 57.7538 47.0285 57.7808 47.0517 57.8136C46.1934 58.9332 45.575 60.2527 45.3119 61.7349C44.7573 64.8593 45.8643 67.8515 47.9783 69.9079C48.0271 69.9595 48.0772 70.0042 48.1273 70.0488C48.1761 70.1004 48.2261 70.1451 48.2762 70.1897C48.325 70.2413 48.3751 70.2859 48.4252 70.3306C48.474 70.3822 48.5241 70.4268 48.5741 70.4715C48.6229 70.5231 48.673 70.5677 48.7231 70.6124C48.7719 70.664 48.822 70.7086 48.872 70.7533C48.9209 70.8049 48.9709 70.8495 49.021 70.8942C49.0698 70.9458 49.1199 70.9904 49.1699 71.035C49.2188 71.0866 49.2688 71.1313 49.3189 71.1759C49.3677 71.2275 49.4178 71.2722 49.4678 71.3168C49.5167 71.3684 49.5667 71.4131 49.6168 71.4577C49.6656 71.5093 49.7157 71.554 49.7657 71.5986C49.8146 71.6502 49.8646 71.6949 49.9147 71.7395C49.9507 71.7817 49.995 71.8181 50.0392 71.8546C49.8387 72.3719 49.672 72.9024 49.572 73.466C49.0051 76.6601 50.1663 79.755 52.3799 81.8217C52.43 81.8663 55.9048 85.1584 55.9548 85.2031C57.2648 86.4801 58.9583 87.3938 60.8985 87.7336L72.1814 89.71C78.8317 90.8748 85.6912 89.8808 91.7098 86.8453L99.1403 83.1243C101.773 81.8061 103.618 79.3381 104.128 76.4642L109.511 46.0164C109.963 43.3475 109.279 40.5013 107.337 38.2956Z" fill="#F4F4F8"/>
<path d="M140.012 46.9513C139.963 46.9069 136.522 43.6379 136.472 43.5936C135.603 42.7428 134.478 42.125 133.175 41.8969L123.648 40.228C118.814 39.3814 114.202 42.5871 113.35 47.3854L106.333 86.9195C105.944 89.1113 106.694 91.1175 108.151 92.3779C108.2 92.4222 111.641 95.6912 111.691 95.7355C112.579 96.5611 113.747 97.1008 115.101 97.1955L124.629 98.8644C129.463 99.711 134.075 96.5053 134.926 91.707L141.914 52.3388C142.271 50.3268 141.489 48.3007 140.014 46.9443L140.012 46.9513Z" fill="#6B61D6"/>
<path d="M111.503 93.5409L121.125 95.2263C126.006 96.0812 130.655 92.8944 131.504 88.111L138.47 48.8651C139.031 45.7014 136.753 42.5235 133.355 41.9285L123.734 40.2431C118.853 39.3882 114.204 42.575 113.355 47.3584L106.36 86.7698C105.741 90.2574 108.039 93.2824 111.503 93.5409Z" fill="#8E84EA"/>
<path d="M120.865 85.1262C120.482 87.287 118.407 88.7299 116.232 88.3489C114.057 87.9679 112.604 85.9072 112.988 83.7464C113.372 81.5855 115.446 80.1426 117.621 80.5236C119.796 80.9047 121.249 82.9653 120.865 85.1262Z" fill="#DBD7FB"/>
<path d="M45.1784 41.1728C43.3792 42.5339 42.0535 44.508 41.6317 46.884C40.8425 51.3304 43.4464 55.6046 47.5989 57.1415C46.4993 58.3744 45.6921 59.8878 45.3838 61.6246C44.6624 65.6889 46.7654 69.5459 50.2675 71.3842C50.0046 72.0044 49.7944 72.6553 49.6724 73.3431C48.7783 78.38 52.198 83.1839 57.3157 84.0804L68.6452 86.0648C75.3229 87.2345 82.2085 86.2486 88.2479 83.2233L95.7041 79.5149C98.3464 78.2012 100.196 75.7385 100.705 72.8692L106.079 42.4704C106.53 39.8058 105.841 36.963 103.889 34.7585L101.178 31.7407C87.5853 16.5515 97.2539 3.33073 85.0703 1.19663C79.0844 0.148121 74.6864 4.17728 73.891 8.65839C73.3805 11.5346 74.1974 20.0948 77.3162 28.0696L49.0384 23.1164C43.9207 22.22 39.0462 25.5711 38.1522 30.608C37.2581 35.645 40.4197 40.0169 45.1771 41.1797L45.1784 41.1728Z" fill="white"/>
<path d="M107.337 38.2956L107.712 37.9651L107.709 37.9625L107.337 38.2956ZM104.64 35.2761L104.266 35.6083L104.267 35.6091L104.64 35.2761ZM92.8872 6.46186L92.5544 6.83504C92.5584 6.83857 92.5624 6.84205 92.5665 6.84546L92.8872 6.46186ZM89.3123 3.08048L88.9793 3.45347L88.9795 3.45365L89.3123 3.08048ZM84.8971 1.16628L84.9833 0.673776L84.8971 1.16628ZM73.7544 8.64964L74.2467 8.73702L73.7544 8.64964ZM77.1471 28.0855L77.0608 28.578C77.2385 28.6091 77.4192 28.5421 77.5337 28.4026C77.6481 28.2631 77.6785 28.0727 77.6132 27.9045L77.1471 28.0855ZM48.9854 23.1526L48.8992 23.6451L48.9854 23.1526ZM38.1417 30.6668L37.6494 30.5794L38.1417 30.6668ZM40.7568 38.8022L41.12 38.4585C41.1161 38.4544 41.1122 38.4503 41.1082 38.4464L40.7568 38.8022ZM40.9058 38.943L41.269 38.5994C41.2593 38.5891 41.2491 38.5793 41.2386 38.5699L40.9058 38.943ZM41.3527 39.3657L41.7158 39.0221C41.7061 39.0118 41.696 39.0019 41.6854 38.9925L41.3527 39.3657ZM41.6506 39.6475L42.0137 39.3038C42.004 39.2936 41.9939 39.2837 41.9833 39.2743L41.6506 39.6475ZM41.9485 39.9293L42.3117 39.5856C42.3019 39.5754 42.2918 39.5655 42.2813 39.5561L41.9485 39.9293ZM42.2464 40.2111L42.6096 39.8674C42.5998 39.8571 42.5897 39.8473 42.5792 39.8379L42.2464 40.2111ZM42.6932 40.6337L43.0564 40.2901C43.0467 40.2798 43.0366 40.27 43.026 40.2606L42.6932 40.6337ZM42.9911 40.9155L43.3543 40.5719C43.3446 40.5616 43.3345 40.5518 43.3239 40.5423L42.9911 40.9155ZM43.2891 41.1973L43.6522 40.8536C43.6425 40.8434 43.6324 40.8335 43.6218 40.8241L43.2891 41.1973ZM43.7359 41.62L44.0991 41.2763C44.0894 41.2661 44.0792 41.2562 44.0687 41.2468L43.7359 41.62ZM44.0338 41.9018L44.397 41.5581C44.3873 41.5478 44.3772 41.538 44.3666 41.5286L44.0338 41.9018ZM44.1828 42.0426L43.8196 42.3863C43.826 42.393 43.8325 42.3996 43.8392 42.4059L44.1828 42.0426ZM44.2014 42.0603L44.5526 42.4162C44.6491 42.3209 44.7028 42.1906 44.7014 42.055C44.6999 41.9193 44.6435 41.7901 44.5449 41.697L44.2014 42.0603ZM41.5903 46.9698L42.0826 47.0572L41.5903 46.9698ZM44.2845 55.1907L44.6477 54.8471C44.6427 54.8418 44.6376 54.8366 44.6324 54.8316L44.2845 55.1907ZM44.4334 55.3316L44.7966 54.988C44.7869 54.9777 44.7768 54.9678 44.7662 54.9584L44.4334 55.3316ZM44.5824 55.4725L44.9456 55.1288C44.9358 55.1186 44.9257 55.1087 44.9152 55.0993L44.5824 55.4725ZM44.7313 55.6134L45.0945 55.2697C45.0848 55.2595 45.0747 55.2496 45.0641 55.2402L44.7313 55.6134ZM44.8803 55.7543L45.2435 55.4106C45.2338 55.4004 45.2236 55.3905 45.2131 55.3811L44.8803 55.7543ZM45.0292 55.8952L45.3924 55.5515C45.3827 55.5413 45.3726 55.5314 45.362 55.522L45.0292 55.8952ZM45.1782 56.0361L45.5414 55.6924C45.5317 55.6821 45.5215 55.6723 45.511 55.6629L45.1782 56.0361ZM45.3271 56.177L45.6903 55.8333C45.6806 55.823 45.6705 55.8132 45.6599 55.8038L45.3271 56.177ZM45.4761 56.3178L45.8393 55.9742C45.8296 55.9639 45.8194 55.9541 45.8089 55.9447L45.4761 56.3178ZM45.6251 56.4587L45.9882 56.1151C45.9785 56.1048 45.9684 56.095 45.9578 56.0856L45.6251 56.4587ZM45.774 56.5996L46.1372 56.256C46.1275 56.2457 46.1173 56.2359 46.1068 56.2265L45.774 56.5996ZM45.923 56.7405L46.2861 56.3969C46.2764 56.3866 46.2663 56.3768 46.2557 56.3673L45.923 56.7405ZM46.0719 56.8814L46.4351 56.5378C46.4254 56.5275 46.4152 56.5176 46.4047 56.5082L46.0719 56.8814ZM46.2209 57.0223L46.5841 56.6786C46.5743 56.6684 46.5642 56.6585 46.5537 56.6491L46.2209 57.0223ZM46.3698 57.1632L46.733 56.8195C46.7233 56.8093 46.7132 56.7994 46.7026 56.79L46.3698 57.1632ZM46.5188 57.3041L46.882 56.9604C46.8723 56.9502 46.8621 56.9403 46.8516 56.9309L46.5188 57.3041ZM46.6677 57.445L47.0309 57.1013C47.0212 57.0911 47.0111 57.0812 47.0005 57.0718L46.6677 57.445ZM46.8167 57.5859L47.1799 57.2422C47.1702 57.2319 47.16 57.2221 47.1495 57.2127L46.8167 57.5859ZM46.9656 57.7268L46.6328 58.1L46.6397 58.1059L46.9656 57.7268ZM47.0517 57.8136L47.4485 58.1178C47.5818 57.944 47.5864 57.7036 47.4599 57.5248L47.0517 57.8136ZM45.3119 61.7349L45.8042 61.8223L45.3119 61.7349ZM47.9783 69.9079L48.3415 69.5643C48.3367 69.5592 48.3319 69.5543 48.3269 69.5495L47.9783 69.9079ZM48.1273 70.0488L48.4904 69.7052C48.4807 69.6949 48.4706 69.685 48.46 69.6756L48.1273 70.0488ZM48.2762 70.1897L48.6394 69.846C48.6297 69.8358 48.6195 69.8259 48.609 69.8165L48.2762 70.1897ZM48.4252 70.3306L48.7883 69.9869C48.7786 69.9767 48.7685 69.9668 48.7579 69.9574L48.4252 70.3306ZM48.5741 70.4715L48.9373 70.1278C48.9276 70.1176 48.9174 70.1077 48.9069 70.0983L48.5741 70.4715ZM48.7231 70.6124L49.0863 70.2687C49.0765 70.2585 49.0664 70.2486 49.0558 70.2392L48.7231 70.6124ZM48.872 70.7533L49.2352 70.4096C49.2255 70.3993 49.2153 70.3895 49.2048 70.3801L48.872 70.7533ZM49.021 70.8942L49.3842 70.5505C49.3744 70.5402 49.3643 70.5304 49.3538 70.521L49.021 70.8942ZM49.1699 71.035L49.5331 70.6914C49.5234 70.6811 49.5133 70.6713 49.5027 70.6619L49.1699 71.035ZM49.3189 71.1759L49.6821 70.8323C49.6724 70.822 49.6622 70.8122 49.6517 70.8028L49.3189 71.1759ZM49.4678 71.3168L49.831 70.9732C49.8213 70.9629 49.8112 70.9531 49.8006 70.9437L49.4678 71.3168ZM49.6168 71.4577L49.98 71.1141C49.9703 71.1038 49.9601 71.094 49.9496 71.0845L49.6168 71.4577ZM49.7657 71.5986L50.1289 71.255C50.1192 71.2447 50.1091 71.2348 50.0985 71.2254L49.7657 71.5986ZM49.9147 71.7395L50.295 71.4149C50.2803 71.3976 50.2644 71.3814 50.2475 71.3663L49.9147 71.7395ZM50.0392 71.8546L50.5054 72.0353C50.5834 71.8342 50.5236 71.6057 50.3571 71.4686L50.0392 71.8546ZM49.572 73.466L49.0797 73.3787L49.572 73.466ZM52.3799 81.8217L52.0386 82.1873L52.0472 82.1949L52.3799 81.8217ZM55.9548 85.2031L56.3039 84.845C56.2986 84.8399 56.2931 84.8348 56.2876 84.8299L55.9548 85.2031ZM60.8985 87.7336L60.9848 87.2411L60.8985 87.7336ZM72.1814 89.71L72.0951 90.2025L72.1814 89.71ZM91.7098 86.8453L91.4859 86.3982L91.4846 86.3988L91.7098 86.8453ZM99.1403 83.1243L98.9165 82.6772L98.9164 82.6772L99.1403 83.1243ZM104.128 76.4642L104.62 76.5516L104.62 76.5512L104.128 76.4642ZM109.511 46.0164L110.003 46.1034L110.004 46.0999L109.511 46.0164ZM140.012 46.9513L139.679 47.324L140.348 47.9218L140.505 47.0387L140.012 46.9513ZM136.472 43.5936L136.122 43.9508L136.13 43.9588L136.139 43.9663L136.472 43.5936ZM133.175 41.8969L133.089 42.3894L133.175 41.8969ZM123.648 40.228L123.734 39.7355L123.648 40.228ZM113.35 47.3854L113.843 47.4728L113.35 47.3854ZM106.333 86.9195L105.841 86.8322L106.333 86.9195ZM108.151 92.3779L108.484 92.0051L108.478 91.9997L108.151 92.3779ZM111.691 95.7355L112.032 95.3693L112.024 95.3628L111.691 95.7355ZM115.101 97.1955L115.188 96.703L115.162 96.6985L115.136 96.6967L115.101 97.1955ZM124.629 98.8644L124.543 99.3569L124.629 98.8644ZM134.926 91.707L134.434 91.6196L134.926 91.707ZM141.914 52.3388L142.407 52.4262L141.914 52.3388ZM140.014 46.9443L140.352 46.5762L139.681 45.9593L139.521 46.8569L140.014 46.9443ZM111.503 93.5409L111.59 93.0484L111.565 93.0442L111.541 93.0423L111.503 93.5409ZM121.125 95.2263L121.039 95.7188L121.125 95.2263ZM131.504 88.111L131.011 88.0236L131.504 88.111ZM138.47 48.8651L138.962 48.9524L138.47 48.8651ZM133.355 41.9285L133.442 41.436L133.355 41.9285ZM123.734 40.2431L123.648 40.7356L123.734 40.2431ZM113.355 47.3584L113.848 47.4458L113.355 47.3584ZM106.36 86.7698L105.867 86.6824L106.36 86.7698ZM45.1784 41.1728L45.6707 41.2601C45.7066 41.0576 45.6149 40.8537 45.4394 40.7463C45.264 40.6389 45.0407 40.6499 44.8767 40.774L45.1784 41.1728ZM41.6317 46.884L41.1394 46.7966L41.6317 46.884ZM47.5989 57.1415L47.972 57.4742C48.0821 57.3509 48.124 57.1811 48.0841 57.0206C48.0441 56.8602 47.9275 56.7299 47.7724 56.6725L47.5989 57.1415ZM45.3838 61.6246L45.8761 61.712L45.3838 61.6246ZM50.2675 71.3842L50.7278 71.5794C50.8294 71.3399 50.7303 71.0625 50.4999 70.9415L50.2675 71.3842ZM49.6724 73.3431L50.1647 73.4305L49.6724 73.3431ZM57.3157 84.0804L57.4019 83.5879L57.3157 84.0804ZM68.6452 86.0648L68.5589 86.5574L68.6452 86.0648ZM88.2479 83.2233L88.0253 82.7756L88.024 82.7763L88.2479 83.2233ZM95.7041 79.5149L95.4815 79.0672L95.4815 79.0672L95.7041 79.5149ZM100.705 72.8692L101.197 72.9566L101.197 72.9563L100.705 72.8692ZM106.079 42.4704L106.571 42.5574L106.572 42.5538L106.079 42.4704ZM103.889 34.7585L104.263 34.427L104.261 34.4244L103.889 34.7585ZM101.178 31.7407L100.806 32.0741L100.806 32.0748L101.178 31.7407ZM85.0703 1.19663L85.1566 0.704124L85.0703 1.19663ZM73.891 8.65839L74.3833 8.74577L73.891 8.65839ZM77.3162 28.0696L77.23 28.5621C77.4079 28.5933 77.5888 28.5261 77.7032 28.3862C77.8176 28.2464 77.8477 28.0558 77.7819 27.8875L77.3162 28.0696ZM49.0384 23.1164L48.9521 23.6089L49.0384 23.1164ZM45.1771 41.1797L45.0584 41.6654C45.1926 41.6982 45.3344 41.674 45.4502 41.5986C45.5659 41.5231 45.6453 41.4031 45.6694 41.2671L45.1771 41.1797ZM107.709 37.9625L105.013 34.943L104.267 35.6091L106.964 38.6286L107.709 37.9625ZM105.013 34.9439C99.3955 28.6241 97.8397 22.6575 97.0145 17.677C96.6054 15.2074 96.3656 12.8896 95.8952 10.9559C95.4189 8.99816 94.683 7.31156 93.2079 6.07827L92.5665 6.84546C93.8054 7.88132 94.4697 9.32701 94.9235 11.1923C95.3832 13.0817 95.6034 15.2777 96.028 17.8404C96.8703 22.9243 98.4767 29.0956 104.266 35.6082L105.013 34.9439ZM93.22 6.08869C93.2208 6.08945 93.1701 6.04179 93.0646 5.94212C92.9648 5.84788 92.8249 5.71555 92.6581 5.55776C92.3246 5.24221 91.8841 4.82517 91.4435 4.40806C90.5692 3.58045 89.6775 2.73623 89.6451 2.7073L88.9795 3.45365C88.9786 3.45289 89.0293 3.50055 89.1348 3.60022C89.2346 3.69446 89.3745 3.82679 89.5413 3.98458C89.8748 4.30013 90.3154 4.71717 90.756 5.13428C91.6303 5.96189 92.522 6.80611 92.5544 6.83504L93.22 6.08869ZM89.6453 2.70749C88.5388 1.71973 87.0461 1.0351 84.9833 0.673776L84.8108 1.65878C86.741 1.99687 88.046 2.62024 88.9793 3.45347L89.6453 2.70749ZM84.9833 0.673776C78.7253 -0.422401 74.1024 3.82837 73.2621 8.56226L74.2467 8.73702C74.9998 4.49425 79.1463 0.666567 84.8108 1.65878L84.9833 0.673776ZM73.2621 8.56226C72.9918 10.0853 73.0758 13.0144 73.6025 16.5283C74.1317 20.0591 75.116 24.2346 76.681 28.2664L77.6132 27.9045C76.0794 23.9531 75.1117 19.8511 74.5914 16.38C74.0686 12.8921 74.0057 10.0948 74.2467 8.73702L73.2621 8.56226ZM77.2333 27.593L49.0717 22.6601L48.8992 23.6451L77.0608 28.578L77.2333 27.593ZM49.0717 22.6601C43.708 21.7206 38.5939 25.2585 37.6494 30.5794L38.634 30.7542C39.4806 25.9852 44.0696 22.7992 48.8992 23.6451L49.0717 22.6601ZM37.6494 30.5794C37.0706 33.8403 38.2108 36.9907 40.4055 39.1579L41.1082 38.4464C39.1337 36.4967 38.116 33.6727 38.634 30.7542L37.6494 30.5794ZM40.3937 39.1458C40.4593 39.2152 40.5249 39.2733 40.573 39.3162L41.2386 38.5699C41.1865 38.5235 41.1521 38.4924 41.12 38.4585L40.3937 39.1458ZM40.5426 39.2867C40.5838 39.3302 40.6244 39.3661 40.6475 39.3867C40.6745 39.4107 40.6839 39.4195 40.6916 39.4276L41.4179 38.7403C41.3767 38.6967 41.3361 38.6609 41.3131 38.6403C41.2861 38.6162 41.2766 38.6074 41.269 38.5994L40.5426 39.2867ZM40.6916 39.4276C40.7328 39.4711 40.7734 39.507 40.7965 39.5276C40.8234 39.5516 40.8329 39.5604 40.8405 39.5685L41.5669 38.8812C41.5257 38.8376 41.4851 38.8018 41.462 38.7812C41.435 38.7571 41.4255 38.7483 41.4179 38.7403L40.6916 39.4276ZM40.8405 39.5685C40.9061 39.6378 40.9718 39.696 41.0199 39.7389L41.6854 38.9925C41.6334 38.9462 41.5989 38.915 41.5669 38.8812L40.8405 39.5685ZM40.9895 39.7094C41.0307 39.7529 41.0713 39.7888 41.0944 39.8093C41.1214 39.8334 41.1308 39.8422 41.1384 39.8503L41.8648 39.163C41.8236 39.1194 41.783 39.0835 41.7599 39.063C41.7329 39.0389 41.7235 39.0301 41.7158 39.0221L40.9895 39.7094ZM41.1384 39.8503C41.204 39.9196 41.2697 39.9778 41.3178 40.0207L41.9833 39.2743C41.9313 39.2279 41.8968 39.1968 41.8648 39.163L41.1384 39.8503ZM41.2874 39.9912C41.3286 40.0347 41.3692 40.0706 41.3923 40.0911C41.4193 40.1152 41.4287 40.124 41.4363 40.132L42.1627 39.4447C42.1215 39.4012 42.0809 39.3653 42.0578 39.3448C42.0308 39.3207 42.0214 39.3119 42.0137 39.3038L41.2874 39.9912ZM41.4363 40.132C41.5019 40.2014 41.5676 40.2595 41.6157 40.3025L42.2813 39.5561C42.2292 39.5097 42.1947 39.4786 42.1627 39.4447L41.4363 40.132ZM41.5853 40.2729C41.6265 40.3165 41.6671 40.3523 41.6902 40.3729C41.7172 40.397 41.7266 40.4058 41.7342 40.4138L42.4606 39.7265C42.4194 39.683 42.3788 39.6471 42.3557 39.6265C42.3287 39.6025 42.3193 39.5937 42.3117 39.5856L41.5853 40.2729ZM41.7342 40.4138C41.7999 40.4832 41.8655 40.5413 41.9136 40.5842L42.5792 39.8379C42.5271 39.7915 42.4927 39.7604 42.4606 39.7265L41.7342 40.4138ZM41.8832 40.5547C41.9244 40.5983 41.965 40.6341 41.9881 40.6547C42.0151 40.6788 42.0245 40.6876 42.0321 40.6956L42.7585 40.0083C42.7173 39.9647 42.6767 39.9289 42.6536 39.9083C42.6266 39.8843 42.6172 39.8755 42.6096 39.8674L41.8832 40.5547ZM42.0321 40.6956C42.0733 40.7391 42.114 40.775 42.137 40.7956C42.164 40.8196 42.1735 40.8284 42.1811 40.8365L42.9075 40.1492C42.8663 40.1057 42.8257 40.0698 42.8026 40.0492C42.7756 40.0252 42.7661 40.0164 42.7585 40.0083L42.0321 40.6956ZM42.1811 40.8365C42.2467 40.9059 42.3124 40.964 42.3605 41.0069L43.026 40.2606C42.974 40.2141 42.9395 40.183 42.9075 40.1492L42.1811 40.8365ZM42.3301 40.9774C42.3713 41.0209 42.4119 41.0568 42.4349 41.0773C42.4619 41.1014 42.4714 41.1102 42.479 41.1183L43.2054 40.431C43.1642 40.3874 43.1236 40.3516 43.1005 40.331C43.0735 40.3069 43.0641 40.2981 43.0564 40.2901L42.3301 40.9774ZM42.479 41.1183C42.5446 41.1876 42.6103 41.2458 42.6584 41.2887L43.3239 40.5423C43.2719 40.4959 43.2374 40.4648 43.2054 40.431L42.479 41.1183ZM42.628 41.2592C42.6692 41.3027 42.7098 41.3386 42.7328 41.3591C42.7598 41.3832 42.7693 41.392 42.7769 41.4001L43.5033 40.7128C43.4621 40.6692 43.4215 40.6334 43.3984 40.6128C43.3714 40.5887 43.362 40.5799 43.3543 40.5719L42.628 41.2592ZM42.7769 41.4001C42.8425 41.4694 42.9082 41.5276 42.9563 41.5705L43.6218 40.8241C43.5698 40.7777 43.5353 40.7466 43.5033 40.7128L42.7769 41.4001ZM42.9259 41.541C42.9671 41.5845 43.0077 41.6203 43.0308 41.6409C43.0577 41.665 43.0672 41.6738 43.0748 41.6818L43.8012 40.9945C43.76 40.951 43.7194 40.9151 43.6963 40.8946C43.6693 40.8705 43.6599 40.8617 43.6522 40.8536L42.9259 41.541ZM43.0748 41.6818C43.116 41.7254 43.1566 41.7612 43.1797 41.7818C43.2067 41.8059 43.2162 41.8147 43.2238 41.8227L43.9501 41.1354C43.9089 41.0919 43.8683 41.056 43.8453 41.0355C43.8183 41.0114 43.8088 41.0026 43.8012 40.9945L43.0748 41.6818ZM43.2238 41.8227C43.2894 41.8921 43.355 41.9502 43.4031 41.9931L44.0687 41.2468C44.0167 41.2004 43.9822 41.1693 43.9501 41.1354L43.2238 41.8227ZM43.3727 41.9636C43.4139 42.0072 43.4546 42.043 43.4776 42.0636C43.5046 42.0877 43.5141 42.0965 43.5217 42.1045L44.2481 41.4172C44.2069 41.3737 44.1662 41.3378 44.1432 41.3172C44.1162 41.2932 44.1067 41.2844 44.0991 41.2763L43.3727 41.9636ZM43.5217 42.1045C43.5873 42.1739 43.6529 42.232 43.701 42.2749L44.3666 41.5286C44.3146 41.4822 44.2801 41.4511 44.2481 41.4172L43.5217 42.1045ZM43.6706 42.2454C43.7118 42.2889 43.7524 42.3248 43.7755 42.3454C43.8025 42.3694 43.812 42.3782 43.8196 42.3863L44.546 41.699C44.5048 41.6555 44.4642 41.6196 44.4411 41.599C44.4141 41.575 44.4046 41.5662 44.397 41.5581L43.6706 42.2454ZM43.8392 42.4059L43.8579 42.4235L44.5449 41.697L44.5263 41.6794L43.8392 42.4059ZM43.8502 41.7043C42.4738 43.0624 41.4635 44.8233 41.098 46.8824L42.0826 47.0572C42.4088 45.2195 43.3104 43.6417 44.5526 42.4162L43.8502 41.7043ZM41.098 46.8824C40.5126 50.1805 41.6909 53.3744 43.9366 55.5498L44.6324 54.8316C42.6104 52.8729 41.5589 50.008 42.0826 47.0572L41.098 46.8824ZM43.9213 55.5344C43.9869 55.6037 44.0525 55.6619 44.1006 55.7048L44.7662 54.9584C44.7142 54.9121 44.6797 54.8809 44.6477 54.8471L43.9213 55.5344ZM44.0702 55.6753C44.1359 55.7446 44.2015 55.8028 44.2496 55.8457L44.9152 55.0993C44.8631 55.0529 44.8286 55.0218 44.7966 54.988L44.0702 55.6753ZM44.2192 55.8162C44.2848 55.8855 44.3504 55.9437 44.3986 55.9866L45.0641 55.2402C45.0121 55.1938 44.9776 55.1627 44.9456 55.1288L44.2192 55.8162ZM44.3681 55.957C44.4338 56.0264 44.4994 56.0846 44.5475 56.1275L45.2131 55.3811C45.161 55.3347 45.1265 55.3036 45.0945 55.2697L44.3681 55.957ZM44.5171 56.0979C44.5827 56.1673 44.6483 56.2254 44.6965 56.2683L45.362 55.522C45.31 55.4756 45.2755 55.4445 45.2435 55.4106L44.5171 56.0979ZM44.6661 56.2388C44.7317 56.3082 44.7973 56.3664 44.8454 56.4092L45.511 55.6629C45.4589 55.6165 45.4245 55.5854 45.3924 55.5515L44.6661 56.2388ZM44.815 56.3797C44.8806 56.4491 44.9463 56.5072 44.9944 56.5501L45.6599 55.8038C45.6079 55.7574 45.5734 55.7263 45.5414 55.6924L44.815 56.3797ZM44.964 56.5206C45.0296 56.59 45.0952 56.6481 45.1433 56.691L45.8089 55.9447C45.7568 55.8983 45.7224 55.8672 45.6903 55.8333L44.964 56.5206ZM45.1129 56.6615C45.1785 56.7308 45.2442 56.789 45.2923 56.8319L45.9578 56.0856C45.9058 56.0392 45.8713 56.0081 45.8393 55.9742L45.1129 56.6615ZM45.2619 56.8024C45.3275 56.8717 45.3931 56.9299 45.4412 56.9728L46.1068 56.2265C46.0547 56.18 46.0203 56.1489 45.9882 56.1151L45.2619 56.8024ZM45.4108 56.9433C45.4764 57.0126 45.5421 57.0708 45.5902 57.1137L46.2557 56.3673C46.2037 56.321 46.1692 56.2898 46.1372 56.256L45.4108 56.9433ZM45.5598 57.0842C45.6254 57.1535 45.6911 57.2117 45.7391 57.2546L46.4047 56.5082C46.3527 56.4618 46.3182 56.4307 46.2861 56.3969L45.5598 57.0842ZM45.7087 57.2251C45.7744 57.2944 45.84 57.3526 45.8881 57.3955L46.5537 56.6491C46.5016 56.6027 46.4671 56.5716 46.4351 56.5378L45.7087 57.2251ZM45.8577 57.366C45.9233 57.4353 45.989 57.4935 46.037 57.5364L46.7026 56.79C46.6506 56.7436 46.6161 56.7125 46.5841 56.6786L45.8577 57.366ZM46.0066 57.5068C46.0723 57.5762 46.1379 57.6344 46.186 57.6773L46.8516 56.9309C46.7995 56.8845 46.7651 56.8534 46.733 56.8195L46.0066 57.5068ZM46.1556 57.6477C46.2212 57.7171 46.2869 57.7753 46.335 57.8181L47.0005 57.0718C46.9485 57.0254 46.914 56.9943 46.882 56.9604L46.1556 57.6477ZM46.3046 57.7886C46.3702 57.858 46.4358 57.9161 46.4839 57.959L47.1495 57.2127C47.0974 57.1663 47.063 57.1352 47.0309 57.1013L46.3046 57.7886ZM46.4535 57.9295C46.5191 57.9989 46.5848 58.057 46.6329 58.0999L47.2984 57.3536C47.2464 57.3072 47.2119 57.2761 47.1799 57.2422L46.4535 57.9295ZM46.6397 58.1059C46.648 58.1131 46.6531 58.1174 46.6576 58.1214C46.6618 58.1252 46.6635 58.1268 46.6638 58.1271C46.6641 58.1273 46.662 58.1254 46.6586 58.1215C46.6551 58.1176 46.6498 58.1112 46.6435 58.1024L47.4599 57.5248C47.3949 57.433 47.3138 57.3667 47.2916 57.3476L46.6397 58.1059ZM46.6549 57.5094C45.7512 58.6882 45.0976 60.0812 44.8196 61.6475L45.8042 61.8223C46.0524 60.4243 46.6355 59.1782 47.4485 58.1178L46.6549 57.5094ZM44.8196 61.6475C44.2342 64.9456 45.4046 68.1019 47.6297 70.2663L48.3269 69.5495C46.3241 67.6012 45.2804 64.7731 45.8042 61.8223L44.8196 61.6475ZM47.6151 70.2516C47.6807 70.3209 47.7464 70.3791 47.7945 70.422L48.46 69.6756C48.408 69.6293 48.3735 69.5981 48.3415 69.5643L47.6151 70.2516ZM47.7641 70.3925C47.8297 70.4618 47.8953 70.52 47.9434 70.5629L48.609 69.8165C48.5569 69.7701 48.5225 69.739 48.4904 69.7052L47.7641 70.3925ZM47.913 70.5334C47.9786 70.6027 48.0443 70.6609 48.0924 70.7038L48.7579 69.9574C48.7059 69.911 48.6714 69.8799 48.6394 69.846L47.913 70.5334ZM48.062 70.6742C48.1276 70.7436 48.1933 70.8018 48.2413 70.8447L48.9069 70.0983C48.8549 70.0519 48.8204 70.0208 48.7883 69.9869L48.062 70.6742ZM48.2109 70.8151C48.2765 70.8845 48.3422 70.9426 48.3903 70.9855L49.0558 70.2392C49.0038 70.1928 48.9693 70.1617 48.9373 70.1278L48.2109 70.8151ZM48.3599 70.956C48.4255 71.0254 48.4912 71.0836 48.5392 71.1264L49.2048 70.3801C49.1528 70.3337 49.1183 70.3026 49.0863 70.2687L48.3599 70.956ZM48.5088 71.0969C48.5745 71.1663 48.6401 71.2244 48.6882 71.2673L49.3538 70.521C49.3017 70.4746 49.2673 70.4435 49.2352 70.4096L48.5088 71.0969ZM48.6578 71.2378C48.7234 71.3072 48.7891 71.3653 48.8372 71.4082L49.5027 70.6619C49.4507 70.6155 49.4162 70.5844 49.3842 70.5505L48.6578 71.2378ZM48.8067 71.3787C48.8724 71.448 48.938 71.5062 48.9861 71.5491L49.6517 70.8028C49.5997 70.7564 49.5652 70.7253 49.5331 70.6914L48.8067 71.3787ZM48.9557 71.5196C49.0213 71.5889 49.087 71.6471 49.1351 71.69L49.8006 70.9437C49.7486 70.8972 49.7141 70.8661 49.6821 70.8323L48.9557 71.5196ZM49.1047 71.6605C49.1703 71.7298 49.2359 71.788 49.284 71.8309L49.9496 71.0845C49.8976 71.0382 49.8631 71.007 49.831 70.9732L49.1047 71.6605ZM49.2536 71.8014C49.3192 71.8707 49.3849 71.9289 49.433 71.9718L50.0985 71.2254C50.0465 71.179 50.012 71.1479 49.98 71.1141L49.2536 71.8014ZM49.4026 71.9423C49.4682 72.0116 49.5338 72.0698 49.5819 72.1127L50.2475 71.3663C50.1954 71.3199 50.161 71.2888 50.1289 71.255L49.4026 71.9423ZM49.5344 72.0641C49.6039 72.1456 49.6837 72.2096 49.7214 72.2406L50.3571 71.4686C50.3335 71.4492 50.3197 71.4377 50.3079 71.4271C50.2969 71.4172 50.294 71.4137 50.295 71.4149L49.5344 72.0641ZM49.573 71.6739C49.3647 72.2113 49.187 72.774 49.0797 73.3787L50.0643 73.5534C50.1571 73.0308 50.3127 72.5325 50.5054 72.0353L49.573 71.6739ZM49.0797 73.3787C48.4816 76.7481 49.7078 80.011 52.0387 82.1872L52.7212 81.4562C50.6248 79.499 49.5285 76.572 50.0643 73.5534L49.0797 73.3787ZM52.0472 82.1949C52.0463 82.1941 52.097 82.2418 52.2025 82.3414C52.3023 82.4357 52.4422 82.568 52.609 82.7258C52.9425 83.0413 53.383 83.4584 53.8237 83.8755C54.6979 84.7031 55.5896 85.5473 55.6221 85.5763L56.2876 84.8299C56.2885 84.8307 56.2378 84.783 56.1323 84.6833C56.0325 84.5891 55.8926 84.4568 55.7258 84.299C55.3923 83.9834 54.9517 83.5664 54.5111 83.1493C53.6369 82.3217 52.7451 81.4774 52.7127 81.4485L52.0472 82.1949ZM55.6058 85.5611C56.985 86.9056 58.769 87.8682 60.8122 88.2261L60.9848 87.2411C59.1475 86.9193 57.5446 86.0546 56.3039 84.845L55.6058 85.5611ZM60.8122 88.2261L72.0951 90.2025L72.2677 89.2175L60.9848 87.2411L60.8122 88.2261ZM72.0951 90.2025C78.8503 91.3857 85.8191 90.3762 91.9349 87.2917L91.4846 86.3988C85.5632 89.3854 78.813 90.364 72.2677 89.2175L72.0951 90.2025ZM91.9337 87.2924L99.3642 83.5714L98.9164 82.6772L91.4859 86.3982L91.9337 87.2924ZM99.3641 83.5714C102.138 82.183 104.082 79.5821 104.62 76.5516L103.636 76.3768C103.153 79.0942 101.409 81.4293 98.9165 82.6772L99.3641 83.5714ZM104.62 76.5512L110.003 46.1034L109.018 45.9294L103.636 76.3771L104.62 76.5512ZM110.004 46.0999C110.479 43.292 109.76 40.2911 107.712 37.9651L106.961 38.626C108.798 40.7115 109.446 43.4031 109.018 45.9329L110.004 46.0999ZM140.346 46.5785C140.347 46.5793 140.296 46.5321 140.192 46.4331C140.093 46.3395 139.955 46.2081 139.789 46.0514C139.459 45.7381 139.023 45.324 138.586 44.9098C137.721 44.088 136.837 43.2496 136.805 43.2209L136.139 43.9663C136.138 43.9655 136.188 44.0128 136.292 44.1118C136.391 44.2054 136.53 44.3368 136.695 44.4934C137.025 44.8068 137.462 45.2209 137.898 45.6351C138.764 46.4568 139.647 47.2952 139.679 47.324L140.346 46.5785ZM136.822 43.2364C135.885 42.3188 134.669 41.6509 133.262 41.4044L133.089 42.3894C134.287 42.5992 135.322 43.1668 136.122 43.9508L136.822 43.2364ZM133.262 41.4044L123.734 39.7355L123.561 40.7205L133.089 42.3894L133.262 41.4044ZM123.734 39.7355C118.632 38.8419 113.759 42.2251 112.858 47.298L113.843 47.4728C114.646 42.9492 118.996 39.9209 123.561 40.7205L123.734 39.7355ZM112.858 47.298L105.841 86.8322L106.825 87.0069L113.843 47.4728L112.858 47.298ZM105.841 86.8322C105.422 89.1899 106.228 91.3756 107.823 92.756L108.478 91.9997C107.16 90.8595 106.466 89.0326 106.825 87.0069L105.841 86.8322ZM107.817 92.7506C107.816 92.7498 107.867 92.797 107.971 92.896C108.07 92.9896 108.208 93.121 108.374 93.2777C108.704 93.591 109.14 94.0052 109.577 94.4193C110.442 95.2411 111.326 96.0795 111.358 96.1083L112.024 95.3628C112.025 95.3636 111.975 95.3164 111.871 95.2173C111.772 95.1238 111.633 94.9924 111.468 94.8357C111.138 94.5223 110.701 94.1082 110.265 93.694C109.399 92.8723 108.516 92.0339 108.484 92.0051L107.817 92.7506ZM111.35 96.1016C112.321 97.004 113.596 97.5915 115.067 97.6943L115.136 96.6967C113.897 96.6101 112.837 96.1182 112.032 95.3694L111.35 96.1016ZM115.015 97.688L124.543 99.3569L124.715 98.3719L115.188 96.703L115.015 97.688ZM124.543 99.3569C129.645 100.251 134.518 96.8673 135.419 91.7944L134.434 91.6196C133.631 96.1433 129.281 99.1715 124.715 98.3719L124.543 99.3569ZM135.419 91.7944L142.407 52.4262L141.422 52.2514L134.434 91.6196L135.419 91.7944ZM142.407 52.4262C142.796 50.2306 141.941 48.0371 140.352 46.5762L139.675 47.3125C141.037 48.5642 141.746 50.423 141.422 52.2514L142.407 52.4262ZM139.521 46.8569L139.52 46.8638L140.505 47.0387L140.506 47.0318L139.521 46.8569ZM111.417 94.0334L121.039 95.7188L121.211 94.7338L111.59 93.0484L111.417 94.0334ZM121.039 95.7188C126.182 96.6197 131.097 93.2623 131.996 88.1983L131.011 88.0236C130.212 92.5264 125.83 95.5428 121.211 94.7338L121.039 95.7188ZM131.996 88.1983L138.962 48.9524L137.977 48.7777L131.011 88.0236L131.996 88.1983ZM138.962 48.9524C139.575 45.4978 137.092 42.0754 133.442 41.436L133.269 42.421C136.413 42.9716 138.487 45.905 137.977 48.7777L138.962 48.9524ZM133.442 41.436L123.82 39.7506L123.648 40.7356L133.269 42.421L133.442 41.436ZM123.82 39.7506C118.677 38.8497 113.762 42.2071 112.863 47.271L113.848 47.4458C114.647 42.943 119.029 39.9266 123.648 40.7356L123.82 39.7506ZM112.863 47.271L105.867 86.6824L106.852 86.8571L113.848 47.4458L112.863 47.271ZM105.867 86.6824C105.198 90.4511 107.696 93.7582 111.466 94.0395L111.541 93.0423C108.382 92.8066 106.283 90.0636 106.852 86.8571L105.867 86.6824ZM120.373 85.0388C120.038 86.9253 118.225 88.1903 116.318 87.8564L116.146 88.8414C118.59 89.2695 120.925 87.6488 121.358 85.2135L120.373 85.0388ZM116.318 87.8564C114.413 87.5226 113.146 85.7194 113.48 83.8337L112.496 83.659C112.063 86.0951 113.701 88.4131 116.146 88.8414L116.318 87.8564ZM113.48 83.8337C113.815 81.9472 115.628 80.6822 117.535 81.0161L117.707 80.0311C115.264 79.6031 112.928 81.2238 112.496 83.659L113.48 83.8337ZM117.535 81.0161C119.441 81.35 120.708 83.1531 120.373 85.0388L121.358 85.2135C121.79 82.7774 120.152 80.4594 117.707 80.0311L117.535 81.0161ZM44.8767 40.774C42.9861 42.2043 41.5851 44.2857 41.1394 46.7966L42.124 46.9714C42.5218 44.7303 43.7723 42.8634 45.48 41.5715L44.8767 40.774ZM41.1394 46.7966C40.306 51.4918 43.0564 55.9934 47.4253 57.6104L47.7724 56.6725C43.8365 55.2158 41.379 51.169 42.124 46.9714L41.1394 46.7966ZM47.2257 56.8087C46.0715 58.1029 45.2178 59.6992 44.8915 61.5372L45.8761 61.712C46.1665 60.0763 46.9272 58.6459 47.972 57.4742L47.2257 56.8087ZM44.8915 61.5372C44.1295 65.8306 46.3537 69.8944 50.0351 71.827L50.4999 70.9415C47.1772 69.1973 45.1954 65.5472 45.8761 61.712L44.8915 61.5372ZM49.8072 71.1891C49.5326 71.8367 49.3099 72.524 49.1801 73.2557L50.1647 73.4305C50.2789 72.7866 50.4766 72.1721 50.7278 71.5794L49.8072 71.1891ZM49.1801 73.2557C48.2364 78.5721 51.8465 83.63 57.2294 84.5729L57.4019 83.5879C52.5494 82.7379 49.3202 78.1878 50.1647 73.4305L49.1801 73.2557ZM57.2294 84.5729L68.5589 86.5574L68.7314 85.5723L57.4019 83.5879L57.2294 84.5729ZM68.5589 86.5574C75.3408 87.7453 82.3353 86.7443 88.4719 83.6704L88.024 82.7763C82.0817 85.7529 75.3049 86.7238 68.7314 85.5723L68.5589 86.5574ZM88.4706 83.671L95.9268 79.9626L95.4815 79.0672L88.0253 82.7756L88.4706 83.671ZM95.9267 79.9626C98.7095 78.5791 100.66 75.9837 101.197 72.9566L100.213 72.7818C99.7313 75.4934 97.9834 77.8233 95.4815 79.0672L95.9267 79.9626ZM101.197 72.9563L106.571 42.5574L105.586 42.3833L100.213 72.7822L101.197 72.9563ZM106.572 42.5538C107.047 39.7491 106.321 36.7514 104.263 34.427L103.514 35.09C105.36 37.1745 106.013 39.8624 105.586 42.3869L106.572 42.5538ZM104.261 34.4244L101.55 31.4066L100.806 32.0748L103.517 35.0926L104.261 34.4244ZM101.551 31.4073C94.8585 23.9291 93.8929 16.9547 93.0904 11.5002C92.692 8.79203 92.3253 6.3603 91.2494 4.48469C90.1417 2.55378 88.3175 1.25779 85.1566 0.704124L84.9841 1.68913C87.915 2.20252 89.451 3.35941 90.3819 4.98227C91.3446 6.66042 91.6946 8.88336 92.1011 11.6458C92.9083 17.1325 93.9049 24.3631 100.806 32.0741L101.551 31.4073ZM85.1566 0.704124C78.8765 -0.395912 74.2382 3.84162 73.3987 8.57101L74.3833 8.74577C75.1346 4.51293 79.2923 0.692154 84.9841 1.68913L85.1566 0.704124ZM73.3987 8.57101C73.1287 10.0922 73.216 13.0176 73.7482 16.527C74.2831 20.0535 75.2754 24.2241 76.8506 28.2517L77.7819 27.8875C76.2382 23.9403 75.2626 19.8434 74.7369 16.3771C74.2086 12.8936 74.1428 10.1008 74.3833 8.74577L73.3987 8.57101ZM77.4025 27.5771L49.1247 22.6239L48.9521 23.6089L77.23 28.5621L77.4025 27.5771ZM49.1247 22.6239C43.7431 21.6813 38.6035 25.2047 37.6599 30.5207L38.6445 30.6954C39.489 25.9376 44.0983 22.7587 48.9521 23.6089L49.1247 22.6239ZM37.6599 30.5207C36.7165 35.8356 40.0633 40.4445 45.0584 41.6654L45.2958 40.694C40.7761 39.5893 37.7998 35.4543 38.6445 30.6954L37.6599 30.5207ZM45.6694 41.2671L45.6707 41.2601L44.686 41.0854L44.6848 41.0923L45.6694 41.2671Z" fill="black"/>
<path fill-rule="evenodd" clip-rule="evenodd" d="M17.4091 64.6764C17.0995 63.6162 17.7079 62.5057 18.7682 62.196C21.7539 61.324 27.8348 62.0414 31.9901 69.1396C32.5481 70.0928 32.2277 71.3179 31.2745 71.8759C30.3213 72.4339 29.0963 72.1136 28.5383 71.1604C25.3121 65.6493 21.1184 65.6765 19.8895 66.0354C18.8293 66.3451 17.7188 65.7366 17.4091 64.6764Z" fill="#49E988" stroke="black" stroke-linecap="round" stroke-linejoin="round"/>
<path fill-rule="evenodd" clip-rule="evenodd" d="M150.641 66.9729C149.602 66.9054 148.815 66.0087 148.882 64.9702C149.072 62.0454 151.667 56.8923 159.292 55.5006C160.315 55.3138 161.297 55.9923 161.484 57.0161C161.671 58.0399 160.992 59.0214 159.968 59.2083C154.049 60.2888 152.721 64.0108 152.643 65.2146C152.576 66.2532 151.679 67.0404 150.641 66.9729Z" fill="#49E988" stroke="black" stroke-linecap="round" stroke-linejoin="round"/>
<path fill-rule="evenodd" clip-rule="evenodd" d="M111.939 19.3093C110.898 19.3326 110.036 18.5079 110.012 17.4674C109.947 14.5373 112.083 9.1776 119.557 7.12672C120.56 6.85132 121.597 7.44168 121.873 8.44533C122.148 9.44899 121.558 10.4859 120.554 10.7613C114.751 12.3536 113.753 16.1771 113.78 17.3832C113.804 18.4237 112.979 19.286 111.939 19.3093Z" fill="#49E988" stroke="black" stroke-linecap="round" stroke-linejoin="round"/>
<path d="M154 88C157 88 157 82 157 82C157 82 157 88 160 88C157 88 157 94 157 94C157 94 157 88 154 88Z" fill="#FFF8E5" stroke="black" stroke-linejoin="round"/>
<path d="M27 91C31 91 31 83 31 83C31 83 31 91 35 91C31 91 31 99 31 99C31 99 31 91 27 91Z" fill="#FFF8E5" stroke="black" stroke-linejoin="round"/>
<path d="M35 9C38.5 9 38.5 2 38.5 2C38.5 2 38.5 9 42 9C38.5 9 38.5 16 38.5 16C38.5 16 38.5 9 35 9Z" fill="#FFF8E5" stroke="black" stroke-linejoin="round"/>
<path d="M1 42C7 42 7 30 7 30C7 30 7 42 13 42C7 42 7 54 7 54C7 54 7 42 1 42Z" fill="#FFF8E5" stroke="black" stroke-linejoin="round"/>
<path d="M152 14C156 14 156 6 156 6C156 6 156 14 160 14C156 14 156 22 156 22C156 22 156 14 152 14Z" fill="#FFF8E5" stroke="black" stroke-linejoin="round"/>
<path d="M171 46C175 46 175 38 175 38C175 38 175 46 179 46C175 46 175 54 175 54C175 54 175 46 171 46Z" fill="#FFF8E5" stroke="black" stroke-linejoin="round"/>
</svg>
