<svg width="166" height="183" viewBox="0 0 166 183" fill="none" xmlns="http://www.w3.org/2000/svg">
<path d="M145.5 11C145.5 11.5574 145.188 12.1736 144.43 12.8418C143.674 13.5079 142.53 14.1737 141.01 14.8218C137.974 16.1163 133.55 17.2934 128.045 18.2861C117.043 20.27 101.824 21.5 85 21.5C68.1757 21.5 52.9568 20.27 41.9552 18.2861C36.4504 17.2934 32.0261 16.1163 28.9898 14.8218C27.4696 14.1737 26.3257 13.5079 25.5699 12.8418C24.8116 12.1736 24.5 11.5574 24.5 11C24.5 10.4426 24.8116 9.82644 25.5699 9.15824C26.3257 8.49214 27.4696 7.82635 28.9898 7.17825C32.0261 5.88374 36.4504 4.70657 41.9552 3.71389C52.9568 1.73 68.1757 0.5 85 0.5C101.824 0.5 117.043 1.73 128.045 3.71389C133.55 4.70657 137.974 5.88374 141.01 7.17825C142.53 7.82635 143.674 8.49214 144.43 9.15824C145.188 9.82644 145.5 10.4426 145.5 11Z" fill="#E9F8FF" stroke="black"/>
<path d="M107.5 179C107.5 179.058 107.465 179.2 107.197 179.418C106.934 179.632 106.516 179.861 105.931 180.092C104.764 180.551 103.047 180.976 100.888 181.335C96.5798 182.053 90.6086 182.5 84 182.5C77.3914 182.5 71.4202 182.053 67.1116 181.335C64.9534 180.976 63.2359 180.551 62.0693 180.092C61.4836 179.861 61.0659 179.632 60.8034 179.418C60.5346 179.2 60.5 179.058 60.5 179C60.5 178.942 60.5346 178.8 60.8034 178.582C61.0659 178.368 61.4836 178.139 62.0693 177.908C63.2359 177.449 64.9534 177.024 67.1116 176.665C71.4202 175.947 77.3914 175.5 84 175.5C90.6086 175.5 96.5798 175.947 100.888 176.665C103.047 177.024 104.764 177.449 105.931 177.908C106.516 178.139 106.934 178.368 107.197 178.582C107.465 178.8 107.5 178.942 107.5 179Z" fill="#DDD5F6" stroke="black"/>
<path d="M122 160C125 160 125 154 125 154C125 154 125 160 128 160C125 160 125 166 125 166C125 166 125 160 122 160Z" fill="#FEF2DF" stroke="black" stroke-linejoin="round"/>
<path d="M31 154C35 154 35 146 35 146C35 146 35 154 39 154C35 154 35 162 35 162C35 162 35 154 31 154Z" fill="#FEF2DF" stroke="black" stroke-linejoin="round"/>
<path d="M24 51C27.5 51 27.5 44 27.5 44C27.5 44 27.5 51 31 51C27.5 51 27.5 58 27.5 58C27.5 58 27.5 51 24 51Z" fill="#FEF2DF" stroke="black" stroke-linejoin="round"/>
<path d="M1 102C7 102 7 90 7 90C7 90 7 102 13 102C7 102 7 114 7 114C7 114 7 102 1 102Z" fill="#FEF2DF" stroke="black" stroke-linejoin="round"/>
<path d="M145 52C149 52 149 44 149 44C149 44 149 52 153 52C149 52 149 60 149 60C149 60 149 52 145 52Z" fill="#FEF2DF" stroke="black" stroke-linejoin="round"/>
<path d="M157 110C161 110 161 102 161 102C161 102 161 110 165 110C161 110 161 118 161 118C161 118 161 110 157 110Z" fill="#FEF2DF" stroke="black" stroke-linejoin="round"/>
<path fill-rule="evenodd" clip-rule="evenodd" d="M80.5 142C107.838 142 130 119.838 130 92.4998C130 75.9631 121.891 61.3204 109.432 52.3311C125.531 60.5004 136.562 77.2118 136.562 96.4998C136.562 123.838 114.4 146 87.0623 146C76.2609 146 66.2675 142.54 58.1299 136.669C64.8486 140.078 72.4499 142 80.5 142Z" fill="#FF845A"/>
<mask id="mask0_968_5230" style="mask-type:alpha" maskUnits="userSpaceOnUse" x="58" y="52" width="79" height="94">
<path fill-rule="evenodd" clip-rule="evenodd" d="M80.5 142C107.838 142 130 119.838 130 92.4998C130 75.9631 121.891 61.3204 109.432 52.3311C125.531 60.5004 136.562 77.2118 136.562 96.4998C136.562 123.838 114.4 146 87.0623 146C76.2609 146 66.2675 142.54 58.1299 136.669C64.8486 140.078 72.4499 142 80.5 142Z" fill="#EFAC83"/>
</mask>
<g mask="url(#mask0_968_5230)">
<path d="M144 102.529L124.714 99L89 121.353L124.714 131L144 102.529Z" fill="#B12804"/>
<path d="M142 107.529L122.714 104L87 126.353L122.714 136L142 107.529Z" fill="#B12804"/>
</g>
<circle cx="87.0623" cy="96.5" r="49" stroke="black"/>
<circle cx="80.5" cy="92.5" r="49.5" fill="#FF845A"/>
<circle cx="80.5" cy="92.5" r="49" stroke="black"/>
<circle cx="80.5" cy="92.5" r="47" stroke="black"/>
<circle cx="80.5" cy="92.5" r="48" stroke="#FECB94"/>
<g clip-path="url(#clip0_968_5230)">
<path d="M96.14 110.52C96.05 110.07 95.89 109.49 95.67 108.7C95.66 108.66 95.65 108.61 95.63 108.57V108.53H95.62L92.43 97.2099L92.39 97.0799C92.19 96.3799 92.04 95.8599 91.9 95.4599C91.86 95.3399 91.83 95.2299 91.79 95.1299C91.75 95.0099 91.71 94.8999 91.68 94.7899C91.64 94.6699 91.61 94.5599 91.57 94.4599C91.53 94.3399 91.49 94.2299 91.46 94.1299C91.42 94.0099 91.38 93.8999 91.35 93.7999C91.31 93.6799 91.27 93.5699 91.24 93.4699C91.2 93.3499 91.16 93.2399 91.13 93.1399C91.09 93.0199 91.06 92.9099 91.02 92.8099C90.96 92.6299 90.91 92.4599 90.85 92.3099C90.69 91.8899 90.56 91.6899 90.45 91.5899C90.12 91.2999 89.68 91.2099 89.26 91.3499C89.11 91.3999 88.91 91.5399 88.58 91.8899C88.26 92.2299 87.87 92.7199 87.33 93.4099L80.01 102.61L79.99 102.64C79.45 103.32 79.06 103.81 78.79 104.21C78.52 104.61 78.41 104.86 78.38 105.06C78.33 105.44 78.38 105.8 78.52 106.1C78.55 106.22 78.58 106.33 78.63 106.43C78.66 106.55 78.69 106.66 78.74 106.76C78.77 106.88 78.8 106.99 78.85 107.09C78.88 107.21 78.91 107.32 78.96 107.42C78.99 107.54 79.02 107.65 79.07 107.75C79.1 107.87 79.13 107.98 79.18 108.08C79.21 108.2 79.24 108.31 79.29 108.41C79.32 108.53 79.35 108.64 79.4 108.74C79.46 109.02 79.58 109.27 79.75 109.46C79.85 109.57 80.03 109.69 80.45 109.81C80.86 109.93 81.41 110.05 82.2 110.21L92.71 112.34C93.5 112.5 94.05 112.61 94.48 112.65C94.91 112.69 95.12 112.65 95.27 112.59C95.7 112.39 96.05 111.96 96.18 111.42C96.23 111.23 96.23 110.96 96.14 110.51V110.52Z" fill="#EEEEE7" stroke="black"/>
<path d="M85.0699 86C86.2699 84.47 86.8099 83.77 87.1399 82.99C87.5099 82.13 87.6999 81.19 87.6899 80.25C87.6899 79.41 87.4599 78.56 86.9499 76.71V76.67H86.9399L84.7099 68.51C84.4799 67.67 84.3199 67.07 84.1599 66.62C84.1199 66.5 84.0899 66.39 84.0499 66.29C84.0099 66.16 83.9699 66.03 83.9299 65.92C83.8999 65.81 83.8599 65.72 83.8299 65.62C83.7899 65.49 83.2999 64.03 83.2599 63.92C83.2199 63.8 83.1899 63.69 83.1499 63.59C82.9899 63.13 82.8499 62.93 82.7299 62.82C82.3999 62.52 81.9499 62.43 81.5299 62.58C81.3799 62.63 81.1799 62.77 80.8499 63.13C80.5299 63.48 80.1299 63.98 79.5899 64.68L54.1199 97.36C53.5799 98.05 53.1899 98.55 52.9299 98.95C52.6599 99.35 52.5499 99.61 52.5199 99.81C52.4699 100.19 52.5199 100.54 52.6599 100.84C52.6899 100.96 53.4999 103.4 53.5499 103.51C53.6099 103.79 53.7299 104.04 53.8999 104.23C54.0099 104.35 54.1899 104.46 54.5999 104.58C54.9999 104.7 55.5499 104.81 56.3299 104.97L63.6699 106.46C65.4299 106.82 66.1999 106.97 66.9199 106.89C67.7299 106.79 68.5299 106.47 69.2399 105.95C69.8899 105.48 70.4299 104.79 71.6299 103.27L71.6599 103.23L85.0499 86H85.0699Z" fill="#EEEEE7" stroke="black"/>
<path d="M81.5498 62.5702C81.9698 62.4302 82.4198 62.5202 82.7498 62.8102C82.8698 62.9202 82.9998 63.1202 83.1698 63.5802C83.3298 64.0302 83.4998 64.6402 83.7298 65.5002L85.9598 73.6602V73.7002H85.9698C86.4698 75.5502 86.6998 76.4002 86.7098 77.2402C86.7098 78.1802 86.5298 79.1202 86.1598 79.9802C85.8298 80.7602 85.2898 81.4602 84.0898 82.9902L70.6998 100.22L70.6698 100.26C69.4698 101.78 68.9298 102.48 68.2798 102.94C67.5598 103.46 66.7698 103.78 65.9598 103.88C65.2398 103.96 64.4598 103.8 62.7098 103.45L55.3698 101.96C54.5898 101.8 54.0398 101.69 53.6398 101.57C53.2398 101.45 53.0498 101.33 52.9398 101.22C52.6298 100.87 52.4798 100.35 52.5598 99.8002C52.5898 99.5902 52.6998 99.3402 52.9698 98.9402C53.2398 98.5402 53.6198 98.0402 54.1598 97.3502L79.6098 64.6702L81.5598 62.5702H81.5498ZM81.5498 62.5702C81.3998 62.6202 81.1998 62.7602 80.8698 63.1202C80.5498 63.4702 80.1498 63.9702 79.6098 64.6702L81.5598 62.5702H81.5498ZM94.2698 109.6C94.1298 109.67 93.9098 109.7 93.4798 109.66C93.0498 109.62 92.4998 109.5 91.7098 109.35L81.1998 107.22C80.4098 107.06 79.8598 106.95 79.4498 106.82C79.0398 106.7 78.8598 106.58 78.7498 106.47C78.4398 106.12 78.2898 105.6 78.3698 105.04C78.3998 104.84 78.5098 104.59 78.7798 104.19C79.0498 103.79 79.4398 103.3 79.9798 102.62L79.9998 102.59L87.3198 93.3902C87.8598 92.7102 88.2498 92.2202 88.5698 91.8702C88.8898 91.5202 89.0998 91.3802 89.2498 91.3302C89.6698 91.1902 90.1098 91.2802 90.4398 91.5702C90.5598 91.6702 90.6898 91.8702 90.8398 92.2902C90.9998 92.7102 91.1598 93.2802 91.3898 94.0702L91.4298 94.2002L94.6198 105.52V105.56L94.6698 105.69C94.8898 106.49 95.0498 107.06 95.1398 107.51C95.2298 107.96 95.2298 108.23 95.1798 108.42C95.0498 108.96 94.6998 109.39 94.2698 109.59V109.6Z" fill="white" stroke="black"/>
</g>
<path d="M94.57 166.09C94.49 165.96 92.04 163.51 91.9 163.42C91.73 163.14 91.43 162.95 91.06 162.95H89V152.95C89 152.59 88.8 152.28 88.51 152.11C88.43 151.97 85.98 149.53 85.84 149.44C85.66 149.15 85.36 148.95 85 148.95H81C80.45 148.95 80 149.4 80 149.95V161.95C80 162.5 79.55 162.95 79 162.95H74.95C74.14 162.95 73.66 163.87 74.14 164.53L82.2 175.81C82.27 175.9 82.36 175.96 82.45 176.02C82.45 176.02 85.03 178.62 85.12 178.69L85.21 178.81C85.61 179.37 86.44 179.37 86.84 178.81L94.9 167.53C95.26 167.02 95.07 166.37 94.6 166.09H94.57Z" fill="#EEEEE7" stroke="black" stroke-linejoin="round"/>
<path d="M83.8701 175.86C83.4701 176.42 82.6401 176.42 82.2401 175.86L74.1901 164.58C73.7201 163.92 74.1901 163 75.0001 163H79.0601C79.6101 163 80.0601 162.55 80.0601 162V150C80.0601 149.45 80.5101 149 81.0601 149H85.0601C85.6101 149 86.0601 149.45 86.0601 150V162C86.0601 162.55 86.5101 163 87.0601 163H91.1201C91.9301 163 92.4101 163.92 91.9301 164.58L83.8701 175.86Z" fill="white" stroke="black" stroke-linejoin="round"/>
<path d="M94.57 27.0897C94.49 26.9597 92.04 24.5097 91.9 24.4197C91.73 24.1397 91.43 23.9497 91.06 23.9497H89V13.9497C89 13.5897 88.8 13.2797 88.51 13.1097C88.43 12.9697 85.98 10.5297 85.84 10.4397C85.66 10.1497 85.36 9.94971 85 9.94971H81C80.45 9.94971 80 10.3997 80 10.9497V22.9497C80 23.4997 79.55 23.9497 79 23.9497H74.95C74.14 23.9497 73.66 24.8697 74.14 25.5297L82.2 36.8097C82.27 36.8997 82.36 36.9597 82.45 37.0197C82.45 37.0197 85.03 39.6197 85.12 39.6897L85.21 39.8097C85.61 40.3697 86.44 40.3697 86.84 39.8097L94.9 28.5297C95.26 28.0197 95.07 27.3697 94.6 27.0897H94.57Z" fill="#EEEEE7" stroke="black" stroke-linejoin="round"/>
<path d="M83.8701 36.86C83.4701 37.42 82.6401 37.42 82.2401 36.86L74.1901 25.58C73.7201 24.92 74.1901 24 75.0001 24H79.0601C79.6101 24 80.0601 23.55 80.0601 23V11C80.0601 10.45 80.5101 10 81.0601 10H85.0601C85.6101 10 86.0601 10.45 86.0601 11V23C86.0601 23.55 86.5101 24 87.0601 24H91.1201C91.9301 24 92.4101 24.92 91.9301 25.58L83.8701 36.86Z" fill="white" stroke="black" stroke-linejoin="round"/>
<defs>
<clipPath id="clip0_968_5230">
<rect width="44.72" height="51.18" fill="white" transform="translate(52 62)"/>
</clipPath>
</defs>
</svg>
