<svg width="179" height="93" viewBox="0 0 179 93" fill="none" xmlns="http://www.w3.org/2000/svg">
<circle cx="89.75" cy="46" r="43.5" fill="#FFF3E5" stroke="black"/>
<g clip-path="url(#clip0_875_23312)">
<path d="M132.208 75.2522L101.199 10.3511C100.89 9.71277 100.514 9.16071 100.085 8.67766C100.017 8.60866 95.6308 3.39862 95.5623 3.32962C92.7697 -0.034475 87.3388 -0.0172231 84.6833 3.82992L43.8401 62.9517C41.9213 65.7465 42.3668 69.1968 44.3198 71.4395C44.3884 71.5086 48.7742 76.7186 48.8427 76.7876C49.9563 78.185 51.6182 79.1683 53.6226 79.3409L125.475 85.1202C130.752 85.5515 134.487 80.0482 132.191 75.2522H132.208Z" fill="#FF5F29" stroke="black" stroke-miterlimit="10"/>
<path d="M43.8401 62.9516L84.6833 3.82981C87.6815 -0.517635 94.2088 -8.21948e-05 96.4874 4.77865L127.497 69.6798C129.792 74.4757 126.04 79.9791 120.781 79.5478L48.9284 73.7684C43.6517 73.3371 40.8249 67.3163 43.8401 62.9516Z" fill="#FF845A" stroke="black" stroke-miterlimit="10"/>
<path d="M87.5615 20.633C85.1973 20.4433 83.1414 22.2202 82.9529 24.5837L81.3254 45.2168C81.1369 47.5975 82.9015 49.6677 85.2487 49.8575C87.5958 50.0473 89.6688 48.2703 89.8572 45.9069L91.4848 25.2738C91.6732 22.893 89.9086 20.8228 87.5615 20.633Z" fill="white" stroke="black"/>
<path d="M84.4948 63.6417C86.8603 63.6417 88.7779 61.7108 88.7779 59.3288C88.7779 56.9468 86.8603 55.0159 84.4948 55.0159C82.1294 55.0159 80.2118 56.9468 80.2118 59.3288C80.2118 61.7108 82.1294 63.6417 84.4948 63.6417Z" fill="white" stroke="black"/>
</g>
<path d="M2.42654 40.0195L8.00685 30.0989C8.77146 28.7396 10.7285 28.7396 11.4932 30.0989L17.0735 40.0195C17.8234 41.3527 16.86 43 15.3303 43H4.16969C2.64004 43 1.67661 41.3527 2.42654 40.0195Z" fill="#FF5F29" stroke="black"/>
<path d="M25.4265 89.0195L28.7568 83.0989C29.5215 81.7396 31.4785 81.7396 32.2432 83.0989L35.5735 89.0195C36.3234 90.3527 35.36 92 33.8303 92H27.1697C25.64 92 24.6766 90.3527 25.4265 89.0195Z" fill="#FF5F29" stroke="black"/>
<path d="M144.588 84.5097L147.378 79.5495C147.761 78.8698 148.739 78.8698 149.122 79.5495L151.912 84.5097C152.287 85.1763 151.805 86 151.04 86H145.46C144.695 86 144.213 85.1763 144.588 84.5097Z" fill="#FF5F29" stroke="black"/>
<path d="M166.427 43.0195L169.757 37.0989C170.521 35.7396 172.479 35.7396 173.243 37.0989L176.573 43.0195C177.323 44.3527 176.36 46 174.83 46H168.17C166.64 46 165.677 44.3527 166.427 43.0195Z" fill="#FF5F29" stroke="black"/>
<path d="M150.588 10.5097L153.941 4.54947C154.323 3.86982 155.302 3.86981 155.684 4.54947L159.037 10.5097C159.412 11.1763 158.93 12 158.165 12H151.46C150.695 12 150.213 11.1763 150.588 10.5097Z" fill="#FF5F29" stroke="black"/>
<path d="M33.5883 7.50974L36.3784 2.54947C36.7607 1.86982 37.7393 1.86982 38.1216 2.54947L40.9117 7.50974C41.2867 8.17634 40.805 9 40.0402 9H34.4598C33.695 9 33.2133 8.17634 33.5883 7.50974Z" fill="#FF5F29" stroke="black"/>
<path d="M31.0915 52.6071C32.4484 55.0194 30.7052 58 27.9375 58C25.1698 58 23.4266 55.0194 24.7835 52.6071C26.167 50.1476 29.708 50.1476 31.0915 52.6071Z" stroke="black"/>
<path d="M17.1469 85.039C17.6403 85.9161 17.0064 87 16 87C14.9936 87 14.3597 85.9161 14.8531 85.039C15.3562 84.1446 16.6438 84.1446 17.1469 85.039Z" stroke="black"/>
<path d="M167.147 74.039C167.64 74.9161 167.006 76 166 76C164.994 76 164.36 74.9161 164.853 74.039C165.356 73.1446 166.644 73.1446 167.147 74.039Z" stroke="black"/>
<path d="M149.695 45.5682C150.558 47.1033 149.449 49 147.688 49C145.926 49 144.817 47.1033 145.68 45.5682C146.561 44.003 148.814 44.003 149.695 45.5682Z" stroke="black"/>
<path d="M140.996 15.5487C141.613 16.6452 140.821 18 139.562 18C138.304 18 137.512 16.6452 138.129 15.5487C138.758 14.4307 140.367 14.4307 140.996 15.5487Z" stroke="black"/>
<path d="M22.1469 13.039C22.6403 13.9161 22.0064 15 21 15C19.9936 15 19.3597 13.9161 19.8531 13.039C20.3562 12.1446 21.6438 12.1446 22.1469 13.039Z" stroke="black"/>
<defs>
<clipPath id="clip0_875_23312">
<rect width="92" height="86" fill="white" transform="translate(41.75)"/>
</clipPath>
</defs>
</svg>
