<svg width="179" height="100" viewBox="0 0 179 100" fill="none" xmlns="http://www.w3.org/2000/svg">
<circle cx="90" cy="50" r="43.5" fill="#E9F8FF" stroke="black"/>
<path d="M106.837 38.2956L104.14 35.2761C92.7325 22.4437 97.8153 11.0002 92.3872 6.46186C92.3371 6.41722 88.8623 3.12512 88.8123 3.08048C87.7924 2.16998 86.3936 1.51598 84.3971 1.16628C78.4358 0.122083 74.0511 4.16131 73.2544 8.64964C72.7431 11.5305 73.5483 20.1022 76.6471 28.0855L48.4854 23.1526C43.3888 22.2599 38.5372 25.6218 37.6417 30.6668C37.0933 33.7565 38.1722 36.7437 40.2568 38.8022C40.3057 38.8538 40.3557 38.8984 40.4058 38.943C40.4546 38.9946 40.5059 39.0323 40.5547 39.0839C40.6036 39.1355 40.6549 39.1732 40.7037 39.2248C40.7525 39.2764 40.8026 39.3211 40.8527 39.3657C40.9015 39.4173 40.9528 39.455 41.0016 39.5066C41.0504 39.5582 41.1005 39.6029 41.1506 39.6475C41.1994 39.6991 41.2507 39.7368 41.2995 39.7884C41.3483 39.84 41.3984 39.8846 41.4485 39.9293C41.4973 39.9809 41.5486 40.0186 41.5974 40.0702C41.6463 40.1218 41.6963 40.1664 41.7464 40.2111C41.7952 40.2627 41.8465 40.3004 41.8953 40.352C41.9442 40.4036 41.9955 40.4412 42.0443 40.4928C42.0931 40.5444 42.1432 40.5891 42.1932 40.6337C42.2421 40.6853 42.2934 40.723 42.3422 40.7746C42.391 40.8262 42.4411 40.8709 42.4911 40.9155C42.54 40.9671 42.5913 41.0048 42.6401 41.0564C42.6889 41.108 42.739 41.1527 42.7891 41.1973C42.8379 41.2489 42.8892 41.2866 42.938 41.3382C42.9868 41.3898 43.0381 41.4275 43.087 41.4791C43.1358 41.5307 43.1859 41.5753 43.2359 41.62C43.2847 41.6716 43.336 41.7093 43.3849 41.7609C43.4337 41.8125 43.4838 41.8571 43.5338 41.9018C43.5827 41.9534 43.634 41.991 43.6828 42.0426L43.7014 42.0603C42.3921 43.352 41.4362 45.0214 41.0903 46.9698C40.5357 50.0942 41.6507 53.1237 43.7845 55.1907C43.8333 55.2423 43.8834 55.287 43.9334 55.3316C43.9823 55.3832 44.0323 55.4279 44.0824 55.4725C44.1312 55.5241 44.1813 55.5687 44.2313 55.6134C44.2802 55.665 44.3302 55.7096 44.3803 55.7543C44.4291 55.8059 44.4792 55.8505 44.5292 55.8952C44.5781 55.9468 44.6281 55.9914 44.6782 56.0361C44.727 56.0877 44.7771 56.1323 44.8271 56.177C44.876 56.2286 44.926 56.2732 44.9761 56.3178C45.0249 56.3694 45.075 56.4141 45.1251 56.4587C45.1739 56.5103 45.2239 56.555 45.274 56.5996C45.3228 56.6512 45.3729 56.6959 45.423 56.7405C45.4718 56.7921 45.5219 56.8368 45.5719 56.8814C45.6207 56.933 45.6708 56.9777 45.7209 57.0223C45.7697 57.0739 45.8198 57.1185 45.8698 57.1632C45.9187 57.2148 45.9687 57.2594 46.0188 57.3041C46.0676 57.3557 46.1177 57.4003 46.1677 57.445C46.2166 57.4966 46.2666 57.5412 46.3167 57.5859C46.3655 57.6375 46.4156 57.6821 46.4656 57.7268C46.4971 57.7538 46.5285 57.7808 46.5517 57.8136C45.6934 58.9332 45.075 60.2527 44.8119 61.7349C44.2573 64.8593 45.3643 67.8515 47.4783 69.9079C47.5271 69.9595 47.5772 70.0042 47.6273 70.0488C47.6761 70.1004 47.7261 70.1451 47.7762 70.1897C47.825 70.2413 47.8751 70.2859 47.9252 70.3306C47.974 70.3822 48.0241 70.4268 48.0741 70.4715C48.1229 70.5231 48.173 70.5677 48.2231 70.6124C48.2719 70.664 48.322 70.7086 48.372 70.7533C48.4209 70.8049 48.4709 70.8495 48.521 70.8942C48.5698 70.9458 48.6199 70.9904 48.6699 71.035C48.7188 71.0866 48.7688 71.1313 48.8189 71.1759C48.8677 71.2275 48.9178 71.2722 48.9678 71.3168C49.0167 71.3684 49.0667 71.4131 49.1168 71.4577C49.1656 71.5093 49.2157 71.554 49.2657 71.5986C49.3146 71.6502 49.3646 71.6949 49.4147 71.7395C49.4507 71.7817 49.495 71.8181 49.5392 71.8546C49.3387 72.3719 49.172 72.9024 49.072 73.466C48.5051 76.6601 49.6663 79.755 51.8799 81.8217C51.93 81.8663 55.4048 85.1584 55.4548 85.2031C56.7648 86.4801 58.4583 87.3938 60.3985 87.7336L71.6814 89.71C78.3317 90.8748 85.1912 89.8808 91.2098 86.8453L98.6403 83.1243C101.273 81.8061 103.118 79.3381 103.628 76.4642L109.011 46.0164C109.463 43.3475 108.779 40.5013 106.837 38.2956Z" fill="#F4F4F8"/>
<path d="M139.512 46.9513C139.463 46.9069 136.022 43.6379 135.972 43.5936C135.103 42.7428 133.978 42.125 132.675 41.8969L123.148 40.228C118.314 39.3814 113.702 42.5871 112.85 47.3854L105.833 86.9195C105.444 89.1113 106.194 91.1175 107.651 92.3779C107.7 92.4222 111.141 95.6912 111.191 95.7355C112.079 96.5611 113.247 97.1008 114.601 97.1955L124.129 98.8644C128.963 99.711 133.575 96.5053 134.426 91.707L141.414 52.3388C141.771 50.3268 140.989 48.3007 139.514 46.9443L139.512 46.9513Z" fill="#6B61D6"/>
<path d="M111.003 93.5409L120.625 95.2263C125.506 96.0812 130.155 92.8944 131.004 88.111L137.97 48.8651C138.531 45.7014 136.253 42.5235 132.855 41.9285L123.234 40.2431C118.353 39.3882 113.704 42.575 112.855 47.3584L105.86 86.7698C105.241 90.2574 107.539 93.2824 111.003 93.5409Z" fill="#8E84EA"/>
<path d="M120.365 85.1262C119.982 87.287 117.907 88.7299 115.732 88.3489C113.557 87.9679 112.104 85.9072 112.488 83.7464C112.872 81.5855 114.946 80.1426 117.121 80.5236C119.296 80.9047 120.749 82.9653 120.365 85.1262Z" fill="#DBD7FB"/>
<path d="M44.6784 41.1728C42.8792 42.5339 41.5535 44.508 41.1317 46.884C40.3425 51.3304 42.9464 55.6046 47.0989 57.1415C45.9993 58.3744 45.1921 59.8878 44.8838 61.6246C44.1624 65.6889 46.2654 69.5459 49.7675 71.3842C49.5046 72.0044 49.2944 72.6553 49.1724 73.3431C48.2783 78.38 51.698 83.1839 56.8157 84.0804L68.1452 86.0648C74.8229 87.2345 81.7085 86.2486 87.7479 83.2233L95.2041 79.5149C97.8464 78.2012 99.6956 75.7385 100.205 72.8692L105.579 42.4704C106.03 39.8058 105.341 36.963 103.389 34.7585L100.678 31.7407C87.0853 16.5515 96.7539 3.33073 84.5703 1.19663C78.5844 0.148121 74.1864 4.17728 73.391 8.65839C72.8805 11.5346 73.6974 20.0948 76.8162 28.0696L48.5384 23.1164C43.4207 22.22 38.5462 25.5711 37.6522 30.608C36.7581 35.645 39.9197 40.0169 44.6771 41.1797L44.6784 41.1728Z" fill="white"/>
<path d="M106.837 38.2956L107.212 37.9651L107.209 37.9625L106.837 38.2956ZM104.14 35.2761L103.766 35.6083L103.767 35.6091L104.14 35.2761ZM92.3872 6.46186L92.0544 6.83504C92.0584 6.83857 92.0624 6.84205 92.0665 6.84546L92.3872 6.46186ZM88.8123 3.08048L88.4793 3.45347L88.4795 3.45365L88.8123 3.08048ZM84.3971 1.16628L84.4833 0.673776L84.3971 1.16628ZM73.2544 8.64964L73.7467 8.73702L73.2544 8.64964ZM76.6471 28.0855L76.5608 28.578C76.7385 28.6091 76.9192 28.5421 77.0337 28.4026C77.1481 28.2631 77.1785 28.0727 77.1132 27.9045L76.6471 28.0855ZM48.4854 23.1526L48.3992 23.6451L48.4854 23.1526ZM37.6417 30.6668L37.1494 30.5794L37.6417 30.6668ZM40.2568 38.8022L40.62 38.4585C40.6161 38.4544 40.6122 38.4503 40.6082 38.4464L40.2568 38.8022ZM40.4058 38.943L40.769 38.5994C40.7593 38.5891 40.7491 38.5793 40.7386 38.5699L40.4058 38.943ZM40.8527 39.3657L41.2158 39.0221C41.2061 39.0118 41.196 39.0019 41.1854 38.9925L40.8527 39.3657ZM41.1506 39.6475L41.5137 39.3038C41.504 39.2936 41.4939 39.2837 41.4833 39.2743L41.1506 39.6475ZM41.4485 39.9293L41.8117 39.5856C41.8019 39.5754 41.7918 39.5655 41.7813 39.5561L41.4485 39.9293ZM41.7464 40.2111L42.1096 39.8674C42.0998 39.8571 42.0897 39.8473 42.0792 39.8379L41.7464 40.2111ZM42.1932 40.6337L42.5564 40.2901C42.5467 40.2798 42.5366 40.27 42.526 40.2606L42.1932 40.6337ZM42.4911 40.9155L42.8543 40.5719C42.8446 40.5616 42.8345 40.5518 42.8239 40.5423L42.4911 40.9155ZM42.7891 41.1973L43.1522 40.8536C43.1425 40.8434 43.1324 40.8335 43.1218 40.8241L42.7891 41.1973ZM43.2359 41.62L43.5991 41.2763C43.5894 41.2661 43.5792 41.2562 43.5687 41.2468L43.2359 41.62ZM43.5338 41.9018L43.897 41.5581C43.8873 41.5478 43.8772 41.538 43.8666 41.5286L43.5338 41.9018ZM43.6828 42.0426L43.3196 42.3863C43.326 42.393 43.3325 42.3996 43.3392 42.4059L43.6828 42.0426ZM43.7014 42.0603L44.0526 42.4162C44.1491 42.3209 44.2028 42.1906 44.2014 42.055C44.1999 41.9193 44.1435 41.7901 44.0449 41.697L43.7014 42.0603ZM41.0903 46.9698L41.5826 47.0572L41.0903 46.9698ZM43.7845 55.1907L44.1477 54.8471C44.1427 54.8418 44.1376 54.8366 44.1324 54.8316L43.7845 55.1907ZM43.9334 55.3316L44.2966 54.988C44.2869 54.9777 44.2768 54.9678 44.2662 54.9584L43.9334 55.3316ZM44.0824 55.4725L44.4456 55.1288C44.4358 55.1186 44.4257 55.1087 44.4152 55.0993L44.0824 55.4725ZM44.2313 55.6134L44.5945 55.2697C44.5848 55.2595 44.5747 55.2496 44.5641 55.2402L44.2313 55.6134ZM44.3803 55.7543L44.7435 55.4106C44.7338 55.4004 44.7236 55.3905 44.7131 55.3811L44.3803 55.7543ZM44.5292 55.8952L44.8924 55.5515C44.8827 55.5413 44.8726 55.5314 44.862 55.522L44.5292 55.8952ZM44.6782 56.0361L45.0414 55.6924C45.0317 55.6821 45.0215 55.6723 45.011 55.6629L44.6782 56.0361ZM44.8271 56.177L45.1903 55.8333C45.1806 55.823 45.1705 55.8132 45.1599 55.8038L44.8271 56.177ZM44.9761 56.3178L45.3393 55.9742C45.3296 55.9639 45.3194 55.9541 45.3089 55.9447L44.9761 56.3178ZM45.1251 56.4587L45.4882 56.1151C45.4785 56.1048 45.4684 56.095 45.4578 56.0856L45.1251 56.4587ZM45.274 56.5996L45.6372 56.256C45.6275 56.2457 45.6173 56.2359 45.6068 56.2265L45.274 56.5996ZM45.423 56.7405L45.7861 56.3969C45.7764 56.3866 45.7663 56.3768 45.7557 56.3673L45.423 56.7405ZM45.5719 56.8814L45.9351 56.5378C45.9254 56.5275 45.9152 56.5176 45.9047 56.5082L45.5719 56.8814ZM45.7209 57.0223L46.0841 56.6786C46.0743 56.6684 46.0642 56.6585 46.0537 56.6491L45.7209 57.0223ZM45.8698 57.1632L46.233 56.8195C46.2233 56.8093 46.2132 56.7994 46.2026 56.79L45.8698 57.1632ZM46.0188 57.3041L46.382 56.9604C46.3723 56.9502 46.3621 56.9403 46.3516 56.9309L46.0188 57.3041ZM46.1677 57.445L46.5309 57.1013C46.5212 57.0911 46.5111 57.0812 46.5005 57.0718L46.1677 57.445ZM46.3167 57.5859L46.6799 57.2422C46.6702 57.2319 46.66 57.2221 46.6495 57.2127L46.3167 57.5859ZM46.4656 57.7268L46.1328 58.1L46.1397 58.1059L46.4656 57.7268ZM46.5517 57.8136L46.9485 58.1178C47.0818 57.944 47.0864 57.7036 46.9599 57.5248L46.5517 57.8136ZM44.8119 61.7349L45.3042 61.8223L44.8119 61.7349ZM47.4783 69.9079L47.8415 69.5643C47.8367 69.5592 47.8319 69.5543 47.8269 69.5495L47.4783 69.9079ZM47.6273 70.0488L47.9904 69.7052C47.9807 69.6949 47.9706 69.685 47.96 69.6756L47.6273 70.0488ZM47.7762 70.1897L48.1394 69.846C48.1297 69.8358 48.1195 69.8259 48.109 69.8165L47.7762 70.1897ZM47.9252 70.3306L48.2883 69.9869C48.2786 69.9767 48.2685 69.9668 48.2579 69.9574L47.9252 70.3306ZM48.0741 70.4715L48.4373 70.1278C48.4276 70.1176 48.4174 70.1077 48.4069 70.0983L48.0741 70.4715ZM48.2231 70.6124L48.5863 70.2687C48.5765 70.2585 48.5664 70.2486 48.5558 70.2392L48.2231 70.6124ZM48.372 70.7533L48.7352 70.4096C48.7255 70.3993 48.7153 70.3895 48.7048 70.3801L48.372 70.7533ZM48.521 70.8942L48.8842 70.5505C48.8744 70.5402 48.8643 70.5304 48.8538 70.521L48.521 70.8942ZM48.6699 71.035L49.0331 70.6914C49.0234 70.6811 49.0133 70.6713 49.0027 70.6619L48.6699 71.035ZM48.8189 71.1759L49.1821 70.8323C49.1724 70.822 49.1622 70.8122 49.1517 70.8028L48.8189 71.1759ZM48.9678 71.3168L49.331 70.9732C49.3213 70.9629 49.3112 70.9531 49.3006 70.9437L48.9678 71.3168ZM49.1168 71.4577L49.48 71.1141C49.4703 71.1038 49.4601 71.094 49.4496 71.0845L49.1168 71.4577ZM49.2657 71.5986L49.6289 71.255C49.6192 71.2447 49.6091 71.2348 49.5985 71.2254L49.2657 71.5986ZM49.4147 71.7395L49.795 71.4149C49.7803 71.3976 49.7644 71.3814 49.7475 71.3663L49.4147 71.7395ZM49.5392 71.8546L50.0054 72.0353C50.0834 71.8342 50.0236 71.6057 49.8571 71.4686L49.5392 71.8546ZM49.072 73.466L48.5797 73.3787L49.072 73.466ZM51.8799 81.8217L51.5386 82.1873L51.5472 82.1949L51.8799 81.8217ZM55.4548 85.2031L55.8039 84.845C55.7986 84.8399 55.7931 84.8348 55.7876 84.8299L55.4548 85.2031ZM60.3985 87.7336L60.4848 87.2411L60.3985 87.7336ZM71.6814 89.71L71.5951 90.2025L71.6814 89.71ZM91.2098 86.8453L90.9859 86.3982L90.9846 86.3988L91.2098 86.8453ZM98.6403 83.1243L98.4165 82.6772L98.4164 82.6772L98.6403 83.1243ZM103.628 76.4642L104.12 76.5516L104.12 76.5512L103.628 76.4642ZM109.011 46.0164L109.503 46.1034L109.504 46.0999L109.011 46.0164ZM139.512 46.9513L139.179 47.324L139.848 47.9218L140.005 47.0387L139.512 46.9513ZM135.972 43.5936L135.622 43.9508L135.63 43.9588L135.639 43.9663L135.972 43.5936ZM132.675 41.8969L132.589 42.3894L132.675 41.8969ZM123.148 40.228L123.234 39.7355L123.148 40.228ZM112.85 47.3854L113.343 47.4728L112.85 47.3854ZM105.833 86.9195L105.341 86.8322L105.833 86.9195ZM107.651 92.3779L107.984 92.0051L107.978 91.9997L107.651 92.3779ZM111.191 95.7355L111.532 95.3693L111.524 95.3628L111.191 95.7355ZM114.601 97.1955L114.688 96.703L114.662 96.6985L114.636 96.6967L114.601 97.1955ZM124.129 98.8644L124.043 99.3569L124.129 98.8644ZM134.426 91.707L133.934 91.6196L134.426 91.707ZM141.414 52.3388L141.907 52.4262L141.414 52.3388ZM139.514 46.9443L139.852 46.5762L139.181 45.9593L139.021 46.8569L139.514 46.9443ZM111.003 93.5409L111.09 93.0484L111.065 93.0442L111.041 93.0423L111.003 93.5409ZM120.625 95.2263L120.539 95.7188L120.625 95.2263ZM131.004 88.111L130.511 88.0236L131.004 88.111ZM137.97 48.8651L138.462 48.9524L137.97 48.8651ZM132.855 41.9285L132.942 41.436L132.855 41.9285ZM123.234 40.2431L123.148 40.7356L123.234 40.2431ZM112.855 47.3584L113.348 47.4458L112.855 47.3584ZM105.86 86.7698L105.367 86.6824L105.86 86.7698ZM44.6784 41.1728L45.1707 41.2601C45.2066 41.0576 45.1149 40.8537 44.9394 40.7463C44.764 40.6389 44.5407 40.6499 44.3767 40.774L44.6784 41.1728ZM41.1317 46.884L40.6394 46.7966L41.1317 46.884ZM47.0989 57.1415L47.472 57.4742C47.5821 57.3509 47.624 57.1811 47.5841 57.0206C47.5441 56.8602 47.4275 56.7299 47.2724 56.6725L47.0989 57.1415ZM44.8838 61.6246L45.3761 61.712L44.8838 61.6246ZM49.7675 71.3842L50.2278 71.5794C50.3294 71.3399 50.2303 71.0625 49.9999 70.9415L49.7675 71.3842ZM49.1724 73.3431L49.6647 73.4305L49.1724 73.3431ZM56.8157 84.0804L56.9019 83.5879L56.8157 84.0804ZM68.1452 86.0648L68.0589 86.5574L68.1452 86.0648ZM87.7479 83.2233L87.5253 82.7756L87.524 82.7763L87.7479 83.2233ZM95.2041 79.5149L94.9815 79.0672L94.9815 79.0672L95.2041 79.5149ZM100.205 72.8692L100.697 72.9566L100.697 72.9563L100.205 72.8692ZM105.579 42.4704L106.071 42.5574L106.072 42.5538L105.579 42.4704ZM103.389 34.7585L103.763 34.427L103.761 34.4244L103.389 34.7585ZM100.678 31.7407L100.306 32.0741L100.306 32.0748L100.678 31.7407ZM84.5703 1.19663L84.6566 0.704124L84.5703 1.19663ZM73.391 8.65839L73.8833 8.74577L73.391 8.65839ZM76.8162 28.0696L76.73 28.5621C76.9079 28.5933 77.0888 28.5261 77.2032 28.3862C77.3176 28.2464 77.3477 28.0558 77.2819 27.8875L76.8162 28.0696ZM48.5384 23.1164L48.4521 23.6089L48.5384 23.1164ZM44.6771 41.1797L44.5584 41.6654C44.6926 41.6982 44.8344 41.674 44.9502 41.5986C45.0659 41.5231 45.1453 41.4031 45.1694 41.2671L44.6771 41.1797ZM107.209 37.9625L104.513 34.943L103.767 35.6091L106.464 38.6286L107.209 37.9625ZM104.513 34.9439C98.8955 28.6241 97.3397 22.6575 96.5145 17.677C96.1054 15.2074 95.8656 12.8896 95.3952 10.9559C94.9189 8.99816 94.183 7.31156 92.7079 6.07827L92.0665 6.84546C93.3054 7.88132 93.9697 9.32701 94.4235 11.1923C94.8832 13.0817 95.1034 15.2777 95.528 17.8404C96.3703 22.9243 97.9767 29.0956 103.766 35.6082L104.513 34.9439ZM92.72 6.08869C92.7208 6.08945 92.6701 6.04179 92.5646 5.94212C92.4648 5.84788 92.3249 5.71555 92.1581 5.55776C91.8246 5.24221 91.3841 4.82517 90.9435 4.40806C90.0692 3.58045 89.1775 2.73623 89.1451 2.7073L88.4795 3.45365C88.4786 3.45289 88.5293 3.50055 88.6348 3.60022C88.7346 3.69446 88.8745 3.82679 89.0413 3.98458C89.3748 4.30013 89.8154 4.71717 90.256 5.13428C91.1303 5.96189 92.022 6.80611 92.0544 6.83504L92.72 6.08869ZM89.1453 2.70749C88.0388 1.71973 86.5461 1.0351 84.4833 0.673776L84.3108 1.65878C86.241 1.99687 87.546 2.62024 88.4793 3.45347L89.1453 2.70749ZM84.4833 0.673776C78.2253 -0.422401 73.6024 3.82837 72.7621 8.56226L73.7467 8.73702C74.4998 4.49425 78.6463 0.666567 84.3108 1.65878L84.4833 0.673776ZM72.7621 8.56226C72.4918 10.0853 72.5758 13.0144 73.1025 16.5283C73.6317 20.0591 74.616 24.2346 76.181 28.2664L77.1132 27.9045C75.5794 23.9531 74.6117 19.8511 74.0914 16.38C73.5686 12.8921 73.5057 10.0948 73.7467 8.73702L72.7621 8.56226ZM76.7333 27.593L48.5717 22.6601L48.3992 23.6451L76.5608 28.578L76.7333 27.593ZM48.5717 22.6601C43.208 21.7206 38.0939 25.2585 37.1494 30.5794L38.134 30.7542C38.9806 25.9852 43.5696 22.7992 48.3992 23.6451L48.5717 22.6601ZM37.1494 30.5794C36.5706 33.8403 37.7108 36.9907 39.9055 39.1579L40.6082 38.4464C38.6337 36.4967 37.616 33.6727 38.134 30.7542L37.1494 30.5794ZM39.8937 39.1458C39.9593 39.2152 40.0249 39.2733 40.073 39.3162L40.7386 38.5699C40.6865 38.5235 40.6521 38.4924 40.62 38.4585L39.8937 39.1458ZM40.0426 39.2867C40.0838 39.3302 40.1244 39.3661 40.1475 39.3867C40.1745 39.4107 40.1839 39.4195 40.1916 39.4276L40.9179 38.7403C40.8767 38.6967 40.8361 38.6609 40.8131 38.6403C40.7861 38.6162 40.7766 38.6074 40.769 38.5994L40.0426 39.2867ZM40.1916 39.4276C40.2328 39.4711 40.2734 39.507 40.2965 39.5276C40.3234 39.5516 40.3329 39.5604 40.3405 39.5685L41.0669 38.8812C41.0257 38.8376 40.9851 38.8018 40.962 38.7812C40.935 38.7571 40.9255 38.7483 40.9179 38.7403L40.1916 39.4276ZM40.3405 39.5685C40.4061 39.6378 40.4718 39.696 40.5199 39.7389L41.1854 38.9925C41.1334 38.9462 41.0989 38.915 41.0669 38.8812L40.3405 39.5685ZM40.4895 39.7094C40.5307 39.7529 40.5713 39.7888 40.5944 39.8093C40.6214 39.8334 40.6308 39.8422 40.6384 39.8503L41.3648 39.163C41.3236 39.1194 41.283 39.0835 41.2599 39.063C41.2329 39.0389 41.2235 39.0301 41.2158 39.0221L40.4895 39.7094ZM40.6384 39.8503C40.704 39.9196 40.7697 39.9778 40.8178 40.0207L41.4833 39.2743C41.4313 39.2279 41.3968 39.1968 41.3648 39.163L40.6384 39.8503ZM40.7874 39.9912C40.8286 40.0347 40.8692 40.0706 40.8923 40.0911C40.9193 40.1152 40.9287 40.124 40.9363 40.132L41.6627 39.4447C41.6215 39.4012 41.5809 39.3653 41.5578 39.3448C41.5308 39.3207 41.5214 39.3119 41.5137 39.3038L40.7874 39.9912ZM40.9363 40.132C41.0019 40.2014 41.0676 40.2595 41.1157 40.3025L41.7813 39.5561C41.7292 39.5097 41.6947 39.4786 41.6627 39.4447L40.9363 40.132ZM41.0853 40.2729C41.1265 40.3165 41.1671 40.3523 41.1902 40.3729C41.2172 40.397 41.2266 40.4058 41.2342 40.4138L41.9606 39.7265C41.9194 39.683 41.8788 39.6471 41.8557 39.6265C41.8287 39.6025 41.8193 39.5937 41.8117 39.5856L41.0853 40.2729ZM41.2342 40.4138C41.2999 40.4832 41.3655 40.5413 41.4136 40.5842L42.0792 39.8379C42.0271 39.7915 41.9927 39.7604 41.9606 39.7265L41.2342 40.4138ZM41.3832 40.5547C41.4244 40.5983 41.465 40.6341 41.4881 40.6547C41.5151 40.6788 41.5245 40.6876 41.5321 40.6956L42.2585 40.0083C42.2173 39.9647 42.1767 39.9289 42.1536 39.9083C42.1266 39.8843 42.1172 39.8755 42.1096 39.8674L41.3832 40.5547ZM41.5321 40.6956C41.5733 40.7391 41.614 40.775 41.637 40.7956C41.664 40.8196 41.6735 40.8284 41.6811 40.8365L42.4075 40.1492C42.3663 40.1057 42.3257 40.0698 42.3026 40.0492C42.2756 40.0252 42.2661 40.0164 42.2585 40.0083L41.5321 40.6956ZM41.6811 40.8365C41.7467 40.9059 41.8124 40.964 41.8605 41.0069L42.526 40.2606C42.474 40.2141 42.4395 40.183 42.4075 40.1492L41.6811 40.8365ZM41.8301 40.9774C41.8713 41.0209 41.9119 41.0568 41.9349 41.0773C41.9619 41.1014 41.9714 41.1102 41.979 41.1183L42.7054 40.431C42.6642 40.3874 42.6236 40.3516 42.6005 40.331C42.5735 40.3069 42.5641 40.2981 42.5564 40.2901L41.8301 40.9774ZM41.979 41.1183C42.0446 41.1876 42.1103 41.2458 42.1584 41.2887L42.8239 40.5423C42.7719 40.4959 42.7374 40.4648 42.7054 40.431L41.979 41.1183ZM42.128 41.2592C42.1692 41.3027 42.2098 41.3386 42.2328 41.3591C42.2598 41.3832 42.2693 41.392 42.2769 41.4001L43.0033 40.7128C42.9621 40.6692 42.9215 40.6334 42.8984 40.6128C42.8714 40.5887 42.862 40.5799 42.8543 40.5719L42.128 41.2592ZM42.2769 41.4001C42.3425 41.4694 42.4082 41.5276 42.4563 41.5705L43.1218 40.8241C43.0698 40.7777 43.0353 40.7466 43.0033 40.7128L42.2769 41.4001ZM42.4259 41.541C42.4671 41.5845 42.5077 41.6203 42.5308 41.6409C42.5577 41.665 42.5672 41.6738 42.5748 41.6818L43.3012 40.9945C43.26 40.951 43.2194 40.9151 43.1963 40.8946C43.1693 40.8705 43.1599 40.8617 43.1522 40.8536L42.4259 41.541ZM42.5748 41.6818C42.616 41.7254 42.6566 41.7612 42.6797 41.7818C42.7067 41.8059 42.7162 41.8147 42.7238 41.8227L43.4501 41.1354C43.4089 41.0919 43.3683 41.056 43.3453 41.0355C43.3183 41.0114 43.3088 41.0026 43.3012 40.9945L42.5748 41.6818ZM42.7238 41.8227C42.7894 41.8921 42.855 41.9502 42.9031 41.9931L43.5687 41.2468C43.5167 41.2004 43.4822 41.1693 43.4501 41.1354L42.7238 41.8227ZM42.8727 41.9636C42.9139 42.0072 42.9546 42.043 42.9776 42.0636C43.0046 42.0877 43.0141 42.0965 43.0217 42.1045L43.7481 41.4172C43.7069 41.3737 43.6662 41.3378 43.6432 41.3172C43.6162 41.2932 43.6067 41.2844 43.5991 41.2763L42.8727 41.9636ZM43.0217 42.1045C43.0873 42.1739 43.1529 42.232 43.201 42.2749L43.8666 41.5286C43.8146 41.4822 43.7801 41.4511 43.7481 41.4172L43.0217 42.1045ZM43.1706 42.2454C43.2118 42.2889 43.2524 42.3248 43.2755 42.3454C43.3025 42.3694 43.312 42.3782 43.3196 42.3863L44.046 41.699C44.0048 41.6555 43.9642 41.6196 43.9411 41.599C43.9141 41.575 43.9046 41.5662 43.897 41.5581L43.1706 42.2454ZM43.3392 42.4059L43.3579 42.4235L44.0449 41.697L44.0263 41.6794L43.3392 42.4059ZM43.3502 41.7043C41.9738 43.0624 40.9635 44.8233 40.598 46.8824L41.5826 47.0572C41.9088 45.2195 42.8104 43.6417 44.0526 42.4162L43.3502 41.7043ZM40.598 46.8824C40.0126 50.1805 41.1909 53.3744 43.4366 55.5498L44.1324 54.8316C42.1104 52.8729 41.0589 50.008 41.5826 47.0572L40.598 46.8824ZM43.4213 55.5344C43.4869 55.6037 43.5525 55.6619 43.6006 55.7048L44.2662 54.9584C44.2142 54.9121 44.1797 54.8809 44.1477 54.8471L43.4213 55.5344ZM43.5702 55.6753C43.6359 55.7446 43.7015 55.8028 43.7496 55.8457L44.4152 55.0993C44.3631 55.0529 44.3286 55.0218 44.2966 54.988L43.5702 55.6753ZM43.7192 55.8162C43.7848 55.8855 43.8504 55.9437 43.8986 55.9866L44.5641 55.2402C44.5121 55.1938 44.4776 55.1627 44.4456 55.1288L43.7192 55.8162ZM43.8681 55.957C43.9338 56.0264 43.9994 56.0846 44.0475 56.1275L44.7131 55.3811C44.661 55.3347 44.6265 55.3036 44.5945 55.2697L43.8681 55.957ZM44.0171 56.0979C44.0827 56.1673 44.1483 56.2254 44.1965 56.2683L44.862 55.522C44.81 55.4756 44.7755 55.4445 44.7435 55.4106L44.0171 56.0979ZM44.1661 56.2388C44.2317 56.3082 44.2973 56.3664 44.3454 56.4092L45.011 55.6629C44.9589 55.6165 44.9245 55.5854 44.8924 55.5515L44.1661 56.2388ZM44.315 56.3797C44.3806 56.4491 44.4463 56.5072 44.4944 56.5501L45.1599 55.8038C45.1079 55.7574 45.0734 55.7263 45.0414 55.6924L44.315 56.3797ZM44.464 56.5206C44.5296 56.59 44.5952 56.6481 44.6433 56.691L45.3089 55.9447C45.2568 55.8983 45.2224 55.8672 45.1903 55.8333L44.464 56.5206ZM44.6129 56.6615C44.6785 56.7308 44.7442 56.789 44.7923 56.8319L45.4578 56.0856C45.4058 56.0392 45.3713 56.0081 45.3393 55.9742L44.6129 56.6615ZM44.7619 56.8024C44.8275 56.8717 44.8931 56.9299 44.9412 56.9728L45.6068 56.2265C45.5547 56.18 45.5203 56.1489 45.4882 56.1151L44.7619 56.8024ZM44.9108 56.9433C44.9764 57.0126 45.0421 57.0708 45.0902 57.1137L45.7557 56.3673C45.7037 56.321 45.6692 56.2898 45.6372 56.256L44.9108 56.9433ZM45.0598 57.0842C45.1254 57.1535 45.1911 57.2117 45.2391 57.2546L45.9047 56.5082C45.8527 56.4618 45.8182 56.4307 45.7861 56.3969L45.0598 57.0842ZM45.2087 57.2251C45.2744 57.2944 45.34 57.3526 45.3881 57.3955L46.0537 56.6491C46.0016 56.6027 45.9671 56.5716 45.9351 56.5378L45.2087 57.2251ZM45.3577 57.366C45.4233 57.4353 45.489 57.4935 45.537 57.5364L46.2026 56.79C46.1506 56.7436 46.1161 56.7125 46.0841 56.6786L45.3577 57.366ZM45.5066 57.5068C45.5723 57.5762 45.6379 57.6344 45.686 57.6773L46.3516 56.9309C46.2995 56.8845 46.2651 56.8534 46.233 56.8195L45.5066 57.5068ZM45.6556 57.6477C45.7212 57.7171 45.7869 57.7753 45.835 57.8181L46.5005 57.0718C46.4485 57.0254 46.414 56.9943 46.382 56.9604L45.6556 57.6477ZM45.8046 57.7886C45.8702 57.858 45.9358 57.9161 45.9839 57.959L46.6495 57.2127C46.5974 57.1663 46.563 57.1352 46.5309 57.1013L45.8046 57.7886ZM45.9535 57.9295C46.0191 57.9989 46.0848 58.057 46.1329 58.0999L46.7984 57.3536C46.7464 57.3072 46.7119 57.2761 46.6799 57.2422L45.9535 57.9295ZM46.1397 58.1059C46.148 58.1131 46.1531 58.1174 46.1576 58.1214C46.1618 58.1252 46.1635 58.1268 46.1638 58.1271C46.1641 58.1273 46.162 58.1254 46.1586 58.1215C46.1551 58.1176 46.1498 58.1112 46.1435 58.1024L46.9599 57.5248C46.8949 57.433 46.8138 57.3667 46.7916 57.3476L46.1397 58.1059ZM46.1549 57.5094C45.2512 58.6882 44.5976 60.0812 44.3196 61.6475L45.3042 61.8223C45.5524 60.4243 46.1355 59.1782 46.9485 58.1178L46.1549 57.5094ZM44.3196 61.6475C43.7342 64.9456 44.9046 68.1019 47.1297 70.2663L47.8269 69.5495C45.8241 67.6012 44.7804 64.7731 45.3042 61.8223L44.3196 61.6475ZM47.1151 70.2516C47.1807 70.3209 47.2464 70.3791 47.2945 70.422L47.96 69.6756C47.908 69.6293 47.8735 69.5981 47.8415 69.5643L47.1151 70.2516ZM47.2641 70.3925C47.3297 70.4618 47.3953 70.52 47.4434 70.5629L48.109 69.8165C48.0569 69.7701 48.0225 69.739 47.9904 69.7052L47.2641 70.3925ZM47.413 70.5334C47.4786 70.6027 47.5443 70.6609 47.5924 70.7038L48.2579 69.9574C48.2059 69.911 48.1714 69.8799 48.1394 69.846L47.413 70.5334ZM47.562 70.6742C47.6276 70.7436 47.6933 70.8018 47.7413 70.8447L48.4069 70.0983C48.3549 70.0519 48.3204 70.0208 48.2883 69.9869L47.562 70.6742ZM47.7109 70.8151C47.7765 70.8845 47.8422 70.9426 47.8903 70.9855L48.5558 70.2392C48.5038 70.1928 48.4693 70.1617 48.4373 70.1278L47.7109 70.8151ZM47.8599 70.956C47.9255 71.0254 47.9912 71.0836 48.0392 71.1264L48.7048 70.3801C48.6528 70.3337 48.6183 70.3026 48.5863 70.2687L47.8599 70.956ZM48.0088 71.0969C48.0745 71.1663 48.1401 71.2244 48.1882 71.2673L48.8538 70.521C48.8017 70.4746 48.7673 70.4435 48.7352 70.4096L48.0088 71.0969ZM48.1578 71.2378C48.2234 71.3072 48.2891 71.3653 48.3372 71.4082L49.0027 70.6619C48.9507 70.6155 48.9162 70.5844 48.8842 70.5505L48.1578 71.2378ZM48.3067 71.3787C48.3724 71.448 48.438 71.5062 48.4861 71.5491L49.1517 70.8028C49.0997 70.7564 49.0652 70.7253 49.0331 70.6914L48.3067 71.3787ZM48.4557 71.5196C48.5213 71.5889 48.587 71.6471 48.6351 71.69L49.3006 70.9437C49.2486 70.8972 49.2141 70.8661 49.1821 70.8323L48.4557 71.5196ZM48.6047 71.6605C48.6703 71.7298 48.7359 71.788 48.784 71.8309L49.4496 71.0845C49.3976 71.0382 49.3631 71.007 49.331 70.9732L48.6047 71.6605ZM48.7536 71.8014C48.8192 71.8707 48.8849 71.9289 48.933 71.9718L49.5985 71.2254C49.5465 71.179 49.512 71.1479 49.48 71.1141L48.7536 71.8014ZM48.9026 71.9423C48.9682 72.0116 49.0338 72.0698 49.0819 72.1127L49.7475 71.3663C49.6954 71.3199 49.661 71.2888 49.6289 71.255L48.9026 71.9423ZM49.0344 72.0641C49.1039 72.1456 49.1837 72.2096 49.2214 72.2406L49.8571 71.4686C49.8335 71.4492 49.8197 71.4377 49.8079 71.4271C49.7969 71.4172 49.794 71.4137 49.795 71.4149L49.0344 72.0641ZM49.073 71.6739C48.8647 72.2113 48.687 72.774 48.5797 73.3787L49.5643 73.5534C49.6571 73.0308 49.8127 72.5325 50.0054 72.0353L49.073 71.6739ZM48.5797 73.3787C47.9816 76.7481 49.2078 80.011 51.5387 82.1872L52.2212 81.4562C50.1248 79.499 49.0285 76.572 49.5643 73.5534L48.5797 73.3787ZM51.5472 82.1949C51.5463 82.1941 51.597 82.2418 51.7025 82.3414C51.8023 82.4357 51.9422 82.568 52.109 82.7258C52.4425 83.0413 52.883 83.4584 53.3237 83.8755C54.1979 84.7031 55.0896 85.5473 55.1221 85.5763L55.7876 84.8299C55.7885 84.8307 55.7378 84.783 55.6323 84.6833C55.5325 84.5891 55.3926 84.4568 55.2258 84.299C54.8923 83.9834 54.4517 83.5664 54.0111 83.1493C53.1369 82.3217 52.2451 81.4774 52.2127 81.4485L51.5472 82.1949ZM55.1058 85.5611C56.485 86.9056 58.269 87.8682 60.3122 88.2261L60.4848 87.2411C58.6475 86.9193 57.0446 86.0546 55.8039 84.845L55.1058 85.5611ZM60.3122 88.2261L71.5951 90.2025L71.7677 89.2175L60.4848 87.2411L60.3122 88.2261ZM71.5951 90.2025C78.3503 91.3857 85.3191 90.3762 91.4349 87.2917L90.9846 86.3988C85.0632 89.3854 78.313 90.364 71.7677 89.2175L71.5951 90.2025ZM91.4337 87.2924L98.8642 83.5714L98.4164 82.6772L90.9859 86.3982L91.4337 87.2924ZM98.8641 83.5714C101.638 82.183 103.582 79.5821 104.12 76.5516L103.136 76.3768C102.653 79.0942 100.909 81.4293 98.4165 82.6772L98.8641 83.5714ZM104.12 76.5512L109.503 46.1034L108.518 45.9294L103.136 76.3771L104.12 76.5512ZM109.504 46.0999C109.979 43.292 109.26 40.2911 107.212 37.9651L106.461 38.626C108.298 40.7115 108.946 43.4031 108.518 45.9329L109.504 46.0999ZM139.846 46.5785C139.847 46.5793 139.796 46.5321 139.692 46.4331C139.593 46.3395 139.455 46.2081 139.289 46.0514C138.959 45.7381 138.523 45.324 138.086 44.9098C137.221 44.088 136.337 43.2496 136.305 43.2209L135.639 43.9663C135.638 43.9655 135.688 44.0128 135.792 44.1118C135.891 44.2054 136.03 44.3368 136.195 44.4934C136.525 44.8068 136.962 45.2209 137.398 45.6351C138.264 46.4568 139.147 47.2952 139.179 47.324L139.846 46.5785ZM136.322 43.2364C135.385 42.3188 134.169 41.6509 132.762 41.4044L132.589 42.3894C133.787 42.5992 134.822 43.1668 135.622 43.9508L136.322 43.2364ZM132.762 41.4044L123.234 39.7355L123.061 40.7205L132.589 42.3894L132.762 41.4044ZM123.234 39.7355C118.132 38.8419 113.259 42.2251 112.358 47.298L113.343 47.4728C114.146 42.9492 118.496 39.9209 123.061 40.7205L123.234 39.7355ZM112.358 47.298L105.341 86.8322L106.325 87.0069L113.343 47.4728L112.358 47.298ZM105.341 86.8322C104.922 89.1899 105.728 91.3756 107.323 92.756L107.978 91.9997C106.66 90.8595 105.966 89.0326 106.325 87.0069L105.341 86.8322ZM107.317 92.7506C107.316 92.7498 107.367 92.797 107.471 92.896C107.57 92.9896 107.708 93.121 107.874 93.2777C108.204 93.591 108.64 94.0052 109.077 94.4193C109.942 95.2411 110.826 96.0795 110.858 96.1083L111.524 95.3628C111.525 95.3636 111.475 95.3164 111.371 95.2173C111.272 95.1238 111.133 94.9924 110.968 94.8357C110.638 94.5223 110.201 94.1082 109.765 93.694C108.899 92.8723 108.016 92.0339 107.984 92.0051L107.317 92.7506ZM110.85 96.1016C111.821 97.004 113.096 97.5915 114.567 97.6943L114.636 96.6967C113.397 96.6101 112.337 96.1182 111.532 95.3694L110.85 96.1016ZM114.515 97.688L124.043 99.3569L124.215 98.3719L114.688 96.703L114.515 97.688ZM124.043 99.3569C129.145 100.251 134.018 96.8673 134.919 91.7944L133.934 91.6196C133.131 96.1433 128.781 99.1715 124.215 98.3719L124.043 99.3569ZM134.919 91.7944L141.907 52.4262L140.922 52.2514L133.934 91.6196L134.919 91.7944ZM141.907 52.4262C142.296 50.2306 141.441 48.0371 139.852 46.5762L139.175 47.3125C140.537 48.5642 141.246 50.423 140.922 52.2514L141.907 52.4262ZM139.021 46.8569L139.02 46.8638L140.005 47.0387L140.006 47.0318L139.021 46.8569ZM110.917 94.0334L120.539 95.7188L120.711 94.7338L111.09 93.0484L110.917 94.0334ZM120.539 95.7188C125.682 96.6197 130.597 93.2623 131.496 88.1983L130.511 88.0236C129.712 92.5264 125.33 95.5428 120.711 94.7338L120.539 95.7188ZM131.496 88.1983L138.462 48.9524L137.477 48.7777L130.511 88.0236L131.496 88.1983ZM138.462 48.9524C139.075 45.4978 136.592 42.0754 132.942 41.436L132.769 42.421C135.913 42.9716 137.987 45.905 137.477 48.7777L138.462 48.9524ZM132.942 41.436L123.32 39.7506L123.148 40.7356L132.769 42.421L132.942 41.436ZM123.32 39.7506C118.177 38.8497 113.262 42.2071 112.363 47.271L113.348 47.4458C114.147 42.943 118.529 39.9266 123.148 40.7356L123.32 39.7506ZM112.363 47.271L105.367 86.6824L106.352 86.8571L113.348 47.4458L112.363 47.271ZM105.367 86.6824C104.698 90.4511 107.196 93.7582 110.966 94.0395L111.041 93.0423C107.882 92.8066 105.783 90.0636 106.352 86.8571L105.367 86.6824ZM119.873 85.0388C119.538 86.9253 117.725 88.1903 115.818 87.8564L115.646 88.8414C118.09 89.2695 120.425 87.6488 120.858 85.2135L119.873 85.0388ZM115.818 87.8564C113.913 87.5226 112.646 85.7194 112.98 83.8337L111.996 83.659C111.563 86.0951 113.201 88.4131 115.646 88.8414L115.818 87.8564ZM112.98 83.8337C113.315 81.9472 115.128 80.6822 117.035 81.0161L117.207 80.0311C114.764 79.6031 112.428 81.2238 111.996 83.659L112.98 83.8337ZM117.035 81.0161C118.941 81.35 120.208 83.1531 119.873 85.0388L120.858 85.2135C121.29 82.7774 119.652 80.4594 117.207 80.0311L117.035 81.0161ZM44.3767 40.774C42.4861 42.2043 41.0851 44.2857 40.6394 46.7966L41.624 46.9714C42.0218 44.7303 43.2723 42.8634 44.98 41.5715L44.3767 40.774ZM40.6394 46.7966C39.806 51.4918 42.5564 55.9934 46.9253 57.6104L47.2724 56.6725C43.3365 55.2158 40.879 51.169 41.624 46.9714L40.6394 46.7966ZM46.7257 56.8087C45.5715 58.1029 44.7178 59.6992 44.3915 61.5372L45.3761 61.712C45.6665 60.0763 46.4272 58.6459 47.472 57.4742L46.7257 56.8087ZM44.3915 61.5372C43.6295 65.8306 45.8537 69.8944 49.5351 71.827L49.9999 70.9415C46.6772 69.1973 44.6954 65.5472 45.3761 61.712L44.3915 61.5372ZM49.3072 71.1891C49.0326 71.8367 48.8099 72.524 48.6801 73.2557L49.6647 73.4305C49.7789 72.7866 49.9766 72.1721 50.2278 71.5794L49.3072 71.1891ZM48.6801 73.2557C47.7364 78.5721 51.3465 83.63 56.7294 84.5729L56.9019 83.5879C52.0494 82.7379 48.8202 78.1878 49.6647 73.4305L48.6801 73.2557ZM56.7294 84.5729L68.0589 86.5574L68.2314 85.5723L56.9019 83.5879L56.7294 84.5729ZM68.0589 86.5574C74.8408 87.7453 81.8353 86.7443 87.9719 83.6704L87.524 82.7763C81.5817 85.7529 74.8049 86.7238 68.2314 85.5723L68.0589 86.5574ZM87.9706 83.671L95.4268 79.9626L94.9815 79.0672L87.5253 82.7756L87.9706 83.671ZM95.4267 79.9626C98.2095 78.5791 100.16 75.9837 100.697 72.9566L99.7126 72.7818C99.2313 75.4934 97.4834 77.8233 94.9815 79.0672L95.4267 79.9626ZM100.697 72.9563L106.071 42.5574L105.086 42.3833L99.7125 72.7822L100.697 72.9563ZM106.072 42.5538C106.547 39.7491 105.821 36.7514 103.763 34.427L103.014 35.09C104.86 37.1745 105.513 39.8624 105.086 42.3869L106.072 42.5538ZM103.761 34.4244L101.05 31.4066L100.306 32.0748L103.017 35.0926L103.761 34.4244ZM101.051 31.4073C94.3585 23.9291 93.3929 16.9547 92.5904 11.5002C92.192 8.79203 91.8253 6.3603 90.7494 4.48469C89.6417 2.55378 87.8175 1.25779 84.6566 0.704124L84.4841 1.68913C87.415 2.20252 88.951 3.35941 89.8819 4.98227C90.8446 6.66042 91.1946 8.88336 91.6011 11.6458C92.4083 17.1325 93.4049 24.3631 100.306 32.0741L101.051 31.4073ZM84.6566 0.704124C78.3765 -0.395912 73.7382 3.84162 72.8987 8.57101L73.8833 8.74577C74.6346 4.51293 78.7923 0.692154 84.4841 1.68913L84.6566 0.704124ZM72.8987 8.57101C72.6287 10.0922 72.716 13.0176 73.2482 16.527C73.7831 20.0535 74.7754 24.2241 76.3506 28.2517L77.2819 27.8875C75.7382 23.9403 74.7626 19.8434 74.2369 16.3771C73.7086 12.8936 73.6428 10.1008 73.8833 8.74577L72.8987 8.57101ZM76.9025 27.5771L48.6247 22.6239L48.4521 23.6089L76.73 28.5621L76.9025 27.5771ZM48.6247 22.6239C43.2431 21.6813 38.1035 25.2047 37.1599 30.5207L38.1445 30.6954C38.989 25.9376 43.5983 22.7587 48.4521 23.6089L48.6247 22.6239ZM37.1599 30.5207C36.2165 35.8356 39.5633 40.4445 44.5584 41.6654L44.7958 40.694C40.2761 39.5893 37.2998 35.4543 38.1445 30.6954L37.1599 30.5207ZM45.1694 41.2671L45.1707 41.2601L44.186 41.0854L44.1848 41.0923L45.1694 41.2671Z" fill="black"/>
<path fill-rule="evenodd" clip-rule="evenodd" d="M16.9091 64.6762C16.5995 63.6159 17.2079 62.5054 18.2682 62.1958C21.2539 61.3237 27.3348 62.0412 31.4901 69.1394C32.0481 70.0926 31.7277 71.3177 30.7745 71.8757C29.8213 72.4337 28.5963 72.1133 28.0383 71.1601C24.8121 65.6491 20.6184 65.6762 19.3895 66.0352C18.3293 66.3448 17.2188 65.7364 16.9091 64.6762Z" fill="#49E988" stroke="black" stroke-linecap="round" stroke-linejoin="round"/>
<path fill-rule="evenodd" clip-rule="evenodd" d="M150.141 66.9726C149.102 66.9051 148.315 66.0085 148.382 64.9699C148.572 62.0452 151.167 56.8921 158.792 55.5004C159.815 55.3135 160.797 55.992 160.984 57.0158C161.171 58.0397 160.492 59.0212 159.468 59.2081C153.549 60.2885 152.221 64.0106 152.143 65.2144C152.076 66.253 151.179 67.0402 150.141 66.9726Z" fill="#49E988" stroke="black" stroke-linecap="round" stroke-linejoin="round"/>
<path fill-rule="evenodd" clip-rule="evenodd" d="M111.439 19.3093C110.398 19.3326 109.536 18.5079 109.512 17.4674C109.447 14.5373 111.583 9.1776 119.057 7.12672C120.06 6.85132 121.097 7.44168 121.373 8.44533C121.648 9.44899 121.058 10.4859 120.054 10.7613C114.251 12.3536 113.253 16.1771 113.28 17.3832C113.304 18.4237 112.479 19.286 111.439 19.3093Z" fill="#49E988" stroke="black" stroke-linecap="round" stroke-linejoin="round"/>
<path d="M153.5 88C156.5 88 156.5 82 156.5 82C156.5 82 156.5 88 159.5 88C156.5 88 156.5 94 156.5 94C156.5 94 156.5 88 153.5 88Z" fill="#FFF8E5" stroke="black" stroke-linejoin="round"/>
<path d="M26.5 91C30.5 91 30.5 83 30.5 83C30.5 83 30.5 91 34.5 91C30.5 91 30.5 99 30.5 99C30.5 99 30.5 91 26.5 91Z" fill="#FFF8E5" stroke="black" stroke-linejoin="round"/>
<path d="M34.5 9C38 9 38 2 38 2C38 2 38 9 41.5 9C38 9 38 16 38 16C38 16 38 9 34.5 9Z" fill="#FFF8E5" stroke="black" stroke-linejoin="round"/>
<path d="M0.5 42C6.5 42 6.5 30 6.5 30C6.5 30 6.5 42 12.5 42C6.5 42 6.5 54 6.5 54C6.5 54 6.5 42 0.5 42Z" fill="#FFF8E5" stroke="black" stroke-linejoin="round"/>
<path d="M151.5 14C155.5 14 155.5 6 155.5 6C155.5 6 155.5 14 159.5 14C155.5 14 155.5 22 155.5 22C155.5 22 155.5 14 151.5 14Z" fill="#FFF8E5" stroke="black" stroke-linejoin="round"/>
<path d="M170.5 46C174.5 46 174.5 38 174.5 38C174.5 38 174.5 46 178.5 46C174.5 46 174.5 54 174.5 54C174.5 54 174.5 46 170.5 46Z" fill="#FFF8E5" stroke="black" stroke-linejoin="round"/>
</svg>
