<?xml version="1.0" standalone="no"?>
<!DOCTYPE svg PUBLIC "-//W3C//DTD SVG 20010904//EN"
 "http://www.w3.org/TR/2001/REC-SVG-20010904/DTD/svg10.dtd">
<svg version="1.0" xmlns="http://www.w3.org/2000/svg"
 width="868.000000pt" height="868.000000pt" viewBox="0 0 868.000000 868.000000"
 preserveAspectRatio="xMidYMid meet">
<metadata>
Created by potrace 1.14, written by Peter Selinger 2001-2017
</metadata>
<g transform="translate(0.000000,868.000000) scale(0.100000,-0.100000)"
fill="#000000" stroke="none">
<path d="M4090 8544 c-125 -18 -136 -20 -195 -34 -70 -17 -87 -20 -110 -25
-24 -5 -160 -52 -195 -66 -14 -6 -38 -17 -55 -23 -48 -20 -149 -69 -164 -80
-7 -6 -19 -11 -26 -12 -19 -3 -340 -218 -365 -244 -3 -3 -36 -28 -75 -55 -38
-27 -71 -53 -73 -57 -2 -4 -8 -8 -13 -8 -11 0 -92 -60 -97 -72 -2 -5 -9 -8
-15 -8 -7 0 -24 -11 -38 -24 -14 -13 -44 -35 -66 -49 -22 -14 -46 -31 -54 -39
-8 -7 -27 -21 -42 -31 -16 -10 -36 -25 -45 -32 -9 -8 -89 -66 -177 -129 -88
-63 -169 -122 -180 -131 -11 -9 -32 -24 -47 -33 -16 -9 -28 -20 -28 -24 0 -4
-5 -8 -10 -8 -6 0 -16 -5 -23 -10 -11 -10 -124 -93 -186 -138 -14 -9 -46 -33
-72 -52 -26 -19 -57 -42 -69 -50 -30 -21 -150 -108 -180 -130 -14 -10 -128
-93 -255 -184 -126 -91 -237 -172 -245 -179 -8 -8 -25 -19 -37 -26 -12 -6 -27
-17 -35 -23 -7 -7 -57 -46 -111 -87 -108 -81 -280 -247 -342 -328 -21 -29 -43
-53 -47 -53 -4 0 -8 -6 -8 -13 0 -8 -9 -22 -20 -32 -11 -10 -20 -22 -20 -26 0
-5 -8 -18 -18 -29 -18 -22 -54 -80 -74 -120 -7 -14 -15 -27 -18 -30 -3 -3 -14
-23 -25 -45 -11 -22 -24 -43 -30 -47 -5 -4 -7 -8 -2 -8 4 0 -3 -19 -15 -42
-12 -24 -22 -45 -23 -48 0 -3 -17 -48 -37 -100 -20 -52 -40 -111 -43 -130 -4
-19 -12 -41 -17 -47 -6 -7 -8 -13 -5 -13 3 0 -1 -25 -9 -55 -8 -31 -12 -60 -9
-64 3 -5 1 -11 -4 -13 -4 -1 -11 -27 -15 -55 -3 -29 -9 -77 -13 -105 -10 -67
-10 -374 0 -453 4 -33 9 -78 12 -100 9 -80 66 -286 146 -525 44 -135 82 -252
84 -260 2 -8 13 -43 24 -76 12 -34 24 -70 26 -80 3 -11 18 -57 34 -104 16 -47
70 -213 121 -370 50 -157 95 -294 100 -305 4 -11 29 -87 55 -170 26 -82 54
-168 62 -190 8 -22 16 -47 18 -55 2 -8 16 -51 30 -95 15 -44 28 -84 29 -90 2
-5 8 -23 14 -38 7 -16 12 -31 12 -35 0 -4 29 -96 65 -205 36 -108 65 -204 65
-212 0 -8 5 -15 12 -15 6 0 9 -3 5 -6 -3 -4 1 -23 9 -43 8 -20 15 -37 15 -38
-1 -2 -1 -4 0 -5 0 -2 2 -10 4 -18 18 -82 172 -428 210 -469 7 -9 14 -19 14
-24 0 -8 3 -11 90 -132 95 -133 234 -279 361 -380 41 -33 77 -63 78 -67 2 -5
9 -8 16 -8 7 0 21 -8 32 -18 60 -55 393 -232 437 -232 7 0 18 -5 25 -12 7 -7
12 -9 12 -5 0 4 10 2 22 -5 13 -7 25 -13 28 -13 30 -6 77 -19 85 -23 6 -4 15
-7 20 -8 6 -1 28 -6 50 -12 65 -18 145 -32 285 -50 72 -9 3154 -9 3245 0 39 4
81 10 95 13 14 3 39 7 55 9 107 15 333 84 460 141 187 83 394 212 490 305 12
11 24 20 27 20 13 0 193 185 253 260 83 102 135 175 135 189 0 6 3 11 8 11 16
0 129 220 179 350 35 89 120 343 127 375 1 6 4 15 7 20 12 20 79 238 81 263 1
6 5 12 10 12 4 0 8 6 8 13 0 13 99 326 162 510 16 49 31 96 33 105 2 9 13 41
24 70 11 29 20 55 20 57 0 9 122 389 131 410 5 11 18 52 30 90 12 39 24 77 27
85 4 8 7 17 7 20 1 3 5 11 9 18 5 6 6 12 3 12 -3 0 9 39 26 88 16 48 32 94 33
102 2 8 4 15 5 15 1 0 3 9 5 20 2 10 8 28 14 40 9 18 61 177 65 200 1 6 4 15
7 20 4 6 10 24 14 40 10 34 10 35 18 55 18 47 80 253 94 315 12 55 35 187 41
240 14 125 6 459 -13 550 -3 11 -7 31 -9 45 -5 26 -34 158 -40 175 -1 6 -8 30
-15 54 -7 24 -17 55 -23 70 -6 14 -12 29 -13 34 -2 4 -3 8 -5 10 -1 1 -3 9 -5
17 -3 16 -31 80 -73 170 -14 30 -52 99 -83 152 -58 98 -90 144 -186 266 -36
46 -199 209 -258 257 -33 28 -61 53 -63 58 -2 4 -8 7 -13 7 -8 0 -35 20 -64
48 -8 6 -18 12 -24 12 -6 0 -11 5 -11 10 0 6 -6 10 -14 10 -8 0 -16 3 -18 8
-5 12 -86 72 -97 72 -6 0 -11 4 -11 8 0 4 -13 16 -30 25 -16 10 -35 23 -42 30
-27 25 -87 67 -96 67 -6 0 -12 4 -14 8 -3 8 -230 175 -266 197 -9 6 -19 12
-22 15 -3 3 -39 30 -80 60 -41 30 -81 60 -88 67 -7 7 -17 13 -21 13 -5 0 -20
11 -35 25 -15 14 -34 25 -43 25 -9 0 -14 3 -10 6 3 4 -24 27 -61 52 -37 25
-72 51 -79 56 -16 14 -35 29 -55 41 -14 9 -109 78 -231 168 -29 21 -67 47 -84
58 -18 12 -33 25 -33 30 0 5 -6 9 -12 9 -7 0 -26 11 -43 25 -68 54 -196 145
-205 145 -6 0 -10 4 -10 9 0 4 -20 21 -45 37 -25 15 -45 32 -45 36 0 4 -6 8
-13 8 -7 0 -23 10 -37 23 -14 12 -52 40 -85 62 -33 22 -67 47 -76 55 -9 8 -27
23 -40 32 -13 9 -74 52 -135 96 -61 44 -133 92 -160 108 -27 15 -51 31 -54 34
-9 12 -212 110 -226 110 -8 0 -14 4 -14 8 0 5 -6 9 -12 10 -11 1 -166 51 -223
73 -25 9 -153 39 -190 44 -11 2 -33 6 -50 10 -101 21 -447 26 -575 9z"/>
</g>
</svg>
