<?xml version="1.0" standalone="no"?>
<!DOCTYPE svg PUBLIC "-//W3C//DTD SVG 20010904//EN"
 "http://www.w3.org/TR/2001/REC-SVG-20010904/DTD/svg10.dtd">
<svg version="1.0" xmlns="http://www.w3.org/2000/svg"
 width="520.000000pt" height="520.000000pt" viewBox="0 0 520.000000 520.000000"
 preserveAspectRatio="xMidYMid meet">
<metadata>
Created by potrace 1.14, written by Peter Selinger 2001-2017
</metadata>
<g transform="translate(0.000000,520.000000) scale(0.100000,-0.100000)"
fill="#000000" stroke="none">
<path d="M1329 3811 c-16 -16 -29 -39 -29 -50 0 -26 4 -26 -63 4 -99 43 -174
58 -297 59 -206 1 -370 -66 -515 -209 -183 -180 -258 -413 -211 -657 30 -157
102 -285 227 -402 128 -121 274 -182 459 -193 113 -7 228 13 333 57 l68 29 -3
-232 -3 -232 -34 -63 c-41 -75 -94 -125 -170 -161 -47 -22 -70 -26 -146 -26
-76 0 -99 4 -146 26 -143 67 -219 203 -219 391 0 97 -31 112 -213 106 -95 -3
-108 -5 -131 -27 -24 -23 -26 -30 -26 -120 1 -218 71 -391 221 -540 86 -87
156 -132 272 -175 78 -28 90 -30 237 -30 142 0 162 2 235 27 113 38 197 90
284 177 80 80 127 150 168 252 51 126 52 147 53 1085 l0 871 -26 31 -26 31
-135 0 -135 0 -29 -29z m-232 -397 c79 -38 136 -94 174 -172 20 -40 24 -63 24
-147 0 -89 -3 -106 -28 -156 -30 -62 -103 -136 -163 -167 -56 -29 -148 -45
-209 -37 -116 14 -230 97 -283 205 -24 49 -27 67 -27 155 0 85 4 107 23 147
35 71 102 140 168 172 111 54 208 54 321 0z"/>
<path d="M2956 3819 c-17 -14 -26 -30 -26 -50 0 -35 -3 -35 -71 -4 -95 43
-175 59 -299 59 -136 -1 -209 -17 -326 -75 -255 -125 -408 -370 -408 -654 0
-134 18 -207 79 -331 121 -247 379 -404 662 -404 116 0 201 21 352 87 11 5 12
-32 9 -213 -4 -198 -6 -225 -27 -276 -30 -76 -106 -159 -179 -195 -50 -25 -68
-28 -152 -28 -82 0 -103 4 -152 27 -70 33 -138 100 -174 174 -22 46 -28 75
-34 164 -9 154 -4 150 -191 150 l-148 0 -21 -27 c-21 -26 -22 -35 -17 -145 21
-418 328 -718 737 -718 73 0 131 6 182 19 220 56 409 221 494 431 54 133 54
140 54 1096 l0 885 -25 24 c-23 24 -29 25 -158 25 -121 0 -137 -2 -161 -21z
m-259 -391 c69 -25 155 -104 188 -172 33 -69 47 -153 35 -219 -24 -125 -95
-217 -208 -270 -58 -28 -77 -32 -147 -31 -111 1 -182 30 -255 103 -75 75 -102
135 -108 236 -3 65 0 91 18 138 73 194 281 287 477 215z"/>
<path d="M4172 3829 c-74 -9 -147 -32 -214 -65 -46 -23 -47 -23 -53 -4 -3 11
-18 29 -32 40 -23 18 -40 20 -155 20 -124 0 -130 -1 -153 -25 l-25 -24 0
-1164 c0 -1131 1 -1165 19 -1188 18 -23 26 -24 155 -27 l136 -4 30 30 30 30 0
516 0 516 38 -19 c87 -44 165 -63 288 -68 153 -7 239 11 367 75 76 37 108 61
182 136 74 74 99 107 133 176 62 128 77 193 76 340 -1 105 -5 137 -26 202 -91
275 -328 472 -609 508 -92 11 -96 11 -187 -1z m254 -399 c181 -89 253 -296
165 -475 -109 -220 -399 -267 -574 -93 -72 72 -101 143 -102 248 0 71 4 94 26
141 90 191 302 269 485 179z"/>
</g>
</svg>
