<svg width="34" height="34" viewBox="0 0 34 34" fill="none" xmlns="http://www.w3.org/2000/svg">
<path d="M22.2064 11.7969C21.2354 11.3078 20.1972 10.9524 19.1118 10.75C18.9785 11.0094 18.8228 11.3584 18.7154 11.636C17.5616 11.4492 16.4183 11.4492 15.2857 11.636C15.1784 11.3584 15.0191 11.0094 14.8846 10.75C13.798 10.9524 12.7586 11.3091 11.7876 11.7995C9.82915 14.9854 9.29824 18.0923 9.5637 21.155C10.8627 22.1993 12.1215 22.8336 13.3591 23.2487C13.6647 22.796 13.9372 22.3147 14.172 21.8075C13.7248 21.6246 13.2966 21.3989 12.8919 21.1368C12.9993 21.0512 13.1043 20.9617 13.2057 20.8696C15.6739 22.1124 18.3556 22.1124 20.7942 20.8696C20.8969 20.9617 21.0018 21.0512 21.108 21.1368C20.7022 21.4002 20.2727 21.6259 19.8256 21.8088C20.0604 22.3147 20.3317 22.7973 20.6385 23.25C21.8773 22.8349 23.1373 22.2006 24.4362 21.155C24.7477 17.6045 23.9042 14.5262 22.2064 11.7969ZM14.5082 19.2714C13.7673 19.2714 13.1597 18.5268 13.1597 17.6201C13.1597 16.7133 13.7544 15.9674 14.5082 15.9674C15.2621 15.9674 15.8697 16.712 15.8567 17.6201C15.8579 18.5268 15.2621 19.2714 14.5082 19.2714ZM19.4917 19.2714C18.7508 19.2714 18.1432 18.5268 18.1432 17.6201C18.1432 16.7133 18.7378 15.9674 19.4917 15.9674C20.2456 15.9674 20.8532 16.712 20.8402 17.6201C20.8402 18.5268 20.2456 19.2714 19.4917 19.2714Z" fill="#3E33BB"/>
<rect x="0.5" y="0.5" width="33" height="33" rx="16.5" stroke="#3E33BB"/>
</svg>
