<svg width="205" height="204" viewBox="0 0 205 204" fill="none" xmlns="http://www.w3.org/2000/svg">
<g filter="url(#filter0_d_5773_8130)">
<path d="M92.2098 7.68692C98.5186 3.10333 107.061 3.10333 113.37 7.68692L144.362 30.2037C150.671 34.7873 153.31 42.9119 150.901 50.3283L139.063 86.7613C136.653 94.1777 129.742 99.199 121.944 99.199H83.636C75.8379 99.199 68.9267 94.1777 66.517 86.7613L54.6792 50.3283C52.2695 42.9119 54.9093 34.7873 61.2181 30.2037L92.2098 7.68692Z" fill="#FFC400"/>
</g>
<path d="M103.65 88.4386C115.537 86.5979 123.915 77.2134 122.362 67.4777C120.81 57.7421 109.915 51.342 98.0282 53.1827C86.1412 55.0234 77.7633 64.4079 79.3156 74.1436C80.8679 83.8792 91.7626 90.2793 103.65 88.4386Z" fill="#37324C" stroke="#231F20" stroke-width="2" stroke-miterlimit="10"/>
<path d="M93.4018 82.306C95.6987 81.9503 97.0693 78.58 96.4631 74.7783C95.8569 70.9765 93.5035 68.1829 91.2067 68.5386C88.9098 68.8943 87.5393 72.2645 88.1454 76.0663C88.7516 79.868 91.105 82.6616 93.4018 82.306Z" fill="white" stroke="#221F20" stroke-width="2" stroke-miterlimit="10"/>
<path d="M111.504 79.5032C113.801 79.1476 115.172 75.7773 114.566 71.9756C113.959 68.1738 111.606 65.3802 109.309 65.7359C107.012 66.0916 105.642 69.4618 106.248 73.2636C106.854 77.0653 109.208 79.8589 111.504 79.5032Z" fill="white" stroke="#221F20" stroke-width="2" stroke-miterlimit="10"/>
<path d="M77.7503 57.4163C77.7503 57.4163 77.0605 43.776 82.286 39.9784C87.5114 36.1808 110.35 25.114 113.303 25.6959C115.379 26.1048 125.507 32.935 131.338 36.9558C132.41 37.6933 131.751 39.3488 130.455 39.1782L120.801 37.8914L114.425 43.0385L117.719 48.6672L77.7503 57.4163Z" fill="#FFC400"/>
<path d="M77.7503 57.4163C77.7503 57.4163 77.0605 43.776 82.286 39.9784C87.5114 36.1808 110.35 25.114 113.303 25.6959C115.379 26.1048 125.507 32.935 131.338 36.9558C132.41 37.6933 131.751 39.3488 130.455 39.1782L120.801 37.8914L114.425 43.0385L117.719 48.6672L77.7503 57.4163Z" stroke="#231F20" stroke-width="2" stroke-linejoin="round"/>
<path d="M123.789 54.4901C123.615 54.4098 123.432 54.3321 123.251 54.2518L123.305 54.1991L123.356 54.1515C124.504 53.0804 124.331 51.2418 123.015 50.3815C119.283 47.9408 111.034 44.2386 97.2312 46.3782C83.5148 48.5027 76.7063 54.4725 73.8225 57.929C72.7993 59.1556 73.2269 61.0017 74.6929 61.6614L74.8635 61.7542C74.6828 61.9122 74.5046 62.0728 74.3341 62.2283C71.5368 64.7943 72.2393 69.3369 75.6576 71.02L76.131 71.2533C76.131 71.2533 77.6124 72.0033 78.4014 72.4272C78.6737 72.5752 79.0097 72.4924 79.1879 72.2415C79.7071 71.5066 80.9237 69.9941 83.1229 68.3411C86.0194 66.1639 91.2601 63.2918 99.774 61.9724C108.257 60.6581 114.061 61.8044 117.438 62.9984C119.981 63.8963 121.561 64.9574 122.266 65.4992C122.511 65.6873 122.857 65.6647 123.076 65.4465C123.786 64.7341 125.247 63.342 125.247 63.342C128.067 60.7108 127.309 56.118 123.794 54.4876L123.789 54.4901Z" fill="#FFC400" stroke="#231F20" stroke-width="2" stroke-linejoin="round"/>
<path fill-rule="evenodd" clip-rule="evenodd" d="M154.669 158.056C155.904 160.742 157.584 163.28 159.768 165.522C164.935 170.779 171.782 173.419 178.641 173.419C185.5 173.419 191.959 170.938 197.081 165.954C205.391 157.863 207.403 145.083 201.962 134.876C200.784 132.656 199.287 130.619 197.504 128.81C187.329 118.454 170.594 118.261 160.191 128.389C156.087 132.383 153.595 137.402 152.68 142.637C152.646 142.637 152.612 142.631 152.577 142.625C152.543 142.62 152.509 142.614 152.475 142.614H140.071C137.545 142.614 135.499 144.651 135.499 147.166C135.499 149.681 137.545 151.718 140.071 151.718H147.285C145.273 158.978 138.585 164.327 130.663 164.327C125.759 164.327 121.083 162.244 117.803 158.603C114.487 154.916 112.967 150.147 113.527 145.174C114.396 137.39 120.695 131.063 128.502 130.13C133.624 129.516 138.699 131.154 142.426 134.614C144.278 136.332 147.17 136.23 148.885 134.398C150.611 132.565 150.508 129.675 148.668 127.968C142.975 122.654 135.224 120.15 127.428 121.083C119.346 122.05 112.327 126.796 108.2 133.442C107.171 131.769 105.959 130.21 104.576 128.799C99.6492 123.78 93.0531 120.969 85.9998 120.89H85.6912C78.7636 120.89 72.2248 123.541 67.2635 128.378C63.1367 132.395 60.6446 137.436 59.7415 142.716C59.4328 142.648 59.1127 142.614 58.7927 142.614H46.3894C43.863 142.614 41.8168 144.651 41.8168 147.166C41.8168 149.681 43.863 151.718 46.3894 151.718H53.6027C51.5908 158.978 44.9033 164.327 36.9812 164.327C32.077 164.327 27.4015 162.244 24.1207 158.603C20.8055 154.916 19.2851 150.147 19.8452 145.174C20.714 137.39 27.0128 131.063 34.8206 130.13C39.942 129.516 45.0176 131.154 48.7443 134.614C50.5962 136.332 53.4884 136.23 55.2031 134.398C56.9293 132.565 56.8264 129.675 54.9859 127.968C49.2701 122.654 41.531 120.15 33.7232 121.083C27.5044 121.823 21.9258 124.816 17.799 129.174C17.7504 129.169 17.7019 129.162 17.6533 129.156C17.5075 129.137 17.3617 129.117 17.216 129.117H4.57264C2.04625 129.117 0 131.154 0 133.669C0 136.184 1.85192 137.994 4.20682 138.187H10.8943C10.9765 138.187 11.0538 138.197 11.1326 138.207C11.1744 138.212 11.2166 138.217 11.2601 138.221H12.1746C12.1746 138.221 12.1403 138.324 12.1289 138.369C14.0494 138.904 15.4784 140.645 15.4784 142.739C15.4784 145.254 13.4321 147.291 10.9057 147.291H10.6085V147.382H9.20243C6.67605 147.382 4.62979 149.419 4.62979 151.934C4.62979 154.449 6.67605 156.486 9.20243 156.486H12.3233C13.455 159.467 15.1354 162.256 17.3074 164.668C22.3145 170.233 29.4821 173.431 36.9812 173.431C47.9555 173.431 57.3866 166.728 61.3533 157.214C62.5994 160.219 64.417 163.052 66.8405 165.522C72.0076 170.779 78.8551 173.419 85.7141 173.419C92.573 173.419 99.0319 170.938 104.153 165.954C105.731 164.418 107.08 162.711 108.189 160.89C109.012 162.221 109.938 163.496 111.001 164.679C116.008 170.244 123.175 173.442 130.674 173.442C141.317 173.442 150.508 167.126 154.669 158.079V158.056ZM179.8 130.036C175.071 129.719 170.231 131.327 166.581 134.874C159.779 141.486 159.654 152.377 166.295 159.148H166.307C170.835 163.764 177.361 165.291 183.212 163.697C185.951 162.956 188.543 161.532 190.713 159.422C196.143 154.142 197.458 145.789 193.903 139.12C193.125 137.675 192.154 136.344 190.988 135.16C187.899 132.017 183.89 130.306 179.8 130.036ZM97.7744 159.422C95.7024 161.436 93.2464 162.825 90.6448 163.592C84.6977 165.357 77.9838 163.865 73.3564 159.148C70.1442 155.871 68.3951 151.546 68.4523 146.96C68.5094 142.374 70.3499 138.095 73.6422 134.886C76.8888 131.722 81.1642 129.993 85.6911 129.993H85.8969C85.9838 129.994 86.0706 129.995 86.1573 129.998C90.679 130.111 94.9005 131.936 98.0602 135.16C99.2262 136.344 100.198 137.675 100.975 139.12C104.53 145.789 103.216 154.142 97.7858 159.422H97.7744Z" fill="#6D62E6"/>
<path d="M12.1746 138.221H11.2601C11.5573 138.244 11.8432 138.289 12.1176 138.369C12.1404 138.323 12.1519 138.266 12.1633 138.221L12.1746 138.221Z" fill="#6D62E6"/>
<path d="M14.0837 173.259L10.4713 169.572C9.00804 168.081 6.61884 168.058 5.1213 169.515L3.26938 171.313C0.75443 173.759 0.708704 177.777 3.1665 180.28C5.62429 182.784 9.65964 182.829 12.1746 180.383L14.0265 178.584C15.524 177.128 15.5469 174.749 14.0837 173.259Z" fill="#6D62E6"/>
<path fill-rule="evenodd" clip-rule="evenodd" d="M62.5536 184.161H69.9956C75.1284 184.161 78.3407 186.847 78.3407 191.103C78.3407 195.359 75.1284 198.01 69.9956 198.01H66.1317V202.426C66.1317 202.904 65.7431 203.291 65.2629 203.291H62.5536C62.0735 203.291 61.6848 202.904 61.6848 202.426V185.026C61.6848 184.548 62.0735 184.161 62.5536 184.161ZM66.1203 187.769L69.7441 187.769C72.4648 187.769 73.8366 188.998 73.8366 191.103C73.8366 193.104 72.5966 194.283 70.1361 194.394C70.0087 194.4 69.878 194.403 69.7441 194.403H66.1203L66.1203 187.769Z" fill="#6D62E6"/>
<path fill-rule="evenodd" clip-rule="evenodd" d="M95.8881 184.161C96.2311 184.161 96.5397 184.366 96.6769 184.673H96.6655L104.485 202.073C104.748 202.642 104.325 203.291 103.696 203.291H100.941C100.587 203.291 100.278 203.074 100.141 202.756L98.666 199.194H89.7494L88.2747 202.756C88.1375 203.086 87.8288 203.291 87.4745 203.291H84.8338C84.205 203.291 83.7935 202.642 84.045 202.073L91.8299 184.673C91.9671 184.366 92.2757 184.161 92.6187 184.161H95.8881ZM91.1783 195.825H97.2599L97.2715 195.825L94.2193 188.508L91.1783 195.825Z" fill="#6D62E6"/>
<path d="M115.813 189.578C115.813 188.372 116.831 187.393 119.46 187.393C120.889 187.393 122.421 187.746 123.941 188.452C124.399 188.668 124.947 188.486 125.142 188.008L125.873 186.221C126.033 185.823 125.885 185.345 125.496 185.14C123.793 184.264 121.621 183.82 119.494 183.82C114.03 183.82 111.401 186.529 111.401 189.772C111.401 196.873 122.569 194.415 122.569 197.988C122.569 199.16 121.495 200.036 118.866 200.036C116.911 200.036 114.887 199.445 113.321 198.557C112.875 198.307 112.327 198.489 112.11 198.955L111.309 200.719C111.126 201.129 111.286 201.596 111.664 201.823C113.436 202.893 116.145 203.587 118.831 203.587C124.318 203.587 126.982 200.856 126.982 197.658C126.982 190.637 115.813 193.072 115.813 189.544V189.578Z" fill="#6D62E6"/>
<path d="M138.802 189.578C138.802 188.372 139.82 187.393 142.449 187.393C143.878 187.393 145.41 187.746 146.93 188.452C147.387 188.668 147.936 188.486 148.13 188.008L148.862 186.221C149.022 185.823 148.873 185.345 148.485 185.14C146.781 184.264 144.609 183.82 142.483 183.82C137.019 183.82 134.39 186.529 134.39 189.772C134.39 196.873 145.558 194.415 145.558 197.988C145.558 199.16 144.484 200.036 141.854 200.036C139.9 200.036 137.876 199.445 136.31 198.557C135.864 198.307 135.316 198.489 135.098 198.955L134.298 200.719C134.115 201.129 134.275 201.596 134.653 201.823C136.424 202.893 139.134 203.587 141.82 203.587C147.307 203.587 149.971 200.856 149.971 197.658C149.971 190.637 138.802 193.072 138.802 189.544V189.578Z" fill="#6D62E6"/>
<path d="M52.1853 192.867H14.7697C13.8209 192.867 13.055 193.629 13.055 194.574C13.055 195.518 13.8209 196.28 14.7697 196.28H52.1739C53.1227 196.28 53.8886 195.518 53.8886 194.574C53.8886 193.629 53.1227 192.867 52.1739 192.867H52.1853Z" fill="#6D62E6"/>
<path d="M197.709 192.867H160.305C159.356 192.867 158.59 193.629 158.59 194.574C158.59 195.518 159.356 196.28 160.305 196.28H197.709C198.658 196.28 199.424 195.518 199.424 194.574C199.424 193.629 198.658 192.867 197.709 192.867Z" fill="#6D62E6"/>
<defs>
<filter id="filter0_d_5773_8130" x="42.7969" y="4.24902" width="119.986" height="117.95" filterUnits="userSpaceOnUse" color-interpolation-filters="sRGB">
<feFlood flood-opacity="0" result="BackgroundImageFix"/>
<feColorMatrix in="SourceAlpha" type="matrix" values="0 0 0 0 0 0 0 0 0 0 0 0 0 0 0 0 0 0 127 0" result="hardAlpha"/>
<feOffset dy="12"/>
<feGaussianBlur stdDeviation="5.5"/>
<feComposite in2="hardAlpha" operator="out"/>
<feColorMatrix type="matrix" values="0 0 0 0 0 0 0 0 0 0 0 0 0 0 0 0 0 0 0.16 0"/>
<feBlend mode="normal" in2="BackgroundImageFix" result="effect1_dropShadow_5773_8130"/>
<feBlend mode="normal" in="SourceGraphic" in2="effect1_dropShadow_5773_8130" result="shape"/>
</filter>
</defs>
</svg>
