<svg width="143" height="32" viewBox="0 0 143 32" fill="none" xmlns="http://www.w3.org/2000/svg">
<path d="M12.0843 2.016C7.25225 2.016 4.53225 6.464 4.53225 13.088C4.53225 19.104 7.41225 23.232 11.7323 23.232C14.8683 23.232 16.9803 21.44 16.9803 18.272V17.504C16.9803 15.392 16.6603 14.272 15.1562 13.536V13.472H22.5803V13.536C21.0763 14.272 20.7563 15.392 20.7563 17.504V24.32H20.6923L18.0683 20.512C17.1083 22.464 14.6763 24.32 11.4123 24.32C4.91625 24.32 0.21225 19.648 0.21225 13.056C0.21225 6.08 5.49225 1.28 11.9243 1.28C14.6123 1.28 16.3083 2.368 17.3323 2.368C18.3243 2.368 18.9003 1.792 19.4123 1.28L19.6683 8.48H19.6043C18.1643 4.736 15.5403 2.016 12.0843 2.016ZM34.1635 13.312C34.7395 13.088 35.1235 12.544 35.1235 11.84C35.1235 10.88 34.4515 10.272 33.3315 10.272C31.3155 10.272 29.5555 12.96 29.5555 16.416V20.512C29.5555 22.624 30.4515 23.328 32.2435 23.936V24H24.1155V23.936C25.6195 23.232 25.8435 22.624 25.8435 20.512V11.872C25.8435 9.952 25.4915 9.12 23.9555 8.416V8.352H29.5555V13.664C30.2915 10.688 31.8915 8.032 34.7395 8.032C36.5315 8.032 37.8435 9.184 37.8435 10.848C37.8435 12.768 36.4675 13.696 35.2195 13.696C34.7395 13.696 34.3235 13.504 34.1635 13.312ZM46.4838 8.032C51.2518 8.032 53.3958 11.168 53.3958 15.52H42.5158C42.5158 19.68 44.6278 22.496 48.0838 22.496C50.3238 22.496 52.2758 21.344 53.2038 18.88L53.4278 18.976C52.7238 22.4 50.0998 24.32 46.5478 24.32C42.2918 24.32 38.7398 21.344 38.7398 16.192C38.7398 11.328 42.2918 8.032 46.4838 8.032ZM42.5798 14.848H49.6198C49.6198 11.488 49.1078 8.64 46.4518 8.64C44.3718 8.64 42.7078 11.072 42.5798 14.848ZM63.2025 8.032C67.9705 8.032 70.1145 11.168 70.1145 15.52H59.2345C59.2345 19.68 61.3465 22.496 64.8025 22.496C67.0425 22.496 68.9945 21.344 69.9225 18.88L70.1465 18.976C69.4425 22.4 66.8185 24.32 63.2665 24.32C59.0105 24.32 55.4585 21.344 55.4585 16.192C55.4585 11.328 59.0105 8.032 63.2025 8.032ZM59.2985 14.848H66.3385C66.3385 11.488 65.8265 8.64 63.1705 8.64C61.0905 8.64 59.4265 11.072 59.2985 14.848ZM82.136 18.72L82.424 18.752C82.136 21.824 80.856 24.32 77.688 24.32C75.032 24.32 73.304 22.72 73.304 19.424V9.184H71.224V8.928C74.104 8.352 76.056 6.016 76.728 2.848H77.016V8.352H81.944L81.784 9.184H77.016V19.392C77.016 21.344 77.752 22.368 79.128 22.368C80.664 22.368 81.72 21.056 82.136 18.72ZM84.9528 3.04C84.9528 1.728 85.9768 0.735998 87.3208 0.735998C88.6968 0.735998 89.7208 1.728 89.7208 3.04C89.7208 4.352 88.6968 5.344 87.3208 5.344C85.9768 5.344 84.9528 4.352 84.9528 3.04ZM89.3368 8.352V20.512C89.3368 22.624 89.5608 23.232 91.0648 23.936V24H83.8968V23.936C85.4008 23.232 85.6248 22.624 85.6248 20.512V11.872C85.6248 9.952 85.2728 9.12 83.7368 8.416V8.352H89.3368ZM92.5493 8.352H98.1493V12.704C98.9813 9.76 101.029 8.032 103.749 8.032C106.853 8.032 108.773 10.112 108.773 13.6V20.512C108.773 22.624 108.997 23.232 110.501 23.936V24H103.333V23.936C104.837 23.232 105.061 22.624 105.061 20.512V13.728C105.061 11.712 104.261 9.984 102.053 9.984C99.7812 9.984 98.1493 12.064 98.1493 15.488V20.512C98.1493 22.624 98.3733 23.232 99.8773 23.936V24H92.7093V23.936C94.2133 23.232 94.4373 22.624 94.4373 20.512V11.872C94.4373 9.952 94.0853 9.12 92.5493 8.416V8.352ZM119.316 8.576C117.396 8.576 116.532 10.56 116.532 13.28C116.532 15.968 117.396 17.952 119.316 17.952C121.236 17.952 122.1 15.968 122.1 13.28C122.1 10.56 121.236 8.576 119.316 8.576ZM128.372 25.536C128.372 29.312 124.052 31.456 119.06 31.456C115.508 31.456 111.348 30.4 111.348 27.584C111.348 25.824 113.076 24.672 115.764 24.416C113.94 24.16 112.308 23.104 112.308 21.088C112.308 19.36 113.876 18.176 115.572 17.728C113.748 16.768 112.756 15.104 112.756 13.28C112.756 10.336 115.092 8.032 119.316 8.032C121.524 8.032 123.316 8.736 124.436 9.92C125.076 8.864 125.972 7.424 127.508 7.424C128.948 7.424 129.78 8.192 129.78 9.408C129.78 11.104 128.308 11.648 127.06 11.648V11.584C127.444 11.296 127.572 10.944 127.572 10.432C127.572 9.76 127.124 9.248 126.292 9.248C125.588 9.248 125.012 9.728 124.66 10.144C125.46 11.008 125.876 12.064 125.876 13.28C125.876 16.192 123.54 18.496 119.316 18.496C118.004 18.496 116.948 18.304 116.02 17.952C115.22 18.24 114.42 18.816 114.42 19.648C114.42 20.608 115.188 21.056 116.628 21.056H122.292C126.1 21.056 128.372 22.656 128.372 25.536ZM119.028 30.848C122.868 30.848 125.428 29.472 125.428 27.232C125.428 25.312 124.18 24.48 121.844 24.48H117.78C115.476 24.48 114.036 25.44 114.036 27.424C114.036 29.6 116.244 30.848 119.028 30.848ZM135.847 8.64C134.023 8.64 133.031 9.792 133.031 11.168C133.031 12.704 133.735 13.376 136.903 14.176C141.127 15.264 142.695 16.704 142.695 19.424C142.695 22.624 139.911 24.32 136.679 24.32C134.471 24.32 133.063 23.52 132.039 23.52C131.367 23.52 130.983 23.904 130.567 24.32L130.215 18.336H130.279C131.815 21.664 133.767 23.712 136.679 23.712C138.503 23.712 139.943 22.656 139.943 20.768C139.943 18.976 138.279 18.368 135.623 17.728C131.879 16.736 130.439 15.168 130.439 12.576C130.439 9.696 132.935 8.032 135.847 8.032C137.831 8.032 138.887 8.864 140.007 8.864C140.647 8.864 141.127 8.512 141.671 8.032V13.28H141.607C140.391 10.656 138.311 8.64 135.847 8.64Z" fill="black"/>
</svg>
