<svg width="191" height="191" viewBox="0 0 191 191" fill="none" xmlns="http://www.w3.org/2000/svg">
<g clip-path="url(#clip0_5890_12134)">
<circle cx="95.5" cy="95.5" r="95.5" fill="#2E25A0"/>
<path d="M112.288 139.228C112.288 138.434 111.663 137.816 110.857 137.816H80.4189C79.6132 137.816 78.9875 138.434 78.9875 139.228V153.796C78.9875 154.086 79.0065 154.367 79.0349 154.647C79.0349 154.666 79.0349 154.685 79.0349 154.703C79.0349 154.788 79.0539 154.872 79.0823 154.956C79.6985 156.742 86.8743 158.154 95.6522 158.154C104.43 158.154 111.521 156.761 112.212 154.984C112.25 154.881 112.269 154.797 112.269 154.703C112.269 154.675 112.269 154.647 112.269 154.619C112.298 154.348 112.317 154.077 112.317 153.806V139.238L112.288 139.228Z" fill="#EF8A57" stroke="#B05500"/>
<path d="M112.251 138.741C112.251 138.835 112.232 138.919 112.194 139.013C111.502 140.798 104.354 142.192 95.6333 142.192C86.9124 142.192 79.6797 140.78 79.0635 138.994C79.0351 138.91 79.0161 138.826 79.0161 138.741C79.0161 138.723 79.0161 138.704 79.0161 138.685C79.1583 136.806 86.5332 135.291 95.6238 135.291C104.714 135.291 112.004 136.787 112.232 138.648C112.232 138.676 112.232 138.704 112.232 138.732L112.251 138.741Z" fill="#EF8A57" stroke="#B05500"/>
<path d="M108.99 138.742C108.99 138.798 108.98 138.854 108.952 138.901C108.468 139.827 103.966 140.575 98.1263 140.743C97.3206 140.762 96.4959 140.771 95.6428 140.771C95.0361 140.771 94.4294 140.771 93.8417 140.752C87.6327 140.621 82.7793 139.845 82.3243 138.882C82.3054 138.835 82.2959 138.789 82.2959 138.733V138.705C82.4002 137.667 87.6043 136.825 94.2493 136.722C94.7043 136.722 95.1688 136.713 95.6428 136.713C96.2589 136.713 96.8656 136.713 97.4628 136.732C103.861 136.862 108.819 137.685 108.99 138.695C108.99 138.714 108.99 138.723 108.99 138.742Z" fill="#893E1D" stroke="#B05500"/>
<path d="M137.608 71.811C137.693 81.5262 133.759 90.0071 127.493 97.7774C121.588 105.192 113.435 111.99 104.838 118.62H104.819C104.288 119.003 102.714 119.33 100.582 119.527C107.056 105.987 112.497 91.4377 111.966 72.3439C111.691 61.4973 109.549 51.8289 106.231 44.8627C104.62 41.3376 102.743 38.6259 100.676 36.7278C98.771 34.9699 96.7803 33.9881 94.7233 33.932C94.6854 33.932 94.638 33.932 94.6001 33.932C94.7897 33.932 94.9793 33.932 95.1689 33.932C118.63 33.8478 137.608 50.8938 137.608 71.8203V71.811Z" fill="#7E74FF"/>
<path d="M111.957 72.344C112.487 91.4378 107.046 105.997 100.572 119.527C99.188 119.658 97.5576 119.733 95.8134 119.733C94.7232 119.733 93.671 119.704 92.7041 119.648C86.7511 109.746 79.1772 91.6716 78.6463 73.2417C78.2861 62.4886 79.9924 52.6331 82.8552 45.4987C84.2865 41.9735 85.9833 39.0842 87.955 37.0925C89.8698 35.1663 91.8605 34.0817 94.0218 33.9414C94.0313 33.9414 94.0502 33.9414 94.0597 33.9414C94.0786 33.9414 94.0881 33.9414 94.1071 33.9414C94.2682 33.9414 94.4199 33.9414 94.5716 33.9414C94.5716 33.9414 94.5716 33.9414 94.581 33.9414C94.619 33.9414 94.6664 33.9414 94.7043 33.9414C96.7613 33.9975 98.7519 34.9793 100.657 36.7372C102.714 38.6354 104.601 41.347 106.212 44.8722C109.53 51.8383 111.672 61.5068 111.947 72.3534L111.957 72.344Z" fill="#6868F2"/>
<path d="M94.1166 33.9414C94.1166 33.9414 94.0882 33.9414 94.0692 33.9414C94.0597 33.9414 94.0408 33.9414 94.0313 33.9414C91.87 34.0817 89.8794 35.1663 87.9646 37.0925C85.9929 39.0842 84.2961 41.9735 82.8647 45.4987C79.9925 52.6331 78.2957 62.4886 78.6559 73.2417C79.1867 91.6716 86.7607 109.746 92.7137 119.648C89.595 119.48 87.2631 119.059 86.7417 118.545C79.6891 113.954 71.5938 107.278 65.091 99.4512C58.0953 91.1573 52.9954 81.6198 52.9954 72.0822C52.9101 51.4643 71.1483 34.5305 94.1166 33.9414Z" fill="#4A52BA"/>
<path d="M94.5811 33.9315C94.4294 33.9315 94.2683 33.9315 94.1166 33.9315C71.1483 34.53 52.9101 51.4638 52.9954 72.0817C52.9954 81.6193 58.0953 91.1568 65.0815 99.4601C71.5843 107.286 79.6796 113.963 86.7322 118.554C87.2631 119.059 89.595 119.48 92.7042 119.657C93.6711 119.713 94.7233 119.741 95.8134 119.741C97.5576 119.741 99.188 119.667 100.572 119.536C102.714 119.339 104.278 119.012 104.809 118.629H104.828C113.426 111.999 121.569 105.201 127.484 97.7863C133.75 90.016 137.693 81.5351 137.598 71.8199C137.608 50.8841 118.63 33.838 95.1593 33.9222C94.9698 33.9222 94.7802 33.9222 94.5906 33.9222" stroke="#150E45"/>
<path d="M92.7041 119.648C86.7511 109.746 79.1772 91.6716 78.6463 73.2417C78.2861 62.4886 79.9924 52.6331 82.8552 45.4987C84.2865 41.9735 85.9833 39.0842 87.955 37.0925C89.8698 35.1663 91.8605 34.0817 94.0218 33.9414C94.0312 33.9414 94.0502 33.9414 94.0597 33.9414C94.0786 33.9414 94.0881 33.9414 94.1071 33.9414C94.145 33.9414 94.1829 33.9414 94.2208 33.9414C94.3346 33.9414 94.4578 33.9414 94.5716 33.9414C94.5716 33.9414 94.5716 33.9414 94.581 33.9414C94.619 33.9414 94.6664 33.9414 94.7043 33.9414C96.7613 33.9975 98.7519 34.9793 100.657 36.7372C102.714 38.6354 104.601 41.347 106.212 44.8722C109.53 51.8383 111.672 61.5068 111.947 72.3534C112.478 91.4472 107.037 106.006 100.562 119.536" stroke="#150E45" stroke-linecap="round"/>
<path d="M86.7321 118.555L82.3242 138.883" stroke="#452100"/>
<path d="M104.819 118.619L108.989 138.685" stroke="#452100"/>
<path d="M90.941 119.555L89.4812 140.285" stroke="#452100" stroke-linecap="round"/>
<path d="M100.705 119.555L102.164 140.285" stroke="#452100" stroke-linecap="round"/>
<path d="M105.321 64.0212C99.9463 58.7195 91.2633 58.7195 85.8885 64.0212C80.5137 69.323 80.5137 77.8881 85.8885 83.1898L90.2774 87.5191C90.8177 88.0521 91.5287 88.3139 92.3344 88.3139H98.8751C99.6809 88.3139 100.401 88.0521 100.932 87.5191L105.321 83.1898C110.696 77.8881 110.696 69.323 105.321 64.0212ZM95.6522 80.0106C92.1638 80.0106 89.2916 77.1868 89.2916 73.7364C89.2916 70.2861 92.1543 67.4622 95.6522 67.4622C99.15 67.4622 102.013 70.2861 102.013 73.7364C102.013 77.1868 99.15 80.0106 95.6522 80.0106Z" fill="white" stroke="#100A37"/>
<path d="M95.6522 100.674C93.5952 100.674 91.8889 99.0007 91.8889 96.9622V94.5779C91.8889 93.9607 92.4292 93.4277 93.0549 93.4277H98.2495C98.8752 93.4277 99.4155 93.9607 99.4155 94.5779V96.9622C99.4155 98.9913 97.7187 100.674 95.6522 100.674Z" fill="white" stroke="#100A37"/>
</g>
<defs>
<clipPath id="clip0_5890_12134">
<rect width="191" height="191" fill="white"/>
</clipPath>
</defs>
</svg>
