<svg width="43" height="43" viewBox="0 0 43 43" fill="none" xmlns="http://www.w3.org/2000/svg">
<circle cx="21.5" cy="7.16667" r="6.16667" stroke="white" stroke-width="2"/>
<circle cx="35.8333" cy="21.5007" r="6.16667" stroke="white" stroke-width="2"/>
<circle cx="7.16667" cy="21.5007" r="6.16667" stroke="white" stroke-width="2"/>
<path d="M26.875 8.20952C28.6074 8.9092 30.2308 9.96125 31.6352 11.3657C33.1411 12.8716 34.2419 14.6292 34.9375 16.5031M34.7913 26.8759C34.0917 28.6083 33.0396 30.2316 31.6352 31.6361C30.2308 33.0405 28.6074 34.0925 26.875 34.7922M16.125 34.7922C14.3926 34.0925 12.7692 33.0405 11.3648 31.6361C9.96039 30.2316 8.90834 28.6083 8.20866 26.8759M8.20866 16.1258C8.90834 14.3934 9.96039 12.7701 11.3648 11.3657C12.7692 9.96125 14.3926 8.9092 16.125 8.20952" stroke="white" stroke-width="2"/>
<circle cx="21.5" cy="35.8327" r="6.16667" stroke="white" stroke-width="2"/>
</svg>
