<svg width="74" height="18" viewBox="0 0 74 18" fill="none" xmlns="http://www.w3.org/2000/svg">
<g clip-path="url(#clip0_6051_5043)">
<path d="M47.4563 9.01298L49.2792 7.159L46.441 4.24896L44.6181 6.10294L43.8105 5.28156L45.6334 3.42758L42.7722 0.541016L39.934 3.42758L41.7569 5.28156L40.9493 6.10294L39.1264 4.24896L36.2651 7.159L38.088 9.01298L36.2651 10.867L39.1264 13.777L40.9493 11.923L41.7569 12.7209L39.934 14.5749L42.7722 17.4849L45.6334 14.5749L43.8105 12.7209L44.6181 11.923L46.441 13.777L49.2792 10.867L47.4563 9.01298ZM46.441 6.33762L47.2255 7.159L46.441 7.95691L45.6334 7.159L46.441 6.33762ZM45.4026 9.01298L44.595 9.81089L43.8105 9.01298L44.595 8.1916L45.4026 9.01298ZM41.9876 3.42758L42.7722 2.62967L43.5798 3.42758L42.7722 4.24896L41.9876 3.42758ZM42.7722 6.33762L43.5798 7.159L42.7722 7.95691L41.9876 7.159L42.7722 6.33762ZM41.7569 9.01298L40.9493 9.81089L40.1417 9.01298L40.9493 8.1916L41.7569 9.01298ZM38.3188 7.159L39.1264 6.33762L39.934 7.159L39.1264 7.95691L38.3188 7.159ZM39.1264 11.6883L38.3188 10.867L39.1264 10.0456L39.934 10.867L39.1264 11.6883ZM43.5798 14.5984L42.7722 15.3963L41.9876 14.5984L42.7722 13.777L43.5798 14.5749V14.5984ZM42.7722 11.6883L41.9876 10.867L42.7722 10.0456L43.5798 10.867L42.7722 11.6883ZM46.441 11.6883L45.6334 10.867L46.441 10.0456L47.2255 10.867L46.441 11.6883Z" fill="#8E84EA"/>
<path d="M43.8105 5.30502L44.595 6.10294L46.4179 4.24896L49.2792 7.159L47.4563 9.01298L49.2792 10.867L46.4179 13.7535L44.6181 11.8995L43.8105 12.7209L45.6334 14.5749L42.7722 17.4849L39.934 14.5749L41.7569 12.7209L40.9493 11.8995L39.1264 13.7535L36.2651 10.867L38.088 9.01298L36.2651 7.159L39.1264 4.24896L40.9493 6.10294L41.7569 5.28156L39.934 3.42758L42.7722 0.541016L45.6334 3.42758L43.8105 5.28156V5.30502ZM40.6031 3.45105L43.9259 6.80698L44.272 6.45496L41.2954 3.42758L42.7722 1.92563L44.272 3.42758L43.1183 4.60098L43.4644 4.953L44.9412 3.42758L42.7722 1.22159L40.6031 3.42758V3.45105ZM42.7722 2.62967L41.9876 3.45105L42.7722 4.24896L43.5798 3.42758L42.7722 2.62967ZM43.1183 8.30894L43.4644 8.66096L46.441 5.63358L47.9178 7.159L46.764 8.30894L47.1102 8.66096L48.5869 7.159L46.4179 4.953L43.1183 8.30894ZM36.9574 7.159L40.2801 10.5149L40.6031 10.1629L37.6496 7.159L39.1264 5.63358L40.2801 6.80698L40.6031 6.45496L39.1264 4.953L36.9574 7.159ZM42.103 5.63358L39.4725 8.30894L39.8186 8.66096L42.426 5.9856L42.103 5.63358ZM45.6334 7.159L46.441 7.95691L47.2255 7.159L46.441 6.33762L45.6334 7.159ZM38.3188 7.159L39.1264 7.95691L39.934 7.159L39.1264 6.33762L38.3188 7.159ZM41.9876 7.159L42.7722 7.95691L43.5798 7.159L42.7722 6.33762L41.9876 7.159ZM41.2954 7.83957L43.9259 10.5149L44.2489 10.1629L41.6646 7.51102L41.3185 7.83957H41.2954ZM44.9412 7.83957L47.9178 10.867L46.441 12.3689L45.2873 11.219L44.9412 11.571L46.4179 13.073L48.61 10.867L45.2873 7.51102L44.9412 7.83957ZM40.1647 9.01298L40.9493 9.81089L41.7569 9.01298L40.9493 8.1916L40.1417 9.01298H40.1647ZM44.6181 8.1916L43.8105 9.01298L44.6181 9.81089L45.4026 9.01298L44.6181 8.1916ZM36.9574 10.867L39.1264 13.073L42.426 9.71702L42.103 9.365L39.1264 12.3689L37.6496 10.867L38.7803 9.71702L38.4341 9.365L36.9574 10.867ZM43.1183 12.0404L43.4644 12.3689L46.0949 9.71702L45.7488 9.365L43.1183 12.0169V12.0404ZM38.3188 10.867L39.1264 11.6883L39.934 10.867L39.1264 10.0456L38.3188 10.867ZM41.9876 10.867L42.7722 11.6883L43.5798 10.867L42.7722 10.0456L41.9876 10.867ZM46.441 11.6883L47.2255 10.867L46.441 10.0456L45.6334 10.867L46.441 11.6883ZM41.2954 11.571L44.272 14.5749L42.7722 16.1003L41.2954 14.5749L42.4491 13.425L42.103 13.073L40.6031 14.5749L42.7722 16.7809L44.9412 14.5749L41.6415 11.219L41.2954 11.571ZM42.7722 15.3963L43.5798 14.5749L42.7722 13.777L41.9876 14.5749L42.7722 15.3963Z" fill="#8E84EA"/>
<path d="M51.4673 17.4849C51.3087 17.4849 51.2294 17.4043 51.2294 17.2429V0.783072C51.2294 0.621701 51.3087 0.541016 51.4673 0.541016H56.9888C58.5119 0.541016 59.7178 0.952512 60.6064 1.7755C61.495 2.58235 61.9392 3.68775 61.9392 5.09168V12.9343C61.9392 14.3382 61.495 15.4517 60.6064 16.2747C59.7178 17.0815 58.5119 17.4849 56.9888 17.4849H51.4673ZM52.4906 16.2505C52.4906 16.315 52.5225 16.3473 52.5859 16.3473H57.0603C58.1709 16.3473 59.0436 16.0326 59.6781 15.4033C60.3288 14.7578 60.662 13.8864 60.6777 12.7891V5.2369C60.6777 4.13958 60.3526 3.27626 59.7021 2.64691C59.0673 2.00142 58.1868 1.67868 57.0603 1.67868H52.5859C52.5225 1.67868 52.4906 1.71095 52.4906 1.7755V16.2505Z" fill="#8E84EA"/>
<path d="M63.7044 17.4849C63.5457 17.4849 63.4663 17.4043 63.4663 17.2429V16.4683C63.4663 16.3876 63.4982 16.2827 63.5616 16.1537L72.5341 1.79971C72.5498 1.78357 72.5498 1.75937 72.5341 1.72709C72.5182 1.69482 72.4945 1.67868 72.4626 1.67868H63.7044C63.5457 1.67868 63.4663 1.59799 63.4663 1.43662V0.783072C63.4663 0.621701 63.5457 0.541016 63.7044 0.541016H73.7479C73.9064 0.541016 73.9858 0.621701 73.9858 0.783072V1.55765C73.9858 1.63834 73.9541 1.74323 73.8907 1.87233L64.9419 16.2263C64.926 16.2424 64.926 16.2666 64.9419 16.2989C64.9578 16.3312 64.9816 16.3473 65.0132 16.3473H73.7479C73.9064 16.3473 73.9858 16.428 73.9858 16.5893V17.2429C73.9858 17.4043 73.9064 17.4849 73.7479 17.4849H63.7044Z" fill="#8E84EA"/>
<path d="M33.0766 0.783072C33.0766 0.621701 33.156 0.541016 33.3147 0.541016H34.1002C34.2587 0.541016 34.3381 0.621701 34.3381 0.783072V17.2429C34.3381 17.4043 34.2587 17.4849 34.1002 17.4849H33.3147C33.2035 17.4849 33.1084 17.4285 33.0291 17.3155L24.4135 3.10682C24.3978 3.0584 24.3738 3.04226 24.3422 3.0584C24.3104 3.0584 24.2947 3.0826 24.2947 3.13101V17.2429C24.2947 17.4043 24.2153 17.4849 24.0565 17.4849H23.2713C23.1126 17.4849 23.0332 17.4043 23.0332 17.2429V0.783072C23.0332 0.621701 23.1126 0.541016 23.2713 0.541016H24.0803C24.1915 0.541016 24.2866 0.597496 24.366 0.710455L32.9578 14.9192C32.9735 14.9676 32.9975 14.9918 33.0291 14.9918C33.0609 14.9756 33.0766 14.9434 33.0766 14.8949V0.783072Z" fill="#8E84EA"/>
<mask id="mask0_6051_5043" style="mask-type:luminance" maskUnits="userSpaceOnUse" x="0" y="0" width="15" height="18">
<path d="M14.5761 0.00195312H0.0161133V17.9785H14.5761V0.00195312Z" fill="white"/>
</mask>
<g mask="url(#mask0_6051_5043)">
<path d="M11.9687 9.01298L13.7916 7.159L10.9534 4.24896L9.13056 6.10294L8.32295 5.28156L10.1458 3.42758L7.2846 0.541016L4.44643 3.42758L6.26932 5.28156L5.46171 6.10294L3.63882 4.24896L0.777588 7.159L2.60047 9.01298L0.777588 10.867L3.63882 13.777L5.46171 11.923L6.26932 12.7209L4.44643 14.5749L7.2846 17.4849L10.1458 14.5749L8.32295 12.7209L9.13056 11.923L10.9534 13.777L13.7916 10.867L11.9687 9.01298ZM10.9534 6.33762L11.738 7.159L10.9534 7.95691L10.1458 7.159L10.9534 6.33762ZM9.91509 9.01298L9.10749 9.81089L8.32295 9.01298L9.10749 8.1916L9.91509 9.01298ZM6.50006 3.42758L7.2846 2.62967L8.09221 3.42758L7.2846 4.24896L6.50006 3.42758ZM7.2846 6.33762L8.09221 7.159L7.2846 7.95691L6.50006 7.159L7.2846 6.33762ZM6.26932 9.01298L5.46171 9.81089L4.6541 9.01298L5.46171 8.1916L6.26932 9.01298ZM2.83121 7.159L3.63882 6.33762L4.44643 7.159L3.63882 7.95691L2.83121 7.159ZM3.63882 11.6883L2.83121 10.867L3.63882 10.0456L4.44643 10.867L3.63882 11.6883ZM8.09221 14.5984L7.2846 15.3963L6.50006 14.5984L7.2846 13.777L8.09221 14.5749V14.5984ZM7.2846 11.6883L6.50006 10.867L7.2846 10.0456L8.09221 10.867L7.2846 11.6883ZM10.9534 11.6883L10.1458 10.867L10.9534 10.0456L11.738 10.867L10.9534 11.6883Z" fill="#8E84EA"/>
<path d="M8.32295 5.30502L9.10749 6.10294L10.9304 4.24896L13.7916 7.159L11.9687 9.01298L13.7916 10.867L10.9304 13.7535L9.13056 11.8995L8.32295 12.7209L10.1458 14.5749L7.2846 17.4849L4.44643 14.5749L6.26932 12.7209L5.46171 11.8995L3.63882 13.7535L0.777588 10.867L2.60047 9.01298L0.777588 7.159L3.63882 4.24896L5.46171 6.10294L6.26932 5.28156L4.44643 3.42758L7.2846 0.541016L10.1458 3.42758L8.32295 5.28156V5.30502ZM5.11559 3.45105L8.43832 6.80698L8.78444 6.45496L5.80783 3.42758L7.2846 1.92563L8.78444 3.42758L7.63072 4.60098L7.97683 4.953L9.4536 3.42758L7.2846 1.22159L5.11559 3.42758V3.45105ZM7.2846 2.62967L6.50006 3.45105L7.2846 4.24896L8.09221 3.42758L7.2846 2.62967ZM7.63072 8.30894L7.97683 8.66096L10.9534 5.63358L12.4302 7.159L11.2765 8.30894L11.6226 8.66096L13.0994 7.159L10.9304 4.953L7.63072 8.30894ZM1.46982 7.159L4.79255 10.5149L5.11559 10.1629L2.16206 7.159L3.63882 5.63358L4.79255 6.80698L5.11559 6.45496L3.63882 4.953L1.46982 7.159ZM6.61544 5.63358L3.98494 8.30894L4.33106 8.66096L6.93848 5.9856L6.61544 5.63358ZM10.1458 7.159L10.9534 7.95691L11.738 7.159L10.9534 6.33762L10.1458 7.159ZM2.83121 7.159L3.63882 7.95691L4.44643 7.159L3.63882 6.33762L2.83121 7.159ZM6.50006 7.159L7.2846 7.95691L8.09221 7.159L7.2846 6.33762L6.50006 7.159ZM5.80783 7.83957L8.43832 10.5149L8.76137 10.1629L6.17702 7.51102L5.8309 7.83957H5.80783ZM9.4536 7.83957L12.4302 10.867L10.9534 12.3689L9.79972 11.219L9.4536 11.571L10.9304 13.073L13.1225 10.867L9.79972 7.51102L9.4536 7.83957ZM4.67718 9.01298L5.46171 9.81089L6.26932 9.01298L5.46171 8.1916L4.6541 9.01298H4.67718ZM9.13056 8.1916L8.32295 9.01298L9.13056 9.81089L9.91509 9.01298L9.13056 8.1916ZM1.46982 10.867L3.63882 13.073L6.93848 9.71702L6.61544 9.365L3.63882 12.3689L2.16206 10.867L3.2927 9.71702L2.94659 9.365L1.46982 10.867ZM7.63072 12.0404L7.97683 12.3689L10.6073 9.71702L10.2612 9.365L7.63072 12.0169V12.0404ZM2.83121 10.867L3.63882 11.6883L4.44643 10.867L3.63882 10.0456L2.83121 10.867ZM6.50006 10.867L7.2846 11.6883L8.09221 10.867L7.2846 10.0456L6.50006 10.867ZM10.9534 11.6883L11.738 10.867L10.9534 10.0456L10.1458 10.867L10.9534 11.6883ZM5.80783 11.571L8.78444 14.5749L7.2846 16.1003L5.80783 14.5749L6.96155 13.425L6.61544 13.073L5.11559 14.5749L7.2846 16.7809L9.4536 14.5749L6.15395 11.219L5.80783 11.571ZM7.2846 15.3963L8.09221 14.5749L7.2846 13.777L6.50006 14.5749L7.2846 15.3963Z" fill="#8E84EA"/>
</g>
<mask id="mask1_6051_5043" style="mask-type:luminance" maskUnits="userSpaceOnUse" x="7" y="0" width="15" height="18">
<path d="M7.30765 0.00195312H21.8677V17.9785H7.30765V0.00195312Z" fill="white"/>
</mask>
<g mask="url(#mask1_6051_5043)">
<path d="M9.91505 9.01298L8.09216 7.159L10.9303 4.24896L12.7532 6.10294L13.5608 5.28156L11.7379 3.42758L14.5992 0.541016L17.4373 3.42758L15.6145 5.28156L16.4221 6.10294L18.245 4.24896L21.1062 7.159L19.2833 9.01298L21.1062 10.867L18.245 13.777L16.4221 11.923L15.6145 12.7209L17.4373 14.5749L14.5992 17.4849L11.7379 14.5749L13.5608 12.7209L12.7532 11.923L10.9303 13.777L8.09216 10.867L9.91505 9.01298ZM10.9303 6.33762L10.1458 7.159L10.9303 7.95691L11.7379 7.159L10.9303 6.33762ZM11.9687 9.01298L12.7763 9.81089L13.5608 9.01298L12.7763 8.1916L11.9687 9.01298ZM15.3837 3.42758L14.5992 2.62967L13.7916 3.42758L14.5992 4.24896L15.3837 3.42758ZM14.5992 6.33762L13.7916 7.159L14.5992 7.95691L15.3837 7.159L14.5992 6.33762ZM15.6145 9.01298L16.4221 9.81089L17.2297 9.01298L16.4221 8.1916L15.6145 9.01298ZM19.0526 7.159L18.245 6.33762L17.4373 7.159L18.245 7.95691L19.0526 7.159ZM18.245 11.6883L19.0526 10.867L18.245 10.0456L17.4373 10.867L18.245 11.6883ZM13.7916 14.5984L14.5992 15.3963L15.3837 14.5984L14.5992 13.777L13.7916 14.5749V14.5984ZM14.5992 11.6883L15.3837 10.867L14.5992 10.0456L13.7916 10.867L14.5992 11.6883ZM10.9303 11.6883L11.7379 10.867L10.9303 10.0456L10.1458 10.867L10.9303 11.6883Z" fill="#8E84EA"/>
<path d="M13.5608 5.30502L12.7763 6.10294L10.9534 4.24896L8.09216 7.159L9.91505 9.01298L8.09216 10.867L10.9534 13.7535L12.7532 11.8995L13.5608 12.7209L11.7379 14.5749L14.5992 17.4849L17.4373 14.5749L15.6145 12.7209L16.4221 11.8995L18.245 13.7535L21.1062 10.867L19.2833 9.01298L21.1062 7.159L18.245 4.24896L16.4221 6.10294L15.6145 5.28156L17.4373 3.42758L14.5992 0.541016L11.7379 3.42758L13.5608 5.28156V5.30502ZM16.7682 3.45105L13.4455 6.80698L13.0993 6.45496L16.0759 3.42758L14.5992 1.92563L13.0993 3.42758L14.2531 4.60098L13.9069 4.953L12.4302 3.42758L14.5992 1.22159L16.7682 3.42758V3.45105ZM14.5992 2.62967L15.3837 3.45105L14.5992 4.24896L13.7916 3.42758L14.5992 2.62967ZM14.2531 8.30894L13.9069 8.66096L10.9303 5.63358L9.45356 7.159L10.6073 8.30894L10.2612 8.66096L8.7844 7.159L10.9534 4.953L14.2531 8.30894ZM20.414 7.159L17.0912 10.5149L16.7682 10.1629L19.7217 7.159L18.245 5.63358L17.0912 6.80698L16.7682 6.45496L18.245 4.953L20.414 7.159ZM15.2683 5.63358L17.8988 8.30894L17.5527 8.66096L14.9453 5.9856L15.2683 5.63358ZM11.7379 7.159L10.9303 7.95691L10.1458 7.159L10.9303 6.33762L11.7379 7.159ZM19.0526 7.159L18.245 7.95691L17.4373 7.159L18.245 6.33762L19.0526 7.159ZM15.3837 7.159L14.5992 7.95691L13.7916 7.159L14.5992 6.33762L15.3837 7.159ZM16.0759 7.83957L13.4455 10.5149L13.1224 10.1629L15.7068 7.51102L16.0529 7.83957H16.0759ZM12.4302 7.83957L9.45356 10.867L10.9303 12.3689L12.0841 11.219L12.4302 11.571L10.9534 13.073L8.76132 10.867L12.0841 7.51102L12.4302 7.83957ZM17.2066 9.01298L16.4221 9.81089L15.6145 9.01298L16.4221 8.1916L17.2297 9.01298H17.2066ZM12.7532 8.1916L13.5608 9.01298L12.7532 9.81089L11.9687 9.01298L12.7532 8.1916ZM20.414 10.867L18.245 13.073L14.9453 9.71702L15.2683 9.365L18.245 12.3689L19.7217 10.867L18.5911 9.71702L18.9372 9.365L20.414 10.867ZM14.2531 12.0404L13.9069 12.3689L11.2764 9.71702L11.6226 9.365L14.2531 12.0169V12.0404ZM19.0526 10.867L18.245 11.6883L17.4373 10.867L18.245 10.0456L19.0526 10.867ZM15.3837 10.867L14.5992 11.6883L13.7916 10.867L14.5992 10.0456L15.3837 10.867ZM10.9303 11.6883L10.1458 10.867L10.9303 10.0456L11.7379 10.867L10.9303 11.6883ZM16.0759 11.571L13.0993 14.5749L14.5992 16.1003L16.0759 14.5749L14.9222 13.425L15.2683 13.073L16.7682 14.5749L14.5992 16.7809L12.4302 14.5749L15.7298 11.219L16.0759 11.571ZM14.5992 15.3963L13.7916 14.5749L14.5992 13.777L15.3837 14.5749L14.5992 15.3963Z" fill="#8E84EA"/>
<path d="M9.13869 6.1218L9.10535 6.08789L8.77012 6.42883L8.80346 6.46274L9.13869 6.1218Z" fill="#8E84EA"/>
<path d="M8.46303 6.81906L8.42969 6.78516L8.0818 7.13898L8.11514 7.17288L8.46303 6.81906Z" fill="#8E84EA"/>
<path d="M9.46795 7.16933L9.12024 6.81445L8.41784 7.52634L8.76555 7.88122L9.46795 7.16933Z" fill="#8E84EA"/>
<path d="M10.9811 4.26684L10.9474 4.23242L9.10489 6.09981L9.13862 6.13423L10.9811 4.26684Z" fill="#8E84EA"/>
<path d="M9.81729 7.51971L9.45801 7.1543L7.98719 8.6502L8.34648 9.01561L9.81729 7.51971Z" fill="#8E84EA"/>
<path d="M11.2983 4.60056L10.9529 4.24805L7.29244 7.95794L7.63784 8.31046L11.2983 4.60056Z" fill="#8E84EA"/>
<path d="M10.3971 10.6123L10.0504 10.2598L7.97663 12.3689L8.32327 12.7215L10.3971 10.6123Z" fill="#8E84EA"/>
<path d="M9.4782 7.86697L9.12463 8.22656L11.7259 10.8722L12.0794 10.5126L9.4782 7.86697Z" fill="#8E84EA"/>
<path d="M9.84941 7.5408L9.49585 7.90039L12.0803 10.5289L12.4338 10.1693L9.84941 7.5408Z" fill="#8E84EA"/>
<path d="M10.157 7.14627L9.80347 7.50586L12.4251 10.1722L12.7786 9.81257L10.157 7.14627Z" fill="#8E84EA"/>
<path d="M9.14207 11.1878L8.79419 10.834L8.42202 11.2125L8.7699 11.5663L9.14207 11.1878Z" fill="#8E84EA"/>
<path d="M8.44865 11.1923L8.10974 10.8477L8.08482 10.873L8.42374 11.2177L8.44865 11.1923Z" fill="#8E84EA"/>
</g>
</g>
<defs>
<clipPath id="clip0_6051_5043">
<rect width="74" height="18" fill="white"/>
</clipPath>
</defs>
</svg>
