<?xml version="1.0" encoding="UTF-8" standalone="no"?>
<!-- Created with Inkscape (http://www.inkscape.org/) -->

<svg
   width="91.81031mm"
   height="29.867979mm"
   viewBox="0 0 91.81031 29.867979"
   version="1.1"
   id="svg1"
   xmlns:inkscape="http://www.inkscape.org/namespaces/inkscape"
   xmlns:sodipodi="http://sodipodi.sourceforge.net/DTD/sodipodi-0.dtd"
   xmlns="http://www.w3.org/2000/svg"
   xmlns:svg="http://www.w3.org/2000/svg">
  <sodipodi:namedview
     id="namedview1"
     pagecolor="#ffffff"
     bordercolor="#000000"
     borderopacity="0.25"
     inkscape:showpageshadow="2"
     inkscape:pageopacity="0.0"
     inkscape:pagecheckerboard="0"
     inkscape:deskcolor="#d1d1d1"
     inkscape:document-units="mm"
     inkscape:clip-to-page="false" />
  <defs
     id="defs1" />
  <g
     inkscape:label="Layer 1"
     inkscape:groupmode="layer"
     id="layer1"
     transform="translate(-58.47292,-133.61459)">
    <path
       d="m 76.535574,133.91621 c -1.04775,0 -1.825625,0.61913 -1.825625,1.61925 0,1.25413 1.127125,1.68275 2.428875,2.11138 1.74625,0.55562 3.794125,1.15887 3.794125,3.84175 0,2.25425 -2.00025,3.556 -4.365625,3.556 -1.30175,0 -2.206625,-0.42863 -2.88925,-0.42863 -0.4445,0 -0.777875,0.15875 -1.143,0.42863 l -0.301625,-3.71475 h 0.03175 c 1.0795,2.032 2.714625,3.41312 4.28625,3.41312 1.285875,0 2.06375,-0.635 2.06375,-1.778 0,-1.524 -1.5875,-1.87325 -3.175,-2.42887 -1.55575,-0.52388 -3.127375,-1.23825 -3.127375,-3.46075 0,-2.11138 1.666875,-3.46075 4.22275,-3.46075 1.17475,0 2.00025,0.42862 2.667,0.42862 0.381,0 0.6985,-0.22225 0.9525,-0.42862 l 0.0635,3.19087 h -0.03175 c -1.031875,-1.7145 -2.016125,-2.88925 -3.65125,-2.88925 z m 10.839185,7.747 v -2.90512 c 0,-1.11125 -0.0635,-1.27 -0.809625,-1.73038 v -0.0318 h 3.984625 v 6.19125 c 0,1.03188 0.07937,1.2065 0.746125,1.66688 v 0.0317 h -3.921125 v -2.06375 c -0.365125,1.42875 -1.36525,2.2225 -2.714625,2.2225 -1.762125,0 -2.524125,-1.28588 -2.524125,-2.76225 v -3.52425 c 0,-1.11125 -0.07937,-1.27 -0.809625,-1.73038 v -0.0318 h 3.984625 v 5.41338 c 0,0.61912 0.3175,1.143 0.936625,1.143 0.66675,0 1.127125,-0.53975 1.127125,-1.88913 z m 9.07415,-4.55612 c -1.031875,0 -1.444625,1.397 -1.444625,3.19087 0,2.17488 0.904875,3.302 2.397125,3.302 0.8255,0 1.603375,-0.36512 2.0955,-1.27 l 0.111125,0.0476 c -0.47625,1.68275 -1.952625,2.667 -3.730625,2.667 -2.25425,0 -4.15925,-1.49225 -4.15925,-3.95288 0,-2.68287 2.032,-4.2545 4.683125,-4.2545 1.7145,0 3.048,0.6985 3.048,2.07963 0,1.00012 -0.777875,1.49225 -1.571625,1.49225 -0.904875,0 -1.412875,-0.47625 -1.476375,-0.96838 0.09525,0.0476 0.22225,0.0635 0.301625,0.0635 0.60325,0 0.8255,-0.53975 0.8255,-1.17475 0,-0.762 -0.381,-1.22237 -1.0795,-1.22237 z m 8.309501,0 c -1.03187,0 -1.44462,1.397 -1.44462,3.19087 0,2.17488 0.90487,3.302 2.39712,3.302 0.8255,0 1.60338,-0.36512 2.0955,-1.27 l 0.11113,0.0476 c -0.47625,1.68275 -1.95263,2.667 -3.73063,2.667 -2.25425,0 -4.15925,-1.49225 -4.15925,-3.95288 0,-2.68287 2.032,-4.2545 4.68313,-4.2545 1.7145,0 3.048,0.6985 3.048,2.07963 0,1.00012 -0.77788,1.49225 -1.57163,1.49225 -0.90487,0 -1.41287,-0.47625 -1.47637,-0.96838 0.0952,0.0476 0.22225,0.0635 0.30162,0.0635 0.60325,0 0.8255,-0.53975 0.8255,-1.17475 0,-0.762 -0.381,-1.22237 -1.0795,-1.22237 z m 7.84913,-0.26988 c 2.61938,0 3.85763,1.66688 3.85763,3.73063 h -4.92125 c 0,1.95262 1.03187,3.03212 2.49237,3.03212 0.92075,0 1.7145,-0.36512 2.2225,-1.27 l 0.0952,0.0476 c -0.49212,1.68275 -1.9685,2.667 -3.77825,2.667 -2.33362,0 -4.23862,-1.49225 -4.23862,-4.09575 0,-2.52413 1.93675,-4.11163 4.27037,-4.11163 z m -1.06362,3.41313 h 1.92087 c 0,-1.82563 -0.0952,-3.14325 -0.85725,-3.14325 -0.74612,0 -1.03187,1.27 -1.06362,3.14325 z m 8.60239,-3.14325 c -0.65087,0 -1.09537,0.3175 -1.09537,0.87312 0,0.71438 0.53975,0.889 1.9685,1.36525 2.032,0.66675 2.921,1.397 2.921,3.00038 0,1.63512 -1.30175,2.69875 -3.302,2.69875 -1.09538,0 -1.8415,-0.3175 -2.44475,-0.3175 -0.41275,0 -0.60325,0.17462 -0.8255,0.33337 l -0.17463,-2.87337 h 0.0317 c 0.93663,1.7145 2.032,2.58762 3.41313,2.58762 0.74612,0 1.27,-0.33337 1.27,-1.03187 0,-0.77788 -0.66675,-0.9525 -1.80975,-1.3335 -1.98438,-0.635 -2.88925,-1.44463 -2.88925,-3.03213 0,-1.50812 1.27,-2.54 2.93687,-2.54 1.00013,0 1.63513,0.36513 2.20663,0.36513 0.381,0 0.61912,-0.14288 0.92075,-0.381 v 2.55587 h -0.0318 c -0.73025,-1.38112 -2.00025,-2.27012 -3.09563,-2.27012 z m 7.56524,0 c -0.65088,0 -1.09538,0.3175 -1.09538,0.87312 0,0.71438 0.53975,0.889 1.9685,1.36525 2.032,0.66675 2.921,1.397 2.921,3.00038 0,1.63512 -1.30175,2.69875 -3.302,2.69875 -1.09537,0 -1.8415,-0.3175 -2.44475,-0.3175 -0.41275,0 -0.60325,0.17462 -0.8255,0.33337 l -0.17462,-2.87337 h 0.0318 c 0.93662,1.7145 2.032,2.58762 3.41312,2.58762 0.74613,0 1.27,-0.33337 1.27,-1.03187 0,-0.77788 -0.66675,-0.9525 -1.80975,-1.3335 -1.98437,-0.635 -2.88925,-1.44463 -2.88925,-3.03213 0,-1.50812 1.27,-2.54 2.93688,-2.54 1.00012,0 1.63512,0.36513 2.20662,0.36513 0.381,0 0.61913,-0.14288 0.92075,-0.381 v 2.55587 h -0.0317 c -0.73025,-1.38112 -2.00025,-2.27012 -3.09562,-2.27012 z m 4.67624,-3.33375 h 4.0005 l -1.9685,7.08025 h -0.0635 z m 3.69888,9.50912 c 0,0.9525 -0.73025,1.7145 -1.69863,1.7145 -0.96837,0 -1.69862,-0.762 -1.69862,-1.7145 0,-0.93662 0.73025,-1.7145 1.69862,-1.7145 0.96838,0 1.69863,0.77788 1.69863,1.7145 z"
       fill="#ffffff"
       id="path1"
       style="stroke-width:0.264583" />
    <rect
       x="140.5583"
       y="55.625542"
       width="1.9749823"
       height="1.9749823"
       transform="rotate(45)"
       stroke="#ffffff"
       id="rect1"
       style="stroke-width:0.264583" />
    <path
       d="m 61.383151,140.12334 h 8.73125"
       stroke="#ffffff"
       id="path2"
       style="stroke-width:0.264583" />
    <rect
       x="-205.21342"
       y="5.0795922"
       width="1.9749823"
       height="1.9749823"
       transform="rotate(-135)"
       stroke="#ffffff"
       id="rect2"
       style="stroke-width:0.264583" />
    <path
       d="M 147.37273,140.12334 H 137.05398"
       stroke="#ffffff"
       id="path3"
       style="stroke-width:0.264583" />
    <path
       d="m 58.76457,149.9434 h 9.159875 v 13.40612 H 58.76457 l 1.635918,-6.67147 0.0077,-0.0315 -0.0077,-0.0317 z"
       fill="#ff9d29"
       stroke="#000000"
       id="path5"
       style="stroke-width:0.264583" />
    <path
       d="m 149.85003,149.9434 h -9.15988 v 13.40612 h 9.15988 l -1.63566,-6.67147 -0.008,-0.0315 0.008,-0.0317 z"
       fill="#ff9d29"
       stroke="#000000"
       id="path6"
       style="stroke-width:0.264583" />
    <rect
       x="63.973949"
       y="148.19313"
       width="80.47963"
       height="13.406067"
       fill="#f8cc3e"
       stroke="#000000"
       id="rect6"
       style="stroke-width:0.264583" />
    <path
       d="m 62.342795,151.42033 h 1.498864 m -1.498864,0.80415 h 1.498864 m -1.498864,0.80415 h 1.498864 m -1.498864,0.80417 h 1.498864 m -1.498864,0.80415 h 1.498864 m -1.498864,0.80415 h 1.498864 m -1.498864,0.80415 h 1.498864 m -1.498864,0.80428 h 1.498864 m -1.498864,0.80406 h 1.498864 m -1.498864,0.80407 h 1.498864 m -1.498864,0.80434 h 1.498864 m -1.498864,0.80407 h 1.498864"
       stroke="#000000"
       id="path7"
       style="stroke-width:0.264583" />
    <path
       d="m 144.58588,151.42033 h 1.49886 m -1.49886,0.80415 h 1.49886 m -1.49886,0.80415 h 1.49886 m -1.49886,0.80417 h 1.49886 m -1.49886,0.80415 h 1.49886 m -1.49886,0.80415 h 1.49886 m -1.49886,0.80415 h 1.49886 m -1.49886,0.80428 h 1.49886 m -1.49886,0.80406 h 1.49886 m -1.49886,0.80407 h 1.49886 m -1.49886,0.80434 h 1.49886 m -1.49886,0.80407 h 1.49886"
       stroke="#000000"
       id="path8"
       style="stroke-width:0.264583" />
    <path
       d="m 67.924445,161.68476 v 1.59173 l -3.476096,-1.59173 z"
       fill="#d54e00"
       stroke="#000000"
       id="path9"
       style="stroke-width:0.264583" />
    <path
       d="m 140.69015,161.68476 v 1.59173 l 3.4761,-1.59173 z"
       fill="#d54e00"
       stroke="#000000"
       id="path10"
       style="stroke-width:0.264583" />
    <path
       d="m 80.649844,154.50201 -0.1778,1.5113 h -0.753533 l 0.478367,-3.1115 1.261533,1.80764 1.265767,-1.80764 0.478366,3.1115 h -0.753533 l -0.1778,-1.5113 -0.8128,1.23614 z m 3.389313,-1.45203 h 0.728133 v 2.96333 h -0.728133 z m 3.781689,0 h 0.690034 v 3.1115 l -2.048934,-1.8161 v 1.66793 h -0.6858 v -3.1115 l 2.0447,1.8161 z m 1.697303,0 h 0.728133 v 2.96333 h -0.728133 z m 1.736989,0 h 0.715433 v 2.96333 h -0.715433 z m 0.448733,0.58843 v -0.58843 h 0.579967 c 0.251354,0 0.461433,0.0395 0.630767,0.11853 0.172243,0.0762 0.302154,0.18627 0.389466,0.3302 0.08758,0.14394 0.131234,0.3175 0.131234,0.5207 0,0.19757 -0.04366,0.36973 -0.131234,0.51647 -0.08731,0.14393 -0.217223,0.25543 -0.389466,0.33443 -0.169334,0.0762 -0.379413,0.1143 -0.630767,0.1143 h -0.579967 v -0.58843 h 0.579967 c 0.143933,0 0.25691,-0.0324 0.338667,-0.0974 0.08202,-0.0649 0.122766,-0.15803 0.122766,-0.2794 0,-0.12417 -0.04075,-0.2187 -0.122766,-0.28363 -0.08176,-0.0649 -0.194734,-0.0974 -0.338667,-0.0974 z m 3.158332,0.89324 c 0,0.17499 0.03387,0.3302 0.1016,0.46566 0.07064,0.13266 0.16801,0.23707 0.2921,0.31327 0.127,0.0762 0.275166,0.1143 0.4445,0.1143 0.166423,0 0.311943,-0.0381 0.436033,-0.1143 0.127,-0.0762 0.224367,-0.18061 0.2921,-0.31327 0.07064,-0.13546 0.105833,-0.29067 0.105833,-0.46566 0,-0.17497 -0.03387,-0.32878 -0.1016,-0.46144 -0.06773,-0.13546 -0.163777,-0.2413 -0.287866,-0.3175 -0.12409,-0.0762 -0.272257,-0.1143 -0.4445,-0.1143 -0.169334,0 -0.3175,0.0381 -0.4445,0.1143 -0.12409,0.0762 -0.221457,0.18204 -0.2921,0.3175 -0.06773,0.13266 -0.1016,0.28647 -0.1016,0.46144 z m -0.757767,0 c 0,-0.2286 0.03942,-0.43744 0.118533,-0.62654 0.08176,-0.18907 0.194734,-0.35277 0.338667,-0.49106 0.143933,-0.13828 0.313267,-0.24411 0.508,-0.3175 0.194733,-0.0762 0.405077,-0.1143 0.630767,-0.1143 0.2286,0 0.438943,0.0381 0.630766,0.1143 0.194734,0.0734 0.364067,0.17922 0.508,0.3175 0.143934,0.13829 0.255323,0.30199 0.334434,0.49106 0.07911,0.1891 0.118533,0.39794 0.118533,0.62654 0,0.2286 -0.03942,0.43886 -0.118533,0.63076 -0.0762,0.19193 -0.186267,0.35843 -0.3302,0.49954 -0.141023,0.14112 -0.309034,0.25119 -0.503767,0.3302 -0.194733,0.0762 -0.407723,0.1143 -0.639233,0.1143 -0.234157,0 -0.448734,-0.0381 -0.643467,-0.1143 -0.194733,-0.079 -0.364067,-0.18908 -0.508,-0.3302 -0.141023,-0.14111 -0.25109,-0.30761 -0.3302,-0.49954 -0.0762,-0.1919 -0.1143,-0.40216 -0.1143,-0.63076 z m 4.615656,0 c 0,0.17499 0.03387,0.3302 0.1016,0.46566 0.07038,0.13266 0.167746,0.23707 0.2921,0.31327 0.127,0.0762 0.275167,0.1143 0.4445,0.1143 0.166423,0 0.311679,-0.0381 0.436033,-0.1143 0.127005,-0.0762 0.224365,-0.18061 0.292105,-0.31327 0.0704,-0.13546 0.10583,-0.29067 0.10583,-0.46566 0,-0.17497 -0.0339,-0.32878 -0.1016,-0.46144 -0.0677,-0.13546 -0.16378,-0.2413 -0.28787,-0.3175 -0.124352,-0.0762 -0.272519,-0.1143 -0.444498,-0.1143 -0.169333,0 -0.3175,0.0381 -0.4445,0.1143 -0.124354,0.0762 -0.221721,0.18204 -0.2921,0.3175 -0.06773,0.13266 -0.1016,0.28647 -0.1016,0.46144 z m -0.757767,0 c 0,-0.2286 0.03942,-0.43744 0.118534,-0.62654 0.08176,-0.18907 0.194733,-0.35277 0.338666,-0.49106 0.143934,-0.13828 0.313267,-0.24411 0.508,-0.3175 0.194734,-0.0762 0.404813,-0.1143 0.630767,-0.1143 0.2286,0 0.438679,0.0381 0.630768,0.1143 0.19473,0.0734 0.36407,0.17922 0.508,0.3175 0.14393,0.13829 0.25532,0.30199 0.33443,0.49106 0.0788,0.1891 0.11854,0.39794 0.11854,0.62654 0,0.2286 -0.0397,0.43886 -0.11854,0.63076 -0.0762,0.19193 -0.18626,0.35843 -0.3302,0.49954 -0.14129,0.14112 -0.30903,0.25119 -0.50376,0.3302 -0.19474,0.0762 -0.407992,0.1143 -0.639238,0.1143 -0.234421,0 -0.448733,-0.0381 -0.643467,-0.1143 -0.194733,-0.079 -0.364066,-0.18908 -0.508,-0.3302 -0.141287,-0.14111 -0.251354,-0.30761 -0.3302,-0.49954 -0.0762,-0.1919 -0.1143,-0.40216 -0.1143,-0.63076 z m 4.026955,-1.48167 h 0.71544 v 2.3495 h 1.18956 v 0.61383 h -1.905 z m 4.87733,1.48167 c 0,0.18063 0.041,0.33726 0.12277,0.4699 0.082,0.12983 0.18918,0.2286 0.32173,0.29633 0.13547,0.0677 0.28364,0.1016 0.4445,0.1016 0.14129,0 0.26538,-0.0183 0.37254,-0.055 0.10742,-0.0367 0.2032,-0.0847 0.28786,-0.14394 0.0847,-0.0593 0.15955,-0.12276 0.22437,-0.1905 v 0.77047 c -0.11853,0.0931 -0.24818,0.16653 -0.38947,0.22013 -0.14102,0.0536 -0.32014,0.0804 -0.53763,0.0804 -0.23707,0 -0.45561,-0.0367 -0.65617,-0.11007 -0.20029,-0.0734 -0.37253,-0.1792 -0.51646,-0.3175 -0.14394,-0.13827 -0.25533,-0.30197 -0.33444,-0.49107 -0.0788,-0.18907 -0.11853,-0.39933 -0.11853,-0.63076 0,-0.23141 0.0397,-0.44167 0.11853,-0.63077 0.0791,-0.18907 0.1905,-0.35277 0.33444,-0.49107 0.14393,-0.13827 0.31617,-0.2441 0.51646,-0.3175 0.20056,-0.0734 0.4191,-0.11006 0.65617,-0.11006 0.21749,0 0.39661,0.0268 0.53763,0.0804 0.14129,0.0536 0.27094,0.127 0.38947,0.22013 v 0.77047 c -0.0648,-0.0677 -0.1397,-0.13123 -0.22437,-0.1905 -0.0847,-0.0621 -0.18044,-0.11007 -0.28786,-0.14393 -0.10716,-0.0367 -0.23125,-0.055 -0.37254,-0.055 -0.16086,0 -0.30903,0.0339 -0.4445,0.1016 -0.13255,0.0677 -0.23971,0.16653 -0.32173,0.29634 -0.0818,0.12983 -0.12277,0.28646 -0.12277,0.4699 z m 3.4806,0.1397 h 0.74083 l 0.9271,1.34196 h -0.8382 z m -0.74084,-1.62137 h 0.71544 v 2.96333 h -0.71544 z m 0.44874,0.60537 v -0.60537 h 0.63076 c 0.254,0 0.46567,0.0409 0.635,0.12277 0.16934,0.0819 0.29766,0.19616 0.38524,0.3429 0.0876,0.14393 0.13123,0.31186 0.13123,0.50376 0,0.1891 -0.0437,0.35703 -0.13123,0.50377 -0.0876,0.14393 -0.2159,0.25683 -0.38524,0.33867 -0.16933,0.0819 -0.381,0.12276 -0.635,0.12276 h -0.63076 v -0.55456 h 0.57996 c 0.0961,0 0.1778,-0.0141 0.24554,-0.0423 0.0706,-0.031 0.12409,-0.0748 0.16086,-0.13123 0.0368,-0.0593 0.055,-0.12981 0.055,-0.21167 0,-0.0818 -0.0183,-0.15097 -0.055,-0.20743 -0.0368,-0.0593 -0.0902,-0.10441 -0.16086,-0.13547 -0.0677,-0.031 -0.14949,-0.0466 -0.24554,-0.0466 z m 3.14722,2.35796 v -0.58843 h 1.49436 v 0.58843 z m 0,-2.3749 v -0.58843 h 1.49436 v 0.58843 z m 0,1.1049 v -0.57573 h 1.4097 v 0.57573 z m -0.47414,-1.69333 h 0.6858 v 2.96333 h -0.6858 z m 3.39752,2.39183 0.0508,-0.5461 h 1.46896 l 0.0466,0.5461 z m 0.7747,-1.30386 -0.41487,0.95673 0.0339,0.15663 -0.3683,0.762 h -0.80857 l 1.55787,-3.1496 1.5621,3.1496 h -0.8128 l -0.3556,-0.73236 0.0254,-0.18204 z m 1.65973,-0.44874 v -0.63923 h 2.34526 v 0.63923 h -0.81703 v 2.3241 h -0.71543 v -2.3241 z m 3.52425,2.3241 v -0.58843 h 1.49436 v 0.58843 z m 0,-2.3749 v -0.58843 h 1.49436 v 0.58843 z m 0,1.1049 v -0.57573 h 1.4097 v 0.57573 z m -0.47414,-1.69333 h 0.6858 v 2.96333 h -0.6858 z m 2.93185,0 h 0.7366 v 2.96333 h -0.7366 z m 1.05834,2.96333 h -0.5842 v -0.635 h 0.5588 c 0.11297,0 0.22145,-0.0141 0.32596,-0.0423 0.10716,-0.0282 0.20029,-0.0748 0.2794,-0.1397 0.0818,-0.0649 0.14685,-0.15097 0.19474,-0.25823 0.0479,-0.11007 0.072,-0.24554 0.072,-0.4064 0,-0.16087 -0.0241,-0.29491 -0.072,-0.40217 -0.0479,-0.11007 -0.11298,-0.19754 -0.19474,-0.26247 -0.0791,-0.0649 -0.17224,-0.11147 -0.2794,-0.1397 -0.10451,-0.0282 -0.21299,-0.0423 -0.32596,-0.0423 h -0.5588 v -0.635 h 0.5842 c 0.32464,0 0.60536,0.0607 0.84243,0.18203 0.23707,0.12137 0.42042,0.2921 0.55033,0.51224 0.12991,0.22013 0.19474,0.4826 0.19474,0.7874 0,0.30199 -0.0648,0.56446 -0.19474,0.7874 -0.12991,0.22013 -0.31326,0.39089 -0.55033,0.51223 -0.23707,0.12136 -0.51779,0.18203 -0.84243,0.18203 z"
       fill="#7a3007"
       id="path11"
       style="stroke-width:0.264583" />
  </g>
</svg>
