<svg width="354" height="159" viewBox="0 0 354 159" fill="none" xmlns="http://www.w3.org/2000/svg">
<g clip-path="url(#clip0_5817_10111)">
<circle opacity="0.2" cx="169" cy="93.6777" r="64.5" fill="#E9F8FF" stroke="#CCE3FF"/>
<circle opacity="0.2" cx="169" cy="93.6777" r="52.5" fill="#CBEEFF" stroke="#CCE3FF"/>
<g clip-path="url(#clip1_5817_10111)">
<path d="M119 41.6181C122.469 41.6181 122.469 34.6797 122.469 34.6797C122.469 34.6797 122.469 41.6181 125.938 41.6181C122.469 41.6181 122.469 48.5565 122.469 48.5565C122.469 48.5565 122.469 41.6181 119 41.6181Z" fill="#FEF2DF" stroke="black" stroke-linejoin="round"/>
<path d="M254.929 114.1C257.964 114.1 257.964 108.029 257.964 108.029C257.964 108.029 257.964 114.1 261 114.1C257.964 114.1 257.964 120.171 257.964 120.171C257.964 120.171 257.964 114.1 254.929 114.1Z" fill="#FEF2DF" stroke="black" stroke-linejoin="round"/>
<path d="M26 56.7508C29.0355 56.7508 29.0355 50.6797 29.0355 50.6797C29.0355 50.6797 29.0355 56.7508 32.0711 56.7508C29.0355 56.7508 29.0355 62.8219 29.0355 62.8219C29.0355 62.8219 29.0355 56.7508 26 56.7508Z" fill="#FEF2DF" stroke="black" stroke-linejoin="round"/>
<path d="M71 115.087C76.2038 115.087 76.2038 104.68 76.2038 104.68C76.2038 104.68 76.2038 115.087 81.4076 115.087C76.2038 115.087 76.2038 125.495 76.2038 125.495C76.2038 125.495 76.2038 115.087 71 115.087Z" fill="#FEF2DF" stroke="black" stroke-linejoin="round"/>
<path d="M306 56.6181C309.469 56.6181 309.469 49.6797 309.469 49.6797C309.469 49.6797 309.469 56.6181 312.938 56.6181C309.469 56.6181 309.469 63.5565 309.469 63.5565C309.469 63.5565 309.469 56.6181 306 56.6181Z" fill="#FEF2DF" stroke="black" stroke-linejoin="round"/>
<path fill-rule="evenodd" clip-rule="evenodd" d="M50.5756 68.2607C49.8596 67.6243 49.7951 66.528 50.4315 65.812C52.2237 63.7956 57.0225 61.5212 63.3462 64.8226C64.1953 65.2659 64.5243 66.3137 64.081 67.1629C63.6377 68.0121 62.5899 68.3411 61.7407 67.8978C56.8311 65.3346 53.762 67.2866 53.0244 68.1166C52.388 68.8326 51.2916 68.8971 50.5756 68.2607Z" fill="#00C137" stroke="black" stroke-linecap="round" stroke-linejoin="round"/>
<path fill-rule="evenodd" clip-rule="evenodd" d="M283.591 107.471C283.631 106.514 284.439 105.77 285.396 105.81C288.092 105.922 292.89 108.199 294.334 115.185C294.528 116.123 293.925 117.04 292.987 117.234C292.049 117.428 291.131 116.825 290.937 115.887C289.815 110.463 286.362 109.322 285.252 109.276C284.295 109.236 283.552 108.428 283.591 107.471Z" fill="#FE6363" stroke="black" stroke-linecap="round" stroke-linejoin="round"/>
<path fill-rule="evenodd" clip-rule="evenodd" d="M53.7922 125.266C52.8343 125.269 52.0551 124.495 52.0519 123.537C52.0429 120.839 54.1024 115.944 61.0163 114.188C61.9448 113.952 62.8887 114.514 63.1245 115.442C63.3604 116.37 62.799 117.314 61.8705 117.55C56.5026 118.914 55.5172 122.415 55.5209 123.526C55.5241 124.484 54.7501 125.263 53.7922 125.266Z" fill="#FE6363" stroke="black" stroke-linecap="round" stroke-linejoin="round"/>
<path fill-rule="evenodd" clip-rule="evenodd" d="M278.029 71.8217C277.163 71.5664 276.669 70.6576 276.924 69.7918C277.643 67.3536 280.822 63.4891 287.538 63.7668C288.44 63.804 289.141 64.5654 289.103 65.4673C289.066 66.3691 288.305 67.07 287.403 67.0327C282.189 66.8172 280.355 69.7128 280.059 70.7164C279.804 71.5822 278.895 72.077 278.029 71.8217Z" fill="#FFE563" stroke="black" stroke-linecap="round" stroke-linejoin="round"/>
<path fill-rule="evenodd" clip-rule="evenodd" d="M209.081 44.8059C208.215 45.0589 207.307 44.5617 207.054 43.6952C206.342 41.2552 206.928 36.2857 212.729 32.8899C213.508 32.4339 214.509 32.6957 214.965 33.4747C215.421 34.2537 215.159 35.2548 214.38 35.7108C209.876 38.3473 209.899 41.7745 210.192 42.7788C210.445 43.6453 209.948 44.5528 209.081 44.8059Z" fill="#FF845A" stroke="black" stroke-linecap="round" stroke-linejoin="round"/>
</g>
<g clip-path="url(#clip2_5817_10111)">
<ellipse cx="19" cy="107" rx="9" ry="19" fill="#EC4A26"/>
<path d="M14.0081 134.838H24.1599C24.5783 134.838 24.9193 135.179 24.9193 135.597V139.892C24.9193 141.316 23.7643 142.471 22.341 142.471H15.827C14.4037 142.471 13.2487 141.316 13.2487 139.892V135.597C13.2487 135.179 13.5897 134.838 14.0081 134.838Z" fill="#CC7323" stroke="#201858" stroke-miterlimit="10" stroke-linecap="round"/>
<path d="M14.0079 134.838L3.7196 119.129" stroke="#201858" stroke-miterlimit="10" stroke-linecap="round"/>
<path d="M16.3773 134.603L14.0286 126.143" stroke="#201858" stroke-miterlimit="10" stroke-linecap="round"/>
<path d="M21.559 134.604L23.9076 126.371" stroke="#201858" stroke-miterlimit="10" stroke-linecap="round"/>
<path d="M13.292 136.984H16.2296" stroke="#201858" stroke-miterlimit="10" stroke-linecap="round"/>
<path d="M13.6259 138.498H14.9991" stroke="#201858" stroke-miterlimit="10" stroke-linecap="round"/>
<path d="M13.292 139.938H16.7684" stroke="#201858" stroke-miterlimit="10" stroke-linecap="round"/>
<path d="M4.64941 95.4258H7.96213" stroke="#201858" stroke-miterlimit="10" stroke-linecap="round"/>
<path d="M8.24207 112.418H9.97232" stroke="#201858" stroke-miterlimit="10" stroke-linecap="round"/>
<path d="M10.4497 110.986H12.1777" stroke="#201858" stroke-miterlimit="10" stroke-linecap="round"/>
<path d="M19.0829 88.6777C29.6213 88.6777 38.1634 97.2199 38.1634 107.758C38.1634 118.297 29.6213 126.841 19.0829 126.841C24.0486 126.841 28.0752 118.299 28.0752 107.758C28.0752 97.2176 24.0486 88.6777 19.0829 88.6777Z" fill="#A51E00"/>
<path d="M19.0828 88.6777C14.1171 88.6777 10.0905 97.2199 10.0905 107.758C10.0905 118.297 14.1171 126.841 19.0828 126.841C8.5444 126.841 0 118.299 0 107.758C0 97.2176 8.5444 88.6777 19.0828 88.6777Z" fill="#FF5F3C"/>
<path d="M19.0828 88.6777C29.6212 88.6777 38.1633 97.2199 38.1633 107.758C38.1633 118.297 29.6212 126.841 19.0828 126.841C8.5444 126.841 0 118.299 0 107.758C0 97.2176 8.5444 88.6777 19.0828 88.6777Z" stroke="#201858" stroke-miterlimit="10" stroke-linecap="round"/>
<path d="M24.1488 134.838L34.4371 119.129" stroke="#201858" stroke-miterlimit="10" stroke-linecap="round"/>
<path d="M19.083 88.6777C24.0487 88.6777 28.0753 97.2199 28.0753 107.758C28.0753 118.297 24.0487 126.841 19.083 126.841C14.1173 126.841 10.0907 118.299 10.0907 107.758C10.0907 97.2176 14.1173 88.6777 19.083 88.6777Z" stroke="#201858" stroke-miterlimit="10" stroke-linecap="round"/>
<path d="M18.6585 111.557L18.66 111.558L18.6599 111.558L18.6483 111.579L18.4293 111.957L18.4284 111.958L18.1967 112.358L18.1923 112.356C18.1429 112.438 18.093 112.521 18.0436 112.601C17.9307 112.786 17.8178 112.964 17.7174 113.112C17.6271 113.245 17.5187 113.396 17.4184 113.491M18.6585 111.557L17.0758 113.126M18.6585 111.557L21.6875 106.281M18.6585 111.557L21.6875 106.281M17.4184 113.491C17.4182 113.491 17.4181 113.491 17.418 113.491L17.0758 113.126M17.4184 113.491C17.4185 113.49 17.4186 113.49 17.4187 113.49L17.0758 113.126M17.4184 113.491C17.1261 113.766 16.7739 113.968 16.3881 114.08L16.3811 114.082L16.3811 114.082C16.0321 114.178 15.652 114.178 15.0871 114.178C15.0636 114.178 15.0396 114.178 15.0154 114.178H12.325H12.3044C12.0392 114.178 11.8108 114.178 11.6284 114.163C11.4432 114.147 11.2336 114.113 11.0453 113.995L11.0412 113.993L11.0412 113.993C10.7238 113.79 10.5232 113.45 10.5014 113.073L10.5012 113.07C10.4895 112.845 10.565 112.643 10.6439 112.476C10.7236 112.307 10.8409 112.106 10.9761 111.874L10.9768 111.873L11.4101 112.122M17.0758 113.126C16.8409 113.348 16.5581 113.51 16.2483 113.6C15.9656 113.678 15.6495 113.678 15.0154 113.678H12.325H12.3249C11.7594 113.678 11.4808 113.678 11.3103 113.571C11.1274 113.454 11.013 113.26 11.0005 113.044C10.9901 112.846 11.1295 112.604 11.4101 112.122M11.4101 112.122L18.053 100.578L11.4101 112.122ZM21.6875 106.281C21.9863 105.77 22.1834 105.433 22.273 105.064C22.3668 104.681 22.3668 104.277 22.2728 103.894L22.2727 103.894C22.1862 103.542 21.9968 103.216 21.7229 102.744C21.7149 102.73 21.7068 102.716 21.6986 102.702L21.6923 102.69L21.6852 102.678L20.3199 100.328L20.3192 100.326L20.317 100.323C20.1811 100.087 20.0632 99.8828 19.9547 99.7279C19.8474 99.5747 19.7082 99.4071 19.5048 99.305C19.1699 99.1353 18.7701 99.1353 18.4352 99.305C18.2318 99.407 18.0925 99.5747 17.9852 99.7279C17.8767 99.8829 17.7587 100.087 17.6228 100.323L17.62 100.328L17.6197 100.328L10.9781 111.87L21.6875 106.281ZM26.9623 113.984L26.9621 113.984C26.771 114.108 26.5552 114.144 26.3683 114.16C26.1831 114.176 25.9516 114.176 25.6855 114.176H25.6648H21.8101H21.7897C21.5223 114.176 21.2914 114.176 21.1077 114.161C20.9237 114.146 20.7093 114.112 20.5198 113.99C20.1966 113.784 20.0053 113.437 19.9805 113.072L19.98 113.065L19.9801 113.065C19.9682 112.84 20.0449 112.639 20.123 112.475C20.2002 112.313 20.3131 112.12 20.4422 111.899L20.4527 111.881L20.4527 111.881L20.4595 111.869L20.464 111.862L20.464 111.862L20.4685 111.855L22.3898 108.601C22.3899 108.601 22.3899 108.601 22.3899 108.6C22.39 108.6 22.39 108.6 22.39 108.6C22.5272 108.368 22.6459 108.166 22.7543 108.014C22.8612 107.864 22.9984 107.701 23.1962 107.6L23.1967 107.599C23.532 107.429 23.9285 107.428 24.2639 107.598C24.4561 107.695 24.5891 107.848 24.6917 107.988C24.7916 108.125 24.8988 108.303 25.0188 108.502L25.0292 108.519L25.0293 108.519L25.0497 108.553L25.071 108.587L25.0762 108.595L25.0761 108.595L27.0047 111.848C27.0079 111.853 27.011 111.858 27.0138 111.863L27.0139 111.863C27.0218 111.876 27.0285 111.888 27.0321 111.895L27.0364 111.903L26.9623 113.984ZM26.9623 113.984C27.2746 113.781 27.4806 113.44 27.4991 113.058L27.4992 113.056C27.5088 112.836 27.4337 112.639 27.3572 112.479C27.2797 112.316 27.1664 112.123 27.037 111.904L26.9623 113.984Z" fill="white" stroke="#201858"/>
<path d="M23.9075 95.4883H25.6355" stroke="#201858" stroke-miterlimit="10" stroke-linecap="round"/>
<path d="M26.4991 96.4785H28.2271" stroke="#201858" stroke-miterlimit="10" stroke-linecap="round"/>
</g>
<g clip-path="url(#clip3_5817_10111)">
<path d="M329.008 134.838H339.16C339.578 134.838 339.919 135.179 339.919 135.597V139.892C339.919 141.316 338.764 142.471 337.341 142.471H330.827C329.404 142.471 328.249 141.316 328.249 139.892V135.597C328.249 135.179 328.59 134.838 329.008 134.838Z" fill="#CC7323" stroke="#201858" stroke-miterlimit="10" stroke-linecap="round"/>
<path d="M329.008 134.838L318.72 119.129" stroke="#201858" stroke-miterlimit="10" stroke-linecap="round"/>
<path d="M331.377 134.603L329.029 126.143" stroke="#201858" stroke-miterlimit="10" stroke-linecap="round"/>
<path d="M336.559 134.604L338.908 126.371" stroke="#201858" stroke-miterlimit="10" stroke-linecap="round"/>
<path d="M328.292 136.984H331.23" stroke="#201858" stroke-miterlimit="10" stroke-linecap="round"/>
<path d="M328.626 138.498H329.999" stroke="#201858" stroke-miterlimit="10" stroke-linecap="round"/>
<path d="M328.292 139.938H331.768" stroke="#201858" stroke-miterlimit="10" stroke-linecap="round"/>
<path d="M319.649 95.4258H322.962" stroke="#201858" stroke-miterlimit="10" stroke-linecap="round"/>
<path d="M323.242 112.418H324.972" stroke="#201858" stroke-miterlimit="10" stroke-linecap="round"/>
<path d="M325.45 110.986H327.178" stroke="#201858" stroke-miterlimit="10" stroke-linecap="round"/>
<path d="M334.083 88.6777C344.621 88.6777 353.163 97.2199 353.163 107.758C353.163 118.297 344.621 126.841 334.083 126.841C339.049 126.841 343.075 118.299 343.075 107.758C343.075 97.2176 339.049 88.6777 334.083 88.6777Z" fill="#A51E00"/>
<ellipse cx="334" cy="108" rx="9" ry="19" fill="#EC4A26"/>
<path d="M334.083 88.6777C329.117 88.6777 325.09 97.2199 325.09 107.758C325.09 118.297 329.117 126.841 334.083 126.841C323.544 126.841 315 118.299 315 107.758C315 97.2176 323.544 88.6777 334.083 88.6777Z" fill="#FF5F3C"/>
<path d="M334.083 88.6777C344.621 88.6777 353.163 97.2199 353.163 107.758C353.163 118.297 344.621 126.841 334.083 126.841C323.544 126.841 315 118.299 315 107.758C315 97.2176 323.544 88.6777 334.083 88.6777Z" stroke="#201858" stroke-miterlimit="10" stroke-linecap="round"/>
<path d="M339.149 134.838L349.437 119.129" stroke="#201858" stroke-miterlimit="10" stroke-linecap="round"/>
<path d="M334.083 88.6777C339.049 88.6777 343.075 97.2199 343.075 107.758C343.075 118.297 339.049 126.841 334.083 126.841C329.117 126.841 325.091 118.299 325.091 107.758C325.091 97.2176 329.117 88.6777 334.083 88.6777Z" stroke="#201858" stroke-miterlimit="10" stroke-linecap="round"/>
<path d="M333.658 111.557L333.66 111.558L333.66 111.558L333.648 111.579L333.429 111.957L333.428 111.958L333.197 112.358L333.192 112.356C333.143 112.438 333.093 112.521 333.044 112.601C332.931 112.786 332.818 112.964 332.717 113.112C332.627 113.245 332.519 113.396 332.418 113.491M333.658 111.557L332.076 113.126M333.658 111.557L336.688 106.281M333.658 111.557L336.688 106.281M332.418 113.491C332.418 113.491 332.418 113.491 332.418 113.491L332.076 113.126M332.418 113.491C332.418 113.49 332.419 113.49 332.419 113.49L332.076 113.126M332.418 113.491C332.126 113.766 331.774 113.968 331.388 114.08L331.381 114.082L331.381 114.082C331.032 114.178 330.652 114.178 330.087 114.178C330.064 114.178 330.04 114.178 330.015 114.178H327.325H327.304C327.039 114.178 326.811 114.178 326.628 114.163C326.443 114.147 326.234 114.113 326.045 113.995L326.041 113.993L326.041 113.993C325.724 113.79 325.523 113.45 325.501 113.073L325.501 113.07C325.489 112.845 325.565 112.643 325.644 112.476C325.724 112.307 325.841 112.106 325.976 111.874L325.977 111.873L326.41 112.122M332.076 113.126C331.841 113.348 331.558 113.51 331.248 113.6C330.966 113.678 330.65 113.678 330.015 113.678H327.325H327.325C326.759 113.678 326.481 113.678 326.31 113.571C326.127 113.454 326.013 113.26 326.001 113.044C325.99 112.846 326.129 112.604 326.41 112.122M326.41 112.122L333.053 100.578L326.41 112.122ZM336.688 106.281C336.986 105.77 337.183 105.433 337.273 105.064C337.367 104.681 337.367 104.277 337.273 103.894L337.273 103.894C337.186 103.542 336.997 103.216 336.723 102.744C336.715 102.73 336.707 102.716 336.699 102.702L336.692 102.69L336.685 102.678L335.32 100.328L335.319 100.326L335.317 100.323C335.181 100.087 335.063 99.8828 334.955 99.7279C334.847 99.5747 334.708 99.4071 334.505 99.305C334.17 99.1353 333.77 99.1353 333.435 99.305C333.232 99.407 333.092 99.5747 332.985 99.7279C332.877 99.8829 332.759 100.087 332.623 100.323L332.62 100.328L332.62 100.328L325.978 111.87L336.688 106.281ZM341.962 113.984L341.962 113.984C341.771 114.108 341.555 114.144 341.368 114.16C341.183 114.176 340.952 114.176 340.686 114.176H340.665H336.81H336.79C336.522 114.176 336.291 114.176 336.108 114.161C335.924 114.146 335.709 114.112 335.52 113.99C335.197 113.784 335.005 113.437 334.981 113.072L334.98 113.065L334.98 113.065C334.968 112.84 335.045 112.639 335.123 112.475C335.2 112.313 335.313 112.12 335.442 111.899L335.453 111.881L335.453 111.881L335.46 111.869L335.464 111.862L335.464 111.862L335.469 111.855L337.39 108.601C337.39 108.601 337.39 108.601 337.39 108.6C337.39 108.6 337.39 108.6 337.39 108.6C337.527 108.368 337.646 108.166 337.754 108.014C337.861 107.864 337.998 107.701 338.196 107.6L338.197 107.599C338.532 107.429 338.928 107.428 339.264 107.598C339.456 107.695 339.589 107.848 339.692 107.988C339.792 108.125 339.899 108.303 340.019 108.502L340.029 108.519L340.029 108.519L340.05 108.553L340.071 108.587L340.076 108.595L340.076 108.595L342.005 111.848C342.008 111.853 342.011 111.858 342.014 111.863L342.014 111.863C342.022 111.876 342.028 111.888 342.032 111.895L342.036 111.903L341.962 113.984ZM341.962 113.984C342.275 113.781 342.481 113.44 342.499 113.058L342.499 113.056C342.509 112.836 342.434 112.639 342.357 112.479C342.28 112.316 342.166 112.123 342.037 111.904L341.962 113.984Z" fill="white" stroke="#201858"/>
<path d="M338.907 95.4883H340.635" stroke="#201858" stroke-miterlimit="10" stroke-linecap="round"/>
<path d="M341.499 96.4785H343.227" stroke="#201858" stroke-miterlimit="10" stroke-linecap="round"/>
</g>
<g clip-path="url(#clip4_5817_10111)">
<path d="M174.286 124.803L247.365 125.921L245.257 111.123L241.291 109.715L174.286 124.803Z" fill="#FFEB76" stroke="#9B5D00"/>
<path d="M227.598 117.287L214.24 119.376" stroke="#9B5D00"/>
<path d="M240.937 115.205L231.448 116.69" stroke="#9B5D00"/>
<path d="M212.459 119.646L201.312 121.17" stroke="#9B5D00"/>
<path d="M238.655 121.094L222.307 121.769" stroke="#9B5D00"/>
<path d="M170.963 120.702L303.923 37.2217L282.799 13.0312L271.099 15.4419L170.963 120.702Z" fill="#FFEB76" stroke="#9B5D00"/>
<path d="M258.204 44.8008L236.591 64.1827" stroke="#9B5D00"/>
<path d="M279.797 25.4375L264.44 39.2138" stroke="#9B5D00"/>
<path d="M233.686 66.7539L215.39 82.5359" stroke="#9B5D00"/>
<path d="M282.581 38.7129L253.91 59.0591" stroke="#9B5D00"/>
<path d="M172.744 122.418L269.968 97.424L263.057 77.4507L257.15 76.2871L172.744 122.418Z" fill="#FFEB76" stroke="#9B5D00"/>
<path d="M241.618 92.3574L224.441 100.162" stroke="#9B5D00"/>
<path d="M258.782 84.5605L246.575 90.1083" stroke="#9B5D00"/>
<path d="M222.147 101.197L207.727 107.414" stroke="#9B5D00"/>
<path d="M257.921 93.3359L236.18 100.362" stroke="#9B5D00"/>
<path d="M290.07 42.2408C301.385 42.2408 310.558 33.0682 310.558 21.7532C310.558 10.4382 301.385 1.26562 290.07 1.26562C278.755 1.26562 269.582 10.4382 269.582 21.7532C269.582 33.0682 278.755 42.2408 290.07 42.2408Z" fill="#855C00" stroke="#9B5D00" stroke-miterlimit="10"/>
<path d="M290.841 40.9752C302.156 40.9752 311.329 31.8026 311.329 20.4876C311.329 9.17261 302.156 0 290.841 0C279.526 0 270.354 9.17261 270.354 20.4876C270.354 31.8026 279.526 40.9752 290.841 40.9752Z" fill="#FFB200" stroke="#9B5D00" stroke-miterlimit="10"/>
<path d="M300.555 4.46204C291.311 -1.1436 279.322 1.66565 273.497 10.6977C273.587 10.537 273.677 10.3698 273.774 10.2091C279.476 0.804228 291.722 -2.2043 301.133 3.49777C310.538 9.19984 313.547 21.4461 307.845 30.8574C307.748 31.0181 307.645 31.1724 307.543 31.3267C312.859 21.9861 309.799 10.0613 300.555 4.45561V4.46204Z" fill="#FFD79B"/>
<path d="M290.841 38.011C300.52 38.011 308.366 30.1652 308.366 20.487C308.366 10.8087 300.52 2.96289 290.841 2.96289C281.163 2.96289 273.317 10.8087 273.317 20.487C273.317 30.1652 281.163 38.011 290.841 38.011Z" fill="#FFCB00" stroke="#9B5D00" stroke-miterlimit="10"/>
<path d="M284.445 10.1702C286.901 9.77162 291.144 9.12234 291.864 9.30234C292.886 9.56591 298.382 16.5665 299.443 18.5787C300.176 19.9608 299.301 22.41 298.691 23.805C299.031 24.5121 299.231 25.1229 299.346 25.605C299.481 26.1514 299.064 26.6785 298.498 26.6657H298.427C298.459 26.7493 298.491 26.8264 298.524 26.9035C299.012 28.1507 298.093 29.4942 296.756 29.5135H296.569C296.569 29.5135 295.984 29.5328 295.676 29.5457C295.573 29.5457 295.489 29.4814 295.464 29.3849C295.361 29.5778 295.251 29.7707 295.123 29.9507C293.136 32.8306 288.714 33.2228 285.249 30.8314C281.784 28.44 280.588 24.165 282.574 21.285C282.735 21.0472 282.922 20.8351 283.121 20.6293C283.044 20.6422 282.973 20.6551 282.915 20.6679C282.812 20.6936 282.703 20.6293 282.671 20.5265C282.555 20.1922 282.311 19.5236 282.311 19.5236C281.829 18.2572 282.774 16.9008 284.13 16.9137C284.194 16.9137 284.265 16.9137 284.336 16.9137V16.888L284.317 16.8687C284.117 16.3544 284.458 15.7887 285.004 15.7115C285.57 15.6344 286.354 15.5958 287.312 15.7115L288.842 14.6701L287.627 12.0537L284.387 10.9995C283.95 10.858 284.002 10.228 284.452 10.1573L284.445 10.1702Z" fill="#D78400" stroke="#9B5D00" stroke-miterlimit="10"/>
<path d="M299.153 6.76837C291.092 1.88272 280.659 4.26769 275.484 12.0462C275.599 11.8276 275.722 11.6155 275.85 11.4033C280.864 3.12985 291.645 0.487739 299.918 5.50196C308.192 10.5162 310.834 21.2968 305.82 29.5702C305.691 29.7824 305.556 29.9881 305.421 30.1938C309.928 22.0103 307.215 11.654 299.153 6.76837Z" fill="#C88400" stroke="#9B5D00" stroke-miterlimit="10"/>
<path d="M295.503 29.3183C297.49 26.4407 296.292 22.1682 292.828 19.7754C289.363 17.3825 284.943 17.7755 282.956 20.653C280.969 23.5306 282.166 27.8031 285.631 30.1959C289.096 32.5888 293.516 32.1958 295.503 29.3183Z" fill="#FFB200" stroke="#9B5D00" stroke-miterlimit="10"/>
<path d="M292.425 28.5898C293.202 27.465 293.289 26.1787 292.62 25.7167C291.951 25.2547 290.779 25.7919 290.002 26.9166C289.226 28.0413 289.138 29.3277 289.807 29.7897C290.476 30.2517 291.648 29.7145 292.425 28.5898Z" fill="#FFB00B" stroke="#9B5D00" stroke-miterlimit="10"/>
<path d="M287.146 24.953C287.923 23.8283 288.011 22.542 287.342 22.08C286.673 21.6179 285.501 22.1552 284.724 23.2799C283.947 24.4046 283.86 25.691 284.529 26.153C285.198 26.615 286.37 26.0778 287.146 24.953Z" fill="#FFB00B" stroke="#9B5D00" stroke-miterlimit="10"/>
<path d="M298.575 24.2098C298.575 24.2098 300.889 19.9541 299.829 17.942C298.768 15.9299 293.271 8.92926 292.249 8.66569C291.529 8.47927 287.287 9.12854 284.831 9.53354C284.381 9.60425 284.336 10.2342 284.767 10.3757L288.007 11.4299L289.221 14.0463L287.319 15.3449L298.569 24.2098H298.575Z" fill="#FFB200"/>
<path d="M298.575 24.2098C298.575 24.2098 300.889 19.9541 299.829 17.942C298.768 15.9363 293.271 8.92926 292.249 8.66569C291.529 8.47927 287.287 9.12854 284.831 9.53354C284.381 9.60425 284.336 10.2342 284.767 10.3757L288.007 11.4299L289.221 14.0463L287.319 15.3449L298.569 24.2098H298.575Z" stroke="#9B5D00" stroke-miterlimit="10"/>
<path d="M284.509 16.2904C284.574 16.2904 284.644 16.2904 284.715 16.2904V16.2647L284.696 16.2454C284.497 15.7312 284.837 15.1655 285.384 15.0883C286.933 14.8762 290.109 14.9405 294.126 17.7176C298.125 20.4754 299.353 23.4196 299.726 24.9625C299.861 25.5089 299.443 26.036 298.877 26.0232H298.806C298.839 26.1067 298.871 26.1839 298.903 26.261C299.391 27.5082 298.472 28.8517 297.135 28.871H296.949C296.949 28.871 296.364 28.8903 296.055 28.9031C295.946 28.9031 295.856 28.8324 295.836 28.7231C295.785 28.4081 295.637 27.7396 295.194 26.8782C294.615 25.7403 293.406 24.0303 290.925 22.3139C288.45 20.604 286.444 20.0961 285.197 19.9611C284.259 19.8647 283.597 19.9611 283.288 20.0254C283.185 20.0511 283.076 19.9868 283.044 19.884C282.928 19.5497 282.684 18.8811 282.684 18.8811C282.202 17.6147 283.147 16.2583 284.503 16.2712L284.509 16.2904Z" fill="#FFB200" stroke="#9B5D00" stroke-miterlimit="10"/>
<path d="M285.744 29.115C288.984 31.3328 293.098 31.0114 294.93 28.3628C295.007 28.2471 295.078 28.1314 295.142 28.0093C295.232 28.2728 295.29 28.4978 295.322 28.665C295.251 28.7935 295.181 28.9221 295.097 29.0378C293.265 31.6864 289.151 32.0142 285.911 29.7899C284.329 28.6971 283.198 27.1671 282.722 25.4764C282.671 25.2836 282.626 25.0972 282.594 24.9043C283.082 26.5564 284.194 28.0478 285.744 29.115Z" fill="#FFD79B"/>
<path d="M291.343 28.4783C291.664 28.0154 291.864 27.4883 291.896 27.0383C291.921 26.6847 291.838 26.4083 291.664 26.2926C291.664 26.2926 291.651 26.2862 291.645 26.2798C291.594 26.2476 291.536 26.2348 291.471 26.2219C291.504 26.209 291.529 26.1833 291.561 26.1705C291.876 26.029 292.153 26.0033 292.326 26.1126C292.333 26.1126 292.339 26.119 292.346 26.1255C292.519 26.2476 292.603 26.5176 292.577 26.8712C292.545 27.3212 292.346 27.8419 292.024 28.3112C291.703 28.774 291.285 29.1469 290.874 29.3397C290.649 29.4426 290.443 29.4811 290.282 29.4554C290.661 29.2561 291.047 28.909 291.343 28.4783Z" fill="#FFD79B"/>
<path d="M286.065 24.8393C286.387 24.3765 286.586 23.8493 286.618 23.3993C286.644 23.0458 286.56 22.7693 286.387 22.6536C286.387 22.6536 286.374 22.6472 286.367 22.6408C286.316 22.6086 286.252 22.5893 286.187 22.5829C286.534 22.3965 286.849 22.3579 287.049 22.4736C287.055 22.4736 287.062 22.4801 287.068 22.4865C287.242 22.6086 287.325 22.8786 287.299 23.2322C287.267 23.6822 287.068 24.2029 286.747 24.6722C286.2 25.4693 285.467 25.8743 285.024 25.8164C285.371 25.63 285.75 25.3022 286.072 24.8393H286.065Z" fill="#FFD79B"/>
<path d="M297.868 17.8268C296.846 15.8983 292.661 10.6269 291.086 9.16767C291.851 9.10339 292.069 9.13553 292.127 9.14838C292.153 9.15481 292.179 9.1741 292.211 9.18696C293.278 9.83623 298.266 16.0462 299.398 18.174C299.88 19.0804 299.507 20.6747 299.018 22.0182C298.716 21.5104 298.337 20.9768 297.881 20.4304C298.131 19.4404 298.215 18.4633 297.881 17.8268H297.868Z" fill="#FFD79B"/>
<path d="M297.206 27.6551C297.469 27.263 297.521 26.7873 297.354 26.3566L297.264 26.1316C297.199 25.9837 297.219 25.8166 297.302 25.6816C297.386 25.5466 297.534 25.4566 297.694 25.4502H297.797C297.951 25.4502 298.048 25.3602 298.086 25.3087C298.157 25.2187 298.183 25.103 298.157 24.9937C297.803 23.5473 296.627 20.7124 292.757 18.0381C292.436 17.8195 292.121 17.6138 291.812 17.4274C289.819 16.2189 288.084 15.6981 286.714 15.5117C288.193 15.5439 290.34 15.9553 292.911 17.5174C293.22 17.7038 293.535 17.9095 293.856 18.1281C297.733 20.8024 298.903 23.6373 299.256 25.0837C299.282 25.193 299.256 25.3087 299.186 25.3987C299.147 25.4502 299.051 25.5402 298.896 25.5337H298.793C298.633 25.5466 298.485 25.6302 298.401 25.7716C298.318 25.9066 298.305 26.0737 298.363 26.2216L298.453 26.4466C298.62 26.8773 298.568 27.353 298.305 27.7451C298.035 28.1437 297.611 28.3751 297.135 28.3816H296.949C296.949 28.3816 296.589 28.3944 296.28 28.4073C296.274 28.3687 296.254 28.3108 296.248 28.2658C296.64 28.2016 296.981 27.9958 297.212 27.6551H297.206Z" fill="#FFD79B"/>
<path d="M284.156 19.394C284.271 19.4069 284.4 19.4262 284.522 19.4455C284.066 19.4455 283.699 19.4712 283.436 19.5162C283.416 19.4648 283.397 19.4133 283.378 19.3555C283.616 19.3555 283.867 19.3683 284.149 19.394H284.156Z" fill="#FFD79B"/>
<path d="M264.639 99.0506C271.711 99.0506 277.444 93.3173 277.444 86.245C277.444 79.1727 271.711 73.4395 264.639 73.4395C257.567 73.4395 251.833 79.1727 251.833 86.245C251.833 93.3173 257.567 99.0506 264.639 99.0506Z" fill="#855C00" stroke="#9B5D00" stroke-miterlimit="10"/>
<path d="M265.352 98.4588C272.425 98.4588 278.158 92.7255 278.158 85.6532C278.158 78.5809 272.425 72.8477 265.352 72.8477C258.28 72.8477 252.547 78.5809 252.547 85.6532C252.547 92.7255 258.28 98.4588 265.352 98.4588Z" fill="#FFB200" stroke="#9B5D00" stroke-miterlimit="10"/>
<path d="M274.404 78.2099C270.109 72.9899 262.453 72.1671 257.15 76.2877C257.24 76.2106 257.323 76.1335 257.413 76.0563C262.723 71.6849 270.572 72.4499 274.944 77.7599C279.315 83.0698 278.55 90.919 273.24 95.2904C273.15 95.3675 273.054 95.4318 272.964 95.5089C278.029 91.099 278.698 83.4298 274.404 78.2099Z" fill="#FFD79B"/>
<path d="M265.352 96.6075C271.402 96.6075 276.306 91.7032 276.306 85.6534C276.306 79.6036 271.402 74.6992 265.352 74.6992C259.303 74.6992 254.398 79.6036 254.398 85.6534C254.398 91.7032 259.303 96.6075 265.352 96.6075Z" fill="#FFCB00" stroke="#9B5D00" stroke-miterlimit="10"/>
<path d="M263.72 78.2405C265.25 78.5105 267.892 79.0119 268.277 79.2626C268.824 79.629 270.617 84.9004 270.829 86.3018C270.977 87.2661 269.955 88.5325 269.306 89.2268C269.364 89.7153 269.351 90.1203 269.319 90.4289C269.287 90.7825 268.927 91.001 268.599 90.8789L268.56 90.866C268.56 90.9175 268.56 90.9689 268.567 91.0203C268.599 91.856 267.776 92.4603 266.979 92.1967L266.869 92.1582C266.869 92.1582 266.522 92.0489 266.336 91.991C266.272 91.9717 266.239 91.9139 266.246 91.8496C266.143 91.946 266.04 92.0296 265.924 92.1132C264.157 93.3989 261.463 92.7174 259.92 90.5896C258.371 88.4618 258.551 85.6911 260.319 84.4054C260.467 84.3026 260.621 84.2126 260.775 84.1354C260.724 84.129 260.679 84.1226 260.647 84.1161C260.582 84.1097 260.531 84.0518 260.531 83.9811C260.531 83.7626 260.531 83.3126 260.531 83.3126C260.505 82.464 261.347 81.8597 262.145 82.149C262.183 82.1619 262.222 82.1812 262.267 82.194V82.1747V82.1619C262.26 81.8147 262.575 81.5576 262.91 81.6219C263.257 81.6926 263.732 81.834 264.272 82.0976L265.391 81.7954L265.211 80.0019L263.514 78.7098C263.289 78.5362 263.443 78.1762 263.726 78.2276L263.72 78.2405Z" fill="#D78400" stroke="#9B5D00" stroke-miterlimit="10"/>
<path d="M273.099 79.2826C269.351 74.7313 262.704 73.9791 258.043 77.4955C258.159 77.3927 258.275 77.2898 258.39 77.1934C263.064 73.3491 269.968 74.0241 273.812 78.6976C277.657 83.3712 276.982 90.2754 272.308 94.1196C272.186 94.216 272.064 94.3125 271.942 94.4025C276.294 90.5068 276.84 83.834 273.092 79.2826H273.099Z" fill="#C88400" stroke="#9B5D00" stroke-miterlimit="10"/>
<path d="M266.281 91.8382C268.049 90.5518 268.229 87.7842 266.681 85.6566C265.134 83.5291 262.446 82.8472 260.677 84.1336C258.908 85.42 258.729 88.1876 260.276 90.3152C261.824 92.4428 264.512 93.1246 266.281 91.8382Z" fill="#FFB200" stroke="#9B5D00" stroke-miterlimit="10"/>
<path d="M264.613 90.7689C265.305 90.2656 265.623 89.5248 265.325 89.1142C265.026 88.7036 264.223 88.7788 263.531 89.2821C262.839 89.7854 262.52 90.5262 262.819 90.9368C263.118 91.3474 263.921 91.2722 264.613 90.7689Z" fill="#FFB00B" stroke="#9B5D00" stroke-miterlimit="10"/>
<path d="M262.258 87.5306C262.95 87.0273 263.269 86.2865 262.97 85.8759C262.672 85.4653 261.869 85.5405 261.177 86.0438C260.485 86.5471 260.166 87.2879 260.465 87.6985C260.763 88.1091 261.566 88.0339 262.258 87.5306Z" fill="#FFB00B" stroke="#9B5D00" stroke-miterlimit="10"/>
<path d="M269.145 89.4533C269.145 89.4533 271.395 87.4219 271.183 86.0141C270.971 84.6062 269.177 79.3413 268.631 78.9749C268.245 78.7177 265.609 78.2227 264.073 77.9463C263.79 77.8949 263.636 78.2613 263.861 78.4284L265.558 79.7206L265.738 81.5141L264.343 81.887L269.145 89.4469V89.4533Z" fill="#FFB200"/>
<path d="M269.145 89.4533C269.145 89.4533 271.395 87.4219 271.183 86.0141C270.971 84.6127 269.177 79.3413 268.631 78.9749C268.245 78.7177 265.609 78.2227 264.073 77.9463C263.79 77.8949 263.636 78.2613 263.861 78.4284L265.558 79.7206L265.738 81.5141L264.343 81.887L269.145 89.4469V89.4533Z" stroke="#9B5D00" stroke-miterlimit="10"/>
<path d="M262.492 81.8671C262.53 81.88 262.569 81.8992 262.614 81.9121V81.8928V81.88C262.607 81.5328 262.922 81.2757 263.257 81.34C264.214 81.5328 266.072 82.2335 267.872 84.7021C269.672 87.1706 269.775 89.1506 269.679 90.1341C269.647 90.4877 269.287 90.7063 268.959 90.5841L268.92 90.5713C268.92 90.6227 268.92 90.6741 268.927 90.7256C268.959 91.5613 268.136 92.1655 267.339 91.902L267.229 91.8634C267.229 91.8634 266.882 91.7541 266.696 91.6963C266.632 91.677 266.593 91.6127 266.606 91.5484C266.638 91.3556 266.689 90.9248 266.606 90.327C266.503 89.5363 266.143 88.2763 265.031 86.7528C263.919 85.2292 262.852 84.5156 262.138 84.1814C261.604 83.9306 261.193 83.8535 261 83.8278C260.936 83.8214 260.884 83.7635 260.884 83.6928C260.884 83.4742 260.884 83.0242 260.884 83.0242C260.859 82.1757 261.701 81.5714 262.498 81.8607L262.492 81.8671Z" fill="#FFB200" stroke="#9B5D00" stroke-miterlimit="10"/>
<path d="M260.563 89.6898C262.016 91.6698 264.51 92.3319 266.137 91.1491C266.207 91.0977 266.272 91.0398 266.336 90.9884C266.336 91.162 266.323 91.3098 266.31 91.4127C266.239 91.4705 266.175 91.5348 266.098 91.5862C264.472 92.7691 261.977 92.1134 260.525 90.127C259.817 89.1563 259.47 88.0184 259.541 86.9192C259.547 86.797 259.567 86.6749 259.58 86.5527C259.528 87.6263 259.875 88.7384 260.57 89.6898H260.563Z" fill="#FFD79B"/>
<path d="M263.996 90.4746C264.279 90.2689 264.51 89.9989 264.62 89.7417C264.71 89.536 264.716 89.356 264.639 89.2532C264.639 89.2532 264.639 89.2467 264.632 89.2403C264.607 89.2146 264.575 89.1889 264.542 89.1696C264.562 89.1696 264.587 89.1632 264.607 89.1567C264.819 89.1374 264.986 89.1824 265.07 89.2789C265.07 89.2789 265.069 89.2853 265.076 89.2917C265.153 89.401 265.147 89.5746 265.057 89.7803C264.947 90.0374 264.716 90.3074 264.433 90.5131C264.15 90.7189 263.822 90.8538 263.546 90.8796C263.392 90.8924 263.263 90.8796 263.173 90.8281C263.437 90.7896 263.739 90.6674 264.002 90.4746H263.996Z" fill="#FFD79B"/>
<path d="M261.637 87.2355C261.92 87.0298 262.151 86.7598 262.26 86.5026C262.35 86.2969 262.357 86.1169 262.28 86.0141C262.28 86.0141 262.28 86.0076 262.273 86.0012C262.247 85.9691 262.215 85.9498 262.177 85.9305C262.421 85.8919 262.614 85.9305 262.704 86.0462C262.704 86.0462 262.704 86.0526 262.71 86.059C262.787 86.1619 262.781 86.3419 262.691 86.5476C262.582 86.8048 262.35 87.0748 262.067 87.2805C261.579 87.634 261.065 87.724 260.814 87.5955C261.058 87.5569 261.354 87.4412 261.63 87.2355H261.637Z" fill="#FFD79B"/>
<path d="M270.052 85.5375C269.846 84.1875 268.47 80.2147 267.84 79.0254C268.303 79.1475 268.432 79.2054 268.457 79.2247C268.47 79.2375 268.483 79.2504 268.496 79.2632C268.991 79.8675 270.649 84.5603 270.874 86.0517C270.971 86.6882 270.424 87.5496 269.852 88.2438C269.775 87.8839 269.666 87.4917 269.512 87.0739C269.865 86.5403 270.116 85.981 270.052 85.5375Z" fill="#FFD79B"/>
<path d="M267.628 91.2019C267.866 91.0284 267.995 90.7584 267.982 90.4627V90.3148C267.969 90.2119 268.014 90.1155 268.091 90.0577C268.168 89.9934 268.271 89.9741 268.367 89.9998L268.432 90.0191C268.522 90.0512 268.592 90.0191 268.631 89.9998C268.689 89.9612 268.727 89.8969 268.74 89.8262C268.83 88.9005 268.727 86.9848 266.992 84.6063C266.85 84.407 266.702 84.2206 266.561 84.047C265.635 82.922 264.716 82.2535 263.951 81.8613C264.819 82.1828 265.995 82.8706 267.191 84.3234C267.332 84.497 267.48 84.6834 267.622 84.8827C269.351 87.2613 269.46 89.177 269.37 90.1027C269.364 90.1734 269.325 90.2376 269.261 90.2762C269.229 90.2955 269.152 90.3277 269.062 90.2955L268.997 90.2762C268.901 90.2505 268.798 90.2698 268.721 90.3341C268.644 90.3984 268.599 90.4948 268.605 90.5912V90.7391C268.625 91.0284 268.496 91.2984 268.258 91.4784C268.02 91.6584 267.718 91.7033 267.435 91.6133L267.326 91.5748C267.326 91.5748 267.114 91.5041 266.927 91.4462C266.927 91.4205 266.927 91.3819 266.934 91.3562C267.178 91.4012 267.422 91.3498 267.628 91.1955V91.2019Z" fill="#FFD79B"/>
<path d="M261.637 83.622C261.701 83.6541 261.772 83.6927 261.842 83.7248C261.579 83.6284 261.347 83.5705 261.187 83.5384C261.187 83.5063 261.187 83.4677 261.187 83.4355C261.328 83.487 261.476 83.5448 261.637 83.622Z" fill="#FFD79B"/>
<path d="M246.678 126.103C251.914 126.103 256.16 121.857 256.16 116.621C256.16 111.384 251.914 107.139 246.678 107.139C241.441 107.139 237.196 111.384 237.196 116.621C237.196 121.857 241.441 126.103 246.678 126.103Z" fill="#855C00" stroke="#9B5D00" stroke-miterlimit="10"/>
<path d="M247.128 125.581C252.364 125.581 256.61 121.336 256.61 116.099C256.61 110.862 252.364 106.617 247.128 106.617C241.891 106.617 237.646 110.862 237.646 116.099C237.646 121.336 241.891 125.581 247.128 125.581Z" fill="#FFB200" stroke="#9B5D00" stroke-miterlimit="10"/>
<path d="M252.778 109.516C248.979 106.257 243.29 106.63 239.947 110.313C239.998 110.249 240.056 110.178 240.114 110.114C243.431 106.25 249.255 105.807 253.119 109.13C256.983 112.447 257.426 118.272 254.103 122.135C254.045 122.199 253.987 122.264 253.929 122.328C257.066 118.464 256.578 112.788 252.778 109.522V109.516Z" fill="#FFD79B"/>
<path d="M247.128 124.212C251.608 124.212 255.24 120.58 255.24 116.099C255.24 111.619 251.608 107.986 247.128 107.986C242.647 107.986 239.015 111.619 239.015 116.099C239.015 120.58 242.647 124.212 247.128 124.212Z" fill="#FFCB00" stroke="#9B5D00" stroke-miterlimit="10"/>
<path d="M244.987 110.905C246.138 110.905 248.124 110.937 248.439 111.072C248.883 111.271 250.863 114.884 251.197 115.881C251.428 116.568 250.843 117.623 250.458 118.208C250.56 118.555 250.605 118.85 250.618 119.082C250.638 119.339 250.406 119.551 250.149 119.5H250.117C250.123 119.532 250.136 119.57 250.143 119.609C250.271 120.213 249.751 120.76 249.133 120.67L249.05 120.657C249.05 120.657 248.78 120.618 248.638 120.605C248.593 120.605 248.555 120.56 248.555 120.515C248.491 120.599 248.426 120.676 248.356 120.747C247.231 121.91 245.18 121.756 243.778 120.4C242.377 119.043 242.158 116.999 243.283 115.836C243.373 115.739 243.476 115.656 243.579 115.578C243.541 115.578 243.508 115.578 243.483 115.578C243.431 115.578 243.386 115.546 243.38 115.495C243.354 115.334 243.29 115.013 243.29 115.013C243.168 114.396 243.701 113.849 244.318 113.958C244.351 113.958 244.383 113.971 244.415 113.978V113.965V113.952C244.363 113.701 244.563 113.47 244.82 113.476C245.083 113.483 245.443 113.528 245.874 113.65L246.652 113.29L246.292 112.004L244.891 111.278C244.704 111.181 244.775 110.898 244.981 110.898L244.987 110.905Z" fill="#D78400" stroke="#9B5D00" stroke-miterlimit="10"/>
<path d="M251.968 110.468C248.658 107.62 243.708 107.922 240.757 111.079C240.828 110.989 240.899 110.899 240.976 110.815C243.894 107.415 249.018 107.029 252.418 109.947C255.819 112.866 256.205 117.989 253.286 121.39C253.209 121.48 253.132 121.564 253.055 121.647C255.735 118.253 255.279 113.316 251.968 110.474V110.468Z" fill="#C88400" stroke="#9B5D00" stroke-miterlimit="10"/>
<path d="M248.586 120.493C249.712 119.33 249.489 117.288 248.089 115.932C246.688 114.576 244.64 114.42 243.514 115.583C242.388 116.746 242.611 118.788 244.011 120.144C245.412 121.5 247.46 121.656 248.586 120.493Z" fill="#FFB200" stroke="#9B5D00" stroke-miterlimit="10"/>
<path d="M247.229 119.928C247.668 119.474 247.805 118.894 247.535 118.632C247.265 118.371 246.689 118.527 246.249 118.981C245.81 119.435 245.673 120.015 245.943 120.277C246.214 120.538 246.789 120.383 247.229 119.928Z" fill="#FFB00B" stroke="#9B5D00" stroke-miterlimit="10"/>
<path d="M245.102 117.856C245.541 117.402 245.678 116.822 245.408 116.56C245.138 116.298 244.562 116.454 244.123 116.908C243.683 117.362 243.546 117.943 243.816 118.204C244.087 118.466 244.662 118.31 245.102 117.856Z" fill="#FFB00B" stroke="#9B5D00" stroke-miterlimit="10"/>
<path d="M250.374 118.388C250.374 118.388 251.756 116.621 251.422 115.624C251.088 114.628 249.108 111.008 248.664 110.816C248.349 110.674 246.363 110.648 245.212 110.648C245 110.648 244.929 110.931 245.122 111.028L246.523 111.754L246.883 113.04L245.913 113.49L250.381 118.395L250.374 118.388Z" fill="#FFB200"/>
<path d="M250.374 118.388C250.374 118.388 251.756 116.621 251.422 115.624C251.088 114.628 249.114 111.008 248.664 110.816C248.349 110.674 246.363 110.648 245.212 110.648C245 110.648 244.929 110.931 245.122 111.028L246.523 111.754L246.883 113.04L245.913 113.49L250.381 118.395L250.374 118.388Z" stroke="#9B5D00" stroke-miterlimit="10"/>
<path d="M244.556 113.701C244.556 113.701 244.621 113.714 244.653 113.72V113.707V113.695C244.601 113.444 244.801 113.212 245.058 113.219C245.784 113.238 247.224 113.508 248.851 115.083C250.477 116.658 250.805 118.085 250.856 118.818C250.875 119.075 250.644 119.287 250.387 119.236H250.355C250.361 119.268 250.374 119.307 250.38 119.345C250.509 119.95 249.988 120.496 249.371 120.406L249.288 120.393C249.288 120.393 249.018 120.355 248.876 120.342C248.825 120.342 248.786 120.297 248.793 120.245C248.793 120.097 248.773 119.782 248.638 119.352C248.458 118.786 248.041 117.912 247.038 116.941C246.035 115.97 245.161 115.585 244.601 115.43C244.177 115.315 243.868 115.308 243.727 115.315C243.676 115.315 243.631 115.282 243.624 115.231C243.598 115.07 243.534 114.749 243.534 114.749C243.412 114.132 243.946 113.585 244.563 113.695L244.556 113.701Z" fill="#FFB200" stroke="#9B5D00" stroke-miterlimit="10"/>
<path d="M244.145 119.654C245.456 120.914 247.359 121.074 248.394 120.007C248.439 119.962 248.478 119.911 248.516 119.866C248.536 119.994 248.548 120.097 248.548 120.181C248.503 120.232 248.465 120.284 248.413 120.335C247.378 121.409 245.469 121.241 244.164 119.981C243.528 119.364 243.123 118.58 243.039 117.77C243.026 117.68 243.026 117.59 243.02 117.5C243.116 118.291 243.515 119.056 244.138 119.66L244.145 119.654Z" fill="#FFD79B"/>
<path d="M246.748 119.789C246.928 119.602 247.063 119.377 247.108 119.172C247.147 119.011 247.128 118.882 247.057 118.812C247.057 118.812 247.057 118.812 247.051 118.805C247.031 118.786 247.006 118.773 246.973 118.767C246.986 118.767 247.006 118.754 247.018 118.747C247.173 118.702 247.301 118.715 247.372 118.779C247.372 118.779 247.372 118.779 247.378 118.786C247.449 118.857 247.468 118.985 247.43 119.146C247.385 119.352 247.25 119.57 247.07 119.763C246.89 119.949 246.671 120.091 246.466 120.142C246.356 120.174 246.26 120.174 246.189 120.149C246.376 120.084 246.581 119.956 246.748 119.782V119.789Z" fill="#FFD79B"/>
<path d="M244.614 117.725C244.794 117.539 244.929 117.314 244.974 117.108C245.013 116.947 244.993 116.819 244.923 116.748C244.923 116.748 244.923 116.748 244.916 116.742C244.897 116.722 244.865 116.71 244.839 116.703C245.013 116.645 245.161 116.652 245.238 116.722C245.238 116.722 245.238 116.722 245.244 116.729C245.315 116.793 245.334 116.928 245.296 117.089C245.251 117.295 245.116 117.513 244.936 117.706C244.627 118.027 244.261 118.156 244.061 118.098C244.235 118.04 244.434 117.918 244.614 117.732V117.725Z" fill="#FFD79B"/>
<path d="M250.541 115.417C250.22 114.459 248.709 111.733 248.098 110.949C248.452 110.981 248.548 111.007 248.574 111.02C248.587 111.02 248.593 111.033 248.606 111.046C249.043 111.425 250.85 114.639 251.203 115.693C251.351 116.143 251.062 116.844 250.734 117.423C250.631 117.172 250.503 116.896 250.336 116.613C250.522 116.182 250.638 115.738 250.535 115.423L250.541 115.417Z" fill="#FFD79B"/>
<path d="M249.487 119.859C249.635 119.698 249.699 119.486 249.654 119.274L249.628 119.165C249.609 119.094 249.628 119.017 249.68 118.959C249.731 118.901 249.802 118.876 249.873 118.882H249.924C249.995 118.901 250.046 118.869 250.065 118.85C250.104 118.818 250.123 118.766 250.123 118.708C250.072 118.021 249.75 116.638 248.182 115.121C248.053 114.993 247.925 114.877 247.796 114.768C246.98 114.067 246.221 113.694 245.61 113.508C246.285 113.636 247.23 113.984 248.291 114.896C248.42 115.006 248.548 115.121 248.677 115.25C250.245 116.767 250.567 118.149 250.618 118.837C250.618 118.888 250.599 118.94 250.56 118.978C250.535 118.998 250.49 119.03 250.419 119.017H250.368C250.297 119.004 250.22 119.03 250.175 119.088C250.123 119.146 250.104 119.216 250.123 119.293L250.149 119.403C250.194 119.615 250.136 119.827 249.982 119.988C249.828 120.148 249.615 120.226 249.397 120.187L249.313 120.174C249.313 120.174 249.146 120.148 249.005 120.136C249.005 120.116 249.005 120.091 249.005 120.065C249.185 120.065 249.358 119.994 249.487 119.859Z" fill="#FFD79B"/>
<path d="M244.158 115.095C244.209 115.108 244.267 115.127 244.325 115.146C244.119 115.108 243.946 115.095 243.823 115.095C243.823 115.069 243.817 115.043 243.811 115.018C243.92 115.037 244.036 115.056 244.164 115.095H244.158Z" fill="#FFD79B"/>
</g>
<g clip-path="url(#clip5_5817_10111)">
<path d="M163.357 124.803L90.2783 125.921L92.3933 111.123L96.3532 109.715L163.357 124.803Z" fill="#FFEB76" stroke="#9B5D00"/>
<path d="M110.052 117.287L123.404 119.376" stroke="#9B5D00"/>
<path d="M96.7133 115.205L106.202 116.69" stroke="#9B5D00"/>
<path d="M125.191 119.646L136.338 121.17" stroke="#9B5D00"/>
<path d="M98.9889 121.094L115.343 121.769" stroke="#9B5D00"/>
<path d="M166.687 120.702L33.7269 37.2217L54.851 13.0312L66.5508 15.4419L166.687 120.702Z" fill="#FFEB76" stroke="#9B5D00"/>
<path d="M79.4399 44.8008L101.059 64.1827" stroke="#9B5D00"/>
<path d="M57.8467 25.4375L73.2108 39.2138" stroke="#9B5D00"/>
<path d="M103.958 66.7539L122.254 82.5359" stroke="#9B5D00"/>
<path d="M55.0696 38.7129L83.7342 59.0591" stroke="#9B5D00"/>
<path d="M164.9 122.418L67.6758 97.424L74.5928 77.4507L80.4942 76.2871L164.9 122.418Z" fill="#FFEB76" stroke="#9B5D00"/>
<path d="M96.0254 92.3574L113.202 100.162" stroke="#9B5D00"/>
<path d="M78.8678 84.5605L91.0755 90.1083" stroke="#9B5D00"/>
<path d="M115.504 101.197L129.923 107.414" stroke="#9B5D00"/>
<path d="M79.7292 93.3359L101.464 100.362" stroke="#9B5D00"/>
<path d="M47.5739 42.2408C58.8889 42.2408 68.0615 33.0682 68.0615 21.7532C68.0615 10.4382 58.8889 1.26562 47.5739 1.26562C36.2589 1.26562 27.0863 10.4382 27.0863 21.7532C27.0863 33.0682 36.2589 42.2408 47.5739 42.2408Z" fill="#855C00" stroke="#9B5D00" stroke-miterlimit="10"/>
<path d="M46.8089 40.9752C58.1239 40.9752 67.2965 31.8026 67.2965 20.4876C67.2965 9.17261 58.1239 0 46.8089 0C35.4939 0 26.3213 9.17261 26.3213 20.4876C26.3213 31.8026 35.4939 40.9752 46.8089 40.9752Z" fill="#FFB200" stroke="#9B5D00" stroke-miterlimit="10"/>
<path d="M37.0955 4.46217C46.3396 -1.14347 58.3288 1.66578 64.1465 10.6978C64.0565 10.5371 63.9665 10.37 63.8701 10.2092C58.168 0.804359 45.9218 -2.20417 36.5105 3.50433C27.1056 9.2064 24.1035 21.4527 29.8055 30.8576C29.902 31.0183 30.0048 31.1726 30.1077 31.3268C24.7913 21.9927 27.8449 10.0678 37.0955 4.46217Z" fill="#FFD79B"/>
<path d="M46.8089 38.011C56.4871 38.011 64.3329 30.1652 64.3329 20.487C64.3329 10.8087 56.4871 2.96289 46.8089 2.96289C37.1306 2.96289 29.2848 10.8087 29.2848 20.487C29.2848 30.1652 37.1306 38.011 46.8089 38.011Z" fill="#FFCB00" stroke="#9B5D00" stroke-miterlimit="10"/>
<path d="M53.1989 10.1702C50.7432 9.77162 46.5004 9.12234 45.7804 9.30234C44.7583 9.56591 39.2619 16.5665 38.2012 18.5787C37.4683 19.9608 38.3426 22.41 38.9533 23.805C38.6126 24.5121 38.4133 25.1229 38.2976 25.605C38.1626 26.1514 38.5805 26.6785 39.1462 26.6657H39.2169C39.1848 26.7493 39.1526 26.8264 39.1205 26.9035C38.6319 28.1507 39.5512 29.4942 40.8883 29.5135H41.0747C41.0747 29.5135 41.6597 29.5328 41.9683 29.5457C42.0711 29.5457 42.1547 29.4814 42.1804 29.3849C42.2833 29.5778 42.3926 29.7707 42.5211 29.9507C44.5075 32.8306 48.9303 33.2228 52.3953 30.8314C55.8603 28.44 57.056 24.165 55.0696 21.285C54.9088 21.0472 54.7224 20.8351 54.5231 20.6293C54.6003 20.6422 54.671 20.6551 54.7288 20.6679C54.8317 20.6936 54.941 20.6293 54.9731 20.5265C55.0888 20.1922 55.3331 19.5236 55.3331 19.5236C55.8153 18.2572 54.8703 16.9008 53.5139 16.9137C53.4496 16.9137 53.3789 16.9137 53.3081 16.9137V16.888L53.3274 16.8687C53.5267 16.3544 53.186 15.7887 52.6396 15.7115C52.0739 15.6344 51.2896 15.5958 50.3318 15.7115L48.8018 14.6701L50.0168 12.0537L53.2567 10.9995C53.6939 10.858 53.6424 10.228 53.1924 10.1573L53.1989 10.1702Z" fill="#D78400" stroke="#9B5D00" stroke-miterlimit="10"/>
<path d="M38.4904 6.76837C46.5518 1.88272 56.9852 4.26769 62.1602 12.0462C62.0444 11.8276 61.9223 11.6155 61.7937 11.4033C56.7795 3.12985 45.9989 0.487739 37.7255 5.50196C29.452 10.5162 26.8099 21.2968 31.8241 29.5702C31.9527 29.7824 32.0877 29.9881 32.2227 30.1938C27.7163 22.0103 30.4291 11.654 38.4904 6.76837Z" fill="#C88400" stroke="#9B5D00" stroke-miterlimit="10"/>
<path d="M52.0179 30.1973C55.4827 27.8044 56.6804 23.5319 54.693 20.6544C52.7057 17.7768 48.286 17.3839 44.8212 19.7767C41.3565 22.1696 40.1588 26.4421 42.1461 29.3196C44.1334 32.1972 48.5532 32.5901 52.0179 30.1973Z" fill="#FFB200" stroke="#9B5D00" stroke-miterlimit="10"/>
<path d="M47.8427 29.7911C48.5117 29.3291 48.4244 28.0428 47.6476 26.918C46.8708 25.7933 45.6988 25.2561 45.0298 25.7181C44.3608 26.1801 44.4482 27.4665 45.2249 28.5912C46.0017 29.7159 47.1737 30.2531 47.8427 29.7911Z" fill="#FFB00B" stroke="#9B5D00" stroke-miterlimit="10"/>
<path d="M53.111 26.1505C53.78 25.6885 53.6927 24.4021 52.9159 23.2774C52.1391 22.1527 50.9671 21.6155 50.2981 22.0775C49.6291 22.5395 49.7165 23.8258 50.4933 24.9506C51.27 26.0753 52.442 26.6125 53.111 26.1505Z" fill="#FFB00B" stroke="#9B5D00" stroke-miterlimit="10"/>
<path d="M39.0755 24.2098C39.0755 24.2098 36.7612 19.9541 37.8219 17.942C38.8826 15.9299 44.379 8.92926 45.4011 8.66569C46.1211 8.47927 50.3639 9.12854 52.8196 9.53354C53.2696 9.60425 53.3146 10.2342 52.8839 10.3757L49.6439 11.4299L48.4289 14.0463L50.3317 15.3449L39.0819 24.2098H39.0755Z" fill="#FFB200"/>
<path d="M39.0755 24.2098C39.0755 24.2098 36.7612 19.9541 37.8219 17.942C38.8826 15.9299 44.379 8.92926 45.4011 8.66569C46.1211 8.47927 50.3639 9.12854 52.8196 9.53354C53.2696 9.60425 53.3146 10.2342 52.8839 10.3757L49.6439 11.4299L48.4289 14.0463L50.3317 15.3449L39.0819 24.2098H39.0755Z" stroke="#9B5D00" stroke-miterlimit="10"/>
<path d="M53.1346 16.2904C53.0703 16.2904 52.9996 16.2904 52.9289 16.2904V16.2647L52.9481 16.2454C53.1474 15.7312 52.8067 15.1655 52.2603 15.0883C50.711 14.8762 47.5354 14.9405 43.5176 17.7176C39.4997 20.4947 38.2912 23.4196 37.9183 24.9625C37.7833 25.5089 38.2012 26.036 38.7669 26.0232H38.8376C38.8055 26.1067 38.7733 26.1839 38.7412 26.261C38.2526 27.5082 39.1719 28.8517 40.509 28.871H40.6954C40.6954 28.871 41.2804 28.8903 41.589 28.9031C41.6983 28.9031 41.7883 28.8324 41.8076 28.7231C41.859 28.4081 42.0069 27.7396 42.4504 26.8782C43.029 25.7403 44.2375 24.0303 46.7189 22.3139C49.1939 20.604 51.1996 20.0961 52.4467 19.9611C53.3853 19.8647 54.0474 19.9611 54.356 20.0254C54.4588 20.0511 54.5681 19.9868 54.6003 19.884C54.716 19.5497 54.9603 18.8811 54.9603 18.8811C55.4424 17.6147 54.4974 16.2583 53.141 16.2712L53.1346 16.2904Z" fill="#FFB200" stroke="#9B5D00" stroke-miterlimit="10"/>
<path d="M51.9002 29.115C48.6603 31.3328 44.546 31.0114 42.7139 28.3628C42.6368 28.2471 42.5661 28.1314 42.5018 28.0093C42.4118 28.2728 42.3539 28.4978 42.3218 28.665C42.3925 28.7935 42.4632 28.9221 42.5468 29.0378C44.3789 31.6864 48.4931 32.0142 51.7331 29.7899C53.3145 28.6971 54.4459 27.1671 54.9216 25.4764C54.973 25.2836 55.018 25.0972 55.0502 24.9043C54.5616 26.5564 53.4495 28.0478 51.9002 29.115Z" fill="#FFD79B"/>
<path d="M46.3074 28.4783C45.986 28.0154 45.7867 27.4883 45.7546 27.0383C45.7289 26.6847 45.8124 26.4083 45.986 26.2926C45.986 26.2926 45.9989 26.2862 46.0053 26.2798C46.0567 26.2476 46.1146 26.2348 46.1789 26.2219C46.1467 26.209 46.121 26.1833 46.0889 26.1705C45.7739 26.029 45.4975 26.0033 45.3239 26.1126C45.3175 26.1126 45.311 26.119 45.3046 26.1255C45.131 26.2476 45.0475 26.5176 45.0732 26.8712C45.1053 27.3212 45.3046 27.8419 45.626 28.3112C45.9474 28.774 46.3653 29.1469 46.7767 29.3397C47.0017 29.4426 47.2074 29.4811 47.3681 29.4554C46.9889 29.2561 46.6032 28.909 46.3074 28.4783Z" fill="#FFD79B"/>
<path d="M51.5788 24.8393C51.2574 24.3765 51.0581 23.8493 51.026 23.3993C51.0002 23.0458 51.0838 22.7693 51.2574 22.6536C51.2574 22.6536 51.2702 22.6472 51.2767 22.6408C51.3281 22.6086 51.3924 22.5893 51.4567 22.5829C51.1095 22.3965 50.7945 22.3579 50.5952 22.4736C50.5888 22.4736 50.5824 22.4801 50.576 22.4865C50.4024 22.6086 50.3188 22.8786 50.3445 23.2322C50.3767 23.6822 50.576 24.2029 50.8974 24.6722C51.4438 25.4693 52.1767 25.8743 52.6202 25.8164C52.2731 25.63 51.8938 25.3022 51.5724 24.8393H51.5788Z" fill="#FFD79B"/>
<path d="M39.7825 17.8268C40.8046 15.8983 44.9896 10.6269 46.5646 9.16767C45.7996 9.10339 45.581 9.13553 45.5231 9.14838C45.4974 9.15481 45.4717 9.1741 45.4396 9.18696C44.3724 9.83623 39.3839 16.0462 38.2525 18.174C37.7704 19.0804 38.1432 20.6747 38.6318 22.0182C38.9339 21.5104 39.3132 20.9768 39.7696 20.4304C39.5189 19.4404 39.4354 18.4633 39.7696 17.8268H39.7825Z" fill="#FFD79B"/>
<path d="M40.4447 27.6551C40.1811 27.263 40.1297 26.7873 40.2969 26.3566L40.3869 26.1316C40.4511 25.9837 40.4319 25.8166 40.3483 25.6816C40.2647 25.5466 40.1169 25.4566 39.9561 25.4502H39.8533C39.699 25.4502 39.6026 25.3602 39.564 25.3087C39.4933 25.2187 39.4676 25.103 39.4933 24.9937C39.8469 23.5473 41.0233 20.7124 44.8932 18.0381C45.2147 17.8195 45.5296 17.6138 45.8382 17.4274C47.831 16.2189 49.5667 15.6981 50.936 15.5117C49.4575 15.5439 47.3103 15.9553 44.7389 17.5174C44.4304 17.7038 44.1154 17.9095 43.794 18.1281C39.9176 20.8024 38.7476 23.6373 38.394 25.0837C38.3683 25.193 38.394 25.3087 38.4647 25.3987C38.5033 25.4502 38.5997 25.5402 38.754 25.5337H38.8569C39.0176 25.5466 39.1654 25.6302 39.249 25.7716C39.3326 25.9066 39.3454 26.0737 39.2876 26.2216L39.1976 26.4466C39.0304 26.8773 39.0819 27.353 39.3454 27.7451C39.6154 28.1437 40.0397 28.3751 40.5154 28.3816H40.7019C40.7019 28.3816 41.0618 28.3944 41.3704 28.4073C41.3768 28.3687 41.3961 28.3108 41.4026 28.2658C41.0104 28.2016 40.6697 27.9958 40.4383 27.6551H40.4447Z" fill="#FFD79B"/>
<path d="M53.4946 19.394C53.3789 19.4069 53.2503 19.4262 53.1282 19.4455C53.5846 19.4455 53.951 19.4712 54.2146 19.5162C54.2339 19.4648 54.2532 19.4133 54.2724 19.3555C54.0346 19.3555 53.7839 19.3683 53.501 19.394H53.4946Z" fill="#FFD79B"/>
<path d="M73.005 99.0506C80.0773 99.0506 85.8106 93.3173 85.8106 86.245C85.8106 79.1727 80.0773 73.4395 73.005 73.4395C65.9327 73.4395 60.1995 79.1727 60.1995 86.245C60.1995 93.3173 65.9327 99.0506 73.005 99.0506Z" fill="#855C00" stroke="#9B5D00" stroke-miterlimit="10"/>
<path d="M72.2914 98.4588C79.3637 98.4588 85.0969 92.7255 85.0969 85.6532C85.0969 78.5809 79.3637 72.8477 72.2914 72.8477C65.2191 72.8477 59.4858 78.5809 59.4858 85.6532C59.4858 92.7255 65.2191 98.4588 72.2914 98.4588Z" fill="#FFB200" stroke="#9B5D00" stroke-miterlimit="10"/>
<path d="M63.2401 78.2099C67.5343 72.9899 75.1907 72.1671 80.4942 76.2877C80.4042 76.2106 80.3206 76.1335 80.2306 76.0563C74.9207 71.6849 67.0715 72.4499 62.7001 77.7599C58.3287 83.0698 59.0937 90.919 64.4037 95.2904C64.4937 95.3675 64.5901 95.4318 64.6801 95.5089C59.6144 91.099 58.9459 83.4298 63.2401 78.2099Z" fill="#FFD79B"/>
<path d="M72.2914 96.6075C78.3412 96.6075 83.2456 91.7032 83.2456 85.6534C83.2456 79.6036 78.3412 74.6992 72.2914 74.6992C66.2416 74.6992 61.3373 79.6036 61.3373 85.6534C61.3373 91.7032 66.2416 96.6075 72.2914 96.6075Z" fill="#FFCB00" stroke="#9B5D00" stroke-miterlimit="10"/>
<path d="M73.9243 78.2405C72.3943 78.5105 69.7522 79.0119 69.3665 79.2626C68.82 79.629 67.0265 84.9004 66.8144 86.3018C66.6665 87.2661 67.6886 88.5325 68.3379 89.2268C68.2801 89.7153 68.2929 90.1203 68.325 90.4289C68.3572 90.7825 68.7172 91.001 69.045 90.8789L69.0836 90.866C69.0836 90.9175 69.0836 90.9689 69.0772 91.0203C69.045 91.856 69.8679 92.4603 70.665 92.1967L70.7743 92.1582C70.7743 92.1582 71.1214 92.0489 71.3079 91.991C71.3722 91.9717 71.4043 91.9139 71.3979 91.8496C71.5007 91.946 71.6036 92.0296 71.7193 92.1132C73.4871 93.3989 76.1807 92.7174 77.7235 90.5896C79.2728 88.4618 79.0928 85.6911 77.3249 84.4054C77.1771 84.3026 77.0228 84.2126 76.8685 84.1354C76.9199 84.129 76.9649 84.1226 76.9971 84.1161C77.0614 84.1097 77.1128 84.0518 77.1128 83.9811C77.1128 83.7626 77.1128 83.3126 77.1128 83.3126C77.1385 82.464 76.2964 81.8597 75.4992 82.149C75.4607 82.1619 75.4221 82.1812 75.3771 82.194V82.1747V82.1619C75.3835 81.8147 75.0685 81.5576 74.7343 81.6219C74.3871 81.6926 73.9114 81.834 73.3714 82.0976L72.2529 81.7954L72.4329 80.0019L74.13 78.7098C74.355 78.5362 74.2007 78.1762 73.9178 78.2276L73.9243 78.2405Z" fill="#D78400" stroke="#9B5D00" stroke-miterlimit="10"/>
<path d="M64.545 79.2826C68.2928 74.7313 74.9399 73.9791 79.6005 77.4955C79.4848 77.3927 79.3691 77.2898 79.2534 77.1934C74.5799 73.3491 67.6757 74.0241 63.8314 78.6976C59.9872 83.3712 60.6622 90.2754 65.3357 94.1196C65.4578 94.216 65.58 94.3125 65.7021 94.4025C61.35 90.5068 60.8036 83.834 64.5514 79.2826H64.545Z" fill="#C88400" stroke="#9B5D00" stroke-miterlimit="10"/>
<path d="M77.3752 90.3004C78.9226 88.1728 78.7433 85.4053 76.9747 84.1188C75.206 82.8324 72.5177 83.5143 70.9703 85.6418C69.4228 87.7694 69.6021 90.537 71.3708 91.8234C73.1394 93.1098 75.8277 92.428 77.3752 90.3004Z" fill="#FFB200" stroke="#9B5D00" stroke-miterlimit="10"/>
<path d="M74.8308 90.9288C75.1295 90.5182 74.8106 89.7773 74.1187 89.2741C73.4267 88.7708 72.6237 88.6956 72.325 89.1062C72.0264 89.5168 72.3452 90.2576 73.0372 90.7609C73.7292 91.2642 74.5322 91.3394 74.8308 90.9288Z" fill="#FFB00B" stroke="#9B5D00" stroke-miterlimit="10"/>
<path d="M77.1854 87.6866C77.4841 87.276 77.1652 86.5352 76.4733 86.0319C75.7813 85.5286 74.9783 85.4534 74.6796 85.864C74.381 86.2746 74.6999 87.0154 75.3918 87.5187C76.0838 88.022 76.8868 88.0972 77.1854 87.6866Z" fill="#FFB00B" stroke="#9B5D00" stroke-miterlimit="10"/>
<path d="M68.4986 89.4533C68.4986 89.4533 66.2486 87.4219 66.4608 86.0141C66.6729 84.6062 68.4665 79.3413 69.0129 78.9749C69.3986 78.7177 72.0343 78.2227 73.5707 77.9463C73.8535 77.8949 74.0078 78.2613 73.7828 78.4284L72.0857 79.7206L71.9057 81.5141L73.3007 81.887L68.4986 89.4469V89.4533Z" fill="#FFB200"/>
<path d="M68.4986 89.4533C68.4986 89.4533 66.2486 87.4219 66.4608 86.0141C66.6729 84.6127 68.4665 79.3413 69.0129 78.9749C69.3986 78.7177 72.0343 78.2227 73.5707 77.9463C73.8535 77.8949 74.0078 78.2613 73.7828 78.4284L72.0857 79.7206L71.9057 81.5141L73.3007 81.887L68.4986 89.4469V89.4533Z" stroke="#9B5D00" stroke-miterlimit="10"/>
<path d="M75.1585 81.8671C75.1199 81.88 75.0813 81.8992 75.0363 81.9121V81.8928V81.88C75.0428 81.5328 74.7278 81.2757 74.3935 81.34C73.4356 81.5328 71.5778 82.2335 69.7778 84.7021C67.9779 87.1706 67.875 89.1506 67.9714 90.1341C68.0036 90.4877 68.3636 90.7063 68.6914 90.5841L68.73 90.5713C68.73 90.6227 68.73 90.6741 68.7236 90.7256C68.6914 91.5613 69.5143 92.1655 70.3114 91.902L70.4207 91.8634C70.4207 91.8634 70.7678 91.7541 70.9543 91.6963C71.0185 91.677 71.0571 91.6127 71.0443 91.5484C71.0121 91.3556 70.9607 90.9248 71.0443 90.327C71.1471 89.5363 71.5071 88.2763 72.6192 86.7528C73.7314 85.2292 74.7985 84.5156 75.5121 84.1814C76.0456 83.9306 76.457 83.8535 76.6499 83.8278C76.7142 83.8214 76.7656 83.7635 76.7656 83.6928C76.7656 83.4742 76.7656 83.0242 76.7656 83.0242C76.7913 82.1757 75.9492 81.5714 75.1521 81.8607L75.1585 81.8671Z" fill="#FFB200" stroke="#9B5D00" stroke-miterlimit="10"/>
<path d="M77.0806 89.6898C75.6278 91.6698 73.1336 92.3319 71.5071 91.1491C71.4364 91.0977 71.3721 91.0398 71.3079 90.9884C71.3079 91.162 71.3207 91.3098 71.3336 91.4127C71.4043 91.4705 71.4686 91.5348 71.5457 91.5862C73.1721 92.7691 75.6664 92.1134 77.1192 90.127C77.8263 89.1563 78.1735 88.0184 78.1028 86.9192C78.0963 86.797 78.0771 86.6749 78.0642 86.5527C78.1156 87.6263 77.7685 88.7384 77.0742 89.6898H77.0806Z" fill="#FFD79B"/>
<path d="M73.6543 90.4746C73.3714 90.2689 73.14 89.9989 73.0307 89.7417C72.9407 89.536 72.9343 89.356 73.0114 89.2532C73.0114 89.2532 73.0114 89.2467 73.0178 89.2403C73.0436 89.2146 73.0757 89.1889 73.1078 89.1696C73.0886 89.1696 73.0628 89.1632 73.0436 89.1567C72.8314 89.1374 72.6643 89.1824 72.5807 89.2789C72.5807 89.2789 72.5807 89.2853 72.5743 89.2917C72.4971 89.401 72.5036 89.5746 72.5936 89.7803C72.7029 90.0374 72.9343 90.3074 73.2171 90.5131C73.5 90.7189 73.8278 90.8538 74.1043 90.8796C74.2585 90.8924 74.3871 90.8796 74.4771 90.8281C74.2135 90.7896 73.9114 90.6674 73.6478 90.4746H73.6543Z" fill="#FFD79B"/>
<path d="M76.0071 87.2355C75.7242 87.0298 75.4928 86.7598 75.3835 86.5026C75.2935 86.2969 75.2871 86.1169 75.3642 86.0141C75.3642 86.0141 75.3642 86.0076 75.3707 86.0012C75.3964 85.9691 75.4285 85.9498 75.4671 85.9305C75.2228 85.8919 75.03 85.9305 74.94 86.0462C74.94 86.0462 74.94 86.0526 74.9335 86.059C74.8564 86.1619 74.8628 86.3419 74.9528 86.5476C75.0621 86.8048 75.2935 87.0748 75.5764 87.2805C76.0649 87.634 76.5792 87.724 76.8299 87.5955C76.5857 87.5569 76.2899 87.4412 76.0135 87.2355H76.0071Z" fill="#FFD79B"/>
<path d="M67.5921 85.5375C67.7979 84.1875 69.1736 80.2147 69.8036 79.0254C69.3407 79.1475 69.2121 79.2054 69.1864 79.2247C69.1736 79.2375 69.1607 79.2504 69.1478 79.2632C68.6529 79.8675 66.9943 84.5603 66.7693 86.0517C66.6729 86.6882 67.2193 87.5496 67.7914 88.2438C67.8686 87.8839 67.9779 87.4917 68.1321 87.0739C67.7786 86.5403 67.5279 85.981 67.5921 85.5375Z" fill="#FFD79B"/>
<path d="M70.0222 91.2019C69.7843 91.0284 69.6558 90.7584 69.6686 90.4627V90.3148C69.6815 90.2119 69.6365 90.1155 69.5593 90.0577C69.4822 89.9934 69.3793 89.9741 69.2829 89.9998L69.2186 90.0191C69.1286 90.0512 69.0579 90.0191 69.0193 89.9998C68.9615 89.9612 68.9229 89.8969 68.9101 89.8262C68.8201 88.9005 68.9229 86.9848 70.6586 84.6063C70.8 84.407 70.9479 84.2206 71.0893 84.047C72.015 82.922 72.9343 82.2535 73.6993 81.8613C72.8314 82.1828 71.655 82.8706 70.4593 84.3234C70.3179 84.497 70.17 84.6834 70.0286 84.8827C68.2994 87.2613 68.1901 89.177 68.2801 90.1027C68.2865 90.1734 68.3251 90.2376 68.3894 90.2762C68.4215 90.2955 68.4986 90.3277 68.5886 90.2955L68.6529 90.2762C68.7494 90.2505 68.8522 90.2698 68.9294 90.3341C69.0065 90.3984 69.0515 90.4948 69.0451 90.5912V90.7391C69.0258 91.0284 69.1543 91.2984 69.3922 91.4784C69.6301 91.6584 69.9322 91.7033 70.215 91.6133L70.3243 91.5748C70.3243 91.5748 70.5365 91.5041 70.7229 91.4462C70.7229 91.4205 70.7229 91.3819 70.7165 91.3562C70.4722 91.4012 70.2279 91.3498 70.0222 91.1955V91.2019Z" fill="#FFD79B"/>
<path d="M76.0071 83.622C75.9428 83.6541 75.8721 83.6927 75.8014 83.7248C76.065 83.6284 76.2964 83.5705 76.4571 83.5384C76.4571 83.5063 76.4571 83.4677 76.4571 83.4355C76.3157 83.487 76.1678 83.5448 76.0071 83.622Z" fill="#FFD79B"/>
<path d="M90.9663 126.103C96.2031 126.103 100.448 121.857 100.448 116.621C100.448 111.384 96.2031 107.139 90.9663 107.139C85.7295 107.139 81.4843 111.384 81.4843 116.621C81.4843 121.857 85.7295 126.103 90.9663 126.103Z" fill="#855C00" stroke="#9B5D00" stroke-miterlimit="10"/>
<path d="M90.5227 125.581C95.7595 125.581 100.005 121.336 100.005 116.099C100.005 110.862 95.7595 106.617 90.5227 106.617C85.2859 106.617 81.0406 110.862 81.0406 116.099C81.0406 121.336 85.2859 125.581 90.5227 125.581Z" fill="#FFB200" stroke="#9B5D00" stroke-miterlimit="10"/>
<path d="M84.8656 109.516C88.6648 106.257 94.354 106.63 97.6968 110.313C97.6454 110.249 97.5875 110.178 97.5297 110.114C94.2126 106.25 88.3884 105.807 84.5249 109.13C80.6613 112.447 80.2178 118.272 83.5413 122.135C83.5991 122.199 83.657 122.264 83.7149 122.328C80.5778 118.464 81.0663 112.788 84.8656 109.522V109.516Z" fill="#FFD79B"/>
<path d="M90.5227 124.212C95.0032 124.212 98.6354 120.58 98.6354 116.099C98.6354 111.619 95.0032 107.986 90.5227 107.986C86.0421 107.986 82.4099 111.619 82.4099 116.099C82.4099 120.58 86.0421 124.212 90.5227 124.212Z" fill="#FFCB00" stroke="#9B5D00" stroke-miterlimit="10"/>
<path d="M92.6569 110.905C91.5062 110.905 89.5198 110.937 89.2048 111.072C88.7612 111.271 86.7813 114.884 86.447 115.881C86.2155 116.568 86.8005 117.623 87.1862 118.208C87.0834 118.555 87.0384 118.85 87.0255 119.082C87.0062 119.339 87.2377 119.551 87.4948 119.5H87.527C87.5205 119.532 87.5077 119.57 87.5012 119.609C87.3727 120.213 87.8934 120.76 88.5105 120.67L88.5941 120.657C88.5941 120.657 88.8641 120.618 89.0055 120.605C89.0505 120.605 89.0891 120.56 89.0891 120.515C89.1534 120.599 89.2176 120.676 89.2884 120.747C90.4133 121.91 92.464 121.756 93.8654 120.4C95.2669 119.043 95.4854 116.999 94.3604 115.836C94.2704 115.739 94.1676 115.656 94.0647 115.578C94.1033 115.578 94.1354 115.578 94.1612 115.578C94.2126 115.578 94.2576 115.546 94.264 115.495C94.2897 115.334 94.354 115.013 94.354 115.013C94.4762 114.396 93.9426 113.849 93.3255 113.958C93.2933 113.958 93.2612 113.971 93.229 113.978V113.965V113.952C93.2805 113.701 93.0812 113.47 92.824 113.476C92.5605 113.483 92.2005 113.528 91.7698 113.65L90.9919 113.29L91.3519 112.004L92.7533 111.278C92.9397 111.181 92.869 110.898 92.6633 110.898L92.6569 110.905Z" fill="#D78400" stroke="#9B5D00" stroke-miterlimit="10"/>
<path d="M85.682 110.468C88.9927 107.62 93.9427 107.922 96.8933 111.079C96.8226 110.989 96.7519 110.899 96.6748 110.815C93.7562 107.415 88.6327 107.029 85.2321 109.947C81.8314 112.866 81.4457 117.989 84.3642 121.39C84.4414 121.48 84.5185 121.564 84.5956 121.647C81.915 118.253 82.3714 113.316 85.682 110.474V110.468Z" fill="#C88400" stroke="#9B5D00" stroke-miterlimit="10"/>
<path d="M93.6352 120.14C95.0357 118.785 95.2581 116.743 94.1321 115.58C93.006 114.416 90.9579 114.572 89.5575 115.928C88.157 117.284 87.9346 119.326 89.0606 120.489C90.1867 121.652 92.2348 121.496 93.6352 120.14Z" fill="#FFB200" stroke="#9B5D00" stroke-miterlimit="10"/>
<path d="M91.6941 120.272C91.9645 120.01 91.8274 119.43 91.3879 118.976C90.9483 118.522 90.3728 118.366 90.1024 118.628C89.832 118.889 89.9691 119.47 90.4087 119.924C90.8482 120.378 91.4238 120.534 91.6941 120.272Z" fill="#FFB00B" stroke="#9B5D00" stroke-miterlimit="10"/>
<path d="M93.8301 118.204C94.1005 117.942 93.9634 117.362 93.5238 116.907C93.0843 116.453 92.5088 116.297 92.2384 116.559C91.968 116.821 92.1051 117.401 92.5447 117.855C92.9842 118.309 93.5597 118.465 93.8301 118.204Z" fill="#FFB00B" stroke="#9B5D00" stroke-miterlimit="10"/>
<path d="M87.2699 118.388C87.2699 118.388 85.8878 116.621 86.2221 115.624C86.5564 114.628 88.5363 111.008 88.9799 110.816C89.2949 110.674 91.2813 110.648 92.432 110.648C92.6441 110.648 92.7148 110.931 92.522 111.028L91.1206 111.754L90.7606 113.04L91.7313 113.49L87.2635 118.395L87.2699 118.388Z" fill="#FFB200"/>
<path d="M87.2699 118.388C87.2699 118.388 85.8878 116.621 86.2221 115.624C86.5564 114.628 88.5363 111.008 88.9799 110.816C89.2949 110.674 91.2813 110.648 92.432 110.648C92.6441 110.648 92.7148 110.931 92.5284 111.028L91.127 111.754L90.767 113.04L91.7377 113.49L87.2699 118.395V118.388Z" stroke="#9B5D00" stroke-miterlimit="10"/>
<path d="M93.0941 113.701C93.0941 113.701 93.0299 113.714 92.9977 113.72V113.707V113.695C93.0491 113.444 92.8499 113.212 92.5927 113.219C91.8663 113.238 90.4263 113.508 88.7999 115.083C87.1735 116.658 86.8456 118.085 86.7942 118.818C86.7749 119.075 87.0064 119.287 87.2635 119.236H87.2956C87.2892 119.268 87.2764 119.307 87.2699 119.345C87.1414 119.95 87.6621 120.496 88.2792 120.406L88.3628 120.393C88.3628 120.393 88.6328 120.355 88.7742 120.342C88.8256 120.342 88.8642 120.297 88.8578 120.245C88.8578 120.097 88.877 119.782 89.012 119.352C89.192 118.786 89.6099 117.912 90.6127 116.941C91.6156 115.97 92.4899 115.585 93.0491 115.43C93.4734 115.315 93.782 115.308 93.9234 115.315C93.9748 115.315 94.0198 115.282 94.0263 115.231C94.052 115.07 94.1163 114.749 94.1163 114.749C94.2384 114.132 93.7048 113.585 93.0877 113.695L93.0941 113.701Z" fill="#FFB200" stroke="#9B5D00" stroke-miterlimit="10"/>
<path d="M93.5054 119.654C92.194 120.914 90.2912 121.074 89.2562 120.007C89.2112 119.962 89.1726 119.911 89.1341 119.866C89.1148 119.994 89.1019 120.097 89.1019 120.181C89.1469 120.232 89.1855 120.284 89.2369 120.335C90.2719 121.409 92.1812 121.241 93.4862 119.981C94.1226 119.364 94.5276 118.58 94.6111 117.77C94.624 117.68 94.624 117.59 94.6304 117.5C94.534 118.291 94.1354 119.056 93.5119 119.66L93.5054 119.654Z" fill="#FFD79B"/>
<path d="M90.902 119.789C90.722 119.602 90.587 119.377 90.542 119.172C90.5034 119.011 90.5227 118.882 90.5934 118.812C90.5934 118.812 90.5934 118.812 90.5999 118.805C90.6191 118.786 90.6449 118.773 90.677 118.767C90.6641 118.767 90.6449 118.754 90.632 118.747C90.4777 118.702 90.3491 118.715 90.2784 118.779C90.2784 118.779 90.2784 118.779 90.272 118.786C90.2013 118.857 90.182 118.985 90.2206 119.146C90.2656 119.352 90.4006 119.57 90.5806 119.763C90.7606 119.949 90.9791 120.091 91.1849 120.142C91.2941 120.174 91.3906 120.174 91.4613 120.149C91.2749 120.084 91.0691 119.956 90.902 119.782V119.789Z" fill="#FFD79B"/>
<path d="M93.0298 117.725C92.8498 117.539 92.7148 117.314 92.6698 117.108C92.6312 116.947 92.6505 116.819 92.7212 116.748C92.7212 116.748 92.7212 116.748 92.7277 116.742C92.747 116.722 92.7791 116.71 92.8048 116.703C92.6312 116.645 92.4834 116.652 92.4062 116.722C92.4062 116.722 92.4062 116.722 92.3998 116.729C92.3291 116.793 92.3098 116.928 92.3484 117.089C92.3934 117.295 92.5284 117.513 92.7084 117.706C93.0169 118.027 93.3834 118.156 93.5827 118.098C93.4091 118.04 93.2098 117.918 93.0298 117.732V117.725Z" fill="#FFD79B"/>
<path d="M87.1092 115.417C87.4306 114.459 88.9413 111.733 89.552 110.949C89.1984 110.981 89.102 111.007 89.0763 111.02C89.0634 111.02 89.057 111.033 89.0442 111.046C88.607 111.425 86.8006 114.639 86.447 115.693C86.2992 116.143 86.5885 116.844 86.9163 117.423C87.0192 117.172 87.1478 116.896 87.3149 116.613C87.1285 116.182 87.0128 115.738 87.1156 115.423L87.1092 115.417Z" fill="#FFD79B"/>
<path d="M88.1571 119.859C88.0092 119.698 87.9449 119.486 87.9899 119.274L88.0156 119.165C88.0349 119.094 88.0156 119.017 87.9642 118.959C87.9128 118.901 87.8421 118.876 87.7713 118.882H87.7199C87.6492 118.901 87.5978 118.869 87.5785 118.85C87.5399 118.818 87.5206 118.766 87.5206 118.708C87.5721 118.021 87.8935 116.638 89.462 115.121C89.5906 114.993 89.7192 114.877 89.8477 114.768C90.6642 114.067 91.4227 113.694 92.0334 113.508C91.3584 113.636 90.4135 113.984 89.3528 114.896C89.2242 115.006 89.0956 115.121 88.967 115.25C87.3985 116.767 87.0771 118.149 87.0256 118.837C87.0256 118.888 87.0449 118.94 87.0835 118.978C87.1092 118.998 87.1542 119.03 87.2249 119.017H87.2763C87.3471 119.004 87.4242 119.03 87.4692 119.088C87.5206 119.146 87.5399 119.216 87.5206 119.293L87.4949 119.403C87.4499 119.615 87.5078 119.827 87.6621 119.988C87.8163 120.148 88.0285 120.226 88.247 120.187L88.3306 120.174C88.3306 120.174 88.4978 120.148 88.6392 120.136C88.6392 120.116 88.6392 120.091 88.6392 120.065C88.4592 120.065 88.2856 119.994 88.1571 119.859Z" fill="#FFD79B"/>
<path d="M93.4927 115.095C93.4413 115.108 93.3834 115.127 93.3256 115.146C93.5313 115.108 93.7048 115.095 93.827 115.095C93.827 115.069 93.8334 115.043 93.8398 115.018C93.7306 115.037 93.6148 115.056 93.4863 115.095H93.4927Z" fill="#FFD79B"/>
</g>
<g clip-path="url(#clip6_5817_10111)">
<path d="M138.819 117.955V126.37C138.819 130.259 151.927 133.416 168.095 133.416C184.262 133.416 197.37 130.259 197.37 126.37V117.955H138.819Z" fill="#F7C434" stroke="#B05500"/>
<path d="M168.095 125.001C184.263 125.001 197.37 121.847 197.37 117.956C197.37 114.065 184.263 110.91 168.095 110.91C151.926 110.91 138.819 114.065 138.819 117.956C138.819 121.847 151.926 125.001 168.095 125.001Z" fill="#D68900" stroke="#B05500"/>
<path d="M168.095 123.181C181.639 123.181 192.619 120.841 192.619 117.955C192.619 115.068 181.639 112.729 168.095 112.729C154.55 112.729 143.57 115.068 143.57 117.955C143.57 120.841 154.55 123.181 168.095 123.181Z" fill="#FFC215" stroke="#B05500"/>
<path d="M138.819 107.662V116.077C138.819 119.966 151.927 123.123 168.095 123.123C184.262 123.123 197.37 119.966 197.37 116.077V107.662H138.819Z" fill="#F7C434" stroke="#B05500"/>
<path d="M168.095 114.708C184.263 114.708 197.37 111.554 197.37 107.663C197.37 103.772 184.263 100.617 168.095 100.617C151.926 100.617 138.819 103.772 138.819 107.663C138.819 111.554 151.926 114.708 168.095 114.708Z" fill="#FFD62C" stroke="#B05500"/>
<path d="M168.095 112.888C181.639 112.888 192.619 110.548 192.619 107.662C192.619 104.775 181.639 102.436 168.095 102.436C154.55 102.436 143.57 104.775 143.57 107.662C143.57 110.548 154.55 112.888 168.095 112.888Z" fill="#FFC215" stroke="#B05500"/>
<path d="M179.383 96.8242C179.383 96.2778 178.959 95.8535 178.413 95.8535H157.771C157.224 95.8535 156.8 96.2778 156.8 96.8242V106.84C156.8 107.039 156.813 107.232 156.832 107.425C156.832 107.438 156.832 107.451 156.832 107.463C156.832 107.521 156.845 107.579 156.864 107.637C157.282 108.865 162.148 109.835 168.101 109.835C174.054 109.835 178.863 108.878 179.332 107.656C179.358 107.586 179.37 107.528 179.37 107.463C179.37 107.444 179.37 107.425 179.37 107.406C179.39 107.219 179.403 107.033 179.403 106.846V96.8306L179.383 96.8242Z" fill="#EF8A57" stroke="#B05500"/>
<path d="M179.358 96.4893C179.358 96.5536 179.345 96.6114 179.319 96.6757C178.85 97.9036 174.003 98.8614 168.088 98.8614C162.174 98.8614 157.269 97.8907 156.851 96.6629C156.832 96.605 156.819 96.5472 156.819 96.4893C156.819 96.4764 156.819 96.4636 156.819 96.4507C156.916 95.1586 161.917 94.1172 168.082 94.1172C174.247 94.1172 179.19 95.1457 179.345 96.425C179.345 96.4443 179.345 96.4636 179.345 96.4829L179.358 96.4893Z" fill="#EF8A57" stroke="#B05500"/>
<path d="M177.146 96.4887C177.146 96.5273 177.14 96.5659 177.12 96.598C176.793 97.2344 173.739 97.7487 169.779 97.8644C169.233 97.8773 168.673 97.8837 168.095 97.8837C167.683 97.8837 167.272 97.8837 166.873 97.8709C162.663 97.7809 159.371 97.2473 159.063 96.5852C159.05 96.553 159.043 96.5209 159.043 96.4823V96.463C159.114 95.7495 162.643 95.1709 167.15 95.1002C167.458 95.1002 167.773 95.0938 168.095 95.0938C168.513 95.0938 168.924 95.0937 169.329 95.1066C173.668 95.1966 177.03 95.7623 177.146 96.4566C177.146 96.4694 177.146 96.4759 177.146 96.4887Z" fill="#893E1D" stroke="#B05500"/>
<path d="M196.554 50.4737C196.612 57.1529 193.944 62.9835 189.695 68.3256C185.69 73.4234 180.161 78.0969 174.33 82.6547H174.318C173.958 82.9183 172.89 83.1433 171.444 83.2783C175.835 73.9698 179.525 63.9671 179.165 50.8401C178.978 43.383 177.525 36.736 175.275 31.9468C174.183 29.5232 172.91 27.659 171.508 26.354C170.216 25.1454 168.866 24.4704 167.471 24.4319C167.446 24.4319 167.413 24.4319 167.388 24.4319C167.516 24.4319 167.645 24.4319 167.773 24.4319C183.684 24.374 196.554 36.0931 196.554 50.4801V50.4737Z" fill="#7E74FF"/>
<path d="M179.158 50.8393C179.518 63.9663 175.828 73.9755 171.438 83.2775C170.499 83.3675 169.393 83.4189 168.211 83.4189C167.471 83.4189 166.758 83.3996 166.102 83.361C162.065 76.5533 156.929 64.127 156.569 51.4564C156.324 44.0637 157.481 37.2881 159.423 32.3831C160.394 29.9596 161.544 27.9732 162.881 26.6039C164.18 25.2796 165.53 24.5339 166.996 24.4375C167.002 24.4375 167.015 24.4375 167.021 24.4375C167.034 24.4375 167.041 24.4375 167.053 24.4375C167.163 24.4375 167.266 24.4375 167.368 24.4375C167.368 24.4375 167.368 24.4375 167.375 24.4375C167.401 24.4375 167.433 24.4375 167.458 24.4375C168.853 24.4761 170.203 25.1511 171.496 26.3596C172.891 27.6646 174.17 29.5289 175.263 31.9524C177.513 36.7416 178.965 43.3887 179.152 50.8457L179.158 50.8393Z" fill="#6868F2"/>
<path d="M167.06 24.4375C167.06 24.4375 167.041 24.4375 167.028 24.4375C167.021 24.4375 167.008 24.4375 167.002 24.4375C165.536 24.5339 164.186 25.2796 162.888 26.6039C161.551 27.9732 160.4 29.9596 159.429 32.3831C157.481 37.2881 156.331 44.0637 156.575 51.4564C156.935 64.127 162.071 76.5533 166.108 83.361C163.993 83.2453 162.412 82.9561 162.058 82.6025C157.276 79.4461 151.786 74.8562 147.376 69.4755C142.632 63.7734 139.173 57.2164 139.173 50.6593C139.115 36.4845 151.484 24.8425 167.06 24.4375Z" fill="#4A52BA"/>
<path d="M167.375 24.4324C167.272 24.4324 167.163 24.4324 167.06 24.4324C151.484 24.8438 139.115 36.4858 139.173 50.6607C139.173 57.2177 142.632 63.7748 147.369 69.4833C151.779 74.8639 157.269 79.4539 162.052 82.6103C162.412 82.9574 163.993 83.2467 166.102 83.3688C166.758 83.4074 167.471 83.4267 168.211 83.4267C169.393 83.4267 170.499 83.3753 171.438 83.2853C172.89 83.1503 173.951 82.9253 174.311 82.6617H174.324C180.155 78.1039 185.677 73.4304 189.688 68.3326C193.937 62.9905 196.612 57.1599 196.547 50.4807C196.554 36.0873 183.684 24.3681 167.767 24.426C167.638 24.426 167.51 24.426 167.381 24.426" stroke="#150E45"/>
<path d="M166.102 83.363C162.065 76.5552 156.929 64.129 156.569 51.4584C156.324 44.0656 157.481 37.29 159.423 32.3851C160.394 29.9615 161.544 27.9751 162.881 26.6059C164.18 25.2816 165.53 24.5359 166.996 24.4395C167.002 24.4395 167.015 24.4395 167.021 24.4395C167.034 24.4395 167.041 24.4395 167.053 24.4395C167.079 24.4395 167.105 24.4395 167.131 24.4395C167.208 24.4395 167.291 24.4395 167.368 24.4395C167.368 24.4395 167.368 24.4395 167.375 24.4395C167.401 24.4395 167.433 24.4395 167.458 24.4395C168.853 24.478 170.203 25.153 171.496 26.3616C172.891 27.6666 174.17 29.5308 175.263 31.9544C177.513 36.7436 178.965 43.3906 179.152 50.8477C179.512 63.9747 175.822 73.9838 171.431 83.2859" stroke="#150E45" stroke-linecap="round"/>
<path d="M162.052 82.6113L159.063 96.5869" stroke="#452100"/>
<path d="M174.318 82.6562L177.146 96.4518" stroke="#452100"/>
<path d="M164.906 83.2988L163.916 97.5508" stroke="#452100" stroke-linecap="round"/>
<path d="M171.528 83.2988L172.518 97.5508" stroke="#452100" stroke-linecap="round"/>
<path d="M174.658 45.1204C171.013 41.4755 165.125 41.4755 161.48 45.1204C157.835 48.7654 157.835 54.6539 161.48 58.2988L164.456 61.2752C164.823 61.6417 165.305 61.8217 165.851 61.8217H170.287C170.833 61.8217 171.322 61.6417 171.682 61.2752L174.658 58.2988C178.303 54.6539 178.303 48.7654 174.658 45.1204ZM168.101 56.1132C165.736 56.1132 163.788 54.1718 163.788 51.7996C163.788 49.4275 165.729 47.4861 168.101 47.4861C170.473 47.4861 172.415 49.4275 172.415 51.7996C172.415 54.1718 170.473 56.1132 168.101 56.1132Z" fill="white" stroke="#100A37"/>
<path d="M168.101 70.32C166.706 70.32 165.549 69.1693 165.549 67.7679V66.1286C165.549 65.7043 165.916 65.3379 166.34 65.3379H169.863C170.287 65.3379 170.653 65.7043 170.653 66.1286V67.7679C170.653 69.1628 169.503 70.32 168.101 70.32Z" fill="white" stroke="#100A37"/>
</g>
</g>
<defs>
<clipPath id="clip0_5817_10111">
<rect width="353.163" height="158.678" fill="white"/>
</clipPath>
<clipPath id="clip1_5817_10111">
<rect width="286.938" height="94.2093" fill="white" transform="translate(26 31.6797)"/>
</clipPath>
<clipPath id="clip2_5817_10111">
<rect width="38.1633" height="53.7923" fill="white" transform="translate(0 88.6777)"/>
</clipPath>
<clipPath id="clip3_5817_10111">
<rect width="38.1633" height="53.7923" fill="white" transform="translate(315 88.6777)"/>
</clipPath>
<clipPath id="clip4_5817_10111">
<rect width="140.366" height="126.101" fill="white" transform="translate(170.963)"/>
</clipPath>
<clipPath id="clip5_5817_10111">
<rect width="140.366" height="126.101" fill="white" transform="translate(26.3213)"/>
</clipPath>
<clipPath id="clip6_5817_10111">
<rect width="66.747" height="109.631" fill="white" transform="translate(138.498 24.1055)"/>
</clipPath>
</defs>
</svg>
