<svg width="34" height="34" viewBox="0 0 34 34" fill="none" xmlns="http://www.w3.org/2000/svg">
<path d="M25.1148 11.2311C24.8477 11.3588 24.5731 11.4665 24.2926 11.554C24.6247 11.1491 24.878 10.6728 25.0326 10.1515C25.0672 10.0347 25.0313 9.90682 24.9422 9.83039C24.8532 9.75392 24.7295 9.74476 24.6315 9.80734C24.0357 10.1882 23.3929 10.4619 22.7189 10.6219C22.0399 9.90693 21.1178 9.5 20.1644 9.5C18.1521 9.5 16.515 11.2643 16.515 13.4329C16.515 13.6037 16.525 13.7736 16.5449 13.9411C14.0478 13.7048 11.7263 12.3821 10.1321 10.2746C10.0753 10.1995 9.98781 10.159 9.8982 10.1668C9.80855 10.1743 9.72797 10.2288 9.68268 10.3126C9.35934 10.9105 9.18841 11.5944 9.18841 12.2902C9.18841 13.2378 9.50235 14.137 10.0569 14.8396C9.8883 14.7766 9.72468 14.698 9.56849 14.6045C9.48465 14.5542 9.38232 14.555 9.29901 14.6065C9.21567 14.658 9.16341 14.7526 9.16119 14.8561C9.16079 14.8735 9.16079 14.891 9.16079 14.9086C9.16079 16.3232 9.86722 17.5967 10.9473 18.2909C10.8545 18.2809 10.7618 18.2664 10.6696 18.2474C10.5746 18.2278 10.477 18.2637 10.4129 18.3418C10.3488 18.4198 10.3275 18.5286 10.3571 18.6279C10.7569 19.973 11.7862 20.9624 13.0304 21.264C11.9984 21.9606 10.8183 22.3255 9.57935 22.3255C9.32083 22.3255 9.06085 22.3092 8.80641 22.2767C8.68001 22.2605 8.55915 22.3409 8.51608 22.4705C8.47302 22.6001 8.51867 22.7446 8.62619 22.8189C10.2178 23.9187 12.0581 24.5 13.9481 24.5C17.6636 24.5 19.988 22.6118 21.2835 21.0277C22.8991 19.0525 23.8256 16.4381 23.8256 13.8549C23.8256 13.747 23.8241 13.638 23.821 13.5294C24.4584 13.0119 25.0072 12.3855 25.4537 11.6656C25.5216 11.5563 25.5142 11.4118 25.4356 11.3112C25.3572 11.2104 25.2264 11.1778 25.1148 11.2311Z" fill="#3E33BB"/>
<rect x="0.5" y="0.5" width="33" height="33" rx="16.5" stroke="#3E33BB"/>
</svg>
