<svg width="152" height="43" viewBox="0 0 152 43" fill="none" xmlns="http://www.w3.org/2000/svg">
<path d="M28.7006 10.5067C23.818 10.5067 19.8408 14.5659 19.8408 19.5638C19.8408 24.5618 23.8115 28.621 28.7006 28.621C33.5896 28.621 37.5603 24.5618 37.5603 19.5638C37.5603 14.5659 33.5896 10.5067 28.7006 10.5067ZM28.7006 24.0131C26.3013 24.0131 24.3418 22.0165 24.3418 19.5572C24.3418 17.0979 26.2948 15.1014 28.7006 15.1014C31.1063 15.1014 33.0593 17.0979 33.0593 19.5572C33.0593 22.0165 31.1063 24.0131 28.7006 24.0131Z" fill="#3E33BB"/>
<path d="M56.056 10.3678H53.4821C52.9518 10.3678 52.5185 10.8108 52.5185 11.3529V11.6834C51.2316 10.9364 49.7442 10.5067 48.1598 10.5067C43.2772 10.5067 39.3 14.5659 39.3 19.5638C39.3 24.5618 43.2707 28.6209 48.1598 28.6209C49.7442 28.6209 51.2316 28.1912 52.5185 27.4442V31.9992C52.5185 34.4585 50.5331 36.4484 48.121 36.3955C45.8058 36.3426 43.9174 34.28 43.9174 31.9132V30.8819C43.9174 30.3398 43.4841 29.8969 42.9538 29.8969H40.38C39.8497 29.8969 39.4164 30.3398 39.4164 30.8819V31.867C39.4164 36.693 43.0832 40.7654 47.7976 40.9902C52.8419 41.2282 57.0195 37.1029 57.0195 31.9992V11.3529C57.0195 10.8108 56.5863 10.3678 56.056 10.3678ZM48.1598 24.013C45.7605 24.013 43.801 22.0165 43.801 19.5572C43.801 17.0979 45.754 15.1013 48.1598 15.1013C50.5655 15.1013 52.5185 17.0979 52.5185 19.5572C52.5185 22.0165 50.5655 24.013 48.1598 24.013Z" fill="#3E33BB"/>
<path d="M87.9318 10.4075C86.2892 10.3745 84.75 10.8174 83.4308 11.5975C83.4178 11.0554 82.9846 10.6191 82.4543 10.6191H79.9709C79.4277 10.6191 78.9944 11.0686 78.9944 11.6173V39.5358C78.9944 40.0911 79.4342 40.534 79.9709 40.534H82.4543C82.9975 40.534 83.4308 40.0845 83.4308 39.5358V27.1004C84.7112 27.8541 86.1922 28.2904 87.7701 28.2904C92.7174 28.2904 96.714 24.0725 96.507 18.9754C96.3195 14.308 92.4975 10.5001 87.9318 10.4141V10.4075ZM87.7701 23.742C85.3967 23.742 83.4696 21.7719 83.4696 19.3456C83.4696 16.9194 85.3967 14.9493 87.7701 14.9493C90.1435 14.9493 92.0707 16.9194 92.0707 19.3456C92.0707 21.7719 90.1435 23.742 87.7701 23.742Z" fill="#3E33BB"/>
<path d="M106.783 10.4075C101.959 10.4075 98.0397 14.4204 98.0397 19.3457C98.0397 24.2709 101.965 28.2838 106.783 28.2838C111.601 28.2838 115.526 24.2709 115.526 19.3457C115.526 14.4204 111.601 10.4075 106.783 10.4075ZM106.783 23.742C104.41 23.742 102.483 21.7719 102.483 19.3457C102.483 16.9194 104.41 14.9493 106.783 14.9493C109.156 14.9493 111.084 16.9194 111.084 19.3457C111.084 21.7719 109.156 23.742 106.783 23.742Z" fill="#3E33BB"/>
<path d="M125.79 10.4075C120.965 10.4075 117.046 14.4204 117.046 19.3457C117.046 24.2709 120.972 28.2838 125.79 28.2838C130.608 28.2838 134.533 24.2709 134.533 19.3457C134.533 14.4204 130.608 10.4075 125.79 10.4075ZM125.79 23.742C123.416 23.742 121.489 21.7719 121.489 19.3457C121.489 16.9194 123.416 14.9493 125.79 14.9493C128.163 14.9493 130.09 16.9194 130.09 19.3457C130.09 21.7719 128.163 23.742 125.79 23.742Z" fill="#3E33BB"/>
<path d="M140.023 1H137.534C136.994 1 136.557 1.44694 136.557 1.99827V27.3252C136.557 27.8765 136.994 28.3234 137.534 28.3234H140.023C140.563 28.3234 141 27.8765 141 27.3252V1.99827C141 1.44694 140.563 1 140.023 1Z" fill="#3E33BB"/>
<path d="M16.7495 10.2621H14.1757C13.6454 10.2621 13.2121 10.705 13.2121 11.2471V11.5777C11.9251 10.8306 10.4377 10.4009 8.85332 10.4009C3.97074 10.4009 0 14.4667 0 19.4581C0 24.4494 3.97074 28.5152 8.85979 28.5152C10.4442 28.5152 11.9316 28.0855 13.2185 27.3384V31.8934C13.2185 34.3527 11.2332 36.3427 8.82099 36.2898C6.5058 36.2369 4.61744 34.1742 4.61744 31.8075V30.7762C4.61744 30.2341 4.18415 29.7911 3.65385 29.7911H1.07352C0.543228 29.7911 0.109939 30.2341 0.109939 30.7762V31.7612C0.109939 36.5873 3.77673 40.6597 8.49117 40.8845C13.5354 41.1225 17.7131 36.9972 17.7131 31.8934V11.2471C17.7131 10.705 17.2798 10.2621 16.7495 10.2621ZM8.85332 23.9073C6.45406 23.9073 4.49456 21.9108 4.49456 19.4515C4.49456 16.9921 6.4476 14.9956 8.85332 14.9956C11.259 14.9956 13.2121 16.9921 13.2121 19.4515C13.2121 21.9108 11.259 23.9073 8.85332 23.9073Z" fill="#3E33BB"/>
<path d="M69.6496 32.3231L66.429 32.2834C66.0475 32.2834 65.7306 32.5942 65.7241 32.9842L65.7047 34.6304C65.6918 35.9327 66.7071 36.9971 67.9811 37.0103C69.2551 37.0236 70.2963 35.9856 70.3092 34.6832L70.3286 33.0371C70.3286 32.647 70.0247 32.3231 69.6431 32.3165L69.6496 32.3231Z" fill="#3E33BB"/>
<path d="M67.5801 9.95793C63.092 10.1827 59.3929 13.9246 59.1277 18.506C58.9661 21.2694 60.0267 23.7948 61.8116 25.5732L61.8374 25.6063L65.0321 28.4622C65.3102 28.7135 65.6659 28.8457 66.0345 28.8457H69.9988C70.3674 28.8457 70.7231 28.7069 71.0012 28.4622L73.672 26.069L73.7561 25.9963L74.0988 25.6856L74.1182 25.6724C75.8449 24.0064 76.9249 21.6529 76.9249 19.0481C76.9249 13.8717 72.6826 9.69349 67.5736 9.95132L67.5801 9.95793ZM68.0199 14.7906C70.3157 14.7906 72.1846 16.7012 72.1846 19.0547C72.1846 21.4083 70.3157 23.3122 68.0199 23.3122C65.7241 23.3122 63.8551 21.4017 63.8551 19.0547C63.8551 16.7078 65.7241 14.7906 68.0199 14.7906Z" fill="#3E33BB"/>
</svg>
