<svg width="506" height="140" viewBox="0 0 506 140" fill="none" xmlns="http://www.w3.org/2000/svg">
  <g clip-path="url(#clip0_81_192)">
    <path
      d="M103.293 33.2761C85.8055 33.2761 71.5609 47.4844 71.5609 64.9786C71.5609 82.4728 85.7824 96.6811 103.293 96.6811C120.803 96.6811 135.025 82.4728 135.025 64.9786C135.025 47.4844 120.803 33.2761 103.293 33.2761ZM103.293 80.5522C94.6997 80.5522 87.6816 73.5637 87.6816 64.9555C87.6816 56.3472 94.6765 49.3588 103.293 49.3588C111.909 49.3588 118.904 56.3472 118.904 64.9555C118.904 73.5637 111.909 80.5522 103.293 80.5522Z"
      fill="#5D43EF" />
    <path
      d="M201.268 32.79H192.049C190.15 32.79 188.598 34.3405 188.598 36.238V37.395C183.989 34.7801 178.662 33.276 172.987 33.276C155.5 33.276 141.255 47.4843 141.255 64.9785C141.255 82.4727 155.477 96.6809 172.987 96.6809C178.662 96.6809 183.989 95.1768 188.598 92.5619V108.506C188.598 117.114 181.488 124.079 172.848 123.894C164.556 123.709 157.793 116.489 157.793 108.205V104.595C157.793 102.697 156.241 101.147 154.342 101.147H145.123C143.224 101.147 141.672 102.697 141.672 104.595V108.043C141.672 124.935 154.805 139.19 171.69 139.977C189.756 140.81 204.719 126.37 204.719 108.506V36.238C204.719 34.3405 203.167 32.79 201.268 32.79ZM172.987 80.552C164.394 80.552 157.376 73.5636 157.376 64.9553C157.376 56.3471 164.371 49.3586 172.987 49.3586C181.603 49.3586 188.598 56.3471 188.598 64.9553C188.598 73.5636 181.603 80.552 172.987 80.552Z"
      fill="#5D43EF" />
    <path
      d="M315.433 32.9289C309.55 32.8132 304.037 34.3636 299.312 37.0942C299.266 35.1967 297.714 33.6694 295.815 33.6694H286.921C284.975 33.6694 283.423 35.2429 283.423 37.1636V134.886C283.423 136.83 284.998 138.38 286.921 138.38H295.815C297.761 138.38 299.312 136.807 299.312 134.886V91.3587C303.898 93.9967 309.203 95.5239 314.854 95.5239C332.573 95.5239 346.887 80.7603 346.146 62.919C345.474 46.5818 331.786 33.2529 315.433 32.952V32.9289ZM314.854 79.6033C306.354 79.6033 299.451 72.7074 299.451 64.2149C299.451 55.7223 306.354 48.8264 314.854 48.8264C323.355 48.8264 330.257 55.7223 330.257 64.2149C330.257 72.7074 323.355 79.6033 314.854 79.6033Z"
      fill="#5D43EF" />
    <path
      d="M382.95 32.929C365.671 32.929 351.635 46.9752 351.635 64.2149C351.635 81.4546 365.695 95.5009 382.95 95.5009C400.206 95.5009 414.265 81.4546 414.265 64.2149C414.265 46.9752 400.206 32.929 382.95 32.929ZM382.95 79.6033C374.45 79.6033 367.548 72.7075 367.548 64.2149C367.548 55.7223 374.45 48.8265 382.95 48.8265C391.451 48.8265 398.353 55.7223 398.353 64.2149C398.353 72.7075 391.451 79.6033 382.95 79.6033Z"
      fill="#5D43EF" />
    <path
      d="M451.023 32.929C433.744 32.929 419.708 46.9752 419.708 64.2149C419.708 81.4546 433.767 95.5009 451.023 95.5009C468.279 95.5009 482.338 81.4546 482.338 64.2149C482.338 46.9752 468.279 32.929 451.023 32.929ZM451.023 79.6033C442.523 79.6033 435.62 72.7075 435.62 64.2149C435.62 55.7223 442.523 48.8265 451.023 48.8265C459.524 48.8265 466.426 55.7223 466.426 64.2149C466.426 72.7075 459.524 79.6033 451.023 79.6033Z"
      fill="#5D43EF" />
    <path
      d="M502.003 0H493.085C491.154 0 489.588 1.56441 489.588 3.49421V92.1454C489.588 94.0752 491.154 95.6397 493.085 95.6397H502.003C503.934 95.6397 505.5 94.0752 505.5 92.1454V3.49421C505.5 1.56441 503.934 0 502.003 0Z"
      fill="#5D43EF" />
    <path
      d="M60.4894 32.4199H51.271C49.3717 32.4199 47.8199 33.9703 47.8199 35.8679V37.0249C43.2106 34.41 37.8834 32.9059 32.2087 32.9059C14.7214 32.9059 0.5 47.1373 0.5 64.6084C0.5 82.0794 14.7214 96.3108 32.2319 96.3108C37.9065 96.3108 43.2338 94.8067 47.843 92.1918V108.136C47.843 116.744 40.7323 123.709 32.0929 123.524C23.8009 123.339 17.0376 116.119 17.0376 107.835V104.225C17.0376 102.327 15.4858 100.777 13.5865 100.777H4.34488C2.4456 100.777 0.893753 102.327 0.893753 104.225V107.673C0.893753 124.565 14.0266 138.82 30.9116 139.607C48.978 140.44 63.9406 126 63.9406 108.136V35.8679C63.9406 33.9703 62.3887 32.4199 60.4894 32.4199ZM32.2087 80.1819C23.6156 80.1819 16.5976 73.1935 16.5976 64.5852C16.5976 55.9769 23.5925 48.9885 32.2087 48.9885C40.825 48.9885 47.8199 55.9769 47.8199 64.5852C47.8199 73.1935 40.825 80.1819 32.2087 80.1819Z"
      fill="#5D43EF" />
    <path
      d="M249.954 109.64L238.42 109.501C237.053 109.501 235.918 110.588 235.895 111.954L235.825 117.716C235.779 122.274 239.416 126 243.978 126.046C248.541 126.092 252.27 122.459 252.317 117.901L252.386 112.139C252.386 110.773 251.298 109.64 249.931 109.616L249.954 109.64Z"
      fill="#5D43EF" />
    <path
      d="M242.542 31.3553C226.468 32.142 213.219 45.2396 212.27 61.2759C211.691 70.9487 215.489 79.7883 221.882 86.0131L221.975 86.1288L233.417 96.1255C234.412 97.0049 235.686 97.4677 237.007 97.4677H251.205C252.525 97.4677 253.799 96.9817 254.795 96.1255L264.361 87.7486L264.662 87.4941L265.89 86.4065L265.959 86.3602C272.143 80.5288 276.011 72.2908 276.011 63.1734C276.011 45.0544 260.817 30.4296 242.519 31.3321L242.542 31.3553ZM244.117 48.271C252.34 48.271 259.034 54.9586 259.034 63.1966C259.034 71.4346 252.34 78.0991 244.117 78.0991C235.895 78.0991 229.201 71.4115 229.201 63.1966C229.201 54.9817 235.895 48.271 244.117 48.271Z"
      fill="#5D43EF" />
  </g>
  <defs>
    <clipPath id="clip0_81_192">
      <rect width="505" height="140" fill="white" transform="translate(0.5)" />
    </clipPath>
  </defs>
</svg>