<svg width="165" height="46" viewBox="0 0 165 46" fill="none" xmlns="http://www.w3.org/2000/svg">
<g clip-path="url(#clip0_2878_3903)">
<path d="M33.5856 10.9336C27.8719 10.9336 23.2178 15.602 23.2178 21.3501C23.2178 27.0982 27.8644 31.7666 33.5856 31.7666C39.3068 31.7666 43.9535 27.0982 43.9535 21.3501C43.9535 15.602 39.3068 10.9336 33.5856 10.9336ZM33.5856 26.4671C30.778 26.4671 28.4849 24.1709 28.4849 21.3425C28.4849 18.5141 30.7704 16.2179 33.5856 16.2179C36.4008 16.2179 38.6863 18.5141 38.6863 21.3425C38.6863 24.1709 36.4008 26.4671 33.5856 26.4671Z" fill="white"/>
<path d="M65.5973 10.7739H62.5854C61.9648 10.7739 61.4578 11.2833 61.4578 11.9068V12.287C59.9518 11.4278 58.2112 10.9336 56.3571 10.9336C50.6434 10.9336 45.9893 15.602 45.9893 21.3501C45.9893 27.0982 50.6359 31.7667 56.3571 31.7667C58.2112 31.7667 59.9518 31.2724 61.4578 30.4133V35.6519C61.4578 38.4804 59.1345 40.769 56.3117 40.7081C53.6024 40.6473 51.3926 38.2751 51.3926 35.5531V34.367C51.3926 33.7435 50.8856 33.2341 50.265 33.2341H47.2531C46.6325 33.2341 46.1255 33.7435 46.1255 34.367V35.4999C46.1255 41.0503 50.4164 45.7339 55.9333 45.9924C61.8362 46.2662 66.7249 41.5217 66.7249 35.6519V11.9068C66.7249 11.2833 66.2179 10.7739 65.5973 10.7739ZM56.3571 26.4672C53.5495 26.4672 51.2564 24.171 51.2564 21.3425C51.2564 18.5141 53.5419 16.2179 56.3571 16.2179C59.1723 16.2179 61.4578 18.5141 61.4578 21.3425C61.4578 24.171 59.1723 26.4672 56.3571 26.4672Z" fill="white"/>
<path d="M102.899 10.8196C100.976 10.7816 99.1752 11.291 97.6314 12.1882C97.6163 11.5647 97.1093 11.0629 96.4887 11.0629H93.5827C92.947 11.0629 92.4399 11.5799 92.4399 12.211V44.3198C92.4399 44.9585 92.9546 45.4679 93.5827 45.4679H96.4887C97.1244 45.4679 97.6314 44.9509 97.6314 44.3198V30.018C99.1298 30.8847 100.863 31.3866 102.709 31.3866C108.499 31.3866 113.176 26.5356 112.933 20.6735C112.714 15.3056 108.241 10.9261 102.899 10.8272V10.8196ZM102.709 26.1555C99.932 26.1555 97.6768 23.8897 97.6768 21.0993C97.6768 18.3089 99.932 16.0431 102.709 16.0431C105.487 16.0431 107.742 18.3089 107.742 21.0993C107.742 23.8897 105.487 26.1555 102.709 26.1555Z" fill="white"/>
<path d="M124.959 10.8196C119.313 10.8196 114.727 15.4348 114.727 21.0992C114.727 26.7637 119.321 31.3789 124.959 31.3789C130.597 31.3789 135.19 26.7637 135.19 21.0992C135.19 15.4348 130.597 10.8196 124.959 10.8196ZM124.959 26.1554C122.181 26.1554 119.926 23.8897 119.926 21.0992C119.926 18.3088 122.181 16.0431 124.959 16.0431C127.736 16.0431 129.991 18.3088 129.991 21.0992C129.991 23.8897 127.736 26.1554 124.959 26.1554Z" fill="white"/>
<path d="M147.2 10.8196C141.555 10.8196 136.969 15.4348 136.969 21.0992C136.969 26.7637 141.562 31.3789 147.2 31.3789C152.838 31.3789 157.432 26.7637 157.432 21.0992C157.432 15.4348 152.838 10.8196 147.2 10.8196ZM147.2 26.1554C144.423 26.1554 142.168 23.8897 142.168 21.0992C142.168 18.3088 144.423 16.0431 147.2 16.0431C149.978 16.0431 152.233 18.3088 152.233 21.0992C152.233 23.8897 149.978 26.1554 147.2 26.1554Z" fill="white"/>
<path d="M163.857 0H160.944C160.312 0 159.801 0.514021 159.801 1.1481V30.2764C159.801 30.9104 160.312 31.4245 160.944 31.4245H163.857C164.488 31.4245 165 30.9104 165 30.2764V1.1481C165 0.514021 164.488 0 163.857 0Z" fill="white"/>
<path d="M19.6005 10.6523H16.5885C15.968 10.6523 15.4609 11.1618 15.4609 11.7852V12.1654C13.955 11.3062 12.2144 10.812 10.3603 10.812C4.64661 10.812 0 15.488 0 21.2285C0 26.969 4.64661 31.6451 10.3678 31.6451C12.2219 31.6451 13.9625 31.1509 15.4685 30.2917V35.5304C15.4685 38.3588 13.1452 40.6474 10.3224 40.5866C7.61317 40.5257 5.40339 38.1535 5.40339 35.4315V34.2454C5.40339 33.6219 4.89634 33.1125 4.27579 33.1125H1.25625C0.635692 33.1125 0.128652 33.6219 0.128652 34.2454V35.3783C0.128652 40.9287 4.41958 45.6123 9.93648 45.8709C15.8393 46.1446 20.7281 41.4001 20.7281 35.5304V11.7852C20.7281 11.1618 20.2211 10.6523 19.6005 10.6523ZM10.3603 26.3456C7.55263 26.3456 5.2596 24.0494 5.2596 21.2209C5.2596 18.3925 7.54506 16.0963 10.3603 16.0963C13.1755 16.0963 15.4609 18.3925 15.4609 21.2209C15.4609 24.0494 13.1755 26.3456 10.3603 26.3456Z" fill="white"/>
<path d="M81.5052 36.0244L77.7364 35.9788C77.2899 35.9788 76.9191 36.3361 76.9115 36.7847L76.8888 38.6779C76.8737 40.1758 78.0618 41.3999 79.5527 41.4151C81.0435 41.4303 82.2619 40.2366 82.2771 38.7388L82.2998 36.8455C82.2998 36.3969 81.9441 36.0244 81.4976 36.0168L81.5052 36.0244Z" fill="white"/>
<path d="M79.0834 10.3024C73.8313 10.5609 69.5026 14.8644 69.1923 20.1334C69.0031 23.3116 70.2442 26.2161 72.3329 28.2614L72.3632 28.2994L73.0821 28.9305L76.1016 31.584C76.4271 31.8729 76.8433 32.025 77.2747 32.025H81.9137C82.3451 32.025 82.7613 31.8653 83.0867 31.584L86.2122 28.8316L86.3106 28.748L86.7117 28.3906L86.7344 28.3754C88.755 26.4594 90.0188 23.7526 90.0188 20.7569C90.0188 14.8035 85.0543 9.99823 79.0758 10.2948L79.0834 10.3024ZM79.598 15.8604C82.2845 15.8604 84.4716 18.0577 84.4716 20.7645C84.4716 23.4713 82.2845 25.661 79.598 25.661C76.9114 25.661 74.7243 23.4637 74.7243 20.7645C74.7243 18.0653 76.9114 15.8604 79.598 15.8604Z" fill="white"/>
</g>
<defs>
<clipPath id="clip0_2878_3903">
<rect width="165" height="46" fill="white"/>
</clipPath>
</defs>
</svg>
